<svg width="1920" height="662" viewBox="0 0 1920 662" fill="none" xmlns="http://www.w3.org/2000/svg">
<rect x="800.5" y="171.5" width="319" height="319" rx="159.5" stroke="#181717"/>
<path d="M941.66 324V307.2H952.052V308.856H943.676V314.712H951.332V316.344H943.676V322.344H952.052V324H941.66ZM954.487 324V307.2H959.911C961.223 307.2 962.295 307.416 963.127 307.848C963.959 308.28 964.575 308.872 964.975 309.624C965.375 310.376 965.575 311.208 965.575 312.12C965.575 313.176 965.287 314.128 964.711 314.976C964.151 315.824 963.271 316.424 962.071 316.776L965.743 324H963.367L959.959 317.064H959.815H956.503V324H954.487ZM956.503 315.48H959.767C961.063 315.48 962.007 315.168 962.599 314.544C963.191 313.92 963.487 313.12 963.487 312.144C963.487 311.152 963.191 310.368 962.599 309.792C962.023 309.2 961.071 308.904 959.743 308.904H956.503V315.48ZM967.993 324V307.2H973.513C974.825 307.2 975.905 307.416 976.753 307.848C977.601 308.28 978.225 308.864 978.625 309.6C979.041 310.336 979.249 311.168 979.249 312.096C979.249 313.008 979.049 313.832 978.649 314.568C978.249 315.304 977.625 315.896 976.777 316.344C975.929 316.776 974.841 316.992 973.513 316.992H970.009V324H967.993ZM970.009 315.288H973.465C974.809 315.288 975.761 315.008 976.321 314.448C976.897 313.872 977.185 313.088 977.185 312.096C977.185 311.088 976.897 310.304 976.321 309.744C975.761 309.168 974.809 308.88 973.465 308.88H970.009V315.288ZM927.901 355.288C926.669 355.288 925.597 355.064 924.685 354.616C923.773 354.168 923.069 353.544 922.573 352.744C922.077 351.944 921.829 351.016 921.829 349.96H923.941C923.941 350.616 924.093 351.224 924.397 351.784C924.701 352.328 925.141 352.768 925.717 353.104C926.309 353.424 927.037 353.584 927.901 353.584C929.037 353.584 929.917 353.312 930.541 352.768C931.165 352.224 931.477 351.544 931.477 350.728C931.477 350.056 931.333 349.52 931.045 349.12C930.757 348.704 930.365 348.368 929.869 348.112C929.389 347.856 928.829 347.632 928.189 347.44C927.565 347.248 926.909 347.032 926.221 346.792C924.925 346.344 923.965 345.792 923.341 345.136C922.717 344.464 922.405 343.592 922.405 342.52C922.389 341.624 922.597 340.832 923.029 340.144C923.461 339.44 924.069 338.896 924.853 338.512C925.653 338.112 926.597 337.912 927.685 337.912C928.757 337.912 929.685 338.112 930.469 338.512C931.269 338.912 931.885 339.464 932.317 340.168C932.765 340.872 932.997 341.672 933.013 342.568H930.901C930.901 342.104 930.781 341.648 930.541 341.2C930.301 340.736 929.933 340.36 929.437 340.072C928.957 339.784 928.349 339.64 927.613 339.64C926.701 339.624 925.949 339.856 925.357 340.336C924.781 340.816 924.493 341.48 924.493 342.328C924.493 343.048 924.693 343.6 925.093 343.984C925.509 344.368 926.085 344.688 926.821 344.944C927.557 345.184 928.405 345.464 929.365 345.784C930.165 346.072 930.885 346.408 931.525 346.792C932.165 347.176 932.661 347.672 933.013 348.28C933.381 348.888 933.565 349.664 933.565 350.608C933.565 351.408 933.357 352.168 932.941 352.888C932.525 353.592 931.893 354.168 931.045 354.616C930.213 355.064 929.165 355.288 927.901 355.288ZM936.88 360.28L939.832 353.848H939.136L934.408 343.096H936.592L940.528 352.36L944.704 343.096H946.792L938.992 360.28H936.88ZM952.056 355.288C950.632 355.288 949.448 354.928 948.504 354.208C947.56 353.488 947.008 352.512 946.848 351.28H948.912C949.04 351.904 949.368 352.448 949.896 352.912C950.44 353.36 951.168 353.584 952.08 353.584C952.928 353.584 953.552 353.408 953.952 353.056C954.352 352.688 954.552 352.256 954.552 351.76C954.552 351.04 954.288 350.56 953.76 350.32C953.248 350.08 952.52 349.864 951.576 349.672C950.936 349.544 950.296 349.36 949.656 349.12C949.016 348.88 948.48 348.544 948.048 348.112C947.616 347.664 947.4 347.08 947.4 346.36C947.4 345.32 947.784 344.472 948.552 343.816C949.336 343.144 950.392 342.808 951.72 342.808C952.984 342.808 954.016 343.128 954.816 343.768C955.632 344.392 956.104 345.288 956.232 346.456H954.24C954.16 345.848 953.896 345.376 953.448 345.04C953.016 344.688 952.432 344.512 951.696 344.512C950.976 344.512 950.416 344.664 950.016 344.968C949.632 345.272 949.44 345.672 949.44 346.168C949.44 346.648 949.688 347.024 950.184 347.296C950.696 347.568 951.384 347.8 952.248 347.992C952.984 348.152 953.68 348.352 954.336 348.592C955.008 348.816 955.552 349.16 955.968 349.624C956.4 350.072 956.616 350.728 956.616 351.592C956.632 352.664 956.224 353.552 955.392 354.256C954.576 354.944 953.464 355.288 952.056 355.288ZM962.941 355C961.853 355 960.997 354.736 960.373 354.208C959.749 353.68 959.437 352.728 959.437 351.352V344.8H957.373V343.096H959.437L959.701 340.24H961.453V343.096H964.957V344.8H961.453V351.352C961.453 352.104 961.605 352.616 961.909 352.888C962.213 353.144 962.749 353.272 963.517 353.272H964.765V355H962.941ZM971.823 355.288C970.687 355.288 969.679 355.032 968.799 354.52C967.919 353.992 967.223 353.264 966.711 352.336C966.215 351.408 965.967 350.312 965.967 349.048C965.967 347.8 966.215 346.712 966.711 345.784C967.207 344.84 967.895 344.112 968.775 343.6C969.671 343.072 970.703 342.808 971.871 342.808C973.023 342.808 974.015 343.072 974.847 343.6C975.695 344.112 976.343 344.792 976.791 345.64C977.239 346.488 977.463 347.4 977.463 348.376C977.463 348.552 977.455 348.728 977.439 348.904C977.439 349.08 977.439 349.28 977.439 349.504H967.959C968.007 350.416 968.215 351.176 968.583 351.784C968.967 352.376 969.439 352.824 969.999 353.128C970.575 353.432 971.183 353.584 971.823 353.584C972.655 353.584 973.351 353.392 973.911 353.008C974.471 352.624 974.879 352.104 975.135 351.448H977.127C976.807 352.552 976.191 353.472 975.279 354.208C974.383 354.928 973.231 355.288 971.823 355.288ZM971.823 344.512C970.863 344.512 970.007 344.808 969.255 345.4C968.519 345.976 968.095 346.824 967.983 347.944H975.471C975.423 346.872 975.055 346.032 974.367 345.424C973.679 344.816 972.831 344.512 971.823 344.512ZM979.415 355V343.096H981.239L981.383 344.824C981.767 344.184 982.279 343.688 982.919 343.336C983.559 342.984 984.279 342.808 985.079 342.808C986.023 342.808 986.831 343 987.503 343.384C988.191 343.768 988.719 344.352 989.087 345.136C989.503 344.416 990.071 343.848 990.791 343.432C991.527 343.016 992.319 342.808 993.167 342.808C994.591 342.808 995.727 343.24 996.575 344.104C997.423 344.952 997.847 346.264 997.847 348.04V355H995.855V348.256C995.855 347.024 995.607 346.096 995.111 345.472C994.615 344.848 993.903 344.536 992.975 344.536C992.015 344.536 991.215 344.912 990.575 345.664C989.951 346.4 989.639 347.456 989.639 348.832V355H987.623V348.256C987.623 347.024 987.375 346.096 986.879 345.472C986.383 344.848 985.671 344.536 984.743 344.536C983.799 344.536 983.007 344.912 982.367 345.664C981.743 346.4 981.431 347.456 981.431 348.832V355H979.415Z" fill="#181717"/>
<rect x="1017" y="68" width="200" height="200" rx="100" fill="#181717"/>
<path d="M1058.34 161L1064.54 144.2H1066.67L1072.84 161H1070.7L1069.17 156.68H1062.02L1060.46 161H1058.34ZM1062.62 155.048H1068.57L1065.59 146.744L1062.62 155.048ZM1074.5 161V149.096H1076.32L1076.44 151.232C1076.82 150.48 1077.38 149.888 1078.1 149.456C1078.82 149.024 1079.63 148.808 1080.54 148.808C1081.95 148.808 1083.07 149.24 1083.9 150.104C1084.75 150.952 1085.18 152.264 1085.18 154.04V161H1083.16V154.256C1083.16 151.776 1082.14 150.536 1080.09 150.536C1079.06 150.536 1078.21 150.912 1077.52 151.664C1076.85 152.4 1076.51 153.456 1076.51 154.832V161H1074.5ZM1091.47 161.288C1090.48 161.288 1089.66 161.12 1089 160.784C1088.34 160.448 1087.86 160 1087.54 159.44C1087.22 158.88 1087.06 158.272 1087.06 157.616C1087.06 156.4 1087.52 155.464 1088.45 154.808C1089.38 154.152 1090.64 153.824 1092.24 153.824H1095.46V153.68C1095.46 152.64 1095.18 151.856 1094.64 151.328C1094.1 150.784 1093.37 150.512 1092.46 150.512C1091.67 150.512 1090.99 150.712 1090.42 151.112C1089.86 151.496 1089.5 152.064 1089.36 152.816H1087.3C1087.38 151.952 1087.66 151.224 1088.16 150.632C1088.67 150.04 1089.3 149.592 1090.06 149.288C1090.81 148.968 1091.61 148.808 1092.46 148.808C1094.12 148.808 1095.37 149.256 1096.2 150.152C1097.05 151.032 1097.47 152.208 1097.47 153.68V161H1095.67L1095.55 158.864C1095.22 159.536 1094.72 160.112 1094.06 160.592C1093.42 161.056 1092.56 161.288 1091.47 161.288ZM1091.78 159.584C1092.55 159.584 1093.21 159.384 1093.75 158.984C1094.31 158.584 1094.74 158.064 1095.02 157.424C1095.31 156.784 1095.46 156.112 1095.46 155.408V155.384H1092.41C1091.22 155.384 1090.38 155.592 1089.89 156.008C1089.41 156.408 1089.17 156.912 1089.17 157.52C1089.17 158.144 1089.39 158.648 1089.84 159.032C1090.3 159.4 1090.95 159.584 1091.78 159.584ZM1099.78 161V143.72H1101.79V161H1099.78ZM1105.67 166.28L1108.62 159.848H1107.93L1103.2 149.096H1105.38L1109.32 158.36L1113.5 149.096H1115.58L1107.78 166.28H1105.67ZM1121.7 161C1120.61 161 1119.75 160.736 1119.13 160.208C1118.5 159.68 1118.19 158.728 1118.19 157.352V150.8H1116.13V149.096H1118.19L1118.46 146.24H1120.21V149.096H1123.71V150.8H1120.21V157.352C1120.21 158.104 1120.36 158.616 1120.66 158.888C1120.97 159.144 1121.5 159.272 1122.27 159.272H1123.52V161H1121.7ZM1126.78 146.456C1126.38 146.456 1126.04 146.328 1125.77 146.072C1125.51 145.8 1125.39 145.464 1125.39 145.064C1125.39 144.68 1125.51 144.36 1125.77 144.104C1126.04 143.848 1126.38 143.72 1126.78 143.72C1127.16 143.72 1127.49 143.848 1127.76 144.104C1128.03 144.36 1128.17 144.68 1128.17 145.064C1128.17 145.464 1128.03 145.8 1127.76 146.072C1127.49 146.328 1127.16 146.456 1126.78 146.456ZM1125.77 161V149.096H1127.79V161H1125.77ZM1136.05 161.288C1134.91 161.288 1133.89 161.032 1132.98 160.52C1132.08 159.992 1131.37 159.264 1130.84 158.336C1130.33 157.392 1130.07 156.296 1130.07 155.048C1130.07 153.8 1130.33 152.712 1130.84 151.784C1131.37 150.84 1132.08 150.112 1132.98 149.6C1133.89 149.072 1134.91 148.808 1136.05 148.808C1137.46 148.808 1138.64 149.176 1139.6 149.912C1140.58 150.648 1141.19 151.632 1141.45 152.864H1139.38C1139.22 152.128 1138.83 151.56 1138.21 151.16C1137.58 150.744 1136.86 150.536 1136.02 150.536C1135.35 150.536 1134.72 150.704 1134.13 151.04C1133.54 151.376 1133.06 151.88 1132.69 152.552C1132.32 153.224 1132.14 154.056 1132.14 155.048C1132.14 156.04 1132.32 156.872 1132.69 157.544C1133.06 158.216 1133.54 158.728 1134.13 159.08C1134.72 159.416 1135.35 159.584 1136.02 159.584C1136.86 159.584 1137.58 159.384 1138.21 158.984C1138.83 158.568 1139.22 157.984 1139.38 157.232H1141.45C1141.21 158.432 1140.6 159.408 1139.62 160.16C1138.65 160.912 1137.46 161.288 1136.05 161.288ZM1148.1 161.288C1146.68 161.288 1145.49 160.928 1144.55 160.208C1143.61 159.488 1143.05 158.512 1142.89 157.28H1144.96C1145.09 157.904 1145.41 158.448 1145.94 158.912C1146.49 159.36 1147.21 159.584 1148.13 159.584C1148.97 159.584 1149.6 159.408 1150 159.056C1150.4 158.688 1150.6 158.256 1150.6 157.76C1150.6 157.04 1150.33 156.56 1149.81 156.32C1149.29 156.08 1148.57 155.864 1147.62 155.672C1146.98 155.544 1146.34 155.36 1145.7 155.12C1145.06 154.88 1144.53 154.544 1144.09 154.112C1143.66 153.664 1143.45 153.08 1143.45 152.36C1143.45 151.32 1143.83 150.472 1144.6 149.816C1145.38 149.144 1146.44 148.808 1147.77 148.808C1149.03 148.808 1150.06 149.128 1150.86 149.768C1151.68 150.392 1152.15 151.288 1152.28 152.456H1150.29C1150.21 151.848 1149.94 151.376 1149.49 151.04C1149.06 150.688 1148.48 150.512 1147.74 150.512C1147.02 150.512 1146.46 150.664 1146.06 150.968C1145.68 151.272 1145.49 151.672 1145.49 152.168C1145.49 152.648 1145.73 153.024 1146.23 153.296C1146.74 153.568 1147.43 153.8 1148.29 153.992C1149.03 154.152 1149.73 154.352 1150.38 154.592C1151.05 154.816 1151.6 155.16 1152.01 155.624C1152.45 156.072 1152.66 156.728 1152.66 157.592C1152.68 158.664 1152.27 159.552 1151.44 160.256C1150.62 160.944 1149.51 161.288 1148.1 161.288ZM1165.54 161.288C1164.39 161.288 1163.37 161.08 1162.49 160.664C1161.63 160.232 1160.95 159.64 1160.45 158.888C1159.97 158.12 1159.73 157.216 1159.73 156.176C1159.73 155.04 1160.06 154.032 1160.72 153.152C1161.39 152.256 1162.36 151.552 1163.62 151.04C1163.08 150.448 1162.69 149.888 1162.45 149.36C1162.21 148.816 1162.09 148.232 1162.09 147.608C1162.09 146.536 1162.46 145.656 1163.21 144.968C1163.98 144.264 1165.03 143.912 1166.36 143.912C1167.22 143.912 1167.97 144.08 1168.61 144.416C1169.25 144.736 1169.75 145.184 1170.1 145.76C1170.45 146.336 1170.61 146.992 1170.58 147.728H1168.59C1168.61 147.008 1168.38 146.464 1167.92 146.096C1167.47 145.728 1166.95 145.544 1166.36 145.544C1165.64 145.544 1165.08 145.736 1164.68 146.12C1164.28 146.504 1164.08 146.992 1164.08 147.584C1164.08 148.096 1164.21 148.592 1164.49 149.072C1164.77 149.552 1165.2 150.088 1165.76 150.68L1171.06 156.032C1171.53 155.36 1172.03 154.552 1172.57 153.608L1173.32 152.312H1175.45L1174.4 154.184C1173.69 155.448 1173.02 156.504 1172.38 157.352L1176.01 161H1173.46L1171.23 158.744C1170.38 159.656 1169.5 160.312 1168.59 160.712C1167.68 161.096 1166.66 161.288 1165.54 161.288ZM1161.75 156.104C1161.75 157.096 1162.1 157.92 1162.81 158.576C1163.51 159.232 1164.43 159.56 1165.57 159.56C1166.41 159.56 1167.18 159.4 1167.87 159.08C1168.57 158.744 1169.26 158.2 1169.93 157.448L1164.85 152.288C1163.79 152.704 1163.01 153.232 1162.49 153.872C1162 154.512 1161.75 155.256 1161.75 156.104ZM1068.08 192V175.2H1073.5C1074.81 175.2 1075.89 175.416 1076.72 175.848C1077.55 176.28 1078.17 176.872 1078.57 177.624C1078.97 178.376 1079.17 179.208 1079.17 180.12C1079.17 181.176 1078.88 182.128 1078.3 182.976C1077.74 183.824 1076.86 184.424 1075.66 184.776L1079.33 192H1076.96L1073.55 185.064H1073.41H1070.09V192H1068.08ZM1070.09 183.48H1073.36C1074.65 183.48 1075.6 183.168 1076.19 182.544C1076.78 181.92 1077.08 181.12 1077.08 180.144C1077.08 179.152 1076.78 178.368 1076.19 177.792C1075.61 177.2 1074.66 176.904 1073.33 176.904H1070.09V183.48ZM1086.09 192.288C1084.95 192.288 1083.95 192.032 1083.07 191.52C1082.19 190.992 1081.49 190.264 1080.98 189.336C1080.48 188.408 1080.23 187.312 1080.23 186.048C1080.23 184.8 1080.48 183.712 1080.98 182.784C1081.47 181.84 1082.16 181.112 1083.04 180.6C1083.94 180.072 1084.97 179.808 1086.14 179.808C1087.29 179.808 1088.28 180.072 1089.11 180.6C1089.96 181.112 1090.61 181.792 1091.06 182.64C1091.51 183.488 1091.73 184.4 1091.73 185.376C1091.73 185.552 1091.72 185.728 1091.71 185.904C1091.71 186.08 1091.71 186.28 1091.71 186.504H1082.23C1082.27 187.416 1082.48 188.176 1082.85 188.784C1083.23 189.376 1083.71 189.824 1084.27 190.128C1084.84 190.432 1085.45 190.584 1086.09 190.584C1086.92 190.584 1087.62 190.392 1088.18 190.008C1088.74 189.624 1089.15 189.104 1089.4 188.448H1091.39C1091.07 189.552 1090.46 190.472 1089.55 191.208C1088.65 191.928 1087.5 192.288 1086.09 192.288ZM1086.09 181.512C1085.13 181.512 1084.27 181.808 1083.52 182.4C1082.79 182.976 1082.36 183.824 1082.25 184.944H1089.74C1089.69 183.872 1089.32 183.032 1088.63 182.424C1087.95 181.816 1087.1 181.512 1086.09 181.512ZM1093.68 197.28V180.096H1095.51L1095.7 182.064C1096.08 181.488 1096.63 180.968 1097.33 180.504C1098.05 180.04 1098.96 179.808 1100.07 179.808C1101.25 179.808 1102.28 180.08 1103.16 180.624C1104.04 181.168 1104.72 181.912 1105.2 182.856C1105.7 183.8 1105.95 184.872 1105.95 186.072C1105.95 187.272 1105.7 188.344 1105.2 189.288C1104.72 190.216 1104.03 190.952 1103.14 191.496C1102.26 192.024 1101.23 192.288 1100.04 192.288C1099.07 192.288 1098.19 192.088 1097.43 191.688C1096.67 191.288 1096.1 190.728 1095.7 190.008V197.28H1093.68ZM1099.83 190.536C1100.63 190.536 1101.33 190.352 1101.94 189.984C1102.55 189.6 1103.03 189.072 1103.38 188.4C1103.73 187.728 1103.91 186.944 1103.91 186.048C1103.91 185.152 1103.73 184.368 1103.38 183.696C1103.03 183.024 1102.55 182.504 1101.94 182.136C1101.33 181.752 1100.63 181.56 1099.83 181.56C1099.03 181.56 1098.32 181.752 1097.71 182.136C1097.11 182.504 1096.63 183.024 1096.27 183.696C1095.92 184.368 1095.75 185.152 1095.75 186.048C1095.75 186.944 1095.92 187.728 1096.27 188.4C1096.63 189.072 1097.11 189.6 1097.71 189.984C1098.32 190.352 1099.03 190.536 1099.83 190.536ZM1113.46 192.288C1112.34 192.288 1111.33 192.032 1110.43 191.52C1109.54 191.008 1108.82 190.288 1108.3 189.36C1107.78 188.416 1107.53 187.312 1107.53 186.048C1107.53 184.784 1107.79 183.688 1108.32 182.76C1108.85 181.816 1109.56 181.088 1110.46 180.576C1111.37 180.064 1112.38 179.808 1113.5 179.808C1114.62 179.808 1115.63 180.064 1116.53 180.576C1117.42 181.088 1118.13 181.816 1118.64 182.76C1119.17 183.688 1119.43 184.784 1119.43 186.048C1119.43 187.312 1119.17 188.416 1118.64 189.36C1118.11 190.288 1117.39 191.008 1116.48 191.52C1115.58 192.032 1114.58 192.288 1113.46 192.288ZM1113.46 190.56C1114.14 190.56 1114.78 190.392 1115.38 190.056C1115.97 189.72 1116.45 189.216 1116.82 188.544C1117.18 187.872 1117.37 187.04 1117.37 186.048C1117.37 185.056 1117.18 184.224 1116.82 183.552C1116.46 182.88 1115.99 182.376 1115.4 182.04C1114.81 181.704 1114.18 181.536 1113.5 181.536C1112.82 181.536 1112.18 181.704 1111.58 182.04C1110.99 182.376 1110.51 182.88 1110.14 183.552C1109.78 184.224 1109.59 185.056 1109.59 186.048C1109.59 187.04 1109.78 187.872 1110.14 188.544C1110.51 189.216 1110.98 189.72 1111.56 190.056C1112.15 190.392 1112.78 190.56 1113.46 190.56ZM1121.52 192V180.096H1123.34L1123.51 182.376C1123.88 181.592 1124.44 180.968 1125.19 180.504C1125.94 180.04 1126.87 179.808 1127.97 179.808V181.92H1127.42C1126.72 181.92 1126.07 182.048 1125.48 182.304C1124.88 182.544 1124.41 182.96 1124.06 183.552C1123.71 184.144 1123.53 184.96 1123.53 186V192H1121.52ZM1134.22 192C1133.13 192 1132.27 191.736 1131.65 191.208C1131.03 190.68 1130.71 189.728 1130.71 188.352V181.8H1128.65V180.096H1130.71L1130.98 177.24H1132.73V180.096H1136.23V181.8H1132.73V188.352C1132.73 189.104 1132.88 189.616 1133.19 189.888C1133.49 190.144 1134.03 190.272 1134.79 190.272H1136.04V192H1134.22ZM1139.3 177.456C1138.9 177.456 1138.56 177.328 1138.29 177.072C1138.04 176.8 1137.91 176.464 1137.91 176.064C1137.91 175.68 1138.04 175.36 1138.29 175.104C1138.56 174.848 1138.9 174.72 1139.3 174.72C1139.68 174.72 1140.01 174.848 1140.28 175.104C1140.56 175.36 1140.69 175.68 1140.69 176.064C1140.69 176.464 1140.56 176.8 1140.28 177.072C1140.01 177.328 1139.68 177.456 1139.3 177.456ZM1138.29 192V180.096H1140.31V192H1138.29ZM1143.1 192V180.096H1144.92L1145.04 182.232C1145.43 181.48 1145.98 180.888 1146.7 180.456C1147.42 180.024 1148.23 179.808 1149.15 179.808C1150.55 179.808 1151.67 180.24 1152.51 181.104C1153.35 181.952 1153.78 183.264 1153.78 185.04V192H1151.76V185.256C1151.76 182.776 1150.74 181.536 1148.69 181.536C1147.67 181.536 1146.81 181.912 1146.12 182.664C1145.45 183.4 1145.11 184.456 1145.11 185.832V192H1143.1ZM1160.82 188.256C1160.14 188.256 1159.53 188.168 1158.97 187.992L1157.77 189.12C1157.94 189.248 1158.16 189.36 1158.42 189.456C1158.69 189.536 1159.07 189.616 1159.57 189.696C1160.06 189.76 1160.76 189.832 1161.66 189.912C1163.26 190.024 1164.4 190.392 1165.09 191.016C1165.78 191.64 1166.12 192.456 1166.12 193.464C1166.12 194.152 1165.93 194.808 1165.54 195.432C1165.18 196.056 1164.6 196.568 1163.82 196.968C1163.05 197.368 1162.06 197.568 1160.84 197.568C1159.77 197.568 1158.82 197.424 1157.98 197.136C1157.15 196.864 1156.5 196.44 1156.04 195.864C1155.58 195.304 1155.34 194.592 1155.34 193.728C1155.34 193.28 1155.46 192.792 1155.7 192.264C1155.94 191.752 1156.39 191.264 1157.05 190.8C1156.7 190.656 1156.39 190.504 1156.14 190.344C1155.9 190.168 1155.67 189.976 1155.46 189.768V189.216L1157.5 187.2C1156.56 186.4 1156.09 185.344 1156.09 184.032C1156.09 183.248 1156.27 182.536 1156.64 181.896C1157.01 181.256 1157.54 180.752 1158.25 180.384C1158.95 180 1159.81 179.808 1160.82 179.808C1161.5 179.808 1162.13 179.904 1162.69 180.096H1167.08V181.608L1164.85 181.704C1165.31 182.376 1165.54 183.152 1165.54 184.032C1165.54 184.816 1165.35 185.528 1164.97 186.168C1164.6 186.808 1164.06 187.32 1163.36 187.704C1162.67 188.072 1161.82 188.256 1160.82 188.256ZM1160.82 186.6C1161.66 186.6 1162.34 186.384 1162.83 185.952C1163.34 185.504 1163.6 184.864 1163.6 184.032C1163.6 183.216 1163.34 182.592 1162.83 182.16C1162.34 181.712 1161.66 181.488 1160.82 181.488C1159.95 181.488 1159.26 181.712 1158.75 182.16C1158.26 182.592 1158.01 183.216 1158.01 184.032C1158.01 184.864 1158.26 185.504 1158.75 185.952C1159.26 186.384 1159.95 186.6 1160.82 186.6ZM1157.31 193.536C1157.31 194.336 1157.65 194.928 1158.32 195.312C1158.99 195.712 1159.83 195.912 1160.84 195.912C1161.83 195.912 1162.62 195.696 1163.22 195.264C1163.82 194.832 1164.13 194.256 1164.13 193.536C1164.13 193.024 1163.92 192.576 1163.5 192.192C1163.09 191.824 1162.32 191.608 1161.2 191.544C1160.32 191.48 1159.56 191.4 1158.92 191.304C1158.26 191.656 1157.83 192.032 1157.62 192.432C1157.42 192.848 1157.31 193.216 1157.31 193.536Z" fill="white"/>
<rect x="683" y="68" width="200" height="200" rx="100" fill="#181717"/>
<path d="M732.508 161V144.2H742.732V145.856H734.524V151.76H741.508V153.392H734.524V161H732.508ZM745.712 146.456C745.312 146.456 744.976 146.328 744.704 146.072C744.448 145.8 744.32 145.464 744.32 145.064C744.32 144.68 744.448 144.36 744.704 144.104C744.976 143.848 745.312 143.72 745.712 143.72C746.096 143.72 746.424 143.848 746.696 144.104C746.968 144.36 747.104 144.68 747.104 145.064C747.104 145.464 746.968 145.8 746.696 146.072C746.424 146.328 746.096 146.456 745.712 146.456ZM744.704 161V149.096H746.72V161H744.704ZM749.51 161V149.096H751.334L751.454 151.232C751.838 150.48 752.39 149.888 753.11 149.456C753.83 149.024 754.646 148.808 755.558 148.808C756.966 148.808 758.086 149.24 758.918 150.104C759.766 150.952 760.19 152.264 760.19 154.04V161H758.174V154.256C758.174 151.776 757.15 150.536 755.102 150.536C754.078 150.536 753.222 150.912 752.534 151.664C751.862 152.4 751.526 153.456 751.526 154.832V161H749.51ZM766.484 161.288C765.492 161.288 764.668 161.12 764.012 160.784C763.356 160.448 762.868 160 762.548 159.44C762.228 158.88 762.068 158.272 762.068 157.616C762.068 156.4 762.532 155.464 763.46 154.808C764.388 154.152 765.652 153.824 767.252 153.824H770.468V153.68C770.468 152.64 770.196 151.856 769.652 151.328C769.108 150.784 768.38 150.512 767.468 150.512C766.684 150.512 766.004 150.712 765.428 151.112C764.868 151.496 764.516 152.064 764.372 152.816H762.308C762.388 151.952 762.676 151.224 763.172 150.632C763.684 150.04 764.316 149.592 765.068 149.288C765.82 148.968 766.62 148.808 767.468 148.808C769.132 148.808 770.38 149.256 771.212 150.152C772.06 151.032 772.484 152.208 772.484 153.68V161H770.684L770.564 158.864C770.228 159.536 769.732 160.112 769.076 160.592C768.436 161.056 767.572 161.288 766.484 161.288ZM766.796 159.584C767.564 159.584 768.22 159.384 768.764 158.984C769.324 158.584 769.748 158.064 770.036 157.424C770.324 156.784 770.468 156.112 770.468 155.408V155.384H767.42C766.236 155.384 765.396 155.592 764.9 156.008C764.42 156.408 764.18 156.912 764.18 157.52C764.18 158.144 764.404 158.648 764.852 159.032C765.316 159.4 765.964 159.584 766.796 159.584ZM774.789 161V149.096H776.613L776.733 151.232C777.117 150.48 777.669 149.888 778.389 149.456C779.109 149.024 779.925 148.808 780.837 148.808C782.245 148.808 783.365 149.24 784.197 150.104C785.045 150.952 785.469 152.264 785.469 154.04V161H783.453V154.256C783.453 151.776 782.429 150.536 780.381 150.536C779.357 150.536 778.501 150.912 777.813 151.664C777.141 152.4 776.805 153.456 776.805 154.832V161H774.789ZM793.275 161.288C792.139 161.288 791.115 161.032 790.203 160.52C789.307 159.992 788.595 159.264 788.067 158.336C787.555 157.392 787.299 156.296 787.299 155.048C787.299 153.8 787.555 152.712 788.067 151.784C788.595 150.84 789.307 150.112 790.203 149.6C791.115 149.072 792.139 148.808 793.275 148.808C794.683 148.808 795.867 149.176 796.827 149.912C797.803 150.648 798.419 151.632 798.675 152.864H796.611C796.451 152.128 796.059 151.56 795.435 151.16C794.811 150.744 794.083 150.536 793.251 150.536C792.579 150.536 791.947 150.704 791.355 151.04C790.763 151.376 790.283 151.88 789.915 152.552C789.547 153.224 789.363 154.056 789.363 155.048C789.363 156.04 789.547 156.872 789.915 157.544C790.283 158.216 790.763 158.728 791.355 159.08C791.947 159.416 792.579 159.584 793.251 159.584C794.083 159.584 794.811 159.384 795.435 158.984C796.059 158.568 796.451 157.984 796.611 157.232H798.675C798.435 158.432 797.827 159.408 796.851 160.16C795.875 160.912 794.683 161.288 793.275 161.288ZM806.123 161.288C804.987 161.288 803.979 161.032 803.099 160.52C802.219 159.992 801.523 159.264 801.011 158.336C800.515 157.408 800.267 156.312 800.267 155.048C800.267 153.8 800.515 152.712 801.011 151.784C801.507 150.84 802.195 150.112 803.075 149.6C803.971 149.072 805.003 148.808 806.171 148.808C807.323 148.808 808.315 149.072 809.147 149.6C809.995 150.112 810.643 150.792 811.091 151.64C811.539 152.488 811.763 153.4 811.763 154.376C811.763 154.552 811.755 154.728 811.739 154.904C811.739 155.08 811.739 155.28 811.739 155.504H802.259C802.307 156.416 802.515 157.176 802.883 157.784C803.267 158.376 803.739 158.824 804.299 159.128C804.875 159.432 805.483 159.584 806.123 159.584C806.955 159.584 807.651 159.392 808.211 159.008C808.771 158.624 809.179 158.104 809.435 157.448H811.427C811.107 158.552 810.491 159.472 809.579 160.208C808.683 160.928 807.531 161.288 806.123 161.288ZM806.123 150.512C805.163 150.512 804.307 150.808 803.555 151.4C802.819 151.976 802.395 152.824 802.283 153.944H809.771C809.723 152.872 809.355 152.032 808.667 151.424C807.979 150.816 807.131 150.512 806.123 150.512ZM824.434 161.288C823.282 161.288 822.266 161.08 821.386 160.664C820.522 160.232 819.842 159.64 819.346 158.888C818.866 158.12 818.626 157.216 818.626 156.176C818.626 155.04 818.954 154.032 819.61 153.152C820.282 152.256 821.25 151.552 822.514 151.04C821.97 150.448 821.578 149.888 821.338 149.36C821.098 148.816 820.978 148.232 820.978 147.608C820.978 146.536 821.354 145.656 822.106 144.968C822.874 144.264 823.922 143.912 825.25 143.912C826.114 143.912 826.866 144.08 827.506 144.416C828.146 144.736 828.642 145.184 828.994 145.76C829.346 146.336 829.506 146.992 829.474 147.728H827.482C827.498 147.008 827.274 146.464 826.81 146.096C826.362 145.728 825.842 145.544 825.25 145.544C824.53 145.544 823.97 145.736 823.57 146.12C823.17 146.504 822.97 146.992 822.97 147.584C822.97 148.096 823.106 148.592 823.378 149.072C823.666 149.552 824.09 150.088 824.65 150.68L829.954 156.032C830.418 155.36 830.922 154.552 831.466 153.608L832.21 152.312H834.346L833.29 154.184C832.586 155.448 831.914 156.504 831.274 157.352L834.898 161H832.354L830.122 158.744C829.274 159.656 828.394 160.312 827.482 160.712C826.57 161.096 825.554 161.288 824.434 161.288ZM820.642 156.104C820.642 157.096 820.994 157.92 821.698 158.576C822.402 159.232 823.322 159.56 824.458 159.56C825.306 159.56 826.074 159.4 826.762 159.08C827.466 158.744 828.154 158.2 828.826 157.448L823.738 152.288C822.682 152.704 821.898 153.232 821.386 153.872C820.89 154.512 820.642 155.256 820.642 156.104ZM723.796 192L729.988 175.2H732.124L738.292 192H736.156L734.62 187.68H727.468L725.908 192H723.796ZM728.068 186.048H734.02L731.044 177.744L728.068 186.048ZM744.765 192.288C743.629 192.288 742.605 192.032 741.693 191.52C740.797 190.992 740.085 190.264 739.557 189.336C739.045 188.392 738.789 187.296 738.789 186.048C738.789 184.8 739.045 183.712 739.557 182.784C740.085 181.84 740.797 181.112 741.693 180.6C742.605 180.072 743.629 179.808 744.765 179.808C746.173 179.808 747.357 180.176 748.317 180.912C749.293 181.648 749.909 182.632 750.165 183.864H748.101C747.941 183.128 747.549 182.56 746.925 182.16C746.301 181.744 745.573 181.536 744.741 181.536C744.069 181.536 743.437 181.704 742.845 182.04C742.253 182.376 741.773 182.88 741.405 183.552C741.037 184.224 740.853 185.056 740.853 186.048C740.853 187.04 741.037 187.872 741.405 188.544C741.773 189.216 742.253 189.728 742.845 190.08C743.437 190.416 744.069 190.584 744.741 190.584C745.573 190.584 746.301 190.384 746.925 189.984C747.549 189.568 747.941 188.984 748.101 188.232H750.165C749.925 189.432 749.317 190.408 748.341 191.16C747.365 191.912 746.173 192.288 744.765 192.288ZM757.733 192.288C756.597 192.288 755.573 192.032 754.661 191.52C753.765 190.992 753.053 190.264 752.525 189.336C752.013 188.392 751.757 187.296 751.757 186.048C751.757 184.8 752.013 183.712 752.525 182.784C753.053 181.84 753.765 181.112 754.661 180.6C755.573 180.072 756.597 179.808 757.733 179.808C759.141 179.808 760.325 180.176 761.285 180.912C762.261 181.648 762.877 182.632 763.133 183.864H761.069C760.909 183.128 760.517 182.56 759.893 182.16C759.269 181.744 758.541 181.536 757.709 181.536C757.037 181.536 756.405 181.704 755.813 182.04C755.221 182.376 754.741 182.88 754.373 183.552C754.005 184.224 753.821 185.056 753.821 186.048C753.821 187.04 754.005 187.872 754.373 188.544C754.741 189.216 755.221 189.728 755.813 190.08C756.405 190.416 757.037 190.584 757.709 190.584C758.541 190.584 759.269 190.384 759.893 189.984C760.517 189.568 760.909 188.984 761.069 188.232H763.133C762.893 189.432 762.285 190.408 761.309 191.16C760.333 191.912 759.141 192.288 757.733 192.288ZM770.652 192.288C769.532 192.288 768.524 192.032 767.628 191.52C766.732 191.008 766.02 190.288 765.492 189.36C764.98 188.416 764.724 187.312 764.724 186.048C764.724 184.784 764.988 183.688 765.516 182.76C766.044 181.816 766.756 181.088 767.652 180.576C768.564 180.064 769.58 179.808 770.7 179.808C771.82 179.808 772.828 180.064 773.724 180.576C774.62 181.088 775.324 181.816 775.836 182.76C776.364 183.688 776.628 184.784 776.628 186.048C776.628 187.312 776.364 188.416 775.836 189.36C775.308 190.288 774.588 191.008 773.676 191.52C772.78 192.032 771.772 192.288 770.652 192.288ZM770.652 190.56C771.34 190.56 771.98 190.392 772.572 190.056C773.164 189.72 773.644 189.216 774.012 188.544C774.38 187.872 774.564 187.04 774.564 186.048C774.564 185.056 774.38 184.224 774.012 183.552C773.66 182.88 773.188 182.376 772.596 182.04C772.004 181.704 771.372 181.536 770.7 181.536C770.012 181.536 769.372 181.704 768.78 182.04C768.188 182.376 767.708 182.88 767.34 183.552C766.972 184.224 766.788 185.056 766.788 186.048C766.788 187.04 766.972 187.872 767.34 188.544C767.708 189.216 768.18 189.72 768.756 190.056C769.348 190.392 769.98 190.56 770.652 190.56ZM783.055 192.288C781.647 192.288 780.527 191.864 779.695 191.016C778.863 190.152 778.447 188.832 778.447 187.056V180.096H780.463V186.84C780.463 189.32 781.479 190.56 783.511 190.56C784.551 190.56 785.407 190.192 786.079 189.456C786.767 188.704 787.111 187.64 787.111 186.264V180.096H789.127V192H787.303L787.159 189.864C786.791 190.616 786.239 191.208 785.503 191.64C784.783 192.072 783.967 192.288 783.055 192.288ZM791.726 192V180.096H793.55L793.67 182.232C794.054 181.48 794.606 180.888 795.326 180.456C796.046 180.024 796.862 179.808 797.774 179.808C799.182 179.808 800.302 180.24 801.134 181.104C801.982 181.952 802.406 183.264 802.406 185.04V192H800.39V185.256C800.39 182.776 799.366 181.536 797.318 181.536C796.294 181.536 795.438 181.912 794.75 182.664C794.078 183.4 793.742 184.456 793.742 185.832V192H791.726ZM809.444 192C808.356 192 807.5 191.736 806.876 191.208C806.252 190.68 805.94 189.728 805.94 188.352V181.8H803.876V180.096H805.94L806.204 177.24H807.956V180.096H811.46V181.8H807.956V188.352C807.956 189.104 808.108 189.616 808.412 189.888C808.716 190.144 809.252 190.272 810.02 190.272H811.268V192H809.444ZM814.525 177.456C814.125 177.456 813.789 177.328 813.517 177.072C813.261 176.8 813.133 176.464 813.133 176.064C813.133 175.68 813.261 175.36 813.517 175.104C813.789 174.848 814.125 174.72 814.525 174.72C814.909 174.72 815.237 174.848 815.509 175.104C815.781 175.36 815.917 175.68 815.917 176.064C815.917 176.464 815.781 176.8 815.509 177.072C815.237 177.328 814.909 177.456 814.525 177.456ZM813.517 192V180.096H815.533V192H813.517ZM818.323 192V180.096H820.147L820.267 182.232C820.651 181.48 821.203 180.888 821.923 180.456C822.643 180.024 823.459 179.808 824.371 179.808C825.779 179.808 826.899 180.24 827.731 181.104C828.579 181.952 829.003 183.264 829.003 185.04V192H826.987V185.256C826.987 182.776 825.963 181.536 823.915 181.536C822.891 181.536 822.035 181.912 821.347 182.664C820.675 183.4 820.339 184.456 820.339 185.832V192H818.323ZM836.042 188.256C835.37 188.256 834.754 188.168 834.194 187.992L832.994 189.12C833.17 189.248 833.386 189.36 833.642 189.456C833.914 189.536 834.298 189.616 834.794 189.696C835.29 189.76 835.986 189.832 836.882 189.912C838.482 190.024 839.626 190.392 840.314 191.016C841.002 191.64 841.346 192.456 841.346 193.464C841.346 194.152 841.154 194.808 840.77 195.432C840.402 196.056 839.826 196.568 839.042 196.968C838.274 197.368 837.282 197.568 836.066 197.568C834.994 197.568 834.042 197.424 833.21 197.136C832.378 196.864 831.73 196.44 831.266 195.864C830.802 195.304 830.57 194.592 830.57 193.728C830.57 193.28 830.69 192.792 830.93 192.264C831.17 191.752 831.618 191.264 832.274 190.8C831.922 190.656 831.618 190.504 831.362 190.344C831.122 190.168 830.898 189.976 830.69 189.768V189.216L832.73 187.2C831.786 186.4 831.314 185.344 831.314 184.032C831.314 183.248 831.498 182.536 831.866 181.896C832.234 181.256 832.77 180.752 833.474 180.384C834.178 180 835.034 179.808 836.042 179.808C836.73 179.808 837.354 179.904 837.914 180.096H842.306V181.608L840.074 181.704C840.538 182.376 840.77 183.152 840.77 184.032C840.77 184.816 840.578 185.528 840.194 186.168C839.826 186.808 839.29 187.32 838.586 187.704C837.898 188.072 837.05 188.256 836.042 188.256ZM836.042 186.6C836.89 186.6 837.562 186.384 838.058 185.952C838.57 185.504 838.826 184.864 838.826 184.032C838.826 183.216 838.57 182.592 838.058 182.16C837.562 181.712 836.89 181.488 836.042 181.488C835.178 181.488 834.49 181.712 833.978 182.16C833.482 182.592 833.234 183.216 833.234 184.032C833.234 184.864 833.482 185.504 833.978 185.952C834.49 186.384 835.178 186.6 836.042 186.6ZM832.538 193.536C832.538 194.336 832.874 194.928 833.546 195.312C834.218 195.712 835.058 195.912 836.066 195.912C837.058 195.912 837.85 195.696 838.442 195.264C839.05 194.832 839.354 194.256 839.354 193.536C839.354 193.024 839.146 192.576 838.73 192.192C838.314 191.824 837.546 191.608 836.426 191.544C835.546 191.48 834.786 191.4 834.146 191.304C833.49 191.656 833.058 192.032 832.85 192.432C832.642 192.848 832.538 193.216 832.538 193.536Z" fill="white"/>
<rect x="850.5" y="0.5" width="199" height="199" rx="99.5" stroke="#181717"/>
<path d="M914.69 93V76.2H920.21C921.522 76.2 922.602 76.416 923.45 76.848C924.298 77.28 924.922 77.864 925.322 78.6C925.738 79.336 925.946 80.168 925.946 81.096C925.946 82.008 925.746 82.832 925.346 83.568C924.946 84.304 924.322 84.896 923.474 85.344C922.626 85.776 921.538 85.992 920.21 85.992H916.706V93H914.69ZM916.706 84.288H920.162C921.506 84.288 922.458 84.008 923.018 83.448C923.594 82.872 923.882 82.088 923.882 81.096C923.882 80.088 923.594 79.304 923.018 78.744C922.458 78.168 921.506 77.88 920.162 77.88H916.706V84.288ZM927.748 93V81.096H929.572L929.74 83.376C930.108 82.592 930.668 81.968 931.42 81.504C932.172 81.04 933.1 80.808 934.204 80.808V82.92H933.652C932.948 82.92 932.3 83.048 931.708 83.304C931.116 83.544 930.644 83.96 930.292 84.552C929.94 85.144 929.764 85.96 929.764 87V93H927.748ZM940.726 93.288C939.606 93.288 938.598 93.032 937.702 92.52C936.806 92.008 936.094 91.288 935.566 90.36C935.054 89.416 934.798 88.312 934.798 87.048C934.798 85.784 935.062 84.688 935.59 83.76C936.118 82.816 936.83 82.088 937.726 81.576C938.638 81.064 939.654 80.808 940.774 80.808C941.894 80.808 942.902 81.064 943.798 81.576C944.694 82.088 945.398 82.816 945.91 83.76C946.438 84.688 946.702 85.784 946.702 87.048C946.702 88.312 946.438 89.416 945.91 90.36C945.382 91.288 944.662 92.008 943.75 92.52C942.854 93.032 941.846 93.288 940.726 93.288ZM940.726 91.56C941.414 91.56 942.054 91.392 942.646 91.056C943.238 90.72 943.718 90.216 944.086 89.544C944.454 88.872 944.638 88.04 944.638 87.048C944.638 86.056 944.454 85.224 944.086 84.552C943.734 83.88 943.262 83.376 942.67 83.04C942.078 82.704 941.446 82.536 940.774 82.536C940.086 82.536 939.446 82.704 938.854 83.04C938.262 83.376 937.782 83.88 937.414 84.552C937.046 85.224 936.862 86.056 936.862 87.048C936.862 88.04 937.046 88.872 937.414 89.544C937.782 90.216 938.254 90.72 938.83 91.056C939.422 91.392 940.054 91.56 940.726 91.56ZM950.105 78.456C949.721 78.456 949.393 78.328 949.121 78.072C948.849 77.8 948.713 77.464 948.713 77.064C948.713 76.68 948.849 76.36 949.121 76.104C949.393 75.848 949.721 75.72 950.105 75.72C950.489 75.72 950.809 75.848 951.065 76.104C951.337 76.36 951.473 76.68 951.473 77.064C951.473 77.464 951.337 77.8 951.065 78.072C950.809 78.328 950.489 78.456 950.105 78.456ZM946.457 98.28V96.552H947.393C947.985 96.552 948.409 96.424 948.665 96.168C948.937 95.928 949.073 95.512 949.073 94.92V81.096H951.089V94.968C951.089 96.12 950.801 96.96 950.225 97.488C949.649 98.016 948.809 98.28 947.705 98.28H946.457ZM959.229 93.288C958.093 93.288 957.085 93.032 956.205 92.52C955.325 91.992 954.629 91.264 954.117 90.336C953.621 89.408 953.373 88.312 953.373 87.048C953.373 85.8 953.621 84.712 954.117 83.784C954.613 82.84 955.301 82.112 956.181 81.6C957.077 81.072 958.109 80.808 959.277 80.808C960.429 80.808 961.421 81.072 962.253 81.6C963.101 82.112 963.749 82.792 964.197 83.64C964.645 84.488 964.869 85.4 964.869 86.376C964.869 86.552 964.861 86.728 964.845 86.904C964.845 87.08 964.845 87.28 964.845 87.504H955.365C955.413 88.416 955.621 89.176 955.989 89.784C956.373 90.376 956.845 90.824 957.405 91.128C957.981 91.432 958.589 91.584 959.229 91.584C960.061 91.584 960.757 91.392 961.317 91.008C961.877 90.624 962.285 90.104 962.541 89.448H964.533C964.213 90.552 963.597 91.472 962.685 92.208C961.789 92.928 960.637 93.288 959.229 93.288ZM959.229 82.512C958.269 82.512 957.413 82.808 956.661 83.4C955.925 83.976 955.501 84.824 955.389 85.944H962.877C962.829 84.872 962.461 84.032 961.773 83.424C961.085 82.816 960.237 82.512 959.229 82.512ZM972.293 93.288C971.157 93.288 970.133 93.032 969.221 92.52C968.325 91.992 967.613 91.264 967.085 90.336C966.573 89.392 966.317 88.296 966.317 87.048C966.317 85.8 966.573 84.712 967.085 83.784C967.613 82.84 968.325 82.112 969.221 81.6C970.133 81.072 971.157 80.808 972.293 80.808C973.701 80.808 974.885 81.176 975.845 81.912C976.821 82.648 977.437 83.632 977.693 84.864H975.629C975.469 84.128 975.077 83.56 974.453 83.16C973.829 82.744 973.101 82.536 972.269 82.536C971.597 82.536 970.965 82.704 970.373 83.04C969.781 83.376 969.301 83.88 968.933 84.552C968.565 85.224 968.381 86.056 968.381 87.048C968.381 88.04 968.565 88.872 968.933 89.544C969.301 90.216 969.781 90.728 970.373 91.08C970.965 91.416 971.597 91.584 972.269 91.584C973.101 91.584 973.829 91.384 974.453 90.984C975.077 90.568 975.469 89.984 975.629 89.232H977.693C977.453 90.432 976.845 91.408 975.869 92.16C974.893 92.912 973.701 93.288 972.293 93.288ZM984.165 93C983.077 93 982.221 92.736 981.597 92.208C980.973 91.68 980.661 90.728 980.661 89.352V82.8H978.597V81.096H980.661L980.925 78.24H982.677V81.096H986.181V82.8H982.677V89.352C982.677 90.104 982.829 90.616 983.133 90.888C983.437 91.144 983.973 91.272 984.741 91.272H985.989V93H984.165ZM882.711 124V107.2H885.063L891.111 118.912L897.111 107.2H899.487V124H897.471V110.8L891.855 121.6H890.343L884.727 110.824V124H882.711ZM906.152 124.288C905.16 124.288 904.336 124.12 903.68 123.784C903.024 123.448 902.536 123 902.216 122.44C901.896 121.88 901.736 121.272 901.736 120.616C901.736 119.4 902.2 118.464 903.128 117.808C904.056 117.152 905.32 116.824 906.92 116.824H910.136V116.68C910.136 115.64 909.864 114.856 909.32 114.328C908.776 113.784 908.048 113.512 907.136 113.512C906.352 113.512 905.672 113.712 905.096 114.112C904.536 114.496 904.184 115.064 904.04 115.816H901.976C902.056 114.952 902.344 114.224 902.84 113.632C903.352 113.04 903.984 112.592 904.736 112.288C905.488 111.968 906.288 111.808 907.136 111.808C908.8 111.808 910.048 112.256 910.88 113.152C911.728 114.032 912.152 115.208 912.152 116.68V124H910.352L910.232 121.864C909.896 122.536 909.4 123.112 908.744 123.592C908.104 124.056 907.24 124.288 906.152 124.288ZM906.464 122.584C907.232 122.584 907.888 122.384 908.432 121.984C908.992 121.584 909.416 121.064 909.704 120.424C909.992 119.784 910.136 119.112 910.136 118.408V118.384H907.088C905.904 118.384 905.064 118.592 904.568 119.008C904.088 119.408 903.848 119.912 903.848 120.52C903.848 121.144 904.072 121.648 904.52 122.032C904.984 122.4 905.632 122.584 906.464 122.584ZM914.456 124V112.096H916.28L916.4 114.232C916.784 113.48 917.336 112.888 918.056 112.456C918.776 112.024 919.592 111.808 920.504 111.808C921.912 111.808 923.032 112.24 923.864 113.104C924.712 113.952 925.136 115.264 925.136 117.04V124H923.12V117.256C923.12 114.776 922.096 113.536 920.048 113.536C919.024 113.536 918.168 113.912 917.48 114.664C916.808 115.4 916.472 116.456 916.472 117.832V124H914.456ZM931.43 124.288C930.438 124.288 929.614 124.12 928.958 123.784C928.302 123.448 927.814 123 927.494 122.44C927.174 121.88 927.014 121.272 927.014 120.616C927.014 119.4 927.478 118.464 928.406 117.808C929.334 117.152 930.598 116.824 932.198 116.824H935.414V116.68C935.414 115.64 935.142 114.856 934.598 114.328C934.054 113.784 933.326 113.512 932.414 113.512C931.63 113.512 930.95 113.712 930.374 114.112C929.814 114.496 929.462 115.064 929.318 115.816H927.254C927.334 114.952 927.622 114.224 928.118 113.632C928.63 113.04 929.262 112.592 930.014 112.288C930.766 111.968 931.566 111.808 932.414 111.808C934.078 111.808 935.326 112.256 936.158 113.152C937.006 114.032 937.43 115.208 937.43 116.68V124H935.63L935.51 121.864C935.174 122.536 934.678 123.112 934.022 123.592C933.382 124.056 932.518 124.288 931.43 124.288ZM931.742 122.584C932.51 122.584 933.166 122.384 933.71 121.984C934.27 121.584 934.694 121.064 934.982 120.424C935.27 119.784 935.414 119.112 935.414 118.408V118.384H932.366C931.182 118.384 930.342 118.592 929.846 119.008C929.366 119.408 929.126 119.912 929.126 120.52C929.126 121.144 929.35 121.648 929.798 122.032C930.262 122.4 930.91 122.584 931.742 122.584ZM944.439 120.256C943.767 120.256 943.151 120.168 942.591 119.992L941.391 121.12C941.567 121.248 941.783 121.36 942.039 121.456C942.311 121.536 942.695 121.616 943.191 121.696C943.687 121.76 944.383 121.832 945.279 121.912C946.879 122.024 948.023 122.392 948.711 123.016C949.399 123.64 949.743 124.456 949.743 125.464C949.743 126.152 949.551 126.808 949.167 127.432C948.799 128.056 948.223 128.568 947.439 128.968C946.671 129.368 945.679 129.568 944.463 129.568C943.391 129.568 942.439 129.424 941.607 129.136C940.775 128.864 940.127 128.44 939.663 127.864C939.199 127.304 938.967 126.592 938.967 125.728C938.967 125.28 939.087 124.792 939.327 124.264C939.567 123.752 940.015 123.264 940.671 122.8C940.319 122.656 940.015 122.504 939.759 122.344C939.519 122.168 939.295 121.976 939.087 121.768V121.216L941.127 119.2C940.183 118.4 939.711 117.344 939.711 116.032C939.711 115.248 939.895 114.536 940.263 113.896C940.631 113.256 941.167 112.752 941.871 112.384C942.575 112 943.431 111.808 944.439 111.808C945.127 111.808 945.751 111.904 946.311 112.096H950.703V113.608L948.471 113.704C948.935 114.376 949.167 115.152 949.167 116.032C949.167 116.816 948.975 117.528 948.591 118.168C948.223 118.808 947.687 119.32 946.983 119.704C946.295 120.072 945.447 120.256 944.439 120.256ZM944.439 118.6C945.287 118.6 945.959 118.384 946.455 117.952C946.967 117.504 947.223 116.864 947.223 116.032C947.223 115.216 946.967 114.592 946.455 114.16C945.959 113.712 945.287 113.488 944.439 113.488C943.575 113.488 942.887 113.712 942.375 114.16C941.879 114.592 941.631 115.216 941.631 116.032C941.631 116.864 941.879 117.504 942.375 117.952C942.887 118.384 943.575 118.6 944.439 118.6ZM940.935 125.536C940.935 126.336 941.271 126.928 941.943 127.312C942.615 127.712 943.455 127.912 944.463 127.912C945.455 127.912 946.247 127.696 946.839 127.264C947.447 126.832 947.751 126.256 947.751 125.536C947.751 125.024 947.543 124.576 947.127 124.192C946.711 123.824 945.943 123.608 944.823 123.544C943.943 123.48 943.183 123.4 942.543 123.304C941.887 123.656 941.455 124.032 941.247 124.432C941.039 124.848 940.935 125.216 940.935 125.536ZM957.14 124.288C956.004 124.288 954.996 124.032 954.116 123.52C953.236 122.992 952.54 122.264 952.028 121.336C951.532 120.408 951.284 119.312 951.284 118.048C951.284 116.8 951.532 115.712 952.028 114.784C952.524 113.84 953.212 113.112 954.092 112.6C954.988 112.072 956.02 111.808 957.188 111.808C958.34 111.808 959.332 112.072 960.164 112.6C961.012 113.112 961.66 113.792 962.108 114.64C962.556 115.488 962.78 116.4 962.78 117.376C962.78 117.552 962.772 117.728 962.756 117.904C962.756 118.08 962.756 118.28 962.756 118.504H953.276C953.324 119.416 953.532 120.176 953.9 120.784C954.284 121.376 954.756 121.824 955.316 122.128C955.892 122.432 956.5 122.584 957.14 122.584C957.972 122.584 958.668 122.392 959.228 122.008C959.788 121.624 960.196 121.104 960.452 120.448H962.444C962.124 121.552 961.508 122.472 960.596 123.208C959.7 123.928 958.548 124.288 957.14 124.288ZM957.14 113.512C956.18 113.512 955.324 113.808 954.572 114.4C953.836 114.976 953.412 115.824 953.3 116.944H960.788C960.74 115.872 960.372 115.032 959.684 114.424C958.996 113.816 958.148 113.512 957.14 113.512ZM964.732 124V112.096H966.556L966.7 113.824C967.084 113.184 967.596 112.688 968.236 112.336C968.876 111.984 969.596 111.808 970.396 111.808C971.34 111.808 972.148 112 972.82 112.384C973.508 112.768 974.036 113.352 974.404 114.136C974.82 113.416 975.388 112.848 976.108 112.432C976.844 112.016 977.636 111.808 978.484 111.808C979.908 111.808 981.044 112.24 981.892 113.104C982.74 113.952 983.164 115.264 983.164 117.04V124H981.172V117.256C981.172 116.024 980.924 115.096 980.428 114.472C979.932 113.848 979.22 113.536 978.292 113.536C977.332 113.536 976.532 113.912 975.892 114.664C975.268 115.4 974.956 116.456 974.956 117.832V124H972.94V117.256C972.94 116.024 972.692 115.096 972.196 114.472C971.7 113.848 970.988 113.536 970.06 113.536C969.116 113.536 968.324 113.912 967.684 114.664C967.06 115.4 966.748 116.456 966.748 117.832V124H964.732ZM990.833 124.288C989.697 124.288 988.689 124.032 987.809 123.52C986.929 122.992 986.233 122.264 985.721 121.336C985.225 120.408 984.977 119.312 984.977 118.048C984.977 116.8 985.225 115.712 985.721 114.784C986.217 113.84 986.905 113.112 987.785 112.6C988.681 112.072 989.713 111.808 990.881 111.808C992.033 111.808 993.025 112.072 993.857 112.6C994.705 113.112 995.353 113.792 995.801 114.64C996.249 115.488 996.473 116.4 996.473 117.376C996.473 117.552 996.465 117.728 996.449 117.904C996.449 118.08 996.449 118.28 996.449 118.504H986.969C987.017 119.416 987.225 120.176 987.593 120.784C987.977 121.376 988.449 121.824 989.009 122.128C989.585 122.432 990.193 122.584 990.833 122.584C991.665 122.584 992.361 122.392 992.921 122.008C993.481 121.624 993.889 121.104 994.145 120.448H996.137C995.817 121.552 995.201 122.472 994.289 123.208C993.393 123.928 992.241 124.288 990.833 124.288ZM990.833 113.512C989.873 113.512 989.017 113.808 988.265 114.4C987.529 114.976 987.105 115.824 986.993 116.944H994.481C994.433 115.872 994.065 115.032 993.377 114.424C992.689 113.816 991.841 113.512 990.833 113.512ZM998.425 124V112.096H1000.25L1000.37 114.232C1000.75 113.48 1001.31 112.888 1002.03 112.456C1002.75 112.024 1003.56 111.808 1004.47 111.808C1005.88 111.808 1007 112.24 1007.83 113.104C1008.68 113.952 1009.11 115.264 1009.11 117.04V124H1007.09V117.256C1007.09 114.776 1006.07 113.536 1004.02 113.536C1002.99 113.536 1002.14 113.912 1001.45 114.664C1000.78 115.4 1000.44 116.456 1000.44 117.832V124H998.425ZM1016.14 124C1015.06 124 1014.2 123.736 1013.58 123.208C1012.95 122.68 1012.64 121.728 1012.64 120.352V113.8H1010.58V112.096H1012.64L1012.9 109.24H1014.66V112.096H1018.16V113.8H1014.66V120.352C1014.66 121.104 1014.81 121.616 1015.11 121.888C1015.42 122.144 1015.95 122.272 1016.72 122.272H1017.97V124H1016.14Z" fill="#181717"/>
<rect x="1027.5" y="394.5" width="199" height="199" rx="99.5" stroke="#181717"/>
<path d="M1099.71 487.288C1098.06 487.288 1096.64 486.928 1095.44 486.208C1094.25 485.472 1093.33 484.456 1092.68 483.16C1092.02 481.848 1091.69 480.328 1091.69 478.6C1091.69 476.888 1092.02 475.384 1092.68 474.088C1093.33 472.776 1094.25 471.752 1095.44 471.016C1096.64 470.28 1098.06 469.912 1099.71 469.912C1101.63 469.912 1103.19 470.376 1104.39 471.304C1105.6 472.216 1106.38 473.496 1106.72 475.144H1104.48C1104.23 474.104 1103.7 473.272 1102.9 472.648C1102.12 472.008 1101.05 471.688 1099.71 471.688C1098.51 471.688 1097.46 471.968 1096.56 472.528C1095.67 473.072 1094.97 473.864 1094.48 474.904C1094 475.928 1093.76 477.16 1093.76 478.6C1093.76 480.04 1094 481.28 1094.48 482.32C1094.97 483.344 1095.67 484.136 1096.56 484.696C1097.46 485.24 1098.51 485.512 1099.71 485.512C1101.05 485.512 1102.12 485.208 1102.9 484.6C1103.7 483.976 1104.23 483.152 1104.48 482.128H1106.72C1106.38 483.744 1105.6 485.008 1104.39 485.92C1103.19 486.832 1101.63 487.288 1099.71 487.288ZM1108.89 487V470.2H1114.32C1115.63 470.2 1116.7 470.416 1117.53 470.848C1118.37 471.28 1118.98 471.872 1119.38 472.624C1119.78 473.376 1119.98 474.208 1119.98 475.12C1119.98 476.176 1119.69 477.128 1119.12 477.976C1118.56 478.824 1117.68 479.424 1116.48 479.776L1120.15 487H1117.77L1114.37 480.064H1114.22H1110.91V487H1108.89ZM1110.91 478.48H1114.17C1115.47 478.48 1116.41 478.168 1117.01 477.544C1117.6 476.92 1117.89 476.12 1117.89 475.144C1117.89 474.152 1117.6 473.368 1117.01 472.792C1116.43 472.2 1115.48 471.904 1114.15 471.904H1110.91V478.48ZM1122.4 487V470.2H1124.75L1130.8 481.912L1136.8 470.2H1139.18V487H1137.16V473.8L1131.54 484.6H1130.03L1124.42 473.824V487H1122.4ZM1152.6 487.288C1151.45 487.288 1150.43 487.08 1149.55 486.664C1148.69 486.232 1148.01 485.64 1147.51 484.888C1147.03 484.12 1146.79 483.216 1146.79 482.176C1146.79 481.04 1147.12 480.032 1147.78 479.152C1148.45 478.256 1149.42 477.552 1150.68 477.04C1150.14 476.448 1149.74 475.888 1149.5 475.36C1149.26 474.816 1149.14 474.232 1149.14 473.608C1149.14 472.536 1149.52 471.656 1150.27 470.968C1151.04 470.264 1152.09 469.912 1153.42 469.912C1154.28 469.912 1155.03 470.08 1155.67 470.416C1156.31 470.736 1156.81 471.184 1157.16 471.76C1157.51 472.336 1157.67 472.992 1157.64 473.728H1155.65C1155.66 473.008 1155.44 472.464 1154.98 472.096C1154.53 471.728 1154.01 471.544 1153.42 471.544C1152.7 471.544 1152.14 471.736 1151.74 472.12C1151.34 472.504 1151.14 472.992 1151.14 473.584C1151.14 474.096 1151.27 474.592 1151.54 475.072C1151.83 475.552 1152.26 476.088 1152.82 476.68L1158.12 482.032C1158.58 481.36 1159.09 480.552 1159.63 479.608L1160.38 478.312H1162.51L1161.46 480.184C1160.75 481.448 1160.08 482.504 1159.44 483.352L1163.06 487H1160.52L1158.29 484.744C1157.44 485.656 1156.56 486.312 1155.65 486.712C1154.74 487.096 1153.72 487.288 1152.6 487.288ZM1148.81 482.104C1148.81 483.096 1149.16 483.92 1149.86 484.576C1150.57 485.232 1151.49 485.56 1152.62 485.56C1153.47 485.56 1154.24 485.4 1154.93 485.08C1155.63 484.744 1156.32 484.2 1156.99 483.448L1151.9 478.288C1150.85 478.704 1150.06 479.232 1149.55 479.872C1149.06 480.512 1148.81 481.256 1148.81 482.104ZM1106.65 518.288C1105.41 518.288 1104.34 518.064 1103.43 517.616C1102.52 517.168 1101.81 516.544 1101.32 515.744C1100.82 514.944 1100.57 514.016 1100.57 512.96H1102.69C1102.69 513.616 1102.84 514.224 1103.14 514.784C1103.45 515.328 1103.89 515.768 1104.46 516.104C1105.05 516.424 1105.78 516.584 1106.65 516.584C1107.78 516.584 1108.66 516.312 1109.29 515.768C1109.91 515.224 1110.22 514.544 1110.22 513.728C1110.22 513.056 1110.08 512.52 1109.79 512.12C1109.5 511.704 1109.11 511.368 1108.61 511.112C1108.13 510.856 1107.57 510.632 1106.93 510.44C1106.31 510.248 1105.65 510.032 1104.97 509.792C1103.67 509.344 1102.71 508.792 1102.09 508.136C1101.46 507.464 1101.15 506.592 1101.15 505.52C1101.13 504.624 1101.34 503.832 1101.77 503.144C1102.21 502.44 1102.81 501.896 1103.6 501.512C1104.4 501.112 1105.34 500.912 1106.43 500.912C1107.5 500.912 1108.43 501.112 1109.21 501.512C1110.01 501.912 1110.63 502.464 1111.06 503.168C1111.51 503.872 1111.74 504.672 1111.76 505.568H1109.65C1109.65 505.104 1109.53 504.648 1109.29 504.2C1109.05 503.736 1108.68 503.36 1108.18 503.072C1107.7 502.784 1107.09 502.64 1106.36 502.64C1105.45 502.624 1104.69 502.856 1104.1 503.336C1103.53 503.816 1103.24 504.48 1103.24 505.328C1103.24 506.048 1103.44 506.6 1103.84 506.984C1104.25 507.368 1104.83 507.688 1105.57 507.944C1106.3 508.184 1107.15 508.464 1108.11 508.784C1108.91 509.072 1109.63 509.408 1110.27 509.792C1110.91 510.176 1111.41 510.672 1111.76 511.28C1112.13 511.888 1112.31 512.664 1112.31 513.608C1112.31 514.408 1112.1 515.168 1111.69 515.888C1111.27 516.592 1110.64 517.168 1109.79 517.616C1108.96 518.064 1107.91 518.288 1106.65 518.288ZM1118.29 518.288C1117.3 518.288 1116.47 518.12 1115.82 517.784C1115.16 517.448 1114.67 517 1114.35 516.44C1114.03 515.88 1113.87 515.272 1113.87 514.616C1113.87 513.4 1114.34 512.464 1115.27 511.808C1116.19 511.152 1117.46 510.824 1119.06 510.824H1122.27V510.68C1122.27 509.64 1122 508.856 1121.46 508.328C1120.91 507.784 1120.19 507.512 1119.27 507.512C1118.49 507.512 1117.81 507.712 1117.23 508.112C1116.67 508.496 1116.32 509.064 1116.18 509.816H1114.11C1114.19 508.952 1114.48 508.224 1114.98 507.632C1115.49 507.04 1116.12 506.592 1116.87 506.288C1117.63 505.968 1118.43 505.808 1119.27 505.808C1120.94 505.808 1122.19 506.256 1123.02 507.152C1123.87 508.032 1124.29 509.208 1124.29 510.68V518H1122.49L1122.37 515.864C1122.03 516.536 1121.54 517.112 1120.88 517.592C1120.24 518.056 1119.38 518.288 1118.29 518.288ZM1118.6 516.584C1119.37 516.584 1120.03 516.384 1120.57 515.984C1121.13 515.584 1121.55 515.064 1121.84 514.424C1122.13 513.784 1122.27 513.112 1122.27 512.408V512.384H1119.23C1118.04 512.384 1117.2 512.592 1116.71 513.008C1116.23 513.408 1115.99 513.912 1115.99 514.52C1115.99 515.144 1116.21 515.648 1116.66 516.032C1117.12 516.4 1117.77 516.584 1118.6 516.584ZM1126.59 518V500.72H1128.61V518H1126.59ZM1136.55 518.288C1135.41 518.288 1134.4 518.032 1133.52 517.52C1132.64 516.992 1131.95 516.264 1131.43 515.336C1130.94 514.408 1130.69 513.312 1130.69 512.048C1130.69 510.8 1130.94 509.712 1131.43 508.784C1131.93 507.84 1132.62 507.112 1133.5 506.6C1134.39 506.072 1135.43 505.808 1136.59 505.808C1137.75 505.808 1138.74 506.072 1139.57 506.6C1140.42 507.112 1141.07 507.792 1141.51 508.64C1141.96 509.488 1142.19 510.4 1142.19 511.376C1142.19 511.552 1142.18 511.728 1142.16 511.904C1142.16 512.08 1142.16 512.28 1142.16 512.504H1132.68C1132.73 513.416 1132.94 514.176 1133.31 514.784C1133.69 515.376 1134.16 515.824 1134.72 516.128C1135.3 516.432 1135.91 516.584 1136.55 516.584C1137.38 516.584 1138.07 516.392 1138.63 516.008C1139.19 515.624 1139.6 515.104 1139.86 514.448H1141.85C1141.53 515.552 1140.91 516.472 1140 517.208C1139.11 517.928 1137.95 518.288 1136.55 518.288ZM1136.55 507.512C1135.59 507.512 1134.73 507.808 1133.98 508.4C1133.24 508.976 1132.82 509.824 1132.71 510.944H1140.19C1140.15 509.872 1139.78 509.032 1139.09 508.424C1138.4 507.816 1137.55 507.512 1136.55 507.512ZM1148.7 518.288C1147.27 518.288 1146.09 517.928 1145.15 517.208C1144.2 516.488 1143.65 515.512 1143.49 514.28H1145.55C1145.68 514.904 1146.01 515.448 1146.54 515.912C1147.08 516.36 1147.81 516.584 1148.72 516.584C1149.57 516.584 1150.19 516.408 1150.59 516.056C1150.99 515.688 1151.19 515.256 1151.19 514.76C1151.19 514.04 1150.93 513.56 1150.4 513.32C1149.89 513.08 1149.16 512.864 1148.22 512.672C1147.58 512.544 1146.94 512.36 1146.3 512.12C1145.66 511.88 1145.12 511.544 1144.69 511.112C1144.26 510.664 1144.04 510.08 1144.04 509.36C1144.04 508.32 1144.43 507.472 1145.19 506.816C1145.98 506.144 1147.03 505.808 1148.36 505.808C1149.63 505.808 1150.66 506.128 1151.46 506.768C1152.27 507.392 1152.75 508.288 1152.87 509.456H1150.88C1150.8 508.848 1150.54 508.376 1150.09 508.04C1149.66 507.688 1149.07 507.512 1148.34 507.512C1147.62 507.512 1147.06 507.664 1146.66 507.968C1146.27 508.272 1146.08 508.672 1146.08 509.168C1146.08 509.648 1146.33 510.024 1146.83 510.296C1147.34 510.568 1148.03 510.8 1148.89 510.992C1149.63 511.152 1150.32 511.352 1150.98 511.592C1151.65 511.816 1152.19 512.16 1152.61 512.624C1153.04 513.072 1153.26 513.728 1153.26 514.592C1153.27 515.664 1152.87 516.552 1152.03 517.256C1151.22 517.944 1150.11 518.288 1148.7 518.288Z" fill="#181717"/>
<rect x="693.5" y="394.5" width="199" height="199" rx="99.5" stroke="#181717"/>
<path d="M737.266 502.5V485.7H742.786C744.098 485.7 745.178 485.916 746.026 486.348C746.874 486.78 747.498 487.364 747.898 488.1C748.314 488.836 748.522 489.668 748.522 490.596C748.522 491.508 748.322 492.332 747.922 493.068C747.522 493.804 746.898 494.396 746.05 494.844C745.202 495.276 744.114 495.492 742.786 495.492H739.282V502.5H737.266ZM739.282 493.788H742.738C744.082 493.788 745.034 493.508 745.594 492.948C746.17 492.372 746.458 491.588 746.458 490.596C746.458 489.588 746.17 488.804 745.594 488.244C745.034 487.668 744.082 487.38 742.738 487.38H739.282V493.788ZM750.324 502.5V490.596H752.148L752.316 492.876C752.684 492.092 753.244 491.468 753.996 491.004C754.748 490.54 755.676 490.308 756.78 490.308V492.42H756.228C755.524 492.42 754.876 492.548 754.284 492.804C753.692 493.044 753.22 493.46 752.868 494.052C752.516 494.644 752.34 495.46 752.34 496.5V502.5H750.324ZM763.302 502.788C762.182 502.788 761.174 502.532 760.278 502.02C759.382 501.508 758.67 500.788 758.142 499.86C757.63 498.916 757.374 497.812 757.374 496.548C757.374 495.284 757.638 494.188 758.166 493.26C758.694 492.316 759.406 491.588 760.302 491.076C761.214 490.564 762.23 490.308 763.35 490.308C764.47 490.308 765.478 490.564 766.374 491.076C767.27 491.588 767.974 492.316 768.486 493.26C769.014 494.188 769.278 495.284 769.278 496.548C769.278 497.812 769.014 498.916 768.486 499.86C767.958 500.788 767.238 501.508 766.326 502.02C765.43 502.532 764.422 502.788 763.302 502.788ZM763.302 501.06C763.99 501.06 764.63 500.892 765.222 500.556C765.814 500.22 766.294 499.716 766.662 499.044C767.03 498.372 767.214 497.54 767.214 496.548C767.214 495.556 767.03 494.724 766.662 494.052C766.31 493.38 765.838 492.876 765.246 492.54C764.654 492.204 764.022 492.036 763.35 492.036C762.662 492.036 762.022 492.204 761.43 492.54C760.838 492.876 760.358 493.38 759.99 494.052C759.622 494.724 759.438 495.556 759.438 496.548C759.438 497.54 759.622 498.372 759.99 499.044C760.358 499.716 760.83 500.22 761.406 500.556C761.998 500.892 762.63 501.06 763.302 501.06ZM776.761 502.788C775.577 502.788 774.537 502.516 773.641 501.972C772.761 501.428 772.073 500.684 771.577 499.74C771.097 498.796 770.857 497.724 770.857 496.524C770.857 495.324 771.105 494.26 771.601 493.332C772.097 492.388 772.785 491.652 773.665 491.124C774.545 490.58 775.585 490.308 776.785 490.308C777.761 490.308 778.625 490.508 779.377 490.908C780.129 491.308 780.713 491.868 781.129 492.588V485.22H783.145V502.5H781.321L781.129 500.532C780.745 501.108 780.193 501.628 779.473 502.092C778.753 502.556 777.849 502.788 776.761 502.788ZM776.977 501.036C777.777 501.036 778.481 500.852 779.089 500.484C779.713 500.1 780.193 499.572 780.529 498.9C780.881 498.228 781.057 497.444 781.057 496.548C781.057 495.652 780.881 494.868 780.529 494.196C780.193 493.524 779.713 493.004 779.089 492.636C778.481 492.252 777.777 492.06 776.977 492.06C776.193 492.06 775.489 492.252 774.865 492.636C774.257 493.004 773.777 493.524 773.425 494.196C773.089 494.868 772.921 495.652 772.921 496.548C772.921 497.444 773.089 498.228 773.425 498.9C773.777 499.572 774.257 500.1 774.865 500.484C775.489 500.852 776.193 501.036 776.977 501.036ZM790.055 502.788C788.647 502.788 787.527 502.364 786.695 501.516C785.863 500.652 785.447 499.332 785.447 497.556V490.596H787.463V497.34C787.463 499.82 788.479 501.06 790.511 501.06C791.551 501.06 792.407 500.692 793.079 499.956C793.767 499.204 794.111 498.14 794.111 496.764V490.596H796.127V502.5H794.303L794.159 500.364C793.791 501.116 793.239 501.708 792.503 502.14C791.783 502.572 790.967 502.788 790.055 502.788ZM804.198 502.788C803.062 502.788 802.038 502.532 801.126 502.02C800.23 501.492 799.518 500.764 798.99 499.836C798.478 498.892 798.222 497.796 798.222 496.548C798.222 495.3 798.478 494.212 798.99 493.284C799.518 492.34 800.23 491.612 801.126 491.1C802.038 490.572 803.062 490.308 804.198 490.308C805.606 490.308 806.79 490.676 807.75 491.412C808.726 492.148 809.342 493.132 809.598 494.364H807.534C807.374 493.628 806.982 493.06 806.358 492.66C805.734 492.244 805.006 492.036 804.174 492.036C803.502 492.036 802.87 492.204 802.278 492.54C801.686 492.876 801.206 493.38 800.838 494.052C800.47 494.724 800.286 495.556 800.286 496.548C800.286 497.54 800.47 498.372 800.838 499.044C801.206 499.716 801.686 500.228 802.278 500.58C802.87 500.916 803.502 501.084 804.174 501.084C805.006 501.084 805.734 500.884 806.358 500.484C806.982 500.068 807.374 499.484 807.534 498.732H809.598C809.358 499.932 808.75 500.908 807.774 501.66C806.798 502.412 805.606 502.788 804.198 502.788ZM816.069 502.5C814.981 502.5 814.125 502.236 813.501 501.708C812.877 501.18 812.565 500.228 812.565 498.852V492.3H810.501V490.596H812.565L812.829 487.74H814.581V490.596H818.085V492.3H814.581V498.852C814.581 499.604 814.733 500.116 815.037 500.388C815.341 500.644 815.877 500.772 816.645 500.772H817.893V502.5H816.069ZM821.15 487.956C820.75 487.956 820.414 487.828 820.142 487.572C819.886 487.3 819.758 486.964 819.758 486.564C819.758 486.18 819.886 485.86 820.142 485.604C820.414 485.348 820.75 485.22 821.15 485.22C821.534 485.22 821.862 485.348 822.134 485.604C822.406 485.86 822.542 486.18 822.542 486.564C822.542 486.964 822.406 487.3 822.134 487.572C821.862 487.828 821.534 487.956 821.15 487.956ZM820.142 502.5V490.596H822.158V502.5H820.142ZM830.372 502.788C829.252 502.788 828.244 502.532 827.348 502.02C826.452 501.508 825.74 500.788 825.212 499.86C824.7 498.916 824.444 497.812 824.444 496.548C824.444 495.284 824.708 494.188 825.236 493.26C825.764 492.316 826.476 491.588 827.372 491.076C828.284 490.564 829.3 490.308 830.42 490.308C831.54 490.308 832.548 490.564 833.444 491.076C834.34 491.588 835.044 492.316 835.556 493.26C836.084 494.188 836.348 495.284 836.348 496.548C836.348 497.812 836.084 498.916 835.556 499.86C835.028 500.788 834.308 501.508 833.396 502.02C832.5 502.532 831.492 502.788 830.372 502.788ZM830.372 501.06C831.06 501.06 831.7 500.892 832.292 500.556C832.884 500.22 833.364 499.716 833.732 499.044C834.1 498.372 834.284 497.54 834.284 496.548C834.284 495.556 834.1 494.724 833.732 494.052C833.38 493.38 832.908 492.876 832.316 492.54C831.724 492.204 831.092 492.036 830.42 492.036C829.732 492.036 829.092 492.204 828.5 492.54C827.908 492.876 827.428 493.38 827.06 494.052C826.692 494.724 826.508 495.556 826.508 496.548C826.508 497.54 826.692 498.372 827.06 499.044C827.428 499.716 827.9 500.22 828.476 500.556C829.068 500.892 829.7 501.06 830.372 501.06ZM838.432 502.5V490.596H840.256L840.376 492.732C840.76 491.98 841.312 491.388 842.032 490.956C842.752 490.524 843.568 490.308 844.48 490.308C845.888 490.308 847.008 490.74 847.84 491.604C848.688 492.452 849.112 493.764 849.112 495.54V502.5H847.096V495.756C847.096 493.276 846.072 492.036 844.024 492.036C843 492.036 842.144 492.412 841.456 493.164C840.784 493.9 840.448 494.956 840.448 496.332V502.5H838.432Z" fill="#181717"/>
<rect x="628.5" y="231.5" width="199" height="199" rx="99.5" stroke="#181717"/>
<path d="M689.295 324V307.2H691.311V314.616H700.023V307.2H702.039V324H700.023V316.272H691.311V324H689.295ZM709.088 324.288C707.68 324.288 706.56 323.864 705.728 323.016C704.896 322.152 704.48 320.832 704.48 319.056V312.096H706.496V318.84C706.496 321.32 707.512 322.56 709.544 322.56C710.584 322.56 711.44 322.192 712.112 321.456C712.8 320.704 713.144 319.64 713.144 318.264V312.096H715.16V324H713.336L713.192 321.864C712.824 322.616 712.272 323.208 711.536 323.64C710.816 324.072 710 324.288 709.088 324.288ZM717.758 324V312.096H719.582L719.726 313.824C720.11 313.184 720.622 312.688 721.262 312.336C721.902 311.984 722.622 311.808 723.422 311.808C724.366 311.808 725.174 312 725.846 312.384C726.534 312.768 727.062 313.352 727.43 314.136C727.846 313.416 728.414 312.848 729.134 312.432C729.87 312.016 730.662 311.808 731.51 311.808C732.934 311.808 734.07 312.24 734.918 313.104C735.766 313.952 736.19 315.264 736.19 317.04V324H734.198V317.256C734.198 316.024 733.95 315.096 733.454 314.472C732.958 313.848 732.246 313.536 731.318 313.536C730.358 313.536 729.558 313.912 728.918 314.664C728.294 315.4 727.982 316.456 727.982 317.832V324H725.966V317.256C725.966 316.024 725.718 315.096 725.222 314.472C724.726 313.848 724.014 313.536 723.086 313.536C722.142 313.536 721.35 313.912 720.71 314.664C720.086 315.4 719.774 316.456 719.774 317.832V324H717.758ZM742.467 324.288C741.475 324.288 740.651 324.12 739.995 323.784C739.339 323.448 738.851 323 738.531 322.44C738.211 321.88 738.051 321.272 738.051 320.616C738.051 319.4 738.515 318.464 739.443 317.808C740.371 317.152 741.635 316.824 743.235 316.824H746.451V316.68C746.451 315.64 746.179 314.856 745.635 314.328C745.091 313.784 744.363 313.512 743.451 313.512C742.667 313.512 741.987 313.712 741.411 314.112C740.851 314.496 740.499 315.064 740.355 315.816H738.291C738.371 314.952 738.659 314.224 739.155 313.632C739.667 313.04 740.299 312.592 741.051 312.288C741.803 311.968 742.603 311.808 743.451 311.808C745.115 311.808 746.363 312.256 747.195 313.152C748.043 314.032 748.467 315.208 748.467 316.68V324H746.667L746.547 321.864C746.211 322.536 745.715 323.112 745.059 323.592C744.419 324.056 743.555 324.288 742.467 324.288ZM742.779 322.584C743.547 322.584 744.203 322.384 744.747 321.984C745.307 321.584 745.731 321.064 746.019 320.424C746.307 319.784 746.451 319.112 746.451 318.408V318.384H743.403C742.219 318.384 741.379 318.592 740.883 319.008C740.403 319.408 740.163 319.912 740.163 320.52C740.163 321.144 740.387 321.648 740.835 322.032C741.299 322.4 741.947 322.584 742.779 322.584ZM750.771 324V312.096H752.595L752.715 314.232C753.099 313.48 753.651 312.888 754.371 312.456C755.091 312.024 755.907 311.808 756.819 311.808C758.227 311.808 759.347 312.24 760.179 313.104C761.027 313.952 761.451 315.264 761.451 317.04V324H759.435V317.256C759.435 314.776 758.411 313.536 756.363 313.536C755.339 313.536 754.483 313.912 753.795 314.664C753.123 315.4 752.787 316.456 752.787 317.832V324H750.771ZM675.293 355V338.2H680.717C682.029 338.2 683.101 338.416 683.933 338.848C684.765 339.28 685.381 339.872 685.781 340.624C686.181 341.376 686.381 342.208 686.381 343.12C686.381 344.176 686.093 345.128 685.517 345.976C684.957 346.824 684.077 347.424 682.877 347.776L686.549 355H684.173L680.765 348.064H680.621H677.309V355H675.293ZM677.309 346.48H680.573C681.869 346.48 682.813 346.168 683.405 345.544C683.997 344.92 684.293 344.12 684.293 343.144C684.293 342.152 683.997 341.368 683.405 340.792C682.829 340.2 681.877 339.904 680.549 339.904H677.309V346.48ZM693.305 355.288C692.169 355.288 691.161 355.032 690.281 354.52C689.401 353.992 688.705 353.264 688.193 352.336C687.697 351.408 687.449 350.312 687.449 349.048C687.449 347.8 687.697 346.712 688.193 345.784C688.689 344.84 689.377 344.112 690.257 343.6C691.153 343.072 692.185 342.808 693.353 342.808C694.505 342.808 695.497 343.072 696.329 343.6C697.177 344.112 697.825 344.792 698.273 345.64C698.721 346.488 698.945 347.4 698.945 348.376C698.945 348.552 698.937 348.728 698.921 348.904C698.921 349.08 698.921 349.28 698.921 349.504H689.441C689.489 350.416 689.697 351.176 690.065 351.784C690.449 352.376 690.921 352.824 691.481 353.128C692.057 353.432 692.665 353.584 693.305 353.584C694.137 353.584 694.833 353.392 695.393 353.008C695.953 352.624 696.361 352.104 696.617 351.448H698.609C698.289 352.552 697.673 353.472 696.761 354.208C695.865 354.928 694.713 355.288 693.305 355.288ZM693.305 344.512C692.345 344.512 691.489 344.808 690.737 345.4C690.001 345.976 689.577 346.824 689.465 347.944H696.953C696.905 346.872 696.537 346.032 695.849 345.424C695.161 344.816 694.313 344.512 693.305 344.512ZM705.457 355.288C704.033 355.288 702.849 354.928 701.905 354.208C700.961 353.488 700.409 352.512 700.249 351.28H702.313C702.441 351.904 702.769 352.448 703.297 352.912C703.841 353.36 704.569 353.584 705.481 353.584C706.329 353.584 706.953 353.408 707.353 353.056C707.753 352.688 707.953 352.256 707.953 351.76C707.953 351.04 707.689 350.56 707.161 350.32C706.649 350.08 705.921 349.864 704.977 349.672C704.337 349.544 703.697 349.36 703.057 349.12C702.417 348.88 701.881 348.544 701.449 348.112C701.017 347.664 700.801 347.08 700.801 346.36C700.801 345.32 701.185 344.472 701.953 343.816C702.737 343.144 703.793 342.808 705.121 342.808C706.385 342.808 707.417 343.128 708.217 343.768C709.033 344.392 709.505 345.288 709.633 346.456H707.641C707.561 345.848 707.297 345.376 706.849 345.04C706.417 344.688 705.833 344.512 705.097 344.512C704.377 344.512 703.817 344.664 703.417 344.968C703.033 345.272 702.841 345.672 702.841 346.168C702.841 346.648 703.089 347.024 703.585 347.296C704.097 347.568 704.785 347.8 705.649 347.992C706.385 348.152 707.081 348.352 707.737 348.592C708.409 348.816 708.953 349.16 709.369 349.624C709.801 350.072 710.017 350.728 710.017 351.592C710.033 352.664 709.625 353.552 708.793 354.256C707.977 354.944 706.865 355.288 705.457 355.288ZM717.601 355.288C716.481 355.288 715.473 355.032 714.577 354.52C713.681 354.008 712.969 353.288 712.441 352.36C711.929 351.416 711.673 350.312 711.673 349.048C711.673 347.784 711.937 346.688 712.465 345.76C712.993 344.816 713.705 344.088 714.601 343.576C715.513 343.064 716.529 342.808 717.649 342.808C718.769 342.808 719.777 343.064 720.673 343.576C721.569 344.088 722.273 344.816 722.785 345.76C723.313 346.688 723.577 347.784 723.577 349.048C723.577 350.312 723.313 351.416 722.785 352.36C722.257 353.288 721.537 354.008 720.625 354.52C719.729 355.032 718.721 355.288 717.601 355.288ZM717.601 353.56C718.289 353.56 718.929 353.392 719.521 353.056C720.113 352.72 720.593 352.216 720.961 351.544C721.329 350.872 721.513 350.04 721.513 349.048C721.513 348.056 721.329 347.224 720.961 346.552C720.609 345.88 720.137 345.376 719.545 345.04C718.953 344.704 718.321 344.536 717.649 344.536C716.961 344.536 716.321 344.704 715.729 345.04C715.137 345.376 714.657 345.88 714.289 346.552C713.921 347.224 713.737 348.056 713.737 349.048C713.737 350.04 713.921 350.872 714.289 351.544C714.657 352.216 715.129 352.72 715.705 353.056C716.297 353.392 716.929 353.56 717.601 353.56ZM730.004 355.288C728.596 355.288 727.476 354.864 726.644 354.016C725.812 353.152 725.396 351.832 725.396 350.056V343.096H727.412V349.84C727.412 352.32 728.428 353.56 730.46 353.56C731.5 353.56 732.356 353.192 733.028 352.456C733.716 351.704 734.06 350.64 734.06 349.264V343.096H736.076V355H734.252L734.108 352.864C733.74 353.616 733.188 354.208 732.452 354.64C731.732 355.072 730.916 355.288 730.004 355.288ZM738.674 355V343.096H740.498L740.666 345.376C741.034 344.592 741.594 343.968 742.346 343.504C743.098 343.04 744.026 342.808 745.13 342.808V344.92H744.578C743.874 344.92 743.226 345.048 742.634 345.304C742.042 345.544 741.57 345.96 741.218 346.552C740.866 347.144 740.69 347.96 740.69 349V355H738.674ZM751.7 355.288C750.564 355.288 749.54 355.032 748.628 354.52C747.732 353.992 747.02 353.264 746.492 352.336C745.98 351.392 745.724 350.296 745.724 349.048C745.724 347.8 745.98 346.712 746.492 345.784C747.02 344.84 747.732 344.112 748.628 343.6C749.54 343.072 750.564 342.808 751.7 342.808C753.108 342.808 754.292 343.176 755.252 343.912C756.228 344.648 756.844 345.632 757.1 346.864H755.036C754.876 346.128 754.484 345.56 753.86 345.16C753.236 344.744 752.508 344.536 751.676 344.536C751.004 344.536 750.372 344.704 749.78 345.04C749.188 345.376 748.708 345.88 748.34 346.552C747.972 347.224 747.788 348.056 747.788 349.048C747.788 350.04 747.972 350.872 748.34 351.544C748.708 352.216 749.188 352.728 749.78 353.08C750.372 353.416 751.004 353.584 751.676 353.584C752.508 353.584 753.236 353.384 753.86 352.984C754.484 352.568 754.876 351.984 755.036 351.232H757.1C756.86 352.432 756.252 353.408 755.276 354.16C754.3 354.912 753.108 355.288 751.7 355.288ZM764.547 355.288C763.411 355.288 762.403 355.032 761.523 354.52C760.643 353.992 759.947 353.264 759.435 352.336C758.939 351.408 758.691 350.312 758.691 349.048C758.691 347.8 758.939 346.712 759.435 345.784C759.931 344.84 760.619 344.112 761.499 343.6C762.395 343.072 763.427 342.808 764.595 342.808C765.747 342.808 766.739 343.072 767.571 343.6C768.419 344.112 769.067 344.792 769.515 345.64C769.963 346.488 770.187 347.4 770.187 348.376C770.187 348.552 770.179 348.728 770.163 348.904C770.163 349.08 770.163 349.28 770.163 349.504H760.683C760.731 350.416 760.939 351.176 761.307 351.784C761.691 352.376 762.163 352.824 762.723 353.128C763.299 353.432 763.907 353.584 764.547 353.584C765.379 353.584 766.075 353.392 766.635 353.008C767.195 352.624 767.603 352.104 767.859 351.448H769.851C769.531 352.552 768.915 353.472 768.003 354.208C767.107 354.928 765.955 355.288 764.547 355.288ZM764.547 344.512C763.587 344.512 762.731 344.808 761.979 345.4C761.243 345.976 760.819 346.824 760.707 347.944H768.195C768.147 346.872 767.779 346.032 767.091 345.424C766.403 344.816 765.555 344.512 764.547 344.512ZM776.699 355.288C775.275 355.288 774.091 354.928 773.147 354.208C772.203 353.488 771.651 352.512 771.491 351.28H773.555C773.683 351.904 774.011 352.448 774.539 352.912C775.083 353.36 775.811 353.584 776.723 353.584C777.571 353.584 778.195 353.408 778.595 353.056C778.995 352.688 779.195 352.256 779.195 351.76C779.195 351.04 778.931 350.56 778.403 350.32C777.891 350.08 777.163 349.864 776.219 349.672C775.579 349.544 774.939 349.36 774.299 349.12C773.659 348.88 773.123 348.544 772.691 348.112C772.259 347.664 772.043 347.08 772.043 346.36C772.043 345.32 772.427 344.472 773.195 343.816C773.979 343.144 775.035 342.808 776.363 342.808C777.627 342.808 778.659 343.128 779.459 343.768C780.275 344.392 780.747 345.288 780.875 346.456H778.883C778.803 345.848 778.539 345.376 778.091 345.04C777.659 344.688 777.075 344.512 776.339 344.512C775.619 344.512 775.059 344.664 774.659 344.968C774.275 345.272 774.083 345.672 774.083 346.168C774.083 346.648 774.331 347.024 774.827 347.296C775.339 347.568 776.027 347.8 776.891 347.992C777.627 348.152 778.323 348.352 778.979 348.592C779.651 348.816 780.195 349.16 780.611 349.624C781.043 350.072 781.259 350.728 781.259 351.592C781.275 352.664 780.867 353.552 780.035 354.256C779.219 354.944 778.107 355.288 776.699 355.288Z" fill="#181717"/>
<rect x="1092.5" y="231.5" width="199" height="199" rx="99.5" stroke="#181717"/>
<path d="M1142.4 339.5V322.7H1144.75L1150.8 334.412L1156.8 322.7H1159.17V339.5H1157.16V326.3L1151.54 337.1H1150.03L1144.41 326.324V339.5H1142.4ZM1165.84 339.788C1164.85 339.788 1164.02 339.62 1163.37 339.284C1162.71 338.948 1162.22 338.5 1161.9 337.94C1161.58 337.38 1161.42 336.772 1161.42 336.116C1161.42 334.9 1161.89 333.964 1162.81 333.308C1163.74 332.652 1165.01 332.324 1166.61 332.324H1169.82V332.18C1169.82 331.14 1169.55 330.356 1169.01 329.828C1168.46 329.284 1167.73 329.012 1166.82 329.012C1166.04 329.012 1165.36 329.212 1164.78 329.612C1164.22 329.996 1163.87 330.564 1163.73 331.316H1161.66C1161.74 330.452 1162.03 329.724 1162.53 329.132C1163.04 328.54 1163.67 328.092 1164.42 327.788C1165.17 327.468 1165.97 327.308 1166.82 327.308C1168.49 327.308 1169.73 327.756 1170.57 328.652C1171.41 329.532 1171.84 330.708 1171.84 332.18V339.5H1170.04L1169.92 337.364C1169.58 338.036 1169.09 338.612 1168.43 339.092C1167.79 339.556 1166.93 339.788 1165.84 339.788ZM1166.15 338.084C1166.92 338.084 1167.57 337.884 1168.12 337.484C1168.68 337.084 1169.1 336.564 1169.39 335.924C1169.68 335.284 1169.82 334.612 1169.82 333.908V333.884H1166.77C1165.59 333.884 1164.75 334.092 1164.25 334.508C1163.77 334.908 1163.53 335.412 1163.53 336.02C1163.53 336.644 1163.76 337.148 1164.21 337.532C1164.67 337.9 1165.32 338.084 1166.15 338.084ZM1174.14 339.5V327.596H1175.97L1176.13 329.876C1176.5 329.092 1177.06 328.468 1177.81 328.004C1178.57 327.54 1179.49 327.308 1180.6 327.308V329.42H1180.05C1179.34 329.42 1178.69 329.548 1178.1 329.804C1177.51 330.044 1177.04 330.46 1176.69 331.052C1176.33 331.644 1176.16 332.46 1176.16 333.5V339.5H1174.14ZM1182.14 339.5V322.22H1184.16V332.612L1189.03 327.596H1191.5L1186.22 332.972L1192.17 339.5H1189.61L1184.16 333.332V339.5H1182.14ZM1198 339.788C1196.86 339.788 1195.86 339.532 1194.98 339.02C1194.1 338.492 1193.4 337.764 1192.89 336.836C1192.39 335.908 1192.14 334.812 1192.14 333.548C1192.14 332.3 1192.39 331.212 1192.89 330.284C1193.38 329.34 1194.07 328.612 1194.95 328.1C1195.85 327.572 1196.88 327.308 1198.05 327.308C1199.2 327.308 1200.19 327.572 1201.02 328.1C1201.87 328.612 1202.52 329.292 1202.97 330.14C1203.42 330.988 1203.64 331.9 1203.64 332.876C1203.64 333.052 1203.63 333.228 1203.62 333.404C1203.62 333.58 1203.62 333.78 1203.62 334.004H1194.14C1194.18 334.916 1194.39 335.676 1194.76 336.284C1195.14 336.876 1195.62 337.324 1196.18 337.628C1196.75 337.932 1197.36 338.084 1198 338.084C1198.83 338.084 1199.53 337.892 1200.09 337.508C1200.65 337.124 1201.06 336.604 1201.31 335.948H1203.3C1202.98 337.052 1202.37 337.972 1201.46 338.708C1200.56 339.428 1199.41 339.788 1198 339.788ZM1198 329.012C1197.04 329.012 1196.18 329.308 1195.43 329.9C1194.7 330.476 1194.27 331.324 1194.16 332.444H1201.65C1201.6 331.372 1201.23 330.532 1200.54 329.924C1199.86 329.316 1199.01 329.012 1198 329.012ZM1209.9 339.5C1208.81 339.5 1207.95 339.236 1207.33 338.708C1206.71 338.18 1206.39 337.228 1206.39 335.852V329.3H1204.33V327.596H1206.39L1206.66 324.74H1208.41V327.596H1211.91V329.3H1208.41V335.852C1208.41 336.604 1208.56 337.116 1208.87 337.388C1209.17 337.644 1209.71 337.772 1210.47 337.772H1211.72V339.5H1209.9ZM1214.98 324.956C1214.58 324.956 1214.24 324.828 1213.97 324.572C1213.72 324.3 1213.59 323.964 1213.59 323.564C1213.59 323.18 1213.72 322.86 1213.97 322.604C1214.24 322.348 1214.58 322.22 1214.98 322.22C1215.36 322.22 1215.69 322.348 1215.96 322.604C1216.24 322.86 1216.37 323.18 1216.37 323.564C1216.37 323.964 1216.24 324.3 1215.96 324.572C1215.69 324.828 1215.36 324.956 1214.98 324.956ZM1213.97 339.5V327.596H1215.99V339.5H1213.97ZM1218.78 339.5V327.596H1220.6L1220.72 329.732C1221.11 328.98 1221.66 328.388 1222.38 327.956C1223.1 327.524 1223.91 327.308 1224.83 327.308C1226.23 327.308 1227.35 327.74 1228.19 328.604C1229.03 329.452 1229.46 330.764 1229.46 332.54V339.5H1227.44V332.756C1227.44 330.276 1226.42 329.036 1224.37 329.036C1223.35 329.036 1222.49 329.412 1221.8 330.164C1221.13 330.9 1220.79 331.956 1220.79 333.332V339.5H1218.78ZM1236.5 335.756C1235.82 335.756 1235.21 335.668 1234.65 335.492L1233.45 336.62C1233.62 336.748 1233.84 336.86 1234.1 336.956C1234.37 337.036 1234.75 337.116 1235.25 337.196C1235.74 337.26 1236.44 337.332 1237.34 337.412C1238.94 337.524 1240.08 337.892 1240.77 338.516C1241.46 339.14 1241.8 339.956 1241.8 340.964C1241.8 341.652 1241.61 342.308 1241.22 342.932C1240.86 343.556 1240.28 344.068 1239.5 344.468C1238.73 344.868 1237.74 345.068 1236.52 345.068C1235.45 345.068 1234.5 344.924 1233.66 344.636C1232.83 344.364 1232.18 343.94 1231.72 343.364C1231.26 342.804 1231.02 342.092 1231.02 341.228C1231.02 340.78 1231.14 340.292 1231.38 339.764C1231.62 339.252 1232.07 338.764 1232.73 338.3C1232.38 338.156 1232.07 338.004 1231.82 337.844C1231.58 337.668 1231.35 337.476 1231.14 337.268V336.716L1233.18 334.7C1232.24 333.9 1231.77 332.844 1231.77 331.532C1231.77 330.748 1231.95 330.036 1232.32 329.396C1232.69 328.756 1233.22 328.252 1233.93 327.884C1234.63 327.5 1235.49 327.308 1236.5 327.308C1237.18 327.308 1237.81 327.404 1238.37 327.596H1242.76V329.108L1240.53 329.204C1240.99 329.876 1241.22 330.652 1241.22 331.532C1241.22 332.316 1241.03 333.028 1240.65 333.668C1240.28 334.308 1239.74 334.82 1239.04 335.204C1238.35 335.572 1237.5 335.756 1236.5 335.756ZM1236.5 334.1C1237.34 334.1 1238.02 333.884 1238.51 333.452C1239.02 333.004 1239.28 332.364 1239.28 331.532C1239.28 330.716 1239.02 330.092 1238.51 329.66C1238.02 329.212 1237.34 328.988 1236.5 328.988C1235.63 328.988 1234.94 329.212 1234.43 329.66C1233.94 330.092 1233.69 330.716 1233.69 331.532C1233.69 332.364 1233.94 333.004 1234.43 333.452C1234.94 333.884 1235.63 334.1 1236.5 334.1ZM1232.99 341.036C1232.99 341.836 1233.33 342.428 1234 342.812C1234.67 343.212 1235.51 343.412 1236.52 343.412C1237.51 343.412 1238.3 343.196 1238.9 342.764C1239.5 342.332 1239.81 341.756 1239.81 341.036C1239.81 340.524 1239.6 340.076 1239.18 339.692C1238.77 339.324 1238 339.108 1236.88 339.044C1236 338.98 1235.24 338.9 1234.6 338.804C1233.94 339.156 1233.51 339.532 1233.3 339.932C1233.1 340.348 1232.99 340.716 1232.99 341.036Z" fill="#181717"/>
<rect x="860" y="462" width="200" height="200" rx="100" fill="#181717"/>
<path d="M904.5 570.5V553.7H910.02C911.332 553.7 912.412 553.916 913.26 554.348C914.108 554.78 914.732 555.364 915.132 556.1C915.548 556.836 915.756 557.668 915.756 558.596C915.756 559.508 915.556 560.332 915.156 561.068C914.756 561.804 914.132 562.396 913.284 562.844C912.436 563.276 911.348 563.492 910.02 563.492H906.516V570.5H904.5ZM906.516 561.788H909.972C911.316 561.788 912.268 561.508 912.828 560.948C913.404 560.372 913.692 559.588 913.692 558.596C913.692 557.588 913.404 556.804 912.828 556.244C912.268 555.668 911.316 555.38 909.972 555.38H906.516V561.788ZM921.903 570.788C920.495 570.788 919.375 570.364 918.543 569.516C917.711 568.652 917.295 567.332 917.295 565.556V558.596H919.311V565.34C919.311 567.82 920.327 569.06 922.359 569.06C923.399 569.06 924.255 568.692 924.927 567.956C925.615 567.204 925.959 566.14 925.959 564.764V558.596H927.975V570.5H926.151L926.007 568.364C925.639 569.116 925.087 569.708 924.351 570.14C923.631 570.572 922.815 570.788 921.903 570.788ZM930.573 570.5V558.596H932.397L932.565 560.876C932.933 560.092 933.493 559.468 934.245 559.004C934.997 558.54 935.925 558.308 937.029 558.308V560.42H936.477C935.773 560.42 935.125 560.548 934.533 560.804C933.941 561.044 933.469 561.46 933.117 562.052C932.765 562.644 932.589 563.46 932.589 564.5V570.5H930.573ZM943.599 570.788C942.463 570.788 941.439 570.532 940.527 570.02C939.631 569.492 938.919 568.764 938.391 567.836C937.879 566.892 937.623 565.796 937.623 564.548C937.623 563.3 937.879 562.212 938.391 561.284C938.919 560.34 939.631 559.612 940.527 559.1C941.439 558.572 942.463 558.308 943.599 558.308C945.007 558.308 946.191 558.676 947.151 559.412C948.127 560.148 948.743 561.132 948.999 562.364H946.935C946.775 561.628 946.383 561.06 945.759 560.66C945.135 560.244 944.407 560.036 943.575 560.036C942.903 560.036 942.271 560.204 941.679 560.54C941.087 560.876 940.607 561.38 940.239 562.052C939.871 562.724 939.687 563.556 939.687 564.548C939.687 565.54 939.871 566.372 940.239 567.044C940.607 567.716 941.087 568.228 941.679 568.58C942.271 568.916 942.903 569.084 943.575 569.084C944.407 569.084 945.135 568.884 945.759 568.484C946.383 568.068 946.775 567.484 946.935 566.732H948.999C948.759 567.932 948.151 568.908 947.175 569.66C946.199 570.412 945.007 570.788 943.599 570.788ZM951.094 570.5V553.22H953.11V560.636C953.51 559.9 954.078 559.332 954.814 558.932C955.55 558.516 956.35 558.308 957.214 558.308C958.59 558.308 959.694 558.74 960.526 559.604C961.358 560.452 961.774 561.764 961.774 563.54V570.5H959.782V563.756C959.782 561.276 958.782 560.036 956.782 560.036C955.742 560.036 954.87 560.412 954.166 561.164C953.462 561.9 953.11 562.956 953.11 564.332V570.5H951.094ZM968.069 570.788C967.077 570.788 966.253 570.62 965.597 570.284C964.941 569.948 964.453 569.5 964.133 568.94C963.813 568.38 963.653 567.772 963.653 567.116C963.653 565.9 964.117 564.964 965.045 564.308C965.973 563.652 967.237 563.324 968.837 563.324H972.053V563.18C972.053 562.14 971.781 561.356 971.237 560.828C970.693 560.284 969.965 560.012 969.053 560.012C968.269 560.012 967.589 560.212 967.013 560.612C966.453 560.996 966.101 561.564 965.957 562.316H963.893C963.973 561.452 964.261 560.724 964.757 560.132C965.269 559.54 965.901 559.092 966.653 558.788C967.405 558.468 968.205 558.308 969.053 558.308C970.717 558.308 971.965 558.756 972.797 559.652C973.645 560.532 974.069 561.708 974.069 563.18V570.5H972.269L972.149 568.364C971.813 569.036 971.317 569.612 970.661 570.092C970.021 570.556 969.157 570.788 968.069 570.788ZM968.381 569.084C969.149 569.084 969.805 568.884 970.349 568.484C970.909 568.084 971.333 567.564 971.621 566.924C971.909 566.284 972.053 565.612 972.053 564.908V564.884H969.005C967.821 564.884 966.981 565.092 966.485 565.508C966.005 565.908 965.765 566.412 965.765 567.02C965.765 567.644 965.989 568.148 966.437 568.532C966.901 568.9 967.549 569.084 968.381 569.084ZM980.933 570.788C979.509 570.788 978.325 570.428 977.381 569.708C976.437 568.988 975.885 568.012 975.725 566.78H977.789C977.917 567.404 978.245 567.948 978.773 568.412C979.317 568.86 980.045 569.084 980.957 569.084C981.805 569.084 982.429 568.908 982.829 568.556C983.229 568.188 983.429 567.756 983.429 567.26C983.429 566.54 983.165 566.06 982.637 565.82C982.125 565.58 981.397 565.364 980.453 565.172C979.813 565.044 979.173 564.86 978.533 564.62C977.893 564.38 977.357 564.044 976.925 563.612C976.493 563.164 976.277 562.58 976.277 561.86C976.277 560.82 976.661 559.972 977.429 559.316C978.213 558.644 979.269 558.308 980.597 558.308C981.861 558.308 982.893 558.628 983.693 559.268C984.509 559.892 984.981 560.788 985.109 561.956H983.117C983.037 561.348 982.773 560.876 982.325 560.54C981.893 560.188 981.309 560.012 980.573 560.012C979.853 560.012 979.293 560.164 978.893 560.468C978.509 560.772 978.317 561.172 978.317 561.668C978.317 562.148 978.565 562.524 979.061 562.796C979.573 563.068 980.261 563.3 981.125 563.492C981.861 563.652 982.557 563.852 983.213 564.092C983.885 564.316 984.429 564.66 984.845 565.124C985.277 565.572 985.493 566.228 985.493 567.092C985.509 568.164 985.101 569.052 984.269 569.756C983.453 570.444 982.341 570.788 980.933 570.788ZM988.877 555.956C988.477 555.956 988.141 555.828 987.869 555.572C987.613 555.3 987.485 554.964 987.485 554.564C987.485 554.18 987.613 553.86 987.869 553.604C988.141 553.348 988.477 553.22 988.877 553.22C989.261 553.22 989.589 553.348 989.861 553.604C990.133 553.86 990.269 554.18 990.269 554.564C990.269 554.964 990.133 555.3 989.861 555.572C989.589 555.828 989.261 555.956 988.877 555.956ZM987.869 570.5V558.596H989.885V570.5H987.869ZM992.675 570.5V558.596H994.499L994.619 560.732C995.003 559.98 995.555 559.388 996.275 558.956C996.995 558.524 997.811 558.308 998.723 558.308C1000.13 558.308 1001.25 558.74 1002.08 559.604C1002.93 560.452 1003.36 561.764 1003.36 563.54V570.5H1001.34V563.756C1001.34 561.276 1000.32 560.036 998.267 560.036C997.243 560.036 996.387 560.412 995.699 561.164C995.027 561.9 994.691 562.956 994.691 564.332V570.5H992.675ZM1010.39 566.756C1009.72 566.756 1009.11 566.668 1008.55 566.492L1007.35 567.62C1007.52 567.748 1007.74 567.86 1007.99 567.956C1008.27 568.036 1008.65 568.116 1009.15 568.196C1009.64 568.26 1010.34 568.332 1011.23 568.412C1012.83 568.524 1013.98 568.892 1014.67 569.516C1015.35 570.14 1015.7 570.956 1015.7 571.964C1015.7 572.652 1015.51 573.308 1015.12 573.932C1014.75 574.556 1014.18 575.068 1013.39 575.468C1012.63 575.868 1011.63 576.068 1010.42 576.068C1009.35 576.068 1008.39 575.924 1007.56 575.636C1006.73 575.364 1006.08 574.94 1005.62 574.364C1005.15 573.804 1004.92 573.092 1004.92 572.228C1004.92 571.78 1005.04 571.292 1005.28 570.764C1005.52 570.252 1005.97 569.764 1006.63 569.3C1006.27 569.156 1005.97 569.004 1005.71 568.844C1005.47 568.668 1005.25 568.476 1005.04 568.268V567.716L1007.08 565.7C1006.14 564.9 1005.67 563.844 1005.67 562.532C1005.67 561.748 1005.85 561.036 1006.22 560.396C1006.59 559.756 1007.12 559.252 1007.83 558.884C1008.53 558.5 1009.39 558.308 1010.39 558.308C1011.08 558.308 1011.71 558.404 1012.27 558.596H1016.66V560.108L1014.43 560.204C1014.89 560.876 1015.12 561.652 1015.12 562.532C1015.12 563.316 1014.93 564.028 1014.55 564.668C1014.18 565.308 1013.64 565.82 1012.94 566.204C1012.25 566.572 1011.4 566.756 1010.39 566.756ZM1010.39 565.1C1011.24 565.1 1011.91 564.884 1012.41 564.452C1012.92 564.004 1013.18 563.364 1013.18 562.532C1013.18 561.716 1012.92 561.092 1012.41 560.66C1011.91 560.212 1011.24 559.988 1010.39 559.988C1009.53 559.988 1008.84 560.212 1008.33 560.66C1007.83 561.092 1007.59 561.716 1007.59 562.532C1007.59 563.364 1007.83 564.004 1008.33 564.452C1008.84 564.884 1009.53 565.1 1010.39 565.1ZM1006.89 572.036C1006.89 572.836 1007.23 573.428 1007.9 573.812C1008.57 574.212 1009.41 574.412 1010.42 574.412C1011.41 574.412 1012.2 574.196 1012.79 573.764C1013.4 573.332 1013.71 572.756 1013.71 572.036C1013.71 571.524 1013.5 571.076 1013.08 570.692C1012.67 570.324 1011.9 570.108 1010.78 570.044C1009.9 569.98 1009.14 569.9 1008.5 569.804C1007.84 570.156 1007.41 570.532 1007.2 570.932C1006.99 571.348 1006.89 571.716 1006.89 572.036Z" fill="white"/>
</svg>
