<svg width="1920" height="776" viewBox="0 0 1920 776" fill="none" xmlns="http://www.w3.org/2000/svg">
<rect x="740.5" y="168.5" width="439" height="439" rx="219.5" stroke="#181717"/>
<path d="M935.547 378V355.6H949.403V357.808H938.235V365.616H948.443V367.792H938.235V375.792H949.403V378H935.547ZM952.649 378V355.6H959.881C961.631 355.6 963.06 355.888 964.169 356.464C965.279 357.04 966.1 357.829 966.633 358.832C967.167 359.835 967.433 360.944 967.433 362.16C967.433 363.568 967.049 364.837 966.281 365.968C965.535 367.099 964.361 367.899 962.761 368.368L967.657 378H964.489L959.945 368.752H959.753H955.337V378H952.649ZM955.337 366.64H959.689C961.417 366.64 962.676 366.224 963.465 365.392C964.255 364.56 964.649 363.493 964.649 362.192C964.649 360.869 964.255 359.824 963.465 359.056C962.697 358.267 961.428 357.872 959.657 357.872H955.337V366.64ZM970.658 378V355.6H978.018C979.767 355.6 981.207 355.888 982.338 356.464C983.469 357.04 984.301 357.819 984.834 358.8C985.389 359.781 985.666 360.891 985.666 362.128C985.666 363.344 985.399 364.443 984.866 365.424C984.333 366.405 983.501 367.195 982.37 367.792C981.239 368.368 979.789 368.656 978.018 368.656H973.346V378H970.658ZM973.346 366.384H977.954C979.746 366.384 981.015 366.011 981.762 365.264C982.53 364.496 982.914 363.451 982.914 362.128C982.914 360.784 982.53 359.739 981.762 358.992C981.015 358.224 979.746 357.84 977.954 357.84H973.346V366.384ZM917.201 420.384C915.558 420.384 914.129 420.085 912.913 419.488C911.697 418.891 910.758 418.059 910.097 416.992C909.436 415.925 909.105 414.688 909.105 413.28H911.921C911.921 414.155 912.124 414.965 912.529 415.712C912.934 416.437 913.521 417.024 914.289 417.472C915.078 417.899 916.049 418.112 917.201 418.112C918.716 418.112 919.889 417.749 920.721 417.024C921.553 416.299 921.969 415.392 921.969 414.304C921.969 413.408 921.777 412.693 921.393 412.16C921.009 411.605 920.486 411.157 919.825 410.816C919.185 410.475 918.438 410.176 917.585 409.92C916.753 409.664 915.878 409.376 914.961 409.056C913.233 408.459 911.953 407.723 911.121 406.848C910.289 405.952 909.873 404.789 909.873 403.36C909.852 402.165 910.129 401.109 910.705 400.192C911.281 399.253 912.092 398.528 913.137 398.016C914.204 397.483 915.462 397.216 916.913 397.216C918.342 397.216 919.58 397.483 920.625 398.016C921.692 398.549 922.513 399.285 923.089 400.224C923.686 401.163 923.996 402.229 924.017 403.424H921.201C921.201 402.805 921.041 402.197 920.721 401.6C920.401 400.981 919.91 400.48 919.249 400.096C918.609 399.712 917.798 399.52 916.817 399.52C915.601 399.499 914.598 399.808 913.809 400.448C913.041 401.088 912.657 401.973 912.657 403.104C912.657 404.064 912.924 404.8 913.457 405.312C914.012 405.824 914.78 406.251 915.761 406.592C916.742 406.912 917.873 407.285 919.153 407.712C920.22 408.096 921.18 408.544 922.033 409.056C922.886 409.568 923.548 410.229 924.017 411.04C924.508 411.851 924.753 412.885 924.753 414.144C924.753 415.211 924.476 416.224 923.921 417.184C923.366 418.123 922.524 418.891 921.393 419.488C920.284 420.085 918.886 420.384 917.201 420.384ZM929.173 427.04L933.109 418.464H932.181L925.877 404.128H928.789L934.037 416.48L939.605 404.128H942.389L931.989 427.04H929.173ZM949.409 420.384C947.51 420.384 945.931 419.904 944.673 418.944C943.414 417.984 942.678 416.683 942.465 415.04H945.217C945.387 415.872 945.825 416.597 946.529 417.216C947.254 417.813 948.225 418.112 949.441 418.112C950.571 418.112 951.403 417.877 951.937 417.408C952.47 416.917 952.737 416.341 952.737 415.68C952.737 414.72 952.385 414.08 951.681 413.76C950.998 413.44 950.027 413.152 948.769 412.896C947.915 412.725 947.062 412.48 946.209 412.16C945.355 411.84 944.641 411.392 944.065 410.816C943.489 410.219 943.201 409.44 943.201 408.48C943.201 407.093 943.713 405.963 944.737 405.088C945.782 404.192 947.19 403.744 948.961 403.744C950.646 403.744 952.022 404.171 953.089 405.024C954.177 405.856 954.806 407.051 954.977 408.608H952.321C952.214 407.797 951.862 407.168 951.265 406.72C950.689 406.251 949.91 406.016 948.929 406.016C947.969 406.016 947.222 406.219 946.689 406.624C946.177 407.029 945.921 407.563 945.921 408.224C945.921 408.864 946.251 409.365 946.913 409.728C947.595 410.091 948.513 410.4 949.665 410.656C950.646 410.869 951.574 411.136 952.449 411.456C953.345 411.755 954.07 412.213 954.625 412.832C955.201 413.429 955.489 414.304 955.489 415.456C955.51 416.885 954.966 418.069 953.857 419.008C952.769 419.925 951.286 420.384 949.409 420.384ZM963.922 420C962.471 420 961.33 419.648 960.498 418.944C959.666 418.24 959.25 416.971 959.25 415.136V406.4H956.498V404.128H959.25L959.602 400.32H961.938V404.128H966.61V406.4H961.938V415.136C961.938 416.139 962.141 416.821 962.546 417.184C962.951 417.525 963.666 417.696 964.69 417.696H966.354V420H963.922ZM975.763 420.384C974.249 420.384 972.905 420.043 971.731 419.36C970.558 418.656 969.63 417.685 968.947 416.448C968.286 415.211 967.955 413.749 967.955 412.064C967.955 410.4 968.286 408.949 968.947 407.712C969.609 406.453 970.526 405.483 971.699 404.8C972.894 404.096 974.27 403.744 975.827 403.744C977.363 403.744 978.686 404.096 979.795 404.8C980.926 405.483 981.79 406.389 982.387 407.52C982.985 408.651 983.283 409.867 983.283 411.168C983.283 411.403 983.273 411.637 983.251 411.872C983.251 412.107 983.251 412.373 983.251 412.672H970.611C970.675 413.888 970.953 414.901 971.443 415.712C971.955 416.501 972.585 417.099 973.331 417.504C974.099 417.909 974.91 418.112 975.763 418.112C976.873 418.112 977.801 417.856 978.547 417.344C979.294 416.832 979.838 416.139 980.179 415.264H982.835C982.409 416.736 981.587 417.963 980.371 418.944C979.177 419.904 977.641 420.384 975.763 420.384ZM975.763 406.016C974.483 406.016 973.342 406.411 972.339 407.2C971.358 407.968 970.793 409.099 970.643 410.592H980.627C980.563 409.163 980.073 408.043 979.155 407.232C978.238 406.421 977.107 406.016 975.763 406.016ZM985.886 420V404.128H988.318L988.51 406.432C989.022 405.579 989.705 404.917 990.558 404.448C991.411 403.979 992.371 403.744 993.438 403.744C994.697 403.744 995.774 404 996.67 404.512C997.587 405.024 998.291 405.803 998.782 406.848C999.337 405.888 1000.09 405.131 1001.05 404.576C1002.04 404.021 1003.09 403.744 1004.22 403.744C1006.12 403.744 1007.64 404.32 1008.77 405.472C1009.9 406.603 1010.46 408.352 1010.46 410.72V420H1007.81V411.008C1007.81 409.365 1007.48 408.128 1006.81 407.296C1006.15 406.464 1005.2 406.048 1003.97 406.048C1002.69 406.048 1001.62 406.549 1000.77 407.552C999.934 408.533 999.518 409.941 999.518 411.776V420H996.83V411.008C996.83 409.365 996.499 408.128 995.838 407.296C995.177 406.464 994.227 406.048 992.99 406.048C991.731 406.048 990.675 406.549 989.822 407.552C988.99 408.533 988.574 409.941 988.574 411.776V420H985.886Z" fill="#181717"/>
<rect x="1096.5" y="108.5" width="199" height="199" rx="99.5" fill="#181717"/>
<rect x="1096.5" y="108.5" width="199" height="199" rx="99.5" stroke="#181717"/>
<path d="M1145.51 201V184.2H1155.73V185.856H1147.52V191.76H1154.51V193.392H1147.52V201H1145.51ZM1158.71 186.456C1158.31 186.456 1157.98 186.328 1157.7 186.072C1157.45 185.8 1157.32 185.464 1157.32 185.064C1157.32 184.68 1157.45 184.36 1157.7 184.104C1157.98 183.848 1158.31 183.72 1158.71 183.72C1159.1 183.72 1159.42 183.848 1159.7 184.104C1159.97 184.36 1160.1 184.68 1160.1 185.064C1160.1 185.464 1159.97 185.8 1159.7 186.072C1159.42 186.328 1159.1 186.456 1158.71 186.456ZM1157.7 201V189.096H1159.72V201H1157.7ZM1162.51 201V189.096H1164.33L1164.45 191.232C1164.84 190.48 1165.39 189.888 1166.11 189.456C1166.83 189.024 1167.65 188.808 1168.56 188.808C1169.97 188.808 1171.09 189.24 1171.92 190.104C1172.77 190.952 1173.19 192.264 1173.19 194.04V201H1171.17V194.256C1171.17 191.776 1170.15 190.536 1168.1 190.536C1167.08 190.536 1166.22 190.912 1165.53 191.664C1164.86 192.4 1164.53 193.456 1164.53 194.832V201H1162.51ZM1179.48 201.288C1178.49 201.288 1177.67 201.12 1177.01 200.784C1176.36 200.448 1175.87 200 1175.55 199.44C1175.23 198.88 1175.07 198.272 1175.07 197.616C1175.07 196.4 1175.53 195.464 1176.46 194.808C1177.39 194.152 1178.65 193.824 1180.25 193.824H1183.47V193.68C1183.47 192.64 1183.2 191.856 1182.65 191.328C1182.11 190.784 1181.38 190.512 1180.47 190.512C1179.68 190.512 1179 190.712 1178.43 191.112C1177.87 191.496 1177.52 192.064 1177.37 192.816H1175.31C1175.39 191.952 1175.68 191.224 1176.17 190.632C1176.68 190.04 1177.32 189.592 1178.07 189.288C1178.82 188.968 1179.62 188.808 1180.47 188.808C1182.13 188.808 1183.38 189.256 1184.21 190.152C1185.06 191.032 1185.48 192.208 1185.48 193.68V201H1183.68L1183.56 198.864C1183.23 199.536 1182.73 200.112 1182.08 200.592C1181.44 201.056 1180.57 201.288 1179.48 201.288ZM1179.8 199.584C1180.56 199.584 1181.22 199.384 1181.76 198.984C1182.32 198.584 1182.75 198.064 1183.04 197.424C1183.32 196.784 1183.47 196.112 1183.47 195.408V195.384H1180.42C1179.24 195.384 1178.4 195.592 1177.9 196.008C1177.42 196.408 1177.18 196.912 1177.18 197.52C1177.18 198.144 1177.4 198.648 1177.85 199.032C1178.32 199.4 1178.96 199.584 1179.8 199.584ZM1187.79 201V189.096H1189.61L1189.73 191.232C1190.12 190.48 1190.67 189.888 1191.39 189.456C1192.11 189.024 1192.92 188.808 1193.84 188.808C1195.24 188.808 1196.36 189.24 1197.2 190.104C1198.04 190.952 1198.47 192.264 1198.47 194.04V201H1196.45V194.256C1196.45 191.776 1195.43 190.536 1193.38 190.536C1192.36 190.536 1191.5 190.912 1190.81 191.664C1190.14 192.4 1189.8 193.456 1189.8 194.832V201H1187.79ZM1206.28 201.288C1205.14 201.288 1204.12 201.032 1203.2 200.52C1202.31 199.992 1201.6 199.264 1201.07 198.336C1200.56 197.392 1200.3 196.296 1200.3 195.048C1200.3 193.8 1200.56 192.712 1201.07 191.784C1201.6 190.84 1202.31 190.112 1203.2 189.6C1204.12 189.072 1205.14 188.808 1206.28 188.808C1207.68 188.808 1208.87 189.176 1209.83 189.912C1210.8 190.648 1211.42 191.632 1211.68 192.864H1209.61C1209.45 192.128 1209.06 191.56 1208.44 191.16C1207.81 190.744 1207.08 190.536 1206.25 190.536C1205.58 190.536 1204.95 190.704 1204.36 191.04C1203.76 191.376 1203.28 191.88 1202.92 192.552C1202.55 193.224 1202.36 194.056 1202.36 195.048C1202.36 196.04 1202.55 196.872 1202.92 197.544C1203.28 198.216 1203.76 198.728 1204.36 199.08C1204.95 199.416 1205.58 199.584 1206.25 199.584C1207.08 199.584 1207.81 199.384 1208.44 198.984C1209.06 198.568 1209.45 197.984 1209.61 197.232H1211.68C1211.44 198.432 1210.83 199.408 1209.85 200.16C1208.88 200.912 1207.68 201.288 1206.28 201.288ZM1219.12 201.288C1217.99 201.288 1216.98 201.032 1216.1 200.52C1215.22 199.992 1214.52 199.264 1214.01 198.336C1213.51 197.408 1213.27 196.312 1213.27 195.048C1213.27 193.8 1213.51 192.712 1214.01 191.784C1214.51 190.84 1215.19 190.112 1216.07 189.6C1216.97 189.072 1218 188.808 1219.17 188.808C1220.32 188.808 1221.31 189.072 1222.15 189.6C1222.99 190.112 1223.64 190.792 1224.09 191.64C1224.54 192.488 1224.76 193.4 1224.76 194.376C1224.76 194.552 1224.75 194.728 1224.74 194.904C1224.74 195.08 1224.74 195.28 1224.74 195.504H1215.26C1215.31 196.416 1215.51 197.176 1215.88 197.784C1216.27 198.376 1216.74 198.824 1217.3 199.128C1217.87 199.432 1218.48 199.584 1219.12 199.584C1219.95 199.584 1220.65 199.392 1221.21 199.008C1221.77 198.624 1222.18 198.104 1222.43 197.448H1224.43C1224.11 198.552 1223.49 199.472 1222.58 200.208C1221.68 200.928 1220.53 201.288 1219.12 201.288ZM1219.12 190.512C1218.16 190.512 1217.31 190.808 1216.55 191.4C1215.82 191.976 1215.39 192.824 1215.28 193.944H1222.77C1222.72 192.872 1222.35 192.032 1221.67 191.424C1220.98 190.816 1220.13 190.512 1219.12 190.512ZM1237.43 201.288C1236.28 201.288 1235.27 201.08 1234.39 200.664C1233.52 200.232 1232.84 199.64 1232.35 198.888C1231.87 198.12 1231.63 197.216 1231.63 196.176C1231.63 195.04 1231.95 194.032 1232.61 193.152C1233.28 192.256 1234.25 191.552 1235.51 191.04C1234.97 190.448 1234.58 189.888 1234.34 189.36C1234.1 188.816 1233.98 188.232 1233.98 187.608C1233.98 186.536 1234.35 185.656 1235.11 184.968C1235.87 184.264 1236.92 183.912 1238.25 183.912C1239.11 183.912 1239.87 184.08 1240.51 184.416C1241.15 184.736 1241.64 185.184 1241.99 185.76C1242.35 186.336 1242.51 186.992 1242.47 187.728H1240.48C1240.5 187.008 1240.27 186.464 1239.81 186.096C1239.36 185.728 1238.84 185.544 1238.25 185.544C1237.53 185.544 1236.97 185.736 1236.57 186.12C1236.17 186.504 1235.97 186.992 1235.97 187.584C1235.97 188.096 1236.11 188.592 1236.38 189.072C1236.67 189.552 1237.09 190.088 1237.65 190.68L1242.95 196.032C1243.42 195.36 1243.92 194.552 1244.47 193.608L1245.21 192.312H1247.35L1246.29 194.184C1245.59 195.448 1244.91 196.504 1244.27 197.352L1247.9 201H1245.35L1243.12 198.744C1242.27 199.656 1241.39 200.312 1240.48 200.712C1239.57 201.096 1238.55 201.288 1237.43 201.288ZM1233.64 196.104C1233.64 197.096 1233.99 197.92 1234.7 198.576C1235.4 199.232 1236.32 199.56 1237.46 199.56C1238.31 199.56 1239.07 199.4 1239.76 199.08C1240.47 198.744 1241.15 198.2 1241.83 197.448L1236.74 192.288C1235.68 192.704 1234.9 193.232 1234.39 193.872C1233.89 194.512 1233.64 195.256 1233.64 196.104ZM1136.8 232L1142.99 215.2H1145.12L1151.29 232H1149.16L1147.62 227.68H1140.47L1138.91 232H1136.8ZM1141.07 226.048H1147.02L1144.04 217.744L1141.07 226.048ZM1157.77 232.288C1156.63 232.288 1155.61 232.032 1154.69 231.52C1153.8 230.992 1153.09 230.264 1152.56 229.336C1152.05 228.392 1151.79 227.296 1151.79 226.048C1151.79 224.8 1152.05 223.712 1152.56 222.784C1153.09 221.84 1153.8 221.112 1154.69 220.6C1155.61 220.072 1156.63 219.808 1157.77 219.808C1159.17 219.808 1160.36 220.176 1161.32 220.912C1162.29 221.648 1162.91 222.632 1163.17 223.864H1161.1C1160.94 223.128 1160.55 222.56 1159.93 222.16C1159.3 221.744 1158.57 221.536 1157.74 221.536C1157.07 221.536 1156.44 221.704 1155.85 222.04C1155.25 222.376 1154.77 222.88 1154.41 223.552C1154.04 224.224 1153.85 225.056 1153.85 226.048C1153.85 227.04 1154.04 227.872 1154.41 228.544C1154.77 229.216 1155.25 229.728 1155.85 230.08C1156.44 230.416 1157.07 230.584 1157.74 230.584C1158.57 230.584 1159.3 230.384 1159.93 229.984C1160.55 229.568 1160.94 228.984 1161.1 228.232H1163.17C1162.93 229.432 1162.32 230.408 1161.34 231.16C1160.37 231.912 1159.17 232.288 1157.77 232.288ZM1170.73 232.288C1169.6 232.288 1168.57 232.032 1167.66 231.52C1166.76 230.992 1166.05 230.264 1165.52 229.336C1165.01 228.392 1164.76 227.296 1164.76 226.048C1164.76 224.8 1165.01 223.712 1165.52 222.784C1166.05 221.84 1166.76 221.112 1167.66 220.6C1168.57 220.072 1169.6 219.808 1170.73 219.808C1172.14 219.808 1173.32 220.176 1174.28 220.912C1175.26 221.648 1175.88 222.632 1176.13 223.864H1174.07C1173.91 223.128 1173.52 222.56 1172.89 222.16C1172.27 221.744 1171.54 221.536 1170.71 221.536C1170.04 221.536 1169.4 221.704 1168.81 222.04C1168.22 222.376 1167.74 222.88 1167.37 223.552C1167 224.224 1166.82 225.056 1166.82 226.048C1166.82 227.04 1167 227.872 1167.37 228.544C1167.74 229.216 1168.22 229.728 1168.81 230.08C1169.4 230.416 1170.04 230.584 1170.71 230.584C1171.54 230.584 1172.27 230.384 1172.89 229.984C1173.52 229.568 1173.91 228.984 1174.07 228.232H1176.13C1175.89 229.432 1175.28 230.408 1174.31 231.16C1173.33 231.912 1172.14 232.288 1170.73 232.288ZM1183.65 232.288C1182.53 232.288 1181.52 232.032 1180.63 231.52C1179.73 231.008 1179.02 230.288 1178.49 229.36C1177.98 228.416 1177.72 227.312 1177.72 226.048C1177.72 224.784 1177.99 223.688 1178.52 222.76C1179.04 221.816 1179.76 221.088 1180.65 220.576C1181.56 220.064 1182.58 219.808 1183.7 219.808C1184.82 219.808 1185.83 220.064 1186.72 220.576C1187.62 221.088 1188.32 221.816 1188.84 222.76C1189.36 223.688 1189.63 224.784 1189.63 226.048C1189.63 227.312 1189.36 228.416 1188.84 229.36C1188.31 230.288 1187.59 231.008 1186.68 231.52C1185.78 232.032 1184.77 232.288 1183.65 232.288ZM1183.65 230.56C1184.34 230.56 1184.98 230.392 1185.57 230.056C1186.16 229.72 1186.64 229.216 1187.01 228.544C1187.38 227.872 1187.56 227.04 1187.56 226.048C1187.56 225.056 1187.38 224.224 1187.01 223.552C1186.66 222.88 1186.19 222.376 1185.6 222.04C1185 221.704 1184.37 221.536 1183.7 221.536C1183.01 221.536 1182.37 221.704 1181.78 222.04C1181.19 222.376 1180.71 222.88 1180.34 223.552C1179.97 224.224 1179.79 225.056 1179.79 226.048C1179.79 227.04 1179.97 227.872 1180.34 228.544C1180.71 229.216 1181.18 229.72 1181.76 230.056C1182.35 230.392 1182.98 230.56 1183.65 230.56ZM1196.06 232.288C1194.65 232.288 1193.53 231.864 1192.7 231.016C1191.86 230.152 1191.45 228.832 1191.45 227.056V220.096H1193.46V226.84C1193.46 229.32 1194.48 230.56 1196.51 230.56C1197.55 230.56 1198.41 230.192 1199.08 229.456C1199.77 228.704 1200.11 227.64 1200.11 226.264V220.096H1202.13V232H1200.3L1200.16 229.864C1199.79 230.616 1199.24 231.208 1198.5 231.64C1197.78 232.072 1196.97 232.288 1196.06 232.288ZM1204.73 232V220.096H1206.55L1206.67 222.232C1207.05 221.48 1207.61 220.888 1208.33 220.456C1209.05 220.024 1209.86 219.808 1210.77 219.808C1212.18 219.808 1213.3 220.24 1214.13 221.104C1214.98 221.952 1215.41 223.264 1215.41 225.04V232H1213.39V225.256C1213.39 222.776 1212.37 221.536 1210.32 221.536C1209.29 221.536 1208.44 221.912 1207.75 222.664C1207.08 223.4 1206.74 224.456 1206.74 225.832V232H1204.73ZM1222.44 232C1221.36 232 1220.5 231.736 1219.88 231.208C1219.25 230.68 1218.94 229.728 1218.94 228.352V221.8H1216.88V220.096H1218.94L1219.2 217.24H1220.96V220.096H1224.46V221.8H1220.96V228.352C1220.96 229.104 1221.11 229.616 1221.41 229.888C1221.72 230.144 1222.25 230.272 1223.02 230.272H1224.27V232H1222.44ZM1227.53 217.456C1227.13 217.456 1226.79 217.328 1226.52 217.072C1226.26 216.8 1226.13 216.464 1226.13 216.064C1226.13 215.68 1226.26 215.36 1226.52 215.104C1226.79 214.848 1227.13 214.72 1227.53 214.72C1227.91 214.72 1228.24 214.848 1228.51 215.104C1228.78 215.36 1228.92 215.68 1228.92 216.064C1228.92 216.464 1228.78 216.8 1228.51 217.072C1228.24 217.328 1227.91 217.456 1227.53 217.456ZM1226.52 232V220.096H1228.53V232H1226.52ZM1231.32 232V220.096H1233.15L1233.27 222.232C1233.65 221.48 1234.2 220.888 1234.92 220.456C1235.64 220.024 1236.46 219.808 1237.37 219.808C1238.78 219.808 1239.9 220.24 1240.73 221.104C1241.58 221.952 1242 223.264 1242 225.04V232H1239.99V225.256C1239.99 222.776 1238.96 221.536 1236.92 221.536C1235.89 221.536 1235.04 221.912 1234.35 222.664C1233.68 223.4 1233.34 224.456 1233.34 225.832V232H1231.32ZM1249.04 228.256C1248.37 228.256 1247.75 228.168 1247.19 227.992L1245.99 229.12C1246.17 229.248 1246.39 229.36 1246.64 229.456C1246.91 229.536 1247.3 229.616 1247.79 229.696C1248.29 229.76 1248.99 229.832 1249.88 229.912C1251.48 230.024 1252.63 230.392 1253.31 231.016C1254 231.64 1254.35 232.456 1254.35 233.464C1254.35 234.152 1254.15 234.808 1253.77 235.432C1253.4 236.056 1252.83 236.568 1252.04 236.968C1251.27 237.368 1250.28 237.568 1249.07 237.568C1247.99 237.568 1247.04 237.424 1246.21 237.136C1245.38 236.864 1244.73 236.44 1244.27 235.864C1243.8 235.304 1243.57 234.592 1243.57 233.728C1243.57 233.28 1243.69 232.792 1243.93 232.264C1244.17 231.752 1244.62 231.264 1245.27 230.8C1244.92 230.656 1244.62 230.504 1244.36 230.344C1244.12 230.168 1243.9 229.976 1243.69 229.768V229.216L1245.73 227.2C1244.79 226.4 1244.31 225.344 1244.31 224.032C1244.31 223.248 1244.5 222.536 1244.87 221.896C1245.23 221.256 1245.77 220.752 1246.47 220.384C1247.18 220 1248.03 219.808 1249.04 219.808C1249.73 219.808 1250.35 219.904 1250.91 220.096H1255.31V221.608L1253.07 221.704C1253.54 222.376 1253.77 223.152 1253.77 224.032C1253.77 224.816 1253.58 225.528 1253.19 226.168C1252.83 226.808 1252.29 227.32 1251.59 227.704C1250.9 228.072 1250.05 228.256 1249.04 228.256ZM1249.04 226.6C1249.89 226.6 1250.56 226.384 1251.06 225.952C1251.57 225.504 1251.83 224.864 1251.83 224.032C1251.83 223.216 1251.57 222.592 1251.06 222.16C1250.56 221.712 1249.89 221.488 1249.04 221.488C1248.18 221.488 1247.49 221.712 1246.98 222.16C1246.48 222.592 1246.23 223.216 1246.23 224.032C1246.23 224.864 1246.48 225.504 1246.98 225.952C1247.49 226.384 1248.18 226.6 1249.04 226.6ZM1245.54 233.536C1245.54 234.336 1245.87 234.928 1246.55 235.312C1247.22 235.712 1248.06 235.912 1249.07 235.912C1250.06 235.912 1250.85 235.696 1251.44 235.264C1252.05 234.832 1252.35 234.256 1252.35 233.536C1252.35 233.024 1252.15 232.576 1251.73 232.192C1251.31 231.824 1250.55 231.608 1249.43 231.544C1248.55 231.48 1247.79 231.4 1247.15 231.304C1246.49 231.656 1246.06 232.032 1245.85 232.432C1245.64 232.848 1245.54 233.216 1245.54 233.536Z" fill="white"/>
<rect x="950.5" y="0.5" width="199" height="199" rx="99.5" fill="#181717"/>
<rect x="950.5" y="0.5" width="199" height="199" rx="99.5" stroke="#181717"/>
<path d="M994.5 108.5V91.7H1000.02C1001.33 91.7 1002.41 91.916 1003.26 92.348C1004.11 92.78 1004.73 93.364 1005.13 94.1C1005.55 94.836 1005.76 95.668 1005.76 96.596C1005.76 97.508 1005.56 98.332 1005.16 99.068C1004.76 99.804 1004.13 100.396 1003.28 100.844C1002.44 101.276 1001.35 101.492 1000.02 101.492H996.516V108.5H994.5ZM996.516 99.788H999.972C1001.32 99.788 1002.27 99.508 1002.83 98.948C1003.4 98.372 1003.69 97.588 1003.69 96.596C1003.69 95.588 1003.4 94.804 1002.83 94.244C1002.27 93.668 1001.32 93.38 999.972 93.38H996.516V99.788ZM1011.9 108.788C1010.49 108.788 1009.37 108.364 1008.54 107.516C1007.71 106.652 1007.29 105.332 1007.29 103.556V96.596H1009.31V103.34C1009.31 105.82 1010.33 107.06 1012.36 107.06C1013.4 107.06 1014.25 106.692 1014.93 105.956C1015.61 105.204 1015.96 104.14 1015.96 102.764V96.596H1017.97V108.5H1016.15L1016.01 106.364C1015.64 107.116 1015.09 107.708 1014.35 108.14C1013.63 108.572 1012.81 108.788 1011.9 108.788ZM1020.57 108.5V96.596H1022.4L1022.57 98.876C1022.93 98.092 1023.49 97.468 1024.25 97.004C1025 96.54 1025.93 96.308 1027.03 96.308V98.42H1026.48C1025.77 98.42 1025.13 98.548 1024.53 98.804C1023.94 99.044 1023.47 99.46 1023.12 100.052C1022.77 100.644 1022.59 101.46 1022.59 102.5V108.5H1020.57ZM1033.6 108.788C1032.46 108.788 1031.44 108.532 1030.53 108.02C1029.63 107.492 1028.92 106.764 1028.39 105.836C1027.88 104.892 1027.62 103.796 1027.62 102.548C1027.62 101.3 1027.88 100.212 1028.39 99.284C1028.92 98.34 1029.63 97.612 1030.53 97.1C1031.44 96.572 1032.46 96.308 1033.6 96.308C1035.01 96.308 1036.19 96.676 1037.15 97.412C1038.13 98.148 1038.74 99.132 1039 100.364H1036.93C1036.77 99.628 1036.38 99.06 1035.76 98.66C1035.13 98.244 1034.41 98.036 1033.57 98.036C1032.9 98.036 1032.27 98.204 1031.68 98.54C1031.09 98.876 1030.61 99.38 1030.24 100.052C1029.87 100.724 1029.69 101.556 1029.69 102.548C1029.69 103.54 1029.87 104.372 1030.24 105.044C1030.61 105.716 1031.09 106.228 1031.68 106.58C1032.27 106.916 1032.9 107.084 1033.57 107.084C1034.41 107.084 1035.13 106.884 1035.76 106.484C1036.38 106.068 1036.77 105.484 1036.93 104.732H1039C1038.76 105.932 1038.15 106.908 1037.17 107.66C1036.2 108.412 1035.01 108.788 1033.6 108.788ZM1041.09 108.5V91.22H1043.11V98.636C1043.51 97.9 1044.08 97.332 1044.81 96.932C1045.55 96.516 1046.35 96.308 1047.21 96.308C1048.59 96.308 1049.69 96.74 1050.53 97.604C1051.36 98.452 1051.77 99.764 1051.77 101.54V108.5H1049.78V101.756C1049.78 99.276 1048.78 98.036 1046.78 98.036C1045.74 98.036 1044.87 98.412 1044.17 99.164C1043.46 99.9 1043.11 100.956 1043.11 102.332V108.5H1041.09ZM1058.07 108.788C1057.08 108.788 1056.25 108.62 1055.6 108.284C1054.94 107.948 1054.45 107.5 1054.13 106.94C1053.81 106.38 1053.65 105.772 1053.65 105.116C1053.65 103.9 1054.12 102.964 1055.04 102.308C1055.97 101.652 1057.24 101.324 1058.84 101.324H1062.05V101.18C1062.05 100.14 1061.78 99.356 1061.24 98.828C1060.69 98.284 1059.96 98.012 1059.05 98.012C1058.27 98.012 1057.59 98.212 1057.01 98.612C1056.45 98.996 1056.1 99.564 1055.96 100.316H1053.89C1053.97 99.452 1054.26 98.724 1054.76 98.132C1055.27 97.54 1055.9 97.092 1056.65 96.788C1057.4 96.468 1058.2 96.308 1059.05 96.308C1060.72 96.308 1061.96 96.756 1062.8 97.652C1063.64 98.532 1064.07 99.708 1064.07 101.18V108.5H1062.27L1062.15 106.364C1061.81 107.036 1061.32 107.612 1060.66 108.092C1060.02 108.556 1059.16 108.788 1058.07 108.788ZM1058.38 107.084C1059.15 107.084 1059.8 106.884 1060.35 106.484C1060.91 106.084 1061.33 105.564 1061.62 104.924C1061.91 104.284 1062.05 103.612 1062.05 102.908V102.884H1059C1057.82 102.884 1056.98 103.092 1056.48 103.508C1056 103.908 1055.76 104.412 1055.76 105.02C1055.76 105.644 1055.99 106.148 1056.44 106.532C1056.9 106.9 1057.55 107.084 1058.38 107.084ZM1070.93 108.788C1069.51 108.788 1068.32 108.428 1067.38 107.708C1066.44 106.988 1065.88 106.012 1065.72 104.78H1067.79C1067.92 105.404 1068.24 105.948 1068.77 106.412C1069.32 106.86 1070.04 107.084 1070.96 107.084C1071.8 107.084 1072.43 106.908 1072.83 106.556C1073.23 106.188 1073.43 105.756 1073.43 105.26C1073.43 104.54 1073.16 104.06 1072.64 103.82C1072.12 103.58 1071.4 103.364 1070.45 103.172C1069.81 103.044 1069.17 102.86 1068.53 102.62C1067.89 102.38 1067.36 102.044 1066.92 101.612C1066.49 101.164 1066.28 100.58 1066.28 99.86C1066.28 98.82 1066.66 97.972 1067.43 97.316C1068.21 96.644 1069.27 96.308 1070.6 96.308C1071.86 96.308 1072.89 96.628 1073.69 97.268C1074.51 97.892 1074.98 98.788 1075.11 99.956H1073.12C1073.04 99.348 1072.77 98.876 1072.32 98.54C1071.89 98.188 1071.31 98.012 1070.57 98.012C1069.85 98.012 1069.29 98.164 1068.89 98.468C1068.51 98.772 1068.32 99.172 1068.32 99.668C1068.32 100.148 1068.56 100.524 1069.06 100.796C1069.57 101.068 1070.26 101.3 1071.12 101.492C1071.86 101.652 1072.56 101.852 1073.21 102.092C1073.88 102.316 1074.43 102.66 1074.84 103.124C1075.28 103.572 1075.49 104.228 1075.49 105.092C1075.51 106.164 1075.1 107.052 1074.27 107.756C1073.45 108.444 1072.34 108.788 1070.93 108.788ZM1078.88 93.956C1078.48 93.956 1078.14 93.828 1077.87 93.572C1077.61 93.3 1077.48 92.964 1077.48 92.564C1077.48 92.18 1077.61 91.86 1077.87 91.604C1078.14 91.348 1078.48 91.22 1078.88 91.22C1079.26 91.22 1079.59 91.348 1079.86 91.604C1080.13 91.86 1080.27 92.18 1080.27 92.564C1080.27 92.964 1080.13 93.3 1079.86 93.572C1079.59 93.828 1079.26 93.956 1078.88 93.956ZM1077.87 108.5V96.596H1079.88V108.5H1077.87ZM1082.68 108.5V96.596H1084.5L1084.62 98.732C1085 97.98 1085.56 97.388 1086.28 96.956C1087 96.524 1087.81 96.308 1088.72 96.308C1090.13 96.308 1091.25 96.74 1092.08 97.604C1092.93 98.452 1093.36 99.764 1093.36 101.54V108.5H1091.34V101.756C1091.34 99.276 1090.32 98.036 1088.27 98.036C1087.24 98.036 1086.39 98.412 1085.7 99.164C1085.03 99.9 1084.69 100.956 1084.69 102.332V108.5H1082.68ZM1100.39 104.756C1099.72 104.756 1099.11 104.668 1098.55 104.492L1097.35 105.62C1097.52 105.748 1097.74 105.86 1097.99 105.956C1098.27 106.036 1098.65 106.116 1099.15 106.196C1099.64 106.26 1100.34 106.332 1101.23 106.412C1102.83 106.524 1103.98 106.892 1104.67 107.516C1105.35 108.14 1105.7 108.956 1105.7 109.964C1105.7 110.652 1105.51 111.308 1105.12 111.932C1104.75 112.556 1104.18 113.068 1103.39 113.468C1102.63 113.868 1101.63 114.068 1100.42 114.068C1099.35 114.068 1098.39 113.924 1097.56 113.636C1096.73 113.364 1096.08 112.94 1095.62 112.364C1095.15 111.804 1094.92 111.092 1094.92 110.228C1094.92 109.78 1095.04 109.292 1095.28 108.764C1095.52 108.252 1095.97 107.764 1096.63 107.3C1096.27 107.156 1095.97 107.004 1095.71 106.844C1095.47 106.668 1095.25 106.476 1095.04 106.268V105.716L1097.08 103.7C1096.14 102.9 1095.67 101.844 1095.67 100.532C1095.67 99.748 1095.85 99.036 1096.22 98.396C1096.59 97.756 1097.12 97.252 1097.83 96.884C1098.53 96.5 1099.39 96.308 1100.39 96.308C1101.08 96.308 1101.71 96.404 1102.27 96.596H1106.66V98.108L1104.43 98.204C1104.89 98.876 1105.12 99.652 1105.12 100.532C1105.12 101.316 1104.93 102.028 1104.55 102.668C1104.18 103.308 1103.64 103.82 1102.94 104.204C1102.25 104.572 1101.4 104.756 1100.39 104.756ZM1100.39 103.1C1101.24 103.1 1101.91 102.884 1102.41 102.452C1102.92 102.004 1103.18 101.364 1103.18 100.532C1103.18 99.716 1102.92 99.092 1102.41 98.66C1101.91 98.212 1101.24 97.988 1100.39 97.988C1099.53 97.988 1098.84 98.212 1098.33 98.66C1097.83 99.092 1097.59 99.716 1097.59 100.532C1097.59 101.364 1097.83 102.004 1098.33 102.452C1098.84 102.884 1099.53 103.1 1100.39 103.1ZM1096.89 110.036C1096.89 110.836 1097.23 111.428 1097.9 111.812C1098.57 112.212 1099.41 112.412 1100.42 112.412C1101.41 112.412 1102.2 112.196 1102.79 111.764C1103.4 111.332 1103.71 110.756 1103.71 110.036C1103.71 109.524 1103.5 109.076 1103.08 108.692C1102.67 108.324 1101.9 108.108 1100.78 108.044C1099.9 107.98 1099.14 107.9 1098.5 107.804C1097.84 108.156 1097.41 108.532 1097.2 108.932C1096.99 109.348 1096.89 109.716 1096.89 110.036Z" fill="white"/>
<rect x="624.5" y="108.5" width="199" height="199" rx="99.5" stroke="#181717"/>
<path d="M688.111 201V184.2H690.127V191.616H698.839V184.2H700.855V201H698.839V193.272H690.127V201H688.111ZM707.904 201.288C706.496 201.288 705.376 200.864 704.544 200.016C703.712 199.152 703.296 197.832 703.296 196.056V189.096H705.312V195.84C705.312 198.32 706.328 199.56 708.36 199.56C709.4 199.56 710.256 199.192 710.928 198.456C711.616 197.704 711.96 196.64 711.96 195.264V189.096H713.976V201H712.152L712.008 198.864C711.64 199.616 711.088 200.208 710.352 200.64C709.632 201.072 708.816 201.288 707.904 201.288ZM716.574 201V189.096H718.398L718.542 190.824C718.926 190.184 719.438 189.688 720.078 189.336C720.718 188.984 721.438 188.808 722.238 188.808C723.182 188.808 723.99 189 724.662 189.384C725.35 189.768 725.878 190.352 726.246 191.136C726.662 190.416 727.23 189.848 727.95 189.432C728.686 189.016 729.478 188.808 730.326 188.808C731.75 188.808 732.886 189.24 733.734 190.104C734.582 190.952 735.006 192.264 735.006 194.04V201H733.014V194.256C733.014 193.024 732.766 192.096 732.27 191.472C731.774 190.848 731.062 190.536 730.134 190.536C729.174 190.536 728.374 190.912 727.734 191.664C727.11 192.4 726.798 193.456 726.798 194.832V201H724.782V194.256C724.782 193.024 724.534 192.096 724.038 191.472C723.542 190.848 722.83 190.536 721.902 190.536C720.958 190.536 720.166 190.912 719.526 191.664C718.902 192.4 718.59 193.456 718.59 194.832V201H716.574ZM741.283 201.288C740.291 201.288 739.467 201.12 738.811 200.784C738.155 200.448 737.667 200 737.347 199.44C737.027 198.88 736.867 198.272 736.867 197.616C736.867 196.4 737.331 195.464 738.259 194.808C739.187 194.152 740.451 193.824 742.051 193.824H745.267V193.68C745.267 192.64 744.995 191.856 744.451 191.328C743.907 190.784 743.179 190.512 742.267 190.512C741.483 190.512 740.803 190.712 740.227 191.112C739.667 191.496 739.315 192.064 739.171 192.816H737.107C737.187 191.952 737.475 191.224 737.971 190.632C738.483 190.04 739.115 189.592 739.867 189.288C740.619 188.968 741.419 188.808 742.267 188.808C743.931 188.808 745.179 189.256 746.011 190.152C746.859 191.032 747.283 192.208 747.283 193.68V201H745.483L745.363 198.864C745.027 199.536 744.531 200.112 743.875 200.592C743.235 201.056 742.371 201.288 741.283 201.288ZM741.595 199.584C742.363 199.584 743.019 199.384 743.563 198.984C744.123 198.584 744.547 198.064 744.835 197.424C745.123 196.784 745.267 196.112 745.267 195.408V195.384H742.219C741.035 195.384 740.195 195.592 739.699 196.008C739.219 196.408 738.979 196.912 738.979 197.52C738.979 198.144 739.203 198.648 739.651 199.032C740.115 199.4 740.763 199.584 741.595 199.584ZM749.587 201V189.096H751.411L751.531 191.232C751.915 190.48 752.467 189.888 753.187 189.456C753.907 189.024 754.723 188.808 755.635 188.808C757.043 188.808 758.163 189.24 758.995 190.104C759.843 190.952 760.267 192.264 760.267 194.04V201H758.251V194.256C758.251 191.776 757.227 190.536 755.179 190.536C754.155 190.536 753.299 190.912 752.611 191.664C751.939 192.4 751.603 193.456 751.603 194.832V201H749.587ZM671.293 232V215.2H676.717C678.029 215.2 679.101 215.416 679.933 215.848C680.765 216.28 681.381 216.872 681.781 217.624C682.181 218.376 682.381 219.208 682.381 220.12C682.381 221.176 682.093 222.128 681.517 222.976C680.957 223.824 680.077 224.424 678.877 224.776L682.549 232H680.173L676.765 225.064H676.621H673.309V232H671.293ZM673.309 223.48H676.573C677.869 223.48 678.813 223.168 679.405 222.544C679.997 221.92 680.293 221.12 680.293 220.144C680.293 219.152 679.997 218.368 679.405 217.792C678.829 217.2 677.877 216.904 676.549 216.904H673.309V223.48ZM689.305 232.288C688.169 232.288 687.161 232.032 686.281 231.52C685.401 230.992 684.705 230.264 684.193 229.336C683.697 228.408 683.449 227.312 683.449 226.048C683.449 224.8 683.697 223.712 684.193 222.784C684.689 221.84 685.377 221.112 686.257 220.6C687.153 220.072 688.185 219.808 689.353 219.808C690.505 219.808 691.497 220.072 692.329 220.6C693.177 221.112 693.825 221.792 694.273 222.64C694.721 223.488 694.945 224.4 694.945 225.376C694.945 225.552 694.937 225.728 694.921 225.904C694.921 226.08 694.921 226.28 694.921 226.504H685.441C685.489 227.416 685.697 228.176 686.065 228.784C686.449 229.376 686.921 229.824 687.481 230.128C688.057 230.432 688.665 230.584 689.305 230.584C690.137 230.584 690.833 230.392 691.393 230.008C691.953 229.624 692.361 229.104 692.617 228.448H694.609C694.289 229.552 693.673 230.472 692.761 231.208C691.865 231.928 690.713 232.288 689.305 232.288ZM689.305 221.512C688.345 221.512 687.489 221.808 686.737 222.4C686.001 222.976 685.577 223.824 685.465 224.944H692.953C692.905 223.872 692.537 223.032 691.849 222.424C691.161 221.816 690.313 221.512 689.305 221.512ZM701.457 232.288C700.033 232.288 698.849 231.928 697.905 231.208C696.961 230.488 696.409 229.512 696.249 228.28H698.313C698.441 228.904 698.769 229.448 699.297 229.912C699.841 230.36 700.569 230.584 701.481 230.584C702.329 230.584 702.953 230.408 703.353 230.056C703.753 229.688 703.953 229.256 703.953 228.76C703.953 228.04 703.689 227.56 703.161 227.32C702.649 227.08 701.921 226.864 700.977 226.672C700.337 226.544 699.697 226.36 699.057 226.12C698.417 225.88 697.881 225.544 697.449 225.112C697.017 224.664 696.801 224.08 696.801 223.36C696.801 222.32 697.185 221.472 697.953 220.816C698.737 220.144 699.793 219.808 701.121 219.808C702.385 219.808 703.417 220.128 704.217 220.768C705.033 221.392 705.505 222.288 705.633 223.456H703.641C703.561 222.848 703.297 222.376 702.849 222.04C702.417 221.688 701.833 221.512 701.097 221.512C700.377 221.512 699.817 221.664 699.417 221.968C699.033 222.272 698.841 222.672 698.841 223.168C698.841 223.648 699.089 224.024 699.585 224.296C700.097 224.568 700.785 224.8 701.649 224.992C702.385 225.152 703.081 225.352 703.737 225.592C704.409 225.816 704.953 226.16 705.369 226.624C705.801 227.072 706.017 227.728 706.017 228.592C706.033 229.664 705.625 230.552 704.793 231.256C703.977 231.944 702.865 232.288 701.457 232.288ZM713.601 232.288C712.481 232.288 711.473 232.032 710.577 231.52C709.681 231.008 708.969 230.288 708.441 229.36C707.929 228.416 707.673 227.312 707.673 226.048C707.673 224.784 707.937 223.688 708.465 222.76C708.993 221.816 709.705 221.088 710.601 220.576C711.513 220.064 712.529 219.808 713.649 219.808C714.769 219.808 715.777 220.064 716.673 220.576C717.569 221.088 718.273 221.816 718.785 222.76C719.313 223.688 719.577 224.784 719.577 226.048C719.577 227.312 719.313 228.416 718.785 229.36C718.257 230.288 717.537 231.008 716.625 231.52C715.729 232.032 714.721 232.288 713.601 232.288ZM713.601 230.56C714.289 230.56 714.929 230.392 715.521 230.056C716.113 229.72 716.593 229.216 716.961 228.544C717.329 227.872 717.513 227.04 717.513 226.048C717.513 225.056 717.329 224.224 716.961 223.552C716.609 222.88 716.137 222.376 715.545 222.04C714.953 221.704 714.321 221.536 713.649 221.536C712.961 221.536 712.321 221.704 711.729 222.04C711.137 222.376 710.657 222.88 710.289 223.552C709.921 224.224 709.737 225.056 709.737 226.048C709.737 227.04 709.921 227.872 710.289 228.544C710.657 229.216 711.129 229.72 711.705 230.056C712.297 230.392 712.929 230.56 713.601 230.56ZM726.004 232.288C724.596 232.288 723.476 231.864 722.644 231.016C721.812 230.152 721.396 228.832 721.396 227.056V220.096H723.412V226.84C723.412 229.32 724.428 230.56 726.46 230.56C727.5 230.56 728.356 230.192 729.028 229.456C729.716 228.704 730.06 227.64 730.06 226.264V220.096H732.076V232H730.252L730.108 229.864C729.74 230.616 729.188 231.208 728.452 231.64C727.732 232.072 726.916 232.288 726.004 232.288ZM734.674 232V220.096H736.498L736.666 222.376C737.034 221.592 737.594 220.968 738.346 220.504C739.098 220.04 740.026 219.808 741.13 219.808V221.92H740.578C739.874 221.92 739.226 222.048 738.634 222.304C738.042 222.544 737.57 222.96 737.218 223.552C736.866 224.144 736.69 224.96 736.69 226V232H734.674ZM747.7 232.288C746.564 232.288 745.54 232.032 744.628 231.52C743.732 230.992 743.02 230.264 742.492 229.336C741.98 228.392 741.724 227.296 741.724 226.048C741.724 224.8 741.98 223.712 742.492 222.784C743.02 221.84 743.732 221.112 744.628 220.6C745.54 220.072 746.564 219.808 747.7 219.808C749.108 219.808 750.292 220.176 751.252 220.912C752.228 221.648 752.844 222.632 753.1 223.864H751.036C750.876 223.128 750.484 222.56 749.86 222.16C749.236 221.744 748.508 221.536 747.676 221.536C747.004 221.536 746.372 221.704 745.78 222.04C745.188 222.376 744.708 222.88 744.34 223.552C743.972 224.224 743.788 225.056 743.788 226.048C743.788 227.04 743.972 227.872 744.34 228.544C744.708 229.216 745.188 229.728 745.78 230.08C746.372 230.416 747.004 230.584 747.676 230.584C748.508 230.584 749.236 230.384 749.86 229.984C750.484 229.568 750.876 228.984 751.036 228.232H753.1C752.86 229.432 752.252 230.408 751.276 231.16C750.3 231.912 749.108 232.288 747.7 232.288ZM760.547 232.288C759.411 232.288 758.403 232.032 757.523 231.52C756.643 230.992 755.947 230.264 755.435 229.336C754.939 228.408 754.691 227.312 754.691 226.048C754.691 224.8 754.939 223.712 755.435 222.784C755.931 221.84 756.619 221.112 757.499 220.6C758.395 220.072 759.427 219.808 760.595 219.808C761.747 219.808 762.739 220.072 763.571 220.6C764.419 221.112 765.067 221.792 765.515 222.64C765.963 223.488 766.187 224.4 766.187 225.376C766.187 225.552 766.179 225.728 766.163 225.904C766.163 226.08 766.163 226.28 766.163 226.504H756.683C756.731 227.416 756.939 228.176 757.307 228.784C757.691 229.376 758.163 229.824 758.723 230.128C759.299 230.432 759.907 230.584 760.547 230.584C761.379 230.584 762.075 230.392 762.635 230.008C763.195 229.624 763.603 229.104 763.859 228.448H765.851C765.531 229.552 764.915 230.472 764.003 231.208C763.107 231.928 761.955 232.288 760.547 232.288ZM760.547 221.512C759.587 221.512 758.731 221.808 757.979 222.4C757.243 222.976 756.819 223.824 756.707 224.944H764.195C764.147 223.872 763.779 223.032 763.091 222.424C762.403 221.816 761.555 221.512 760.547 221.512ZM772.699 232.288C771.275 232.288 770.091 231.928 769.147 231.208C768.203 230.488 767.651 229.512 767.491 228.28H769.555C769.683 228.904 770.011 229.448 770.539 229.912C771.083 230.36 771.811 230.584 772.723 230.584C773.571 230.584 774.195 230.408 774.595 230.056C774.995 229.688 775.195 229.256 775.195 228.76C775.195 228.04 774.931 227.56 774.403 227.32C773.891 227.08 773.163 226.864 772.219 226.672C771.579 226.544 770.939 226.36 770.299 226.12C769.659 225.88 769.123 225.544 768.691 225.112C768.259 224.664 768.043 224.08 768.043 223.36C768.043 222.32 768.427 221.472 769.195 220.816C769.979 220.144 771.035 219.808 772.363 219.808C773.627 219.808 774.659 220.128 775.459 220.768C776.275 221.392 776.747 222.288 776.875 223.456H774.883C774.803 222.848 774.539 222.376 774.091 222.04C773.659 221.688 773.075 221.512 772.339 221.512C771.619 221.512 771.059 221.664 770.659 221.968C770.275 222.272 770.083 222.672 770.083 223.168C770.083 223.648 770.331 224.024 770.827 224.296C771.339 224.568 772.027 224.8 772.891 224.992C773.627 225.152 774.323 225.352 774.979 225.592C775.651 225.816 776.195 226.16 776.611 226.624C777.043 227.072 777.259 227.728 777.259 228.592C777.275 229.664 776.867 230.552 776.035 231.256C775.219 231.944 774.107 232.288 772.699 232.288Z" fill="#181717"/>
<rect x="770.5" y="0.5" width="199" height="199" rx="99.5" stroke="#181717"/>
<path d="M834.69 93V76.2H840.21C841.522 76.2 842.602 76.416 843.45 76.848C844.298 77.28 844.922 77.864 845.322 78.6C845.738 79.336 845.946 80.168 845.946 81.096C845.946 82.008 845.746 82.832 845.346 83.568C844.946 84.304 844.322 84.896 843.474 85.344C842.626 85.776 841.538 85.992 840.21 85.992H836.706V93H834.69ZM836.706 84.288H840.162C841.506 84.288 842.458 84.008 843.018 83.448C843.594 82.872 843.882 82.088 843.882 81.096C843.882 80.088 843.594 79.304 843.018 78.744C842.458 78.168 841.506 77.88 840.162 77.88H836.706V84.288ZM847.748 93V81.096H849.572L849.74 83.376C850.108 82.592 850.668 81.968 851.42 81.504C852.172 81.04 853.1 80.808 854.204 80.808V82.92H853.652C852.948 82.92 852.3 83.048 851.708 83.304C851.116 83.544 850.644 83.96 850.292 84.552C849.94 85.144 849.764 85.96 849.764 87V93H847.748ZM860.726 93.288C859.606 93.288 858.598 93.032 857.702 92.52C856.806 92.008 856.094 91.288 855.566 90.36C855.054 89.416 854.798 88.312 854.798 87.048C854.798 85.784 855.062 84.688 855.59 83.76C856.118 82.816 856.83 82.088 857.726 81.576C858.638 81.064 859.654 80.808 860.774 80.808C861.894 80.808 862.902 81.064 863.798 81.576C864.694 82.088 865.398 82.816 865.91 83.76C866.438 84.688 866.702 85.784 866.702 87.048C866.702 88.312 866.438 89.416 865.91 90.36C865.382 91.288 864.662 92.008 863.75 92.52C862.854 93.032 861.846 93.288 860.726 93.288ZM860.726 91.56C861.414 91.56 862.054 91.392 862.646 91.056C863.238 90.72 863.718 90.216 864.086 89.544C864.454 88.872 864.638 88.04 864.638 87.048C864.638 86.056 864.454 85.224 864.086 84.552C863.734 83.88 863.262 83.376 862.67 83.04C862.078 82.704 861.446 82.536 860.774 82.536C860.086 82.536 859.446 82.704 858.854 83.04C858.262 83.376 857.782 83.88 857.414 84.552C857.046 85.224 856.862 86.056 856.862 87.048C856.862 88.04 857.046 88.872 857.414 89.544C857.782 90.216 858.254 90.72 858.83 91.056C859.422 91.392 860.054 91.56 860.726 91.56ZM870.105 78.456C869.721 78.456 869.393 78.328 869.121 78.072C868.849 77.8 868.713 77.464 868.713 77.064C868.713 76.68 868.849 76.36 869.121 76.104C869.393 75.848 869.721 75.72 870.105 75.72C870.489 75.72 870.809 75.848 871.065 76.104C871.337 76.36 871.473 76.68 871.473 77.064C871.473 77.464 871.337 77.8 871.065 78.072C870.809 78.328 870.489 78.456 870.105 78.456ZM866.457 98.28V96.552H867.393C867.985 96.552 868.409 96.424 868.665 96.168C868.937 95.928 869.073 95.512 869.073 94.92V81.096H871.089V94.968C871.089 96.12 870.801 96.96 870.225 97.488C869.649 98.016 868.809 98.28 867.705 98.28H866.457ZM879.229 93.288C878.093 93.288 877.085 93.032 876.205 92.52C875.325 91.992 874.629 91.264 874.117 90.336C873.621 89.408 873.373 88.312 873.373 87.048C873.373 85.8 873.621 84.712 874.117 83.784C874.613 82.84 875.301 82.112 876.181 81.6C877.077 81.072 878.109 80.808 879.277 80.808C880.429 80.808 881.421 81.072 882.253 81.6C883.101 82.112 883.749 82.792 884.197 83.64C884.645 84.488 884.869 85.4 884.869 86.376C884.869 86.552 884.861 86.728 884.845 86.904C884.845 87.08 884.845 87.28 884.845 87.504H875.365C875.413 88.416 875.621 89.176 875.989 89.784C876.373 90.376 876.845 90.824 877.405 91.128C877.981 91.432 878.589 91.584 879.229 91.584C880.061 91.584 880.757 91.392 881.317 91.008C881.877 90.624 882.285 90.104 882.541 89.448H884.533C884.213 90.552 883.597 91.472 882.685 92.208C881.789 92.928 880.637 93.288 879.229 93.288ZM879.229 82.512C878.269 82.512 877.413 82.808 876.661 83.4C875.925 83.976 875.501 84.824 875.389 85.944H882.877C882.829 84.872 882.461 84.032 881.773 83.424C881.085 82.816 880.237 82.512 879.229 82.512ZM892.293 93.288C891.157 93.288 890.133 93.032 889.221 92.52C888.325 91.992 887.613 91.264 887.085 90.336C886.573 89.392 886.317 88.296 886.317 87.048C886.317 85.8 886.573 84.712 887.085 83.784C887.613 82.84 888.325 82.112 889.221 81.6C890.133 81.072 891.157 80.808 892.293 80.808C893.701 80.808 894.885 81.176 895.845 81.912C896.821 82.648 897.437 83.632 897.693 84.864H895.629C895.469 84.128 895.077 83.56 894.453 83.16C893.829 82.744 893.101 82.536 892.269 82.536C891.597 82.536 890.965 82.704 890.373 83.04C889.781 83.376 889.301 83.88 888.933 84.552C888.565 85.224 888.381 86.056 888.381 87.048C888.381 88.04 888.565 88.872 888.933 89.544C889.301 90.216 889.781 90.728 890.373 91.08C890.965 91.416 891.597 91.584 892.269 91.584C893.101 91.584 893.829 91.384 894.453 90.984C895.077 90.568 895.469 89.984 895.629 89.232H897.693C897.453 90.432 896.845 91.408 895.869 92.16C894.893 92.912 893.701 93.288 892.293 93.288ZM904.165 93C903.077 93 902.221 92.736 901.597 92.208C900.973 91.68 900.661 90.728 900.661 89.352V82.8H898.597V81.096H900.661L900.925 78.24H902.677V81.096H906.181V82.8H902.677V89.352C902.677 90.104 902.829 90.616 903.133 90.888C903.437 91.144 903.973 91.272 904.741 91.272H905.989V93H904.165ZM802.711 124V107.2H805.063L811.111 118.912L817.111 107.2H819.487V124H817.471V110.8L811.855 121.6H810.343L804.727 110.824V124H802.711ZM826.152 124.288C825.16 124.288 824.336 124.12 823.68 123.784C823.024 123.448 822.536 123 822.216 122.44C821.896 121.88 821.736 121.272 821.736 120.616C821.736 119.4 822.2 118.464 823.128 117.808C824.056 117.152 825.32 116.824 826.92 116.824H830.136V116.68C830.136 115.64 829.864 114.856 829.32 114.328C828.776 113.784 828.048 113.512 827.136 113.512C826.352 113.512 825.672 113.712 825.096 114.112C824.536 114.496 824.184 115.064 824.04 115.816H821.976C822.056 114.952 822.344 114.224 822.84 113.632C823.352 113.04 823.984 112.592 824.736 112.288C825.488 111.968 826.288 111.808 827.136 111.808C828.8 111.808 830.048 112.256 830.88 113.152C831.728 114.032 832.152 115.208 832.152 116.68V124H830.352L830.232 121.864C829.896 122.536 829.4 123.112 828.744 123.592C828.104 124.056 827.24 124.288 826.152 124.288ZM826.464 122.584C827.232 122.584 827.888 122.384 828.432 121.984C828.992 121.584 829.416 121.064 829.704 120.424C829.992 119.784 830.136 119.112 830.136 118.408V118.384H827.088C825.904 118.384 825.064 118.592 824.568 119.008C824.088 119.408 823.848 119.912 823.848 120.52C823.848 121.144 824.072 121.648 824.52 122.032C824.984 122.4 825.632 122.584 826.464 122.584ZM834.456 124V112.096H836.28L836.4 114.232C836.784 113.48 837.336 112.888 838.056 112.456C838.776 112.024 839.592 111.808 840.504 111.808C841.912 111.808 843.032 112.24 843.864 113.104C844.712 113.952 845.136 115.264 845.136 117.04V124H843.12V117.256C843.12 114.776 842.096 113.536 840.048 113.536C839.024 113.536 838.168 113.912 837.48 114.664C836.808 115.4 836.472 116.456 836.472 117.832V124H834.456ZM851.43 124.288C850.438 124.288 849.614 124.12 848.958 123.784C848.302 123.448 847.814 123 847.494 122.44C847.174 121.88 847.014 121.272 847.014 120.616C847.014 119.4 847.478 118.464 848.406 117.808C849.334 117.152 850.598 116.824 852.198 116.824H855.414V116.68C855.414 115.64 855.142 114.856 854.598 114.328C854.054 113.784 853.326 113.512 852.414 113.512C851.63 113.512 850.95 113.712 850.374 114.112C849.814 114.496 849.462 115.064 849.318 115.816H847.254C847.334 114.952 847.622 114.224 848.118 113.632C848.63 113.04 849.262 112.592 850.014 112.288C850.766 111.968 851.566 111.808 852.414 111.808C854.078 111.808 855.326 112.256 856.158 113.152C857.006 114.032 857.43 115.208 857.43 116.68V124H855.63L855.51 121.864C855.174 122.536 854.678 123.112 854.022 123.592C853.382 124.056 852.518 124.288 851.43 124.288ZM851.742 122.584C852.51 122.584 853.166 122.384 853.71 121.984C854.27 121.584 854.694 121.064 854.982 120.424C855.27 119.784 855.414 119.112 855.414 118.408V118.384H852.366C851.182 118.384 850.342 118.592 849.846 119.008C849.366 119.408 849.126 119.912 849.126 120.52C849.126 121.144 849.35 121.648 849.798 122.032C850.262 122.4 850.91 122.584 851.742 122.584ZM864.439 120.256C863.767 120.256 863.151 120.168 862.591 119.992L861.391 121.12C861.567 121.248 861.783 121.36 862.039 121.456C862.311 121.536 862.695 121.616 863.191 121.696C863.687 121.76 864.383 121.832 865.279 121.912C866.879 122.024 868.023 122.392 868.711 123.016C869.399 123.64 869.743 124.456 869.743 125.464C869.743 126.152 869.551 126.808 869.167 127.432C868.799 128.056 868.223 128.568 867.439 128.968C866.671 129.368 865.679 129.568 864.463 129.568C863.391 129.568 862.439 129.424 861.607 129.136C860.775 128.864 860.127 128.44 859.663 127.864C859.199 127.304 858.967 126.592 858.967 125.728C858.967 125.28 859.087 124.792 859.327 124.264C859.567 123.752 860.015 123.264 860.671 122.8C860.319 122.656 860.015 122.504 859.759 122.344C859.519 122.168 859.295 121.976 859.087 121.768V121.216L861.127 119.2C860.183 118.4 859.711 117.344 859.711 116.032C859.711 115.248 859.895 114.536 860.263 113.896C860.631 113.256 861.167 112.752 861.871 112.384C862.575 112 863.431 111.808 864.439 111.808C865.127 111.808 865.751 111.904 866.311 112.096H870.703V113.608L868.471 113.704C868.935 114.376 869.167 115.152 869.167 116.032C869.167 116.816 868.975 117.528 868.591 118.168C868.223 118.808 867.687 119.32 866.983 119.704C866.295 120.072 865.447 120.256 864.439 120.256ZM864.439 118.6C865.287 118.6 865.959 118.384 866.455 117.952C866.967 117.504 867.223 116.864 867.223 116.032C867.223 115.216 866.967 114.592 866.455 114.16C865.959 113.712 865.287 113.488 864.439 113.488C863.575 113.488 862.887 113.712 862.375 114.16C861.879 114.592 861.631 115.216 861.631 116.032C861.631 116.864 861.879 117.504 862.375 117.952C862.887 118.384 863.575 118.6 864.439 118.6ZM860.935 125.536C860.935 126.336 861.271 126.928 861.943 127.312C862.615 127.712 863.455 127.912 864.463 127.912C865.455 127.912 866.247 127.696 866.839 127.264C867.447 126.832 867.751 126.256 867.751 125.536C867.751 125.024 867.543 124.576 867.127 124.192C866.711 123.824 865.943 123.608 864.823 123.544C863.943 123.48 863.183 123.4 862.543 123.304C861.887 123.656 861.455 124.032 861.247 124.432C861.039 124.848 860.935 125.216 860.935 125.536ZM877.14 124.288C876.004 124.288 874.996 124.032 874.116 123.52C873.236 122.992 872.54 122.264 872.028 121.336C871.532 120.408 871.284 119.312 871.284 118.048C871.284 116.8 871.532 115.712 872.028 114.784C872.524 113.84 873.212 113.112 874.092 112.6C874.988 112.072 876.02 111.808 877.188 111.808C878.34 111.808 879.332 112.072 880.164 112.6C881.012 113.112 881.66 113.792 882.108 114.64C882.556 115.488 882.78 116.4 882.78 117.376C882.78 117.552 882.772 117.728 882.756 117.904C882.756 118.08 882.756 118.28 882.756 118.504H873.276C873.324 119.416 873.532 120.176 873.9 120.784C874.284 121.376 874.756 121.824 875.316 122.128C875.892 122.432 876.5 122.584 877.14 122.584C877.972 122.584 878.668 122.392 879.228 122.008C879.788 121.624 880.196 121.104 880.452 120.448H882.444C882.124 121.552 881.508 122.472 880.596 123.208C879.7 123.928 878.548 124.288 877.14 124.288ZM877.14 113.512C876.18 113.512 875.324 113.808 874.572 114.4C873.836 114.976 873.412 115.824 873.3 116.944H880.788C880.74 115.872 880.372 115.032 879.684 114.424C878.996 113.816 878.148 113.512 877.14 113.512ZM884.732 124V112.096H886.556L886.7 113.824C887.084 113.184 887.596 112.688 888.236 112.336C888.876 111.984 889.596 111.808 890.396 111.808C891.34 111.808 892.148 112 892.82 112.384C893.508 112.768 894.036 113.352 894.404 114.136C894.82 113.416 895.388 112.848 896.108 112.432C896.844 112.016 897.636 111.808 898.484 111.808C899.908 111.808 901.044 112.24 901.892 113.104C902.74 113.952 903.164 115.264 903.164 117.04V124H901.172V117.256C901.172 116.024 900.924 115.096 900.428 114.472C899.932 113.848 899.22 113.536 898.292 113.536C897.332 113.536 896.532 113.912 895.892 114.664C895.268 115.4 894.956 116.456 894.956 117.832V124H892.94V117.256C892.94 116.024 892.692 115.096 892.196 114.472C891.7 113.848 890.988 113.536 890.06 113.536C889.116 113.536 888.324 113.912 887.684 114.664C887.06 115.4 886.748 116.456 886.748 117.832V124H884.732ZM910.833 124.288C909.697 124.288 908.689 124.032 907.809 123.52C906.929 122.992 906.233 122.264 905.721 121.336C905.225 120.408 904.977 119.312 904.977 118.048C904.977 116.8 905.225 115.712 905.721 114.784C906.217 113.84 906.905 113.112 907.785 112.6C908.681 112.072 909.713 111.808 910.881 111.808C912.033 111.808 913.025 112.072 913.857 112.6C914.705 113.112 915.353 113.792 915.801 114.64C916.249 115.488 916.473 116.4 916.473 117.376C916.473 117.552 916.465 117.728 916.449 117.904C916.449 118.08 916.449 118.28 916.449 118.504H906.969C907.017 119.416 907.225 120.176 907.593 120.784C907.977 121.376 908.449 121.824 909.009 122.128C909.585 122.432 910.193 122.584 910.833 122.584C911.665 122.584 912.361 122.392 912.921 122.008C913.481 121.624 913.889 121.104 914.145 120.448H916.137C915.817 121.552 915.201 122.472 914.289 123.208C913.393 123.928 912.241 124.288 910.833 124.288ZM910.833 113.512C909.873 113.512 909.017 113.808 908.265 114.4C907.529 114.976 907.105 115.824 906.993 116.944H914.481C914.433 115.872 914.065 115.032 913.377 114.424C912.689 113.816 911.841 113.512 910.833 113.512ZM918.425 124V112.096H920.249L920.369 114.232C920.753 113.48 921.305 112.888 922.025 112.456C922.745 112.024 923.561 111.808 924.473 111.808C925.881 111.808 927.001 112.24 927.833 113.104C928.681 113.952 929.105 115.264 929.105 117.04V124H927.089V117.256C927.089 114.776 926.065 113.536 924.017 113.536C922.993 113.536 922.137 113.912 921.449 114.664C920.777 115.4 920.441 116.456 920.441 117.832V124H918.425ZM936.143 124C935.055 124 934.199 123.736 933.575 123.208C932.951 122.68 932.639 121.728 932.639 120.352V113.8H930.575V112.096H932.639L932.903 109.24H934.655V112.096H938.159V113.8H934.655V120.352C934.655 121.104 934.807 121.616 935.111 121.888C935.415 122.144 935.951 122.272 936.719 122.272H937.967V124H936.143Z" fill="#181717"/>
<rect x="565.5" y="288.5" width="199" height="199" rx="99.5" stroke="#181717"/>
<path d="M591.549 396.5V379.7H593.901L599.949 391.412L605.949 379.7H608.325V396.5H606.309V383.3L600.693 394.1H599.181L593.565 383.324V396.5H591.549ZM614.989 396.788C613.997 396.788 613.173 396.62 612.517 396.284C611.861 395.948 611.373 395.5 611.053 394.94C610.733 394.38 610.573 393.772 610.573 393.116C610.573 391.9 611.037 390.964 611.965 390.308C612.893 389.652 614.157 389.324 615.757 389.324H618.973V389.18C618.973 388.14 618.701 387.356 618.157 386.828C617.613 386.284 616.885 386.012 615.973 386.012C615.189 386.012 614.509 386.212 613.933 386.612C613.373 386.996 613.021 387.564 612.877 388.316H610.813C610.893 387.452 611.181 386.724 611.677 386.132C612.189 385.54 612.821 385.092 613.573 384.788C614.325 384.468 615.125 384.308 615.973 384.308C617.637 384.308 618.885 384.756 619.717 385.652C620.565 386.532 620.989 387.708 620.989 389.18V396.5H619.189L619.069 394.364C618.733 395.036 618.237 395.612 617.581 396.092C616.941 396.556 616.077 396.788 614.989 396.788ZM615.301 395.084C616.069 395.084 616.725 394.884 617.269 394.484C617.829 394.084 618.253 393.564 618.541 392.924C618.829 392.284 618.973 391.612 618.973 390.908V390.884H615.925C614.741 390.884 613.901 391.092 613.405 391.508C612.925 391.908 612.685 392.412 612.685 393.02C612.685 393.644 612.909 394.148 613.357 394.532C613.821 394.9 614.469 395.084 615.301 395.084ZM623.294 396.5V384.596H625.118L625.238 386.732C625.622 385.98 626.174 385.388 626.894 384.956C627.614 384.524 628.43 384.308 629.342 384.308C630.75 384.308 631.87 384.74 632.702 385.604C633.55 386.452 633.974 387.764 633.974 389.54V396.5H631.958V389.756C631.958 387.276 630.934 386.036 628.886 386.036C627.862 386.036 627.006 386.412 626.318 387.164C625.646 387.9 625.31 388.956 625.31 390.332V396.5H623.294ZM640.652 396.788C639.244 396.788 638.124 396.364 637.292 395.516C636.46 394.652 636.044 393.332 636.044 391.556V384.596H638.06V391.34C638.06 393.82 639.076 395.06 641.108 395.06C642.148 395.06 643.004 394.692 643.676 393.956C644.364 393.204 644.708 392.14 644.708 390.764V384.596H646.724V396.5H644.9L644.756 394.364C644.388 395.116 643.836 395.708 643.1 396.14C642.38 396.572 641.564 396.788 640.652 396.788ZM649.971 396.5V386.3H648.171V384.596H649.971V382.532C649.971 381.38 650.259 380.54 650.835 380.012C651.411 379.484 652.251 379.22 653.355 379.22H654.555V380.948H653.667C653.059 380.948 652.627 381.076 652.371 381.332C652.115 381.572 651.987 381.988 651.987 382.58V384.596H654.915V386.3H651.987V396.5H649.971ZM660.086 396.788C659.094 396.788 658.27 396.62 657.614 396.284C656.958 395.948 656.47 395.5 656.15 394.94C655.83 394.38 655.67 393.772 655.67 393.116C655.67 391.9 656.134 390.964 657.062 390.308C657.99 389.652 659.254 389.324 660.854 389.324H664.07V389.18C664.07 388.14 663.798 387.356 663.254 386.828C662.71 386.284 661.982 386.012 661.07 386.012C660.286 386.012 659.606 386.212 659.03 386.612C658.47 386.996 658.118 387.564 657.974 388.316H655.91C655.99 387.452 656.278 386.724 656.774 386.132C657.286 385.54 657.918 385.092 658.67 384.788C659.422 384.468 660.222 384.308 661.07 384.308C662.734 384.308 663.982 384.756 664.814 385.652C665.662 386.532 666.086 387.708 666.086 389.18V396.5H664.286L664.166 394.364C663.83 395.036 663.334 395.612 662.678 396.092C662.038 396.556 661.174 396.788 660.086 396.788ZM660.398 395.084C661.166 395.084 661.822 394.884 662.366 394.484C662.926 394.084 663.35 393.564 663.638 392.924C663.926 392.284 664.07 391.612 664.07 390.908V390.884H661.022C659.838 390.884 658.998 391.092 658.502 391.508C658.022 391.908 657.782 392.412 657.782 393.02C657.782 393.644 658.006 394.148 658.454 394.532C658.918 394.9 659.566 395.084 660.398 395.084ZM673.862 396.788C672.726 396.788 671.702 396.532 670.79 396.02C669.894 395.492 669.182 394.764 668.654 393.836C668.142 392.892 667.886 391.796 667.886 390.548C667.886 389.3 668.142 388.212 668.654 387.284C669.182 386.34 669.894 385.612 670.79 385.1C671.702 384.572 672.726 384.308 673.862 384.308C675.27 384.308 676.454 384.676 677.414 385.412C678.39 386.148 679.006 387.132 679.262 388.364H677.198C677.038 387.628 676.646 387.06 676.022 386.66C675.398 386.244 674.67 386.036 673.838 386.036C673.166 386.036 672.534 386.204 671.942 386.54C671.35 386.876 670.87 387.38 670.502 388.052C670.134 388.724 669.95 389.556 669.95 390.548C669.95 391.54 670.134 392.372 670.502 393.044C670.87 393.716 671.35 394.228 671.942 394.58C672.534 394.916 673.166 395.084 673.838 395.084C674.67 395.084 675.398 394.884 676.022 394.484C676.646 394.068 677.038 393.484 677.198 392.732H679.262C679.022 393.932 678.414 394.908 677.438 395.66C676.462 396.412 675.27 396.788 673.862 396.788ZM685.734 396.5C684.646 396.5 683.79 396.236 683.166 395.708C682.542 395.18 682.23 394.228 682.23 392.852V386.3H680.166V384.596H682.23L682.494 381.74H684.246V384.596H687.75V386.3H684.246V392.852C684.246 393.604 684.398 394.116 684.702 394.388C685.006 394.644 685.542 394.772 686.31 394.772H687.558V396.5H685.734ZM693.935 396.788C692.527 396.788 691.407 396.364 690.575 395.516C689.743 394.652 689.327 393.332 689.327 391.556V384.596H691.343V391.34C691.343 393.82 692.359 395.06 694.391 395.06C695.431 395.06 696.287 394.692 696.959 393.956C697.647 393.204 697.991 392.14 697.991 390.764V384.596H700.007V396.5H698.183L698.039 394.364C697.671 395.116 697.119 395.708 696.383 396.14C695.663 396.572 694.847 396.788 693.935 396.788ZM702.605 396.5V384.596H704.429L704.597 386.876C704.965 386.092 705.525 385.468 706.277 385.004C707.029 384.54 707.957 384.308 709.061 384.308V386.42H708.509C707.805 386.42 707.157 386.548 706.565 386.804C705.973 387.044 705.501 387.46 705.149 388.052C704.797 388.644 704.621 389.46 704.621 390.5V396.5H702.605ZM711.828 381.956C711.428 381.956 711.092 381.828 710.82 381.572C710.564 381.3 710.436 380.964 710.436 380.564C710.436 380.18 710.564 379.86 710.82 379.604C711.092 379.348 711.428 379.22 711.828 379.22C712.212 379.22 712.54 379.348 712.812 379.604C713.084 379.86 713.22 380.18 713.22 380.564C713.22 380.964 713.084 381.3 712.812 381.572C712.54 381.828 712.212 381.956 711.828 381.956ZM710.82 396.5V384.596H712.836V396.5H710.82ZM715.626 396.5V384.596H717.45L717.57 386.732C717.954 385.98 718.506 385.388 719.226 384.956C719.946 384.524 720.762 384.308 721.674 384.308C723.082 384.308 724.202 384.74 725.034 385.604C725.882 386.452 726.306 387.764 726.306 389.54V396.5H724.29V389.756C724.29 387.276 723.266 386.036 721.218 386.036C720.194 386.036 719.338 386.412 718.65 387.164C717.978 387.9 717.642 388.956 717.642 390.332V396.5H715.626ZM733.345 392.756C732.673 392.756 732.057 392.668 731.497 392.492L730.297 393.62C730.473 393.748 730.689 393.86 730.945 393.956C731.217 394.036 731.601 394.116 732.097 394.196C732.593 394.26 733.289 394.332 734.185 394.412C735.785 394.524 736.929 394.892 737.617 395.516C738.305 396.14 738.649 396.956 738.649 397.964C738.649 398.652 738.457 399.308 738.073 399.932C737.705 400.556 737.129 401.068 736.345 401.468C735.577 401.868 734.585 402.068 733.369 402.068C732.297 402.068 731.345 401.924 730.513 401.636C729.681 401.364 729.033 400.94 728.569 400.364C728.105 399.804 727.873 399.092 727.873 398.228C727.873 397.78 727.993 397.292 728.233 396.764C728.473 396.252 728.921 395.764 729.577 395.3C729.225 395.156 728.921 395.004 728.665 394.844C728.425 394.668 728.201 394.476 727.993 394.268V393.716L730.033 391.7C729.089 390.9 728.617 389.844 728.617 388.532C728.617 387.748 728.801 387.036 729.169 386.396C729.537 385.756 730.073 385.252 730.777 384.884C731.481 384.5 732.337 384.308 733.345 384.308C734.033 384.308 734.657 384.404 735.217 384.596H739.609V386.108L737.377 386.204C737.841 386.876 738.073 387.652 738.073 388.532C738.073 389.316 737.881 390.028 737.497 390.668C737.129 391.308 736.593 391.82 735.889 392.204C735.201 392.572 734.353 392.756 733.345 392.756ZM733.345 391.1C734.193 391.1 734.865 390.884 735.361 390.452C735.873 390.004 736.129 389.364 736.129 388.532C736.129 387.716 735.873 387.092 735.361 386.66C734.865 386.212 734.193 385.988 733.345 385.988C732.481 385.988 731.793 386.212 731.281 386.66C730.785 387.092 730.537 387.716 730.537 388.532C730.537 389.364 730.785 390.004 731.281 390.452C731.793 390.884 732.481 391.1 733.345 391.1ZM729.841 398.036C729.841 398.836 730.177 399.428 730.849 399.812C731.521 400.212 732.361 400.412 733.369 400.412C734.361 400.412 735.153 400.196 735.745 399.764C736.353 399.332 736.657 398.756 736.657 398.036C736.657 397.524 736.449 397.076 736.033 396.692C735.617 396.324 734.849 396.108 733.729 396.044C732.849 395.98 732.089 395.9 731.449 395.804C730.793 396.156 730.361 396.532 730.153 396.932C729.945 397.348 729.841 397.716 729.841 398.036Z" fill="#181717"/>
<rect x="944.5" y="576.5" width="199" height="199" rx="99.5" stroke="#181717"/>
<path d="M1014.72 669.288C1013.49 669.288 1012.42 669.064 1011.51 668.616C1010.6 668.168 1009.89 667.544 1009.4 666.744C1008.9 665.944 1008.65 665.016 1008.65 663.96H1010.76C1010.76 664.616 1010.92 665.224 1011.22 665.784C1011.52 666.328 1011.96 666.768 1012.54 667.104C1013.13 667.424 1013.86 667.584 1014.72 667.584C1015.86 667.584 1016.74 667.312 1017.36 666.768C1017.99 666.224 1018.3 665.544 1018.3 664.728C1018.3 664.056 1018.16 663.52 1017.87 663.12C1017.58 662.704 1017.19 662.368 1016.69 662.112C1016.21 661.856 1015.65 661.632 1015.01 661.44C1014.39 661.248 1013.73 661.032 1013.04 660.792C1011.75 660.344 1010.79 659.792 1010.16 659.136C1009.54 658.464 1009.23 657.592 1009.23 656.52C1009.21 655.624 1009.42 654.832 1009.85 654.144C1010.28 653.44 1010.89 652.896 1011.68 652.512C1012.48 652.112 1013.42 651.912 1014.51 651.912C1015.58 651.912 1016.51 652.112 1017.29 652.512C1018.09 652.912 1018.71 653.464 1019.14 654.168C1019.59 654.872 1019.82 655.672 1019.84 656.568H1017.72C1017.72 656.104 1017.6 655.648 1017.36 655.2C1017.12 654.736 1016.76 654.36 1016.26 654.072C1015.78 653.784 1015.17 653.64 1014.44 653.64C1013.52 653.624 1012.77 653.856 1012.18 654.336C1011.6 654.816 1011.32 655.48 1011.32 656.328C1011.32 657.048 1011.52 657.6 1011.92 657.984C1012.33 658.368 1012.91 658.688 1013.64 658.944C1014.38 659.184 1015.23 659.464 1016.19 659.784C1016.99 660.072 1017.71 660.408 1018.35 660.792C1018.99 661.176 1019.48 661.672 1019.84 662.28C1020.2 662.888 1020.39 663.664 1020.39 664.608C1020.39 665.408 1020.18 666.168 1019.76 666.888C1019.35 667.592 1018.72 668.168 1017.87 668.616C1017.04 669.064 1015.99 669.288 1014.72 669.288ZM1026.75 669.288C1025.34 669.288 1024.22 668.864 1023.39 668.016C1022.56 667.152 1022.14 665.832 1022.14 664.056V657.096H1024.16V663.84C1024.16 666.32 1025.18 667.56 1027.21 667.56C1028.25 667.56 1029.1 667.192 1029.78 666.456C1030.46 665.704 1030.81 664.64 1030.81 663.264V657.096H1032.82V669H1031L1030.86 666.864C1030.49 667.616 1029.94 668.208 1029.2 668.64C1028.48 669.072 1027.66 669.288 1026.75 669.288ZM1035.42 674.28V657.096H1037.25L1037.44 659.064C1037.82 658.488 1038.37 657.968 1039.07 657.504C1039.79 657.04 1040.7 656.808 1041.81 656.808C1042.99 656.808 1044.02 657.08 1044.9 657.624C1045.78 658.168 1046.46 658.912 1046.94 659.856C1047.44 660.8 1047.69 661.872 1047.69 663.072C1047.69 664.272 1047.44 665.344 1046.94 666.288C1046.46 667.216 1045.77 667.952 1044.88 668.496C1044 669.024 1042.97 669.288 1041.78 669.288C1040.81 669.288 1039.93 669.088 1039.17 668.688C1038.41 668.288 1037.84 667.728 1037.44 667.008V674.28H1035.42ZM1041.57 667.536C1042.37 667.536 1043.07 667.352 1043.68 666.984C1044.29 666.6 1044.77 666.072 1045.12 665.4C1045.47 664.728 1045.65 663.944 1045.65 663.048C1045.65 662.152 1045.47 661.368 1045.12 660.696C1044.77 660.024 1044.29 659.504 1043.68 659.136C1043.07 658.752 1042.37 658.56 1041.57 658.56C1040.77 658.56 1040.06 658.752 1039.45 659.136C1038.85 659.504 1038.37 660.024 1038.01 660.696C1037.66 661.368 1037.49 662.152 1037.49 663.048C1037.49 663.944 1037.66 664.728 1038.01 665.4C1038.37 666.072 1038.85 666.6 1039.45 666.984C1040.06 667.352 1040.77 667.536 1041.57 667.536ZM1049.77 674.28V657.096H1051.6L1051.79 659.064C1052.17 658.488 1052.72 657.968 1053.42 657.504C1054.14 657.04 1055.05 656.808 1056.16 656.808C1057.34 656.808 1058.37 657.08 1059.25 657.624C1060.13 658.168 1060.81 658.912 1061.29 659.856C1061.79 660.8 1062.04 661.872 1062.04 663.072C1062.04 664.272 1061.79 665.344 1061.29 666.288C1060.81 667.216 1060.12 667.952 1059.23 668.496C1058.35 669.024 1057.32 669.288 1056.13 669.288C1055.16 669.288 1054.28 669.088 1053.52 668.688C1052.76 668.288 1052.19 667.728 1051.79 667.008V674.28H1049.77ZM1055.92 667.536C1056.72 667.536 1057.42 667.352 1058.03 666.984C1058.64 666.6 1059.12 666.072 1059.47 665.4C1059.82 664.728 1060 663.944 1060 663.048C1060 662.152 1059.82 661.368 1059.47 660.696C1059.12 660.024 1058.64 659.504 1058.03 659.136C1057.42 658.752 1056.72 658.56 1055.92 658.56C1055.12 658.56 1054.41 658.752 1053.8 659.136C1053.2 659.504 1052.72 660.024 1052.36 660.696C1052.01 661.368 1051.84 662.152 1051.84 663.048C1051.84 663.944 1052.01 664.728 1052.36 665.4C1052.72 666.072 1053.2 666.6 1053.8 666.984C1054.41 667.352 1055.12 667.536 1055.92 667.536ZM1064.12 669V651.72H1066.14V669H1064.12ZM1070.02 674.28L1072.97 667.848H1072.28L1067.55 657.096H1069.73L1073.67 666.36L1077.84 657.096H1079.93L1072.13 674.28H1070.02ZM1022.85 700.288C1021.2 700.288 1019.78 699.928 1018.58 699.208C1017.39 698.472 1016.47 697.456 1015.82 696.16C1015.16 694.848 1014.83 693.328 1014.83 691.6C1014.83 689.888 1015.16 688.384 1015.82 687.088C1016.47 685.776 1017.39 684.752 1018.58 684.016C1019.78 683.28 1021.2 682.912 1022.85 682.912C1024.77 682.912 1026.33 683.376 1027.53 684.304C1028.75 685.216 1029.52 686.496 1029.86 688.144H1027.63C1027.37 687.104 1026.84 686.272 1026.04 685.648C1025.26 685.008 1024.19 684.688 1022.85 684.688C1021.65 684.688 1020.6 684.968 1019.71 685.528C1018.81 686.072 1018.11 686.864 1017.62 687.904C1017.14 688.928 1016.9 690.16 1016.9 691.6C1016.9 693.04 1017.14 694.28 1017.62 695.32C1018.11 696.344 1018.81 697.136 1019.71 697.696C1020.6 698.24 1021.65 698.512 1022.85 698.512C1024.19 698.512 1025.26 698.208 1026.04 697.6C1026.84 696.976 1027.37 696.152 1027.63 695.128H1029.86C1029.52 696.744 1028.75 698.008 1027.53 698.92C1026.33 699.832 1024.77 700.288 1022.85 700.288ZM1031.92 700V682.72H1033.93V690.136C1034.33 689.4 1034.9 688.832 1035.64 688.432C1036.37 688.016 1037.17 687.808 1038.04 687.808C1039.41 687.808 1040.52 688.24 1041.35 689.104C1042.18 689.952 1042.6 691.264 1042.6 693.04V700H1040.6V693.256C1040.6 690.776 1039.6 689.536 1037.6 689.536C1036.56 689.536 1035.69 689.912 1034.99 690.664C1034.28 691.4 1033.93 692.456 1033.93 693.832V700H1031.92ZM1048.89 700.288C1047.9 700.288 1047.07 700.12 1046.42 699.784C1045.76 699.448 1045.27 699 1044.95 698.44C1044.63 697.88 1044.47 697.272 1044.47 696.616C1044.47 695.4 1044.94 694.464 1045.87 693.808C1046.79 693.152 1048.06 692.824 1049.66 692.824H1052.87V692.68C1052.87 691.64 1052.6 690.856 1052.06 690.328C1051.51 689.784 1050.79 689.512 1049.87 689.512C1049.09 689.512 1048.41 689.712 1047.83 690.112C1047.27 690.496 1046.92 691.064 1046.78 691.816H1044.71C1044.79 690.952 1045.08 690.224 1045.58 689.632C1046.09 689.04 1046.72 688.592 1047.47 688.288C1048.23 687.968 1049.03 687.808 1049.87 687.808C1051.54 687.808 1052.79 688.256 1053.62 689.152C1054.47 690.032 1054.89 691.208 1054.89 692.68V700H1053.09L1052.97 697.864C1052.63 698.536 1052.14 699.112 1051.48 699.592C1050.84 700.056 1049.98 700.288 1048.89 700.288ZM1049.2 698.584C1049.97 698.584 1050.63 698.384 1051.17 697.984C1051.73 697.584 1052.15 697.064 1052.44 696.424C1052.73 695.784 1052.87 695.112 1052.87 694.408V694.384H1049.83C1048.64 694.384 1047.8 694.592 1047.31 695.008C1046.83 695.408 1046.59 695.912 1046.59 696.52C1046.59 697.144 1046.81 697.648 1047.26 698.032C1047.72 698.4 1048.37 698.584 1049.2 698.584ZM1058.42 685.456C1058.02 685.456 1057.68 685.328 1057.41 685.072C1057.15 684.8 1057.03 684.464 1057.03 684.064C1057.03 683.68 1057.15 683.36 1057.41 683.104C1057.68 682.848 1058.02 682.72 1058.42 682.72C1058.8 682.72 1059.13 682.848 1059.4 683.104C1059.67 683.36 1059.81 683.68 1059.81 684.064C1059.81 684.464 1059.67 684.8 1059.4 685.072C1059.13 685.328 1058.8 685.456 1058.42 685.456ZM1057.41 700V688.096H1059.43V700H1057.41ZM1062.22 700V688.096H1064.04L1064.16 690.232C1064.54 689.48 1065.1 688.888 1065.82 688.456C1066.54 688.024 1067.35 687.808 1068.26 687.808C1069.67 687.808 1070.79 688.24 1071.62 689.104C1072.47 689.952 1072.9 691.264 1072.9 693.04V700H1070.88V693.256C1070.88 690.776 1069.86 689.536 1067.81 689.536C1066.78 689.536 1065.93 689.912 1065.24 690.664C1064.57 691.4 1064.23 692.456 1064.23 693.832V700H1062.22Z" fill="#181717"/>
<rect x="1096.5" y="468.5" width="199" height="199" rx="99.5" stroke="#181717"/>
<path d="M1179.95 576.788C1178.31 576.788 1176.88 576.428 1175.68 575.708C1174.5 574.972 1173.58 573.956 1172.92 572.66C1172.27 571.348 1171.94 569.828 1171.94 568.1C1171.94 566.388 1172.27 564.884 1172.92 563.588C1173.58 562.276 1174.5 561.252 1175.68 560.516C1176.88 559.78 1178.31 559.412 1179.95 559.412C1181.87 559.412 1183.43 559.876 1184.63 560.804C1185.85 561.716 1186.63 562.996 1186.96 564.644H1184.73C1184.47 563.604 1183.95 562.772 1183.15 562.148C1182.36 561.508 1181.3 561.188 1179.95 561.188C1178.75 561.188 1177.71 561.468 1176.81 562.028C1175.91 562.572 1175.22 563.364 1174.72 564.404C1174.24 565.428 1174 566.66 1174 568.1C1174 569.54 1174.24 570.78 1174.72 571.82C1175.22 572.844 1175.91 573.636 1176.81 574.196C1177.71 574.74 1178.75 575.012 1179.95 575.012C1181.3 575.012 1182.36 574.708 1183.15 574.1C1183.95 573.476 1184.47 572.652 1184.73 571.628H1186.96C1186.63 573.244 1185.85 574.508 1184.63 575.42C1183.43 576.332 1181.87 576.788 1179.95 576.788ZM1189.14 576.5V559.7H1194.56C1195.88 559.7 1196.95 559.916 1197.78 560.348C1198.61 560.78 1199.23 561.372 1199.63 562.124C1200.03 562.876 1200.23 563.708 1200.23 564.62C1200.23 565.676 1199.94 566.628 1199.36 567.476C1198.8 568.324 1197.92 568.924 1196.72 569.276L1200.4 576.5H1198.02L1194.61 569.564H1194.47H1191.16V576.5H1189.14ZM1191.16 567.98H1194.42C1195.72 567.98 1196.66 567.668 1197.25 567.044C1197.84 566.42 1198.14 565.62 1198.14 564.644C1198.14 563.652 1197.84 562.868 1197.25 562.292C1196.68 561.7 1195.72 561.404 1194.4 561.404H1191.16V567.98ZM1202.65 576.5V559.7H1205L1211.05 571.412L1217.05 559.7H1219.42V576.5H1217.41V563.3L1211.79 574.1H1210.28L1204.66 563.324V576.5H1202.65Z" fill="#181717"/>
<rect x="1155.5" y="288.5" width="199" height="199" rx="99.5" fill="#181717"/>
<rect x="1155.5" y="288.5" width="199" height="199" rx="99.5" stroke="#181717"/>
<path d="M1196.34 381L1202.54 364.2H1204.67L1210.84 381H1208.7L1207.17 376.68H1200.02L1198.46 381H1196.34ZM1200.62 375.048H1206.57L1203.59 366.744L1200.62 375.048ZM1212.5 381V369.096H1214.32L1214.44 371.232C1214.82 370.48 1215.38 369.888 1216.1 369.456C1216.82 369.024 1217.63 368.808 1218.54 368.808C1219.95 368.808 1221.07 369.24 1221.9 370.104C1222.75 370.952 1223.18 372.264 1223.18 374.04V381H1221.16V374.256C1221.16 371.776 1220.14 370.536 1218.09 370.536C1217.06 370.536 1216.21 370.912 1215.52 371.664C1214.85 372.4 1214.51 373.456 1214.51 374.832V381H1212.5ZM1229.47 381.288C1228.48 381.288 1227.66 381.12 1227 380.784C1226.34 380.448 1225.86 380 1225.54 379.44C1225.22 378.88 1225.06 378.272 1225.06 377.616C1225.06 376.4 1225.52 375.464 1226.45 374.808C1227.38 374.152 1228.64 373.824 1230.24 373.824H1233.46V373.68C1233.46 372.64 1233.18 371.856 1232.64 371.328C1232.1 370.784 1231.37 370.512 1230.46 370.512C1229.67 370.512 1228.99 370.712 1228.42 371.112C1227.86 371.496 1227.5 372.064 1227.36 372.816H1225.3C1225.38 371.952 1225.66 371.224 1226.16 370.632C1226.67 370.04 1227.3 369.592 1228.06 369.288C1228.81 368.968 1229.61 368.808 1230.46 368.808C1232.12 368.808 1233.37 369.256 1234.2 370.152C1235.05 371.032 1235.47 372.208 1235.47 373.68V381H1233.67L1233.55 378.864C1233.22 379.536 1232.72 380.112 1232.06 380.592C1231.42 381.056 1230.56 381.288 1229.47 381.288ZM1229.78 379.584C1230.55 379.584 1231.21 379.384 1231.75 378.984C1232.31 378.584 1232.74 378.064 1233.02 377.424C1233.31 376.784 1233.46 376.112 1233.46 375.408V375.384H1230.41C1229.22 375.384 1228.38 375.592 1227.89 376.008C1227.41 376.408 1227.17 376.912 1227.17 377.52C1227.17 378.144 1227.39 378.648 1227.84 379.032C1228.3 379.4 1228.95 379.584 1229.78 379.584ZM1237.78 381V363.72H1239.79V381H1237.78ZM1243.67 386.28L1246.62 379.848H1245.93L1241.2 369.096H1243.38L1247.32 378.36L1251.5 369.096H1253.58L1245.78 386.28H1243.67ZM1259.7 381C1258.61 381 1257.75 380.736 1257.13 380.208C1256.5 379.68 1256.19 378.728 1256.19 377.352V370.8H1254.13V369.096H1256.19L1256.46 366.24H1258.21V369.096H1261.71V370.8H1258.21V377.352C1258.21 378.104 1258.36 378.616 1258.66 378.888C1258.97 379.144 1259.5 379.272 1260.27 379.272H1261.52V381H1259.7ZM1264.78 366.456C1264.38 366.456 1264.04 366.328 1263.77 366.072C1263.51 365.8 1263.39 365.464 1263.39 365.064C1263.39 364.68 1263.51 364.36 1263.77 364.104C1264.04 363.848 1264.38 363.72 1264.78 363.72C1265.16 363.72 1265.49 363.848 1265.76 364.104C1266.03 364.36 1266.17 364.68 1266.17 365.064C1266.17 365.464 1266.03 365.8 1265.76 366.072C1265.49 366.328 1265.16 366.456 1264.78 366.456ZM1263.77 381V369.096H1265.79V381H1263.77ZM1274.05 381.288C1272.91 381.288 1271.89 381.032 1270.98 380.52C1270.08 379.992 1269.37 379.264 1268.84 378.336C1268.33 377.392 1268.07 376.296 1268.07 375.048C1268.07 373.8 1268.33 372.712 1268.84 371.784C1269.37 370.84 1270.08 370.112 1270.98 369.6C1271.89 369.072 1272.91 368.808 1274.05 368.808C1275.46 368.808 1276.64 369.176 1277.6 369.912C1278.58 370.648 1279.19 371.632 1279.45 372.864H1277.38C1277.22 372.128 1276.83 371.56 1276.21 371.16C1275.58 370.744 1274.86 370.536 1274.02 370.536C1273.35 370.536 1272.72 370.704 1272.13 371.04C1271.54 371.376 1271.06 371.88 1270.69 372.552C1270.32 373.224 1270.14 374.056 1270.14 375.048C1270.14 376.04 1270.32 376.872 1270.69 377.544C1271.06 378.216 1271.54 378.728 1272.13 379.08C1272.72 379.416 1273.35 379.584 1274.02 379.584C1274.86 379.584 1275.58 379.384 1276.21 378.984C1276.83 378.568 1277.22 377.984 1277.38 377.232H1279.45C1279.21 378.432 1278.6 379.408 1277.62 380.16C1276.65 380.912 1275.46 381.288 1274.05 381.288ZM1286.1 381.288C1284.68 381.288 1283.49 380.928 1282.55 380.208C1281.61 379.488 1281.05 378.512 1280.89 377.28H1282.96C1283.09 377.904 1283.41 378.448 1283.94 378.912C1284.49 379.36 1285.21 379.584 1286.13 379.584C1286.97 379.584 1287.6 379.408 1288 379.056C1288.4 378.688 1288.6 378.256 1288.6 377.76C1288.6 377.04 1288.33 376.56 1287.81 376.32C1287.29 376.08 1286.57 375.864 1285.62 375.672C1284.98 375.544 1284.34 375.36 1283.7 375.12C1283.06 374.88 1282.53 374.544 1282.09 374.112C1281.66 373.664 1281.45 373.08 1281.45 372.36C1281.45 371.32 1281.83 370.472 1282.6 369.816C1283.38 369.144 1284.44 368.808 1285.77 368.808C1287.03 368.808 1288.06 369.128 1288.86 369.768C1289.68 370.392 1290.15 371.288 1290.28 372.456H1288.29C1288.21 371.848 1287.94 371.376 1287.49 371.04C1287.06 370.688 1286.48 370.512 1285.74 370.512C1285.02 370.512 1284.46 370.664 1284.06 370.968C1283.68 371.272 1283.49 371.672 1283.49 372.168C1283.49 372.648 1283.73 373.024 1284.23 373.296C1284.74 373.568 1285.43 373.8 1286.29 373.992C1287.03 374.152 1287.73 374.352 1288.38 374.592C1289.05 374.816 1289.6 375.16 1290.01 375.624C1290.45 376.072 1290.66 376.728 1290.66 377.592C1290.68 378.664 1290.27 379.552 1289.44 380.256C1288.62 380.944 1287.51 381.288 1286.1 381.288ZM1303.54 381.288C1302.39 381.288 1301.37 381.08 1300.49 380.664C1299.63 380.232 1298.95 379.64 1298.45 378.888C1297.97 378.12 1297.73 377.216 1297.73 376.176C1297.73 375.04 1298.06 374.032 1298.72 373.152C1299.39 372.256 1300.36 371.552 1301.62 371.04C1301.08 370.448 1300.69 369.888 1300.45 369.36C1300.21 368.816 1300.09 368.232 1300.09 367.608C1300.09 366.536 1300.46 365.656 1301.21 364.968C1301.98 364.264 1303.03 363.912 1304.36 363.912C1305.22 363.912 1305.97 364.08 1306.61 364.416C1307.25 364.736 1307.75 365.184 1308.1 365.76C1308.45 366.336 1308.61 366.992 1308.58 367.728H1306.59C1306.61 367.008 1306.38 366.464 1305.92 366.096C1305.47 365.728 1304.95 365.544 1304.36 365.544C1303.64 365.544 1303.08 365.736 1302.68 366.12C1302.28 366.504 1302.08 366.992 1302.08 367.584C1302.08 368.096 1302.21 368.592 1302.49 369.072C1302.77 369.552 1303.2 370.088 1303.76 370.68L1309.06 376.032C1309.53 375.36 1310.03 374.552 1310.57 373.608L1311.32 372.312H1313.45L1312.4 374.184C1311.69 375.448 1311.02 376.504 1310.38 377.352L1314.01 381H1311.46L1309.23 378.744C1308.38 379.656 1307.5 380.312 1306.59 380.712C1305.68 381.096 1304.66 381.288 1303.54 381.288ZM1299.75 376.104C1299.75 377.096 1300.1 377.92 1300.81 378.576C1301.51 379.232 1302.43 379.56 1303.57 379.56C1304.41 379.56 1305.18 379.4 1305.87 379.08C1306.57 378.744 1307.26 378.2 1307.93 377.448L1302.85 372.288C1301.79 372.704 1301.01 373.232 1300.49 373.872C1300 374.512 1299.75 375.256 1299.75 376.104ZM1206.08 412V395.2H1211.5C1212.81 395.2 1213.89 395.416 1214.72 395.848C1215.55 396.28 1216.17 396.872 1216.57 397.624C1216.97 398.376 1217.17 399.208 1217.17 400.12C1217.17 401.176 1216.88 402.128 1216.3 402.976C1215.74 403.824 1214.86 404.424 1213.66 404.776L1217.33 412H1214.96L1211.55 405.064H1211.41H1208.09V412H1206.08ZM1208.09 403.48H1211.36C1212.65 403.48 1213.6 403.168 1214.19 402.544C1214.78 401.92 1215.08 401.12 1215.08 400.144C1215.08 399.152 1214.78 398.368 1214.19 397.792C1213.61 397.2 1212.66 396.904 1211.33 396.904H1208.09V403.48ZM1224.09 412.288C1222.95 412.288 1221.95 412.032 1221.07 411.52C1220.19 410.992 1219.49 410.264 1218.98 409.336C1218.48 408.408 1218.23 407.312 1218.23 406.048C1218.23 404.8 1218.48 403.712 1218.98 402.784C1219.47 401.84 1220.16 401.112 1221.04 400.6C1221.94 400.072 1222.97 399.808 1224.14 399.808C1225.29 399.808 1226.28 400.072 1227.11 400.6C1227.96 401.112 1228.61 401.792 1229.06 402.64C1229.51 403.488 1229.73 404.4 1229.73 405.376C1229.73 405.552 1229.72 405.728 1229.71 405.904C1229.71 406.08 1229.71 406.28 1229.71 406.504H1220.23C1220.27 407.416 1220.48 408.176 1220.85 408.784C1221.23 409.376 1221.71 409.824 1222.27 410.128C1222.84 410.432 1223.45 410.584 1224.09 410.584C1224.92 410.584 1225.62 410.392 1226.18 410.008C1226.74 409.624 1227.15 409.104 1227.4 408.448H1229.39C1229.07 409.552 1228.46 410.472 1227.55 411.208C1226.65 411.928 1225.5 412.288 1224.09 412.288ZM1224.09 401.512C1223.13 401.512 1222.27 401.808 1221.52 402.4C1220.79 402.976 1220.36 403.824 1220.25 404.944H1227.74C1227.69 403.872 1227.32 403.032 1226.63 402.424C1225.95 401.816 1225.1 401.512 1224.09 401.512ZM1231.68 417.28V400.096H1233.51L1233.7 402.064C1234.08 401.488 1234.63 400.968 1235.33 400.504C1236.05 400.04 1236.96 399.808 1238.07 399.808C1239.25 399.808 1240.28 400.08 1241.16 400.624C1242.04 401.168 1242.72 401.912 1243.2 402.856C1243.7 403.8 1243.95 404.872 1243.95 406.072C1243.95 407.272 1243.7 408.344 1243.2 409.288C1242.72 410.216 1242.03 410.952 1241.14 411.496C1240.26 412.024 1239.23 412.288 1238.04 412.288C1237.07 412.288 1236.19 412.088 1235.43 411.688C1234.67 411.288 1234.1 410.728 1233.7 410.008V417.28H1231.68ZM1237.83 410.536C1238.63 410.536 1239.33 410.352 1239.94 409.984C1240.55 409.6 1241.03 409.072 1241.38 408.4C1241.73 407.728 1241.91 406.944 1241.91 406.048C1241.91 405.152 1241.73 404.368 1241.38 403.696C1241.03 403.024 1240.55 402.504 1239.94 402.136C1239.33 401.752 1238.63 401.56 1237.83 401.56C1237.03 401.56 1236.32 401.752 1235.71 402.136C1235.11 402.504 1234.63 403.024 1234.27 403.696C1233.92 404.368 1233.75 405.152 1233.75 406.048C1233.75 406.944 1233.92 407.728 1234.27 408.4C1234.63 409.072 1235.11 409.6 1235.71 409.984C1236.32 410.352 1237.03 410.536 1237.83 410.536ZM1251.46 412.288C1250.34 412.288 1249.33 412.032 1248.43 411.52C1247.54 411.008 1246.82 410.288 1246.3 409.36C1245.78 408.416 1245.53 407.312 1245.53 406.048C1245.53 404.784 1245.79 403.688 1246.32 402.76C1246.85 401.816 1247.56 401.088 1248.46 400.576C1249.37 400.064 1250.38 399.808 1251.5 399.808C1252.62 399.808 1253.63 400.064 1254.53 400.576C1255.42 401.088 1256.13 401.816 1256.64 402.76C1257.17 403.688 1257.43 404.784 1257.43 406.048C1257.43 407.312 1257.17 408.416 1256.64 409.36C1256.11 410.288 1255.39 411.008 1254.48 411.52C1253.58 412.032 1252.58 412.288 1251.46 412.288ZM1251.46 410.56C1252.14 410.56 1252.78 410.392 1253.38 410.056C1253.97 409.72 1254.45 409.216 1254.82 408.544C1255.18 407.872 1255.37 407.04 1255.37 406.048C1255.37 405.056 1255.18 404.224 1254.82 403.552C1254.46 402.88 1253.99 402.376 1253.4 402.04C1252.81 401.704 1252.18 401.536 1251.5 401.536C1250.82 401.536 1250.18 401.704 1249.58 402.04C1248.99 402.376 1248.51 402.88 1248.14 403.552C1247.78 404.224 1247.59 405.056 1247.59 406.048C1247.59 407.04 1247.78 407.872 1248.14 408.544C1248.51 409.216 1248.98 409.72 1249.56 410.056C1250.15 410.392 1250.78 410.56 1251.46 410.56ZM1259.52 412V400.096H1261.34L1261.51 402.376C1261.88 401.592 1262.44 400.968 1263.19 400.504C1263.94 400.04 1264.87 399.808 1265.97 399.808V401.92H1265.42C1264.72 401.92 1264.07 402.048 1263.48 402.304C1262.88 402.544 1262.41 402.96 1262.06 403.552C1261.71 404.144 1261.53 404.96 1261.53 406V412H1259.52ZM1272.22 412C1271.13 412 1270.27 411.736 1269.65 411.208C1269.03 410.68 1268.71 409.728 1268.71 408.352V401.8H1266.65V400.096H1268.71L1268.98 397.24H1270.73V400.096H1274.23V401.8H1270.73V408.352C1270.73 409.104 1270.88 409.616 1271.19 409.888C1271.49 410.144 1272.03 410.272 1272.79 410.272H1274.04V412H1272.22ZM1277.3 397.456C1276.9 397.456 1276.56 397.328 1276.29 397.072C1276.04 396.8 1275.91 396.464 1275.91 396.064C1275.91 395.68 1276.04 395.36 1276.29 395.104C1276.56 394.848 1276.9 394.72 1277.3 394.72C1277.68 394.72 1278.01 394.848 1278.28 395.104C1278.56 395.36 1278.69 395.68 1278.69 396.064C1278.69 396.464 1278.56 396.8 1278.28 397.072C1278.01 397.328 1277.68 397.456 1277.3 397.456ZM1276.29 412V400.096H1278.31V412H1276.29ZM1281.1 412V400.096H1282.92L1283.04 402.232C1283.43 401.48 1283.98 400.888 1284.7 400.456C1285.42 400.024 1286.23 399.808 1287.15 399.808C1288.55 399.808 1289.67 400.24 1290.51 401.104C1291.35 401.952 1291.78 403.264 1291.78 405.04V412H1289.76V405.256C1289.76 402.776 1288.74 401.536 1286.69 401.536C1285.67 401.536 1284.81 401.912 1284.12 402.664C1283.45 403.4 1283.11 404.456 1283.11 405.832V412H1281.1ZM1298.82 408.256C1298.14 408.256 1297.53 408.168 1296.97 407.992L1295.77 409.12C1295.94 409.248 1296.16 409.36 1296.42 409.456C1296.69 409.536 1297.07 409.616 1297.57 409.696C1298.06 409.76 1298.76 409.832 1299.66 409.912C1301.26 410.024 1302.4 410.392 1303.09 411.016C1303.78 411.64 1304.12 412.456 1304.12 413.464C1304.12 414.152 1303.93 414.808 1303.54 415.432C1303.18 416.056 1302.6 416.568 1301.82 416.968C1301.05 417.368 1300.06 417.568 1298.84 417.568C1297.77 417.568 1296.82 417.424 1295.98 417.136C1295.15 416.864 1294.5 416.44 1294.04 415.864C1293.58 415.304 1293.34 414.592 1293.34 413.728C1293.34 413.28 1293.46 412.792 1293.7 412.264C1293.94 411.752 1294.39 411.264 1295.05 410.8C1294.7 410.656 1294.39 410.504 1294.14 410.344C1293.9 410.168 1293.67 409.976 1293.46 409.768V409.216L1295.5 407.2C1294.56 406.4 1294.09 405.344 1294.09 404.032C1294.09 403.248 1294.27 402.536 1294.64 401.896C1295.01 401.256 1295.54 400.752 1296.25 400.384C1296.95 400 1297.81 399.808 1298.82 399.808C1299.5 399.808 1300.13 399.904 1300.69 400.096H1305.08V401.608L1302.85 401.704C1303.31 402.376 1303.54 403.152 1303.54 404.032C1303.54 404.816 1303.35 405.528 1302.97 406.168C1302.6 406.808 1302.06 407.32 1301.36 407.704C1300.67 408.072 1299.82 408.256 1298.82 408.256ZM1298.82 406.6C1299.66 406.6 1300.34 406.384 1300.83 405.952C1301.34 405.504 1301.6 404.864 1301.6 404.032C1301.6 403.216 1301.34 402.592 1300.83 402.16C1300.34 401.712 1299.66 401.488 1298.82 401.488C1297.95 401.488 1297.26 401.712 1296.75 402.16C1296.26 402.592 1296.01 403.216 1296.01 404.032C1296.01 404.864 1296.26 405.504 1296.75 405.952C1297.26 406.384 1297.95 406.6 1298.82 406.6ZM1295.31 413.536C1295.31 414.336 1295.65 414.928 1296.32 415.312C1296.99 415.712 1297.83 415.912 1298.84 415.912C1299.83 415.912 1300.62 415.696 1301.22 415.264C1301.82 414.832 1302.13 414.256 1302.13 413.536C1302.13 413.024 1301.92 412.576 1301.5 412.192C1301.09 411.824 1300.32 411.608 1299.2 411.544C1298.32 411.48 1297.56 411.4 1296.92 411.304C1296.26 411.656 1295.83 412.032 1295.62 412.432C1295.42 412.848 1295.31 413.216 1295.31 413.536Z" fill="white"/>
<rect x="624.5" y="468.5" width="199" height="199" rx="99.5" stroke="#181717"/>
<path d="M703.646 576.788C702.414 576.788 701.342 576.564 700.43 576.116C699.518 575.668 698.814 575.044 698.318 574.244C697.822 573.444 697.574 572.516 697.574 571.46H699.686C699.686 572.116 699.838 572.724 700.142 573.284C700.446 573.828 700.886 574.268 701.462 574.604C702.054 574.924 702.782 575.084 703.646 575.084C704.782 575.084 705.662 574.812 706.286 574.268C706.91 573.724 707.222 573.044 707.222 572.228C707.222 571.556 707.078 571.02 706.79 570.62C706.502 570.204 706.11 569.868 705.614 569.612C705.134 569.356 704.574 569.132 703.934 568.94C703.31 568.748 702.654 568.532 701.966 568.292C700.67 567.844 699.71 567.292 699.086 566.636C698.462 565.964 698.15 565.092 698.15 564.02C698.134 563.124 698.342 562.332 698.774 561.644C699.206 560.94 699.814 560.396 700.598 560.012C701.398 559.612 702.342 559.412 703.43 559.412C704.502 559.412 705.43 559.612 706.214 560.012C707.014 560.412 707.63 560.964 708.062 561.668C708.51 562.372 708.742 563.172 708.758 564.068H706.646C706.646 563.604 706.526 563.148 706.286 562.7C706.046 562.236 705.678 561.86 705.182 561.572C704.702 561.284 704.094 561.14 703.358 561.14C702.446 561.124 701.694 561.356 701.102 561.836C700.526 562.316 700.238 562.98 700.238 563.828C700.238 564.548 700.438 565.1 700.838 565.484C701.254 565.868 701.83 566.188 702.566 566.444C703.302 566.684 704.15 566.964 705.11 567.284C705.91 567.572 706.63 567.908 707.27 568.292C707.91 568.676 708.406 569.172 708.758 569.78C709.126 570.388 709.31 571.164 709.31 572.108C709.31 572.908 709.102 573.668 708.686 574.388C708.27 575.092 707.638 575.668 706.79 576.116C705.958 576.564 704.91 576.788 703.646 576.788ZM715.289 576.788C714.297 576.788 713.473 576.62 712.817 576.284C712.161 575.948 711.673 575.5 711.353 574.94C711.033 574.38 710.873 573.772 710.873 573.116C710.873 571.9 711.337 570.964 712.265 570.308C713.193 569.652 714.457 569.324 716.057 569.324H719.273V569.18C719.273 568.14 719.001 567.356 718.457 566.828C717.913 566.284 717.185 566.012 716.273 566.012C715.489 566.012 714.809 566.212 714.233 566.612C713.673 566.996 713.321 567.564 713.177 568.316H711.113C711.193 567.452 711.481 566.724 711.977 566.132C712.489 565.54 713.121 565.092 713.873 564.788C714.625 564.468 715.425 564.308 716.273 564.308C717.937 564.308 719.185 564.756 720.017 565.652C720.865 566.532 721.289 567.708 721.289 569.18V576.5H719.489L719.369 574.364C719.033 575.036 718.537 575.612 717.881 576.092C717.241 576.556 716.377 576.788 715.289 576.788ZM715.601 575.084C716.369 575.084 717.025 574.884 717.569 574.484C718.129 574.084 718.553 573.564 718.841 572.924C719.129 572.284 719.273 571.612 719.273 570.908V570.884H716.225C715.041 570.884 714.201 571.092 713.705 571.508C713.225 571.908 712.985 572.412 712.985 573.02C712.985 573.644 713.209 574.148 713.657 574.532C714.121 574.9 714.769 575.084 715.601 575.084ZM723.594 576.5V559.22H725.61V576.5H723.594ZM733.546 576.788C732.41 576.788 731.402 576.532 730.522 576.02C729.642 575.492 728.946 574.764 728.434 573.836C727.938 572.908 727.69 571.812 727.69 570.548C727.69 569.3 727.938 568.212 728.434 567.284C728.93 566.34 729.618 565.612 730.498 565.1C731.394 564.572 732.426 564.308 733.594 564.308C734.746 564.308 735.738 564.572 736.57 565.1C737.418 565.612 738.066 566.292 738.514 567.14C738.962 567.988 739.186 568.9 739.186 569.876C739.186 570.052 739.178 570.228 739.162 570.404C739.162 570.58 739.162 570.78 739.162 571.004H729.682C729.73 571.916 729.938 572.676 730.306 573.284C730.69 573.876 731.162 574.324 731.722 574.628C732.298 574.932 732.906 575.084 733.546 575.084C734.378 575.084 735.074 574.892 735.634 574.508C736.194 574.124 736.602 573.604 736.858 572.948H738.85C738.53 574.052 737.914 574.972 737.002 575.708C736.106 576.428 734.954 576.788 733.546 576.788ZM733.546 566.012C732.586 566.012 731.73 566.308 730.978 566.9C730.242 567.476 729.818 568.324 729.706 569.444H737.194C737.146 568.372 736.778 567.532 736.09 566.924C735.402 566.316 734.554 566.012 733.546 566.012ZM745.698 576.788C744.274 576.788 743.09 576.428 742.146 575.708C741.202 574.988 740.65 574.012 740.49 572.78H742.554C742.682 573.404 743.01 573.948 743.538 574.412C744.082 574.86 744.81 575.084 745.722 575.084C746.57 575.084 747.194 574.908 747.594 574.556C747.994 574.188 748.194 573.756 748.194 573.26C748.194 572.54 747.93 572.06 747.402 571.82C746.89 571.58 746.162 571.364 745.218 571.172C744.578 571.044 743.938 570.86 743.298 570.62C742.658 570.38 742.122 570.044 741.69 569.612C741.258 569.164 741.042 568.58 741.042 567.86C741.042 566.82 741.426 565.972 742.194 565.316C742.978 564.644 744.034 564.308 745.362 564.308C746.626 564.308 747.658 564.628 748.458 565.268C749.274 565.892 749.746 566.788 749.874 567.956H747.882C747.802 567.348 747.538 566.876 747.09 566.54C746.658 566.188 746.074 566.012 745.338 566.012C744.618 566.012 744.058 566.164 743.658 566.468C743.274 566.772 743.082 567.172 743.082 567.668C743.082 568.148 743.33 568.524 743.826 568.796C744.338 569.068 745.026 569.3 745.89 569.492C746.626 569.652 747.322 569.852 747.978 570.092C748.65 570.316 749.194 570.66 749.61 571.124C750.042 571.572 750.258 572.228 750.258 573.092C750.274 574.164 749.866 575.052 749.034 575.756C748.218 576.444 747.106 576.788 745.698 576.788Z" fill="#181717"/>
<rect x="770.5" y="576.5" width="199" height="199" rx="99.5" stroke="#181717"/>
<path d="M822.859 684.5V667.7H824.875V684.5H822.859ZM827.597 684.5V672.596H829.421L829.541 674.732C829.925 673.98 830.477 673.388 831.197 672.956C831.917 672.524 832.733 672.308 833.645 672.308C835.053 672.308 836.173 672.74 837.005 673.604C837.853 674.452 838.277 675.764 838.277 677.54V684.5H836.261V677.756C836.261 675.276 835.237 674.036 833.189 674.036C832.165 674.036 831.309 674.412 830.621 675.164C829.949 675.9 829.613 676.956 829.613 678.332V684.5H827.597ZM843.809 684.5L839.297 672.596H841.409L844.985 682.556L848.585 672.596H850.649L846.137 684.5H843.809ZM856.916 684.788C855.78 684.788 854.772 684.532 853.892 684.02C853.012 683.492 852.316 682.764 851.804 681.836C851.308 680.908 851.06 679.812 851.06 678.548C851.06 677.3 851.308 676.212 851.804 675.284C852.3 674.34 852.988 673.612 853.868 673.1C854.764 672.572 855.796 672.308 856.964 672.308C858.116 672.308 859.108 672.572 859.94 673.1C860.788 673.612 861.436 674.292 861.884 675.14C862.332 675.988 862.556 676.9 862.556 677.876C862.556 678.052 862.548 678.228 862.532 678.404C862.532 678.58 862.532 678.78 862.532 679.004H853.052C853.1 679.916 853.308 680.676 853.676 681.284C854.06 681.876 854.532 682.324 855.092 682.628C855.668 682.932 856.276 683.084 856.916 683.084C857.748 683.084 858.444 682.892 859.004 682.508C859.564 682.124 859.972 681.604 860.228 680.948H862.22C861.9 682.052 861.284 682.972 860.372 683.708C859.476 684.428 858.324 684.788 856.916 684.788ZM856.916 674.012C855.956 674.012 855.1 674.308 854.348 674.9C853.612 675.476 853.188 676.324 853.076 677.444H860.564C860.516 676.372 860.148 675.532 859.46 674.924C858.772 674.316 857.924 674.012 856.916 674.012ZM864.508 684.5V672.596H866.332L866.452 674.732C866.836 673.98 867.388 673.388 868.108 672.956C868.828 672.524 869.644 672.308 870.556 672.308C871.964 672.308 873.084 672.74 873.916 673.604C874.764 674.452 875.188 675.764 875.188 677.54V684.5H873.172V677.756C873.172 675.276 872.148 674.036 870.1 674.036C869.076 674.036 868.22 674.412 867.532 675.164C866.86 675.9 866.524 676.956 866.524 678.332V684.5H864.508ZM882.226 684.5C881.138 684.5 880.282 684.236 879.658 683.708C879.034 683.18 878.722 682.228 878.722 680.852V674.3H876.658V672.596H878.722L878.986 669.74H880.738V672.596H884.242V674.3H880.738V680.852C880.738 681.604 880.89 682.116 881.194 682.388C881.498 682.644 882.034 682.772 882.802 682.772H884.05V684.5H882.226ZM891.179 684.788C890.059 684.788 889.051 684.532 888.155 684.02C887.259 683.508 886.547 682.788 886.019 681.86C885.507 680.916 885.251 679.812 885.251 678.548C885.251 677.284 885.515 676.188 886.043 675.26C886.571 674.316 887.283 673.588 888.179 673.076C889.091 672.564 890.107 672.308 891.227 672.308C892.347 672.308 893.355 672.564 894.251 673.076C895.147 673.588 895.851 674.316 896.363 675.26C896.891 676.188 897.155 677.284 897.155 678.548C897.155 679.812 896.891 680.916 896.363 681.86C895.835 682.788 895.115 683.508 894.203 684.02C893.307 684.532 892.299 684.788 891.179 684.788ZM891.179 683.06C891.867 683.06 892.507 682.892 893.099 682.556C893.691 682.22 894.171 681.716 894.539 681.044C894.907 680.372 895.091 679.54 895.091 678.548C895.091 677.556 894.907 676.724 894.539 676.052C894.187 675.38 893.715 674.876 893.123 674.54C892.531 674.204 891.899 674.036 891.227 674.036C890.539 674.036 889.899 674.204 889.307 674.54C888.715 674.876 888.235 675.38 887.867 676.052C887.499 676.724 887.315 677.556 887.315 678.548C887.315 679.54 887.499 680.372 887.867 681.044C888.235 681.716 888.707 682.22 889.283 682.556C889.875 682.892 890.507 683.06 891.179 683.06ZM899.238 684.5V672.596H901.062L901.23 674.876C901.598 674.092 902.158 673.468 902.91 673.004C903.662 672.54 904.59 672.308 905.694 672.308V674.42H905.142C904.438 674.42 903.79 674.548 903.198 674.804C902.606 675.044 902.134 675.46 901.782 676.052C901.43 676.644 901.254 677.46 901.254 678.5V684.5H899.238ZM908.533 689.78L911.485 683.348H910.789L906.061 672.596H908.245L912.181 681.86L916.357 672.596H918.445L910.645 689.78H908.533Z" fill="#181717"/>
</svg>
