<svg width="1920" height="776" viewBox="0 0 1920 776" fill="none" xmlns="http://www.w3.org/2000/svg">
<rect x="740.5" y="168.5" width="439" height="439" rx="219.5" stroke="#181717"/>
<path d="M879.969 399V376.6H893.825V378.808H882.657V386.616H892.865V388.792H882.657V396.792H893.825V399H879.969ZM897.072 399V376.6H904.304C906.053 376.6 907.482 376.888 908.592 377.464C909.701 378.04 910.522 378.829 911.056 379.832C911.589 380.835 911.856 381.944 911.856 383.16C911.856 384.568 911.472 385.837 910.704 386.968C909.957 388.099 908.784 388.899 907.184 389.368L912.08 399H908.912L904.368 389.752H904.176H899.76V399H897.072ZM899.76 387.64H904.112C905.84 387.64 907.098 387.224 907.888 386.392C908.677 385.56 909.072 384.493 909.072 383.192C909.072 381.869 908.677 380.824 907.888 380.056C907.12 379.267 905.85 378.872 904.08 378.872H899.76V387.64ZM915.081 399V376.6H922.441C924.19 376.6 925.63 376.888 926.761 377.464C927.891 378.04 928.723 378.819 929.257 379.8C929.811 380.781 930.089 381.891 930.089 383.128C930.089 384.344 929.822 385.443 929.289 386.424C928.755 387.405 927.923 388.195 926.793 388.792C925.662 389.368 924.211 389.656 922.441 389.656H917.769V399H915.081ZM917.769 387.384H922.377C924.169 387.384 925.438 387.011 926.185 386.264C926.953 385.496 927.337 384.451 927.337 383.128C927.337 381.784 926.953 380.739 926.185 379.992C925.438 379.224 924.169 378.84 922.377 378.84H917.769V387.384ZM947.297 399.384C945.654 399.384 944.224 399.085 943.008 398.488C941.792 397.891 940.854 397.059 940.192 395.992C939.531 394.925 939.2 393.688 939.2 392.28H942.016C942.016 393.155 942.219 393.965 942.624 394.712C943.03 395.437 943.616 396.024 944.385 396.472C945.174 396.899 946.145 397.112 947.297 397.112C948.811 397.112 949.985 396.749 950.816 396.024C951.648 395.299 952.064 394.392 952.064 393.304C952.064 392.408 951.873 391.693 951.489 391.16C951.105 390.605 950.582 390.157 949.92 389.816C949.28 389.475 948.534 389.176 947.681 388.92C946.848 388.664 945.974 388.376 945.056 388.056C943.328 387.459 942.048 386.723 941.216 385.848C940.384 384.952 939.968 383.789 939.968 382.36C939.947 381.165 940.224 380.109 940.8 379.192C941.376 378.253 942.187 377.528 943.232 377.016C944.299 376.483 945.558 376.216 947.009 376.216C948.438 376.216 949.675 376.483 950.72 377.016C951.787 377.549 952.609 378.285 953.185 379.224C953.782 380.163 954.091 381.229 954.113 382.424H951.297C951.297 381.805 951.137 381.197 950.816 380.6C950.497 379.981 950.006 379.48 949.345 379.096C948.705 378.712 947.894 378.52 946.913 378.52C945.697 378.499 944.694 378.808 943.905 379.448C943.136 380.088 942.752 380.973 942.752 382.104C942.752 383.064 943.019 383.8 943.552 384.312C944.107 384.824 944.875 385.251 945.856 385.592C946.838 385.912 947.968 386.285 949.248 386.712C950.315 387.096 951.275 387.544 952.128 388.056C952.982 388.568 953.643 389.229 954.113 390.04C954.603 390.851 954.849 391.885 954.849 393.144C954.849 394.211 954.571 395.224 954.017 396.184C953.462 397.123 952.619 397.891 951.489 398.488C950.379 399.085 948.982 399.384 947.297 399.384ZM959.268 406.04L963.204 397.464H962.276L955.972 383.128H958.884L964.132 395.48L969.7 383.128H972.484L962.084 406.04H959.268ZM979.504 399.384C977.606 399.384 976.027 398.904 974.768 397.944C973.51 396.984 972.774 395.683 972.56 394.04H975.312C975.483 394.872 975.92 395.597 976.624 396.216C977.35 396.813 978.32 397.112 979.536 397.112C980.667 397.112 981.499 396.877 982.032 396.408C982.566 395.917 982.832 395.341 982.832 394.68C982.832 393.72 982.48 393.08 981.776 392.76C981.094 392.44 980.123 392.152 978.864 391.896C978.011 391.725 977.158 391.48 976.304 391.16C975.451 390.84 974.736 390.392 974.16 389.816C973.584 389.219 973.296 388.44 973.296 387.48C973.296 386.093 973.808 384.963 974.832 384.088C975.878 383.192 977.286 382.744 979.056 382.744C980.742 382.744 982.118 383.171 983.184 384.024C984.272 384.856 984.902 386.051 985.072 387.608H982.416C982.31 386.797 981.958 386.168 981.36 385.72C980.784 385.251 980.006 385.016 979.024 385.016C978.064 385.016 977.318 385.219 976.784 385.624C976.272 386.029 976.016 386.563 976.016 387.224C976.016 387.864 976.347 388.365 977.008 388.728C977.691 389.091 978.608 389.4 979.76 389.656C980.742 389.869 981.67 390.136 982.544 390.456C983.44 390.755 984.166 391.213 984.72 391.832C985.296 392.429 985.584 393.304 985.584 394.456C985.606 395.885 985.062 397.069 983.952 398.008C982.864 398.925 981.382 399.384 979.504 399.384ZM994.017 399C992.567 399 991.425 398.648 990.593 397.944C989.761 397.24 989.345 395.971 989.345 394.136V385.4H986.593V383.128H989.345L989.697 379.32H992.033V383.128H996.705V385.4H992.033V394.136C992.033 395.139 992.236 395.821 992.641 396.184C993.047 396.525 993.761 396.696 994.785 396.696H996.449V399H994.017ZM1005.86 399.384C1004.34 399.384 1003 399.043 1001.83 398.36C1000.65 397.656 999.726 396.685 999.043 395.448C998.382 394.211 998.051 392.749 998.051 391.064C998.051 389.4 998.382 387.949 999.043 386.712C999.704 385.453 1000.62 384.483 1001.79 383.8C1002.99 383.096 1004.37 382.744 1005.92 382.744C1007.46 382.744 1008.78 383.096 1009.89 383.8C1011.02 384.483 1011.89 385.389 1012.48 386.52C1013.08 387.651 1013.38 388.867 1013.38 390.168C1013.38 390.403 1013.37 390.637 1013.35 390.872C1013.35 391.107 1013.35 391.373 1013.35 391.672H1000.71C1000.77 392.888 1001.05 393.901 1001.54 394.712C1002.05 395.501 1002.68 396.099 1003.43 396.504C1004.19 396.909 1005.01 397.112 1005.86 397.112C1006.97 397.112 1007.9 396.856 1008.64 396.344C1009.39 395.832 1009.93 395.139 1010.27 394.264H1012.93C1012.5 395.736 1011.68 396.963 1010.47 397.944C1009.27 398.904 1007.74 399.384 1005.86 399.384ZM1005.86 385.016C1004.58 385.016 1003.44 385.411 1002.43 386.2C1001.45 386.968 1000.89 388.099 1000.74 389.592H1010.72C1010.66 388.163 1010.17 387.043 1009.25 386.232C1008.33 385.421 1007.2 385.016 1005.86 385.016ZM1015.98 399V383.128H1018.41L1018.61 385.432C1019.12 384.579 1019.8 383.917 1020.65 383.448C1021.51 382.979 1022.47 382.744 1023.53 382.744C1024.79 382.744 1025.87 383 1026.77 383.512C1027.68 384.024 1028.39 384.803 1028.88 385.848C1029.43 384.888 1030.19 384.131 1031.15 383.576C1032.13 383.021 1033.19 382.744 1034.32 382.744C1036.22 382.744 1037.73 383.32 1038.86 384.472C1039.99 385.603 1040.56 387.352 1040.56 389.72V399H1037.9V390.008C1037.9 388.365 1037.57 387.128 1036.91 386.296C1036.25 385.464 1035.3 385.048 1034.06 385.048C1032.78 385.048 1031.72 385.549 1030.86 386.552C1030.03 387.533 1029.61 388.941 1029.61 390.776V399H1026.93V390.008C1026.93 388.365 1026.6 387.128 1025.93 386.296C1025.27 385.464 1024.32 385.048 1023.09 385.048C1021.83 385.048 1020.77 385.549 1019.92 386.552C1019.09 387.533 1018.67 388.941 1018.67 390.776V399H1015.98Z" fill="#181717"/>
<rect x="1096.5" y="108.5" width="199" height="199" rx="99.5" fill="#181717"/>
<rect x="1096.5" y="108.5" width="199" height="199" rx="99.5" stroke="#181717"/>
<path d="M1145.51 201V184.2H1155.73V185.856H1147.52V191.76H1154.51V193.392H1147.52V201H1145.51ZM1158.71 186.456C1158.31 186.456 1157.98 186.328 1157.7 186.072C1157.45 185.8 1157.32 185.464 1157.32 185.064C1157.32 184.68 1157.45 184.36 1157.7 184.104C1157.98 183.848 1158.31 183.72 1158.71 183.72C1159.1 183.72 1159.42 183.848 1159.7 184.104C1159.97 184.36 1160.1 184.68 1160.1 185.064C1160.1 185.464 1159.97 185.8 1159.7 186.072C1159.42 186.328 1159.1 186.456 1158.71 186.456ZM1157.7 201V189.096H1159.72V201H1157.7ZM1162.51 201V189.096H1164.33L1164.45 191.232C1164.84 190.48 1165.39 189.888 1166.11 189.456C1166.83 189.024 1167.65 188.808 1168.56 188.808C1169.97 188.808 1171.09 189.24 1171.92 190.104C1172.77 190.952 1173.19 192.264 1173.19 194.04V201H1171.17V194.256C1171.17 191.776 1170.15 190.536 1168.1 190.536C1167.08 190.536 1166.22 190.912 1165.53 191.664C1164.86 192.4 1164.53 193.456 1164.53 194.832V201H1162.51ZM1179.48 201.288C1178.49 201.288 1177.67 201.12 1177.01 200.784C1176.36 200.448 1175.87 200 1175.55 199.44C1175.23 198.88 1175.07 198.272 1175.07 197.616C1175.07 196.4 1175.53 195.464 1176.46 194.808C1177.39 194.152 1178.65 193.824 1180.25 193.824H1183.47V193.68C1183.47 192.64 1183.2 191.856 1182.65 191.328C1182.11 190.784 1181.38 190.512 1180.47 190.512C1179.68 190.512 1179 190.712 1178.43 191.112C1177.87 191.496 1177.52 192.064 1177.37 192.816H1175.31C1175.39 191.952 1175.68 191.224 1176.17 190.632C1176.68 190.04 1177.32 189.592 1178.07 189.288C1178.82 188.968 1179.62 188.808 1180.47 188.808C1182.13 188.808 1183.38 189.256 1184.21 190.152C1185.06 191.032 1185.48 192.208 1185.48 193.68V201H1183.68L1183.56 198.864C1183.23 199.536 1182.73 200.112 1182.08 200.592C1181.44 201.056 1180.57 201.288 1179.48 201.288ZM1179.8 199.584C1180.56 199.584 1181.22 199.384 1181.76 198.984C1182.32 198.584 1182.75 198.064 1183.04 197.424C1183.32 196.784 1183.47 196.112 1183.47 195.408V195.384H1180.42C1179.24 195.384 1178.4 195.592 1177.9 196.008C1177.42 196.408 1177.18 196.912 1177.18 197.52C1177.18 198.144 1177.4 198.648 1177.85 199.032C1178.32 199.4 1178.96 199.584 1179.8 199.584ZM1187.79 201V189.096H1189.61L1189.73 191.232C1190.12 190.48 1190.67 189.888 1191.39 189.456C1192.11 189.024 1192.92 188.808 1193.84 188.808C1195.24 188.808 1196.36 189.24 1197.2 190.104C1198.04 190.952 1198.47 192.264 1198.47 194.04V201H1196.45V194.256C1196.45 191.776 1195.43 190.536 1193.38 190.536C1192.36 190.536 1191.5 190.912 1190.81 191.664C1190.14 192.4 1189.8 193.456 1189.8 194.832V201H1187.79ZM1206.28 201.288C1205.14 201.288 1204.12 201.032 1203.2 200.52C1202.31 199.992 1201.6 199.264 1201.07 198.336C1200.56 197.392 1200.3 196.296 1200.3 195.048C1200.3 193.8 1200.56 192.712 1201.07 191.784C1201.6 190.84 1202.31 190.112 1203.2 189.6C1204.12 189.072 1205.14 188.808 1206.28 188.808C1207.68 188.808 1208.87 189.176 1209.83 189.912C1210.8 190.648 1211.42 191.632 1211.68 192.864H1209.61C1209.45 192.128 1209.06 191.56 1208.44 191.16C1207.81 190.744 1207.08 190.536 1206.25 190.536C1205.58 190.536 1204.95 190.704 1204.36 191.04C1203.76 191.376 1203.28 191.88 1202.92 192.552C1202.55 193.224 1202.36 194.056 1202.36 195.048C1202.36 196.04 1202.55 196.872 1202.92 197.544C1203.28 198.216 1203.76 198.728 1204.36 199.08C1204.95 199.416 1205.58 199.584 1206.25 199.584C1207.08 199.584 1207.81 199.384 1208.44 198.984C1209.06 198.568 1209.45 197.984 1209.61 197.232H1211.68C1211.44 198.432 1210.83 199.408 1209.85 200.16C1208.88 200.912 1207.68 201.288 1206.28 201.288ZM1219.12 201.288C1217.99 201.288 1216.98 201.032 1216.1 200.52C1215.22 199.992 1214.52 199.264 1214.01 198.336C1213.51 197.408 1213.27 196.312 1213.27 195.048C1213.27 193.8 1213.51 192.712 1214.01 191.784C1214.51 190.84 1215.19 190.112 1216.07 189.6C1216.97 189.072 1218 188.808 1219.17 188.808C1220.32 188.808 1221.31 189.072 1222.15 189.6C1222.99 190.112 1223.64 190.792 1224.09 191.64C1224.54 192.488 1224.76 193.4 1224.76 194.376C1224.76 194.552 1224.75 194.728 1224.74 194.904C1224.74 195.08 1224.74 195.28 1224.74 195.504H1215.26C1215.31 196.416 1215.51 197.176 1215.88 197.784C1216.27 198.376 1216.74 198.824 1217.3 199.128C1217.87 199.432 1218.48 199.584 1219.12 199.584C1219.95 199.584 1220.65 199.392 1221.21 199.008C1221.77 198.624 1222.18 198.104 1222.43 197.448H1224.43C1224.11 198.552 1223.49 199.472 1222.58 200.208C1221.68 200.928 1220.53 201.288 1219.12 201.288ZM1219.12 190.512C1218.16 190.512 1217.31 190.808 1216.55 191.4C1215.82 191.976 1215.39 192.824 1215.28 193.944H1222.77C1222.72 192.872 1222.35 192.032 1221.67 191.424C1220.98 190.816 1220.13 190.512 1219.12 190.512ZM1237.43 201.288C1236.28 201.288 1235.27 201.08 1234.39 200.664C1233.52 200.232 1232.84 199.64 1232.35 198.888C1231.87 198.12 1231.63 197.216 1231.63 196.176C1231.63 195.04 1231.95 194.032 1232.61 193.152C1233.28 192.256 1234.25 191.552 1235.51 191.04C1234.97 190.448 1234.58 189.888 1234.34 189.36C1234.1 188.816 1233.98 188.232 1233.98 187.608C1233.98 186.536 1234.35 185.656 1235.11 184.968C1235.87 184.264 1236.92 183.912 1238.25 183.912C1239.11 183.912 1239.87 184.08 1240.51 184.416C1241.15 184.736 1241.64 185.184 1241.99 185.76C1242.35 186.336 1242.51 186.992 1242.47 187.728H1240.48C1240.5 187.008 1240.27 186.464 1239.81 186.096C1239.36 185.728 1238.84 185.544 1238.25 185.544C1237.53 185.544 1236.97 185.736 1236.57 186.12C1236.17 186.504 1235.97 186.992 1235.97 187.584C1235.97 188.096 1236.11 188.592 1236.38 189.072C1236.67 189.552 1237.09 190.088 1237.65 190.68L1242.95 196.032C1243.42 195.36 1243.92 194.552 1244.47 193.608L1245.21 192.312H1247.35L1246.29 194.184C1245.59 195.448 1244.91 196.504 1244.27 197.352L1247.9 201H1245.35L1243.12 198.744C1242.27 199.656 1241.39 200.312 1240.48 200.712C1239.57 201.096 1238.55 201.288 1237.43 201.288ZM1233.64 196.104C1233.64 197.096 1233.99 197.92 1234.7 198.576C1235.4 199.232 1236.32 199.56 1237.46 199.56C1238.31 199.56 1239.07 199.4 1239.76 199.08C1240.47 198.744 1241.15 198.2 1241.83 197.448L1236.74 192.288C1235.68 192.704 1234.9 193.232 1234.39 193.872C1233.89 194.512 1233.64 195.256 1233.64 196.104ZM1136.8 232L1142.99 215.2H1145.12L1151.29 232H1149.16L1147.62 227.68H1140.47L1138.91 232H1136.8ZM1141.07 226.048H1147.02L1144.04 217.744L1141.07 226.048ZM1157.77 232.288C1156.63 232.288 1155.61 232.032 1154.69 231.52C1153.8 230.992 1153.09 230.264 1152.56 229.336C1152.05 228.392 1151.79 227.296 1151.79 226.048C1151.79 224.8 1152.05 223.712 1152.56 222.784C1153.09 221.84 1153.8 221.112 1154.69 220.6C1155.61 220.072 1156.63 219.808 1157.77 219.808C1159.17 219.808 1160.36 220.176 1161.32 220.912C1162.29 221.648 1162.91 222.632 1163.17 223.864H1161.1C1160.94 223.128 1160.55 222.56 1159.93 222.16C1159.3 221.744 1158.57 221.536 1157.74 221.536C1157.07 221.536 1156.44 221.704 1155.85 222.04C1155.25 222.376 1154.77 222.88 1154.41 223.552C1154.04 224.224 1153.85 225.056 1153.85 226.048C1153.85 227.04 1154.04 227.872 1154.41 228.544C1154.77 229.216 1155.25 229.728 1155.85 230.08C1156.44 230.416 1157.07 230.584 1157.74 230.584C1158.57 230.584 1159.3 230.384 1159.93 229.984C1160.55 229.568 1160.94 228.984 1161.1 228.232H1163.17C1162.93 229.432 1162.32 230.408 1161.34 231.16C1160.37 231.912 1159.17 232.288 1157.77 232.288ZM1170.73 232.288C1169.6 232.288 1168.57 232.032 1167.66 231.52C1166.76 230.992 1166.05 230.264 1165.52 229.336C1165.01 228.392 1164.76 227.296 1164.76 226.048C1164.76 224.8 1165.01 223.712 1165.52 222.784C1166.05 221.84 1166.76 221.112 1167.66 220.6C1168.57 220.072 1169.6 219.808 1170.73 219.808C1172.14 219.808 1173.32 220.176 1174.28 220.912C1175.26 221.648 1175.88 222.632 1176.13 223.864H1174.07C1173.91 223.128 1173.52 222.56 1172.89 222.16C1172.27 221.744 1171.54 221.536 1170.71 221.536C1170.04 221.536 1169.4 221.704 1168.81 222.04C1168.22 222.376 1167.74 222.88 1167.37 223.552C1167 224.224 1166.82 225.056 1166.82 226.048C1166.82 227.04 1167 227.872 1167.37 228.544C1167.74 229.216 1168.22 229.728 1168.81 230.08C1169.4 230.416 1170.04 230.584 1170.71 230.584C1171.54 230.584 1172.27 230.384 1172.89 229.984C1173.52 229.568 1173.91 228.984 1174.07 228.232H1176.13C1175.89 229.432 1175.28 230.408 1174.31 231.16C1173.33 231.912 1172.14 232.288 1170.73 232.288ZM1183.65 232.288C1182.53 232.288 1181.52 232.032 1180.63 231.52C1179.73 231.008 1179.02 230.288 1178.49 229.36C1177.98 228.416 1177.72 227.312 1177.72 226.048C1177.72 224.784 1177.99 223.688 1178.52 222.76C1179.04 221.816 1179.76 221.088 1180.65 220.576C1181.56 220.064 1182.58 219.808 1183.7 219.808C1184.82 219.808 1185.83 220.064 1186.72 220.576C1187.62 221.088 1188.32 221.816 1188.84 222.76C1189.36 223.688 1189.63 224.784 1189.63 226.048C1189.63 227.312 1189.36 228.416 1188.84 229.36C1188.31 230.288 1187.59 231.008 1186.68 231.52C1185.78 232.032 1184.77 232.288 1183.65 232.288ZM1183.65 230.56C1184.34 230.56 1184.98 230.392 1185.57 230.056C1186.16 229.72 1186.64 229.216 1187.01 228.544C1187.38 227.872 1187.56 227.04 1187.56 226.048C1187.56 225.056 1187.38 224.224 1187.01 223.552C1186.66 222.88 1186.19 222.376 1185.6 222.04C1185 221.704 1184.37 221.536 1183.7 221.536C1183.01 221.536 1182.37 221.704 1181.78 222.04C1181.19 222.376 1180.71 222.88 1180.34 223.552C1179.97 224.224 1179.79 225.056 1179.79 226.048C1179.79 227.04 1179.97 227.872 1180.34 228.544C1180.71 229.216 1181.18 229.72 1181.76 230.056C1182.35 230.392 1182.98 230.56 1183.65 230.56ZM1196.06 232.288C1194.65 232.288 1193.53 231.864 1192.7 231.016C1191.86 230.152 1191.45 228.832 1191.45 227.056V220.096H1193.46V226.84C1193.46 229.32 1194.48 230.56 1196.51 230.56C1197.55 230.56 1198.41 230.192 1199.08 229.456C1199.77 228.704 1200.11 227.64 1200.11 226.264V220.096H1202.13V232H1200.3L1200.16 229.864C1199.79 230.616 1199.24 231.208 1198.5 231.64C1197.78 232.072 1196.97 232.288 1196.06 232.288ZM1204.73 232V220.096H1206.55L1206.67 222.232C1207.05 221.48 1207.61 220.888 1208.33 220.456C1209.05 220.024 1209.86 219.808 1210.77 219.808C1212.18 219.808 1213.3 220.24 1214.13 221.104C1214.98 221.952 1215.41 223.264 1215.41 225.04V232H1213.39V225.256C1213.39 222.776 1212.37 221.536 1210.32 221.536C1209.29 221.536 1208.44 221.912 1207.75 222.664C1207.08 223.4 1206.74 224.456 1206.74 225.832V232H1204.73ZM1222.44 232C1221.36 232 1220.5 231.736 1219.88 231.208C1219.25 230.68 1218.94 229.728 1218.94 228.352V221.8H1216.88V220.096H1218.94L1219.2 217.24H1220.96V220.096H1224.46V221.8H1220.96V228.352C1220.96 229.104 1221.11 229.616 1221.41 229.888C1221.72 230.144 1222.25 230.272 1223.02 230.272H1224.27V232H1222.44ZM1227.53 217.456C1227.13 217.456 1226.79 217.328 1226.52 217.072C1226.26 216.8 1226.13 216.464 1226.13 216.064C1226.13 215.68 1226.26 215.36 1226.52 215.104C1226.79 214.848 1227.13 214.72 1227.53 214.72C1227.91 214.72 1228.24 214.848 1228.51 215.104C1228.78 215.36 1228.92 215.68 1228.92 216.064C1228.92 216.464 1228.78 216.8 1228.51 217.072C1228.24 217.328 1227.91 217.456 1227.53 217.456ZM1226.52 232V220.096H1228.53V232H1226.52ZM1231.32 232V220.096H1233.15L1233.27 222.232C1233.65 221.48 1234.2 220.888 1234.92 220.456C1235.64 220.024 1236.46 219.808 1237.37 219.808C1238.78 219.808 1239.9 220.24 1240.73 221.104C1241.58 221.952 1242 223.264 1242 225.04V232H1239.99V225.256C1239.99 222.776 1238.96 221.536 1236.92 221.536C1235.89 221.536 1235.04 221.912 1234.35 222.664C1233.68 223.4 1233.34 224.456 1233.34 225.832V232H1231.32ZM1249.04 228.256C1248.37 228.256 1247.75 228.168 1247.19 227.992L1245.99 229.12C1246.17 229.248 1246.39 229.36 1246.64 229.456C1246.91 229.536 1247.3 229.616 1247.79 229.696C1248.29 229.76 1248.99 229.832 1249.88 229.912C1251.48 230.024 1252.63 230.392 1253.31 231.016C1254 231.64 1254.35 232.456 1254.35 233.464C1254.35 234.152 1254.15 234.808 1253.77 235.432C1253.4 236.056 1252.83 236.568 1252.04 236.968C1251.27 237.368 1250.28 237.568 1249.07 237.568C1247.99 237.568 1247.04 237.424 1246.21 237.136C1245.38 236.864 1244.73 236.44 1244.27 235.864C1243.8 235.304 1243.57 234.592 1243.57 233.728C1243.57 233.28 1243.69 232.792 1243.93 232.264C1244.17 231.752 1244.62 231.264 1245.27 230.8C1244.92 230.656 1244.62 230.504 1244.36 230.344C1244.12 230.168 1243.9 229.976 1243.69 229.768V229.216L1245.73 227.2C1244.79 226.4 1244.31 225.344 1244.31 224.032C1244.31 223.248 1244.5 222.536 1244.87 221.896C1245.23 221.256 1245.77 220.752 1246.47 220.384C1247.18 220 1248.03 219.808 1249.04 219.808C1249.73 219.808 1250.35 219.904 1250.91 220.096H1255.31V221.608L1253.07 221.704C1253.54 222.376 1253.77 223.152 1253.77 224.032C1253.77 224.816 1253.58 225.528 1253.19 226.168C1252.83 226.808 1252.29 227.32 1251.59 227.704C1250.9 228.072 1250.05 228.256 1249.04 228.256ZM1249.04 226.6C1249.89 226.6 1250.56 226.384 1251.06 225.952C1251.57 225.504 1251.83 224.864 1251.83 224.032C1251.83 223.216 1251.57 222.592 1251.06 222.16C1250.56 221.712 1249.89 221.488 1249.04 221.488C1248.18 221.488 1247.49 221.712 1246.98 222.16C1246.48 222.592 1246.23 223.216 1246.23 224.032C1246.23 224.864 1246.48 225.504 1246.98 225.952C1247.49 226.384 1248.18 226.6 1249.04 226.6ZM1245.54 233.536C1245.54 234.336 1245.87 234.928 1246.55 235.312C1247.22 235.712 1248.06 235.912 1249.07 235.912C1250.06 235.912 1250.85 235.696 1251.44 235.264C1252.05 234.832 1252.35 234.256 1252.35 233.536C1252.35 233.024 1252.15 232.576 1251.73 232.192C1251.31 231.824 1250.55 231.608 1249.43 231.544C1248.55 231.48 1247.79 231.4 1247.15 231.304C1246.49 231.656 1246.06 232.032 1245.85 232.432C1245.64 232.848 1245.54 233.216 1245.54 233.536Z" fill="white"/>
<rect x="950.5" y="0.5" width="199" height="199" rx="99.5" fill="#181717"/>
<rect x="950.5" y="0.5" width="199" height="199" rx="99.5" stroke="#181717"/>
<path d="M994.5 108.5V91.7H1000.02C1001.33 91.7 1002.41 91.916 1003.26 92.348C1004.11 92.78 1004.73 93.364 1005.13 94.1C1005.55 94.836 1005.76 95.668 1005.76 96.596C1005.76 97.508 1005.56 98.332 1005.16 99.068C1004.76 99.804 1004.13 100.396 1003.28 100.844C1002.44 101.276 1001.35 101.492 1000.02 101.492H996.516V108.5H994.5ZM996.516 99.788H999.972C1001.32 99.788 1002.27 99.508 1002.83 98.948C1003.4 98.372 1003.69 97.588 1003.69 96.596C1003.69 95.588 1003.4 94.804 1002.83 94.244C1002.27 93.668 1001.32 93.38 999.972 93.38H996.516V99.788ZM1011.9 108.788C1010.49 108.788 1009.37 108.364 1008.54 107.516C1007.71 106.652 1007.29 105.332 1007.29 103.556V96.596H1009.31V103.34C1009.31 105.82 1010.33 107.06 1012.36 107.06C1013.4 107.06 1014.25 106.692 1014.93 105.956C1015.61 105.204 1015.96 104.14 1015.96 102.764V96.596H1017.97V108.5H1016.15L1016.01 106.364C1015.64 107.116 1015.09 107.708 1014.35 108.14C1013.63 108.572 1012.81 108.788 1011.9 108.788ZM1020.57 108.5V96.596H1022.4L1022.57 98.876C1022.93 98.092 1023.49 97.468 1024.25 97.004C1025 96.54 1025.93 96.308 1027.03 96.308V98.42H1026.48C1025.77 98.42 1025.13 98.548 1024.53 98.804C1023.94 99.044 1023.47 99.46 1023.12 100.052C1022.77 100.644 1022.59 101.46 1022.59 102.5V108.5H1020.57ZM1033.6 108.788C1032.46 108.788 1031.44 108.532 1030.53 108.02C1029.63 107.492 1028.92 106.764 1028.39 105.836C1027.88 104.892 1027.62 103.796 1027.62 102.548C1027.62 101.3 1027.88 100.212 1028.39 99.284C1028.92 98.34 1029.63 97.612 1030.53 97.1C1031.44 96.572 1032.46 96.308 1033.6 96.308C1035.01 96.308 1036.19 96.676 1037.15 97.412C1038.13 98.148 1038.74 99.132 1039 100.364H1036.93C1036.77 99.628 1036.38 99.06 1035.76 98.66C1035.13 98.244 1034.41 98.036 1033.57 98.036C1032.9 98.036 1032.27 98.204 1031.68 98.54C1031.09 98.876 1030.61 99.38 1030.24 100.052C1029.87 100.724 1029.69 101.556 1029.69 102.548C1029.69 103.54 1029.87 104.372 1030.24 105.044C1030.61 105.716 1031.09 106.228 1031.68 106.58C1032.27 106.916 1032.9 107.084 1033.57 107.084C1034.41 107.084 1035.13 106.884 1035.76 106.484C1036.38 106.068 1036.77 105.484 1036.93 104.732H1039C1038.76 105.932 1038.15 106.908 1037.17 107.66C1036.2 108.412 1035.01 108.788 1033.6 108.788ZM1041.09 108.5V91.22H1043.11V98.636C1043.51 97.9 1044.08 97.332 1044.81 96.932C1045.55 96.516 1046.35 96.308 1047.21 96.308C1048.59 96.308 1049.69 96.74 1050.53 97.604C1051.36 98.452 1051.77 99.764 1051.77 101.54V108.5H1049.78V101.756C1049.78 99.276 1048.78 98.036 1046.78 98.036C1045.74 98.036 1044.87 98.412 1044.17 99.164C1043.46 99.9 1043.11 100.956 1043.11 102.332V108.5H1041.09ZM1058.07 108.788C1057.08 108.788 1056.25 108.62 1055.6 108.284C1054.94 107.948 1054.45 107.5 1054.13 106.94C1053.81 106.38 1053.65 105.772 1053.65 105.116C1053.65 103.9 1054.12 102.964 1055.04 102.308C1055.97 101.652 1057.24 101.324 1058.84 101.324H1062.05V101.18C1062.05 100.14 1061.78 99.356 1061.24 98.828C1060.69 98.284 1059.96 98.012 1059.05 98.012C1058.27 98.012 1057.59 98.212 1057.01 98.612C1056.45 98.996 1056.1 99.564 1055.96 100.316H1053.89C1053.97 99.452 1054.26 98.724 1054.76 98.132C1055.27 97.54 1055.9 97.092 1056.65 96.788C1057.4 96.468 1058.2 96.308 1059.05 96.308C1060.72 96.308 1061.96 96.756 1062.8 97.652C1063.64 98.532 1064.07 99.708 1064.07 101.18V108.5H1062.27L1062.15 106.364C1061.81 107.036 1061.32 107.612 1060.66 108.092C1060.02 108.556 1059.16 108.788 1058.07 108.788ZM1058.38 107.084C1059.15 107.084 1059.8 106.884 1060.35 106.484C1060.91 106.084 1061.33 105.564 1061.62 104.924C1061.91 104.284 1062.05 103.612 1062.05 102.908V102.884H1059C1057.82 102.884 1056.98 103.092 1056.48 103.508C1056 103.908 1055.76 104.412 1055.76 105.02C1055.76 105.644 1055.99 106.148 1056.44 106.532C1056.9 106.9 1057.55 107.084 1058.38 107.084ZM1070.93 108.788C1069.51 108.788 1068.32 108.428 1067.38 107.708C1066.44 106.988 1065.88 106.012 1065.72 104.78H1067.79C1067.92 105.404 1068.24 105.948 1068.77 106.412C1069.32 106.86 1070.04 107.084 1070.96 107.084C1071.8 107.084 1072.43 106.908 1072.83 106.556C1073.23 106.188 1073.43 105.756 1073.43 105.26C1073.43 104.54 1073.16 104.06 1072.64 103.82C1072.12 103.58 1071.4 103.364 1070.45 103.172C1069.81 103.044 1069.17 102.86 1068.53 102.62C1067.89 102.38 1067.36 102.044 1066.92 101.612C1066.49 101.164 1066.28 100.58 1066.28 99.86C1066.28 98.82 1066.66 97.972 1067.43 97.316C1068.21 96.644 1069.27 96.308 1070.6 96.308C1071.86 96.308 1072.89 96.628 1073.69 97.268C1074.51 97.892 1074.98 98.788 1075.11 99.956H1073.12C1073.04 99.348 1072.77 98.876 1072.32 98.54C1071.89 98.188 1071.31 98.012 1070.57 98.012C1069.85 98.012 1069.29 98.164 1068.89 98.468C1068.51 98.772 1068.32 99.172 1068.32 99.668C1068.32 100.148 1068.56 100.524 1069.06 100.796C1069.57 101.068 1070.26 101.3 1071.12 101.492C1071.86 101.652 1072.56 101.852 1073.21 102.092C1073.88 102.316 1074.43 102.66 1074.84 103.124C1075.28 103.572 1075.49 104.228 1075.49 105.092C1075.51 106.164 1075.1 107.052 1074.27 107.756C1073.45 108.444 1072.34 108.788 1070.93 108.788ZM1078.88 93.956C1078.48 93.956 1078.14 93.828 1077.87 93.572C1077.61 93.3 1077.48 92.964 1077.48 92.564C1077.48 92.18 1077.61 91.86 1077.87 91.604C1078.14 91.348 1078.48 91.22 1078.88 91.22C1079.26 91.22 1079.59 91.348 1079.86 91.604C1080.13 91.86 1080.27 92.18 1080.27 92.564C1080.27 92.964 1080.13 93.3 1079.86 93.572C1079.59 93.828 1079.26 93.956 1078.88 93.956ZM1077.87 108.5V96.596H1079.88V108.5H1077.87ZM1082.68 108.5V96.596H1084.5L1084.62 98.732C1085 97.98 1085.56 97.388 1086.28 96.956C1087 96.524 1087.81 96.308 1088.72 96.308C1090.13 96.308 1091.25 96.74 1092.08 97.604C1092.93 98.452 1093.36 99.764 1093.36 101.54V108.5H1091.34V101.756C1091.34 99.276 1090.32 98.036 1088.27 98.036C1087.24 98.036 1086.39 98.412 1085.7 99.164C1085.03 99.9 1084.69 100.956 1084.69 102.332V108.5H1082.68ZM1100.39 104.756C1099.72 104.756 1099.11 104.668 1098.55 104.492L1097.35 105.62C1097.52 105.748 1097.74 105.86 1097.99 105.956C1098.27 106.036 1098.65 106.116 1099.15 106.196C1099.64 106.26 1100.34 106.332 1101.23 106.412C1102.83 106.524 1103.98 106.892 1104.67 107.516C1105.35 108.14 1105.7 108.956 1105.7 109.964C1105.7 110.652 1105.51 111.308 1105.12 111.932C1104.75 112.556 1104.18 113.068 1103.39 113.468C1102.63 113.868 1101.63 114.068 1100.42 114.068C1099.35 114.068 1098.39 113.924 1097.56 113.636C1096.73 113.364 1096.08 112.94 1095.62 112.364C1095.15 111.804 1094.92 111.092 1094.92 110.228C1094.92 109.78 1095.04 109.292 1095.28 108.764C1095.52 108.252 1095.97 107.764 1096.63 107.3C1096.27 107.156 1095.97 107.004 1095.71 106.844C1095.47 106.668 1095.25 106.476 1095.04 106.268V105.716L1097.08 103.7C1096.14 102.9 1095.67 101.844 1095.67 100.532C1095.67 99.748 1095.85 99.036 1096.22 98.396C1096.59 97.756 1097.12 97.252 1097.83 96.884C1098.53 96.5 1099.39 96.308 1100.39 96.308C1101.08 96.308 1101.71 96.404 1102.27 96.596H1106.66V98.108L1104.43 98.204C1104.89 98.876 1105.12 99.652 1105.12 100.532C1105.12 101.316 1104.93 102.028 1104.55 102.668C1104.18 103.308 1103.64 103.82 1102.94 104.204C1102.25 104.572 1101.4 104.756 1100.39 104.756ZM1100.39 103.1C1101.24 103.1 1101.91 102.884 1102.41 102.452C1102.92 102.004 1103.18 101.364 1103.18 100.532C1103.18 99.716 1102.92 99.092 1102.41 98.66C1101.91 98.212 1101.24 97.988 1100.39 97.988C1099.53 97.988 1098.84 98.212 1098.33 98.66C1097.83 99.092 1097.59 99.716 1097.59 100.532C1097.59 101.364 1097.83 102.004 1098.33 102.452C1098.84 102.884 1099.53 103.1 1100.39 103.1ZM1096.89 110.036C1096.89 110.836 1097.23 111.428 1097.9 111.812C1098.57 112.212 1099.41 112.412 1100.42 112.412C1101.41 112.412 1102.2 112.196 1102.79 111.764C1103.4 111.332 1103.71 110.756 1103.71 110.036C1103.71 109.524 1103.5 109.076 1103.08 108.692C1102.67 108.324 1101.9 108.108 1100.78 108.044C1099.9 107.98 1099.14 107.9 1098.5 107.804C1097.84 108.156 1097.41 108.532 1097.2 108.932C1096.99 109.348 1096.89 109.716 1096.89 110.036Z" fill="white"/>
<rect x="624.5" y="108.5" width="199" height="199" rx="99.5" stroke="#181717"/>
<path d="M650.549 216.5V199.7H652.901L658.949 211.412L664.949 199.7H667.325V216.5H665.309V203.3L659.693 214.1H658.181L652.565 203.324V216.5H650.549ZM673.989 216.788C672.997 216.788 672.173 216.62 671.517 216.284C670.861 215.948 670.373 215.5 670.053 214.94C669.733 214.38 669.573 213.772 669.573 213.116C669.573 211.9 670.037 210.964 670.965 210.308C671.893 209.652 673.157 209.324 674.757 209.324H677.973V209.18C677.973 208.14 677.701 207.356 677.157 206.828C676.613 206.284 675.885 206.012 674.973 206.012C674.189 206.012 673.509 206.212 672.933 206.612C672.373 206.996 672.021 207.564 671.877 208.316H669.813C669.893 207.452 670.181 206.724 670.677 206.132C671.189 205.54 671.821 205.092 672.573 204.788C673.325 204.468 674.125 204.308 674.973 204.308C676.637 204.308 677.885 204.756 678.717 205.652C679.565 206.532 679.989 207.708 679.989 209.18V216.5H678.189L678.069 214.364C677.733 215.036 677.237 215.612 676.581 216.092C675.941 216.556 675.077 216.788 673.989 216.788ZM674.301 215.084C675.069 215.084 675.725 214.884 676.269 214.484C676.829 214.084 677.253 213.564 677.541 212.924C677.829 212.284 677.973 211.612 677.973 210.908V210.884H674.925C673.741 210.884 672.901 211.092 672.405 211.508C671.925 211.908 671.685 212.412 671.685 213.02C671.685 213.644 671.909 214.148 672.357 214.532C672.821 214.9 673.469 215.084 674.301 215.084ZM682.294 216.5V204.596H684.118L684.238 206.732C684.622 205.98 685.174 205.388 685.894 204.956C686.614 204.524 687.43 204.308 688.342 204.308C689.75 204.308 690.87 204.74 691.702 205.604C692.55 206.452 692.974 207.764 692.974 209.54V216.5H690.958V209.756C690.958 207.276 689.934 206.036 687.886 206.036C686.862 206.036 686.006 206.412 685.318 207.164C684.646 207.9 684.31 208.956 684.31 210.332V216.5H682.294ZM699.652 216.788C698.244 216.788 697.124 216.364 696.292 215.516C695.46 214.652 695.044 213.332 695.044 211.556V204.596H697.06V211.34C697.06 213.82 698.076 215.06 700.108 215.06C701.148 215.06 702.004 214.692 702.676 213.956C703.364 213.204 703.708 212.14 703.708 210.764V204.596H705.724V216.5H703.9L703.756 214.364C703.388 215.116 702.836 215.708 702.1 216.14C701.38 216.572 700.564 216.788 699.652 216.788ZM708.971 216.5V206.3H707.171V204.596H708.971V202.532C708.971 201.38 709.259 200.54 709.835 200.012C710.411 199.484 711.251 199.22 712.355 199.22H713.555V200.948H712.667C712.059 200.948 711.627 201.076 711.371 201.332C711.115 201.572 710.987 201.988 710.987 202.58V204.596H713.915V206.3H710.987V216.5H708.971ZM719.086 216.788C718.094 216.788 717.27 216.62 716.614 216.284C715.958 215.948 715.47 215.5 715.15 214.94C714.83 214.38 714.67 213.772 714.67 213.116C714.67 211.9 715.134 210.964 716.062 210.308C716.99 209.652 718.254 209.324 719.854 209.324H723.07V209.18C723.07 208.14 722.798 207.356 722.254 206.828C721.71 206.284 720.982 206.012 720.07 206.012C719.286 206.012 718.606 206.212 718.03 206.612C717.47 206.996 717.118 207.564 716.974 208.316H714.91C714.99 207.452 715.278 206.724 715.774 206.132C716.286 205.54 716.918 205.092 717.67 204.788C718.422 204.468 719.222 204.308 720.07 204.308C721.734 204.308 722.982 204.756 723.814 205.652C724.662 206.532 725.086 207.708 725.086 209.18V216.5H723.286L723.166 214.364C722.83 215.036 722.334 215.612 721.678 216.092C721.038 216.556 720.174 216.788 719.086 216.788ZM719.398 215.084C720.166 215.084 720.822 214.884 721.366 214.484C721.926 214.084 722.35 213.564 722.638 212.924C722.926 212.284 723.07 211.612 723.07 210.908V210.884H720.022C718.838 210.884 717.998 211.092 717.502 211.508C717.022 211.908 716.782 212.412 716.782 213.02C716.782 213.644 717.006 214.148 717.454 214.532C717.918 214.9 718.566 215.084 719.398 215.084ZM732.862 216.788C731.726 216.788 730.702 216.532 729.79 216.02C728.894 215.492 728.182 214.764 727.654 213.836C727.142 212.892 726.886 211.796 726.886 210.548C726.886 209.3 727.142 208.212 727.654 207.284C728.182 206.34 728.894 205.612 729.79 205.1C730.702 204.572 731.726 204.308 732.862 204.308C734.27 204.308 735.454 204.676 736.414 205.412C737.39 206.148 738.006 207.132 738.262 208.364H736.198C736.038 207.628 735.646 207.06 735.022 206.66C734.398 206.244 733.67 206.036 732.838 206.036C732.166 206.036 731.534 206.204 730.942 206.54C730.35 206.876 729.87 207.38 729.502 208.052C729.134 208.724 728.95 209.556 728.95 210.548C728.95 211.54 729.134 212.372 729.502 213.044C729.87 213.716 730.35 214.228 730.942 214.58C731.534 214.916 732.166 215.084 732.838 215.084C733.67 215.084 734.398 214.884 735.022 214.484C735.646 214.068 736.038 213.484 736.198 212.732H738.262C738.022 213.932 737.414 214.908 736.438 215.66C735.462 216.412 734.27 216.788 732.862 216.788ZM744.734 216.5C743.646 216.5 742.79 216.236 742.166 215.708C741.542 215.18 741.23 214.228 741.23 212.852V206.3H739.166V204.596H741.23L741.494 201.74H743.246V204.596H746.75V206.3H743.246V212.852C743.246 213.604 743.398 214.116 743.702 214.388C744.006 214.644 744.542 214.772 745.31 214.772H746.558V216.5H744.734ZM752.935 216.788C751.527 216.788 750.407 216.364 749.575 215.516C748.743 214.652 748.327 213.332 748.327 211.556V204.596H750.343V211.34C750.343 213.82 751.359 215.06 753.391 215.06C754.431 215.06 755.287 214.692 755.959 213.956C756.647 213.204 756.991 212.14 756.991 210.764V204.596H759.007V216.5H757.183L757.039 214.364C756.671 215.116 756.119 215.708 755.383 216.14C754.663 216.572 753.847 216.788 752.935 216.788ZM761.605 216.5V204.596H763.429L763.597 206.876C763.965 206.092 764.525 205.468 765.277 205.004C766.029 204.54 766.957 204.308 768.061 204.308V206.42H767.509C766.805 206.42 766.157 206.548 765.565 206.804C764.973 207.044 764.501 207.46 764.149 208.052C763.797 208.644 763.621 209.46 763.621 210.5V216.5H761.605ZM770.828 201.956C770.428 201.956 770.092 201.828 769.82 201.572C769.564 201.3 769.436 200.964 769.436 200.564C769.436 200.18 769.564 199.86 769.82 199.604C770.092 199.348 770.428 199.22 770.828 199.22C771.212 199.22 771.54 199.348 771.812 199.604C772.084 199.86 772.22 200.18 772.22 200.564C772.22 200.964 772.084 201.3 771.812 201.572C771.54 201.828 771.212 201.956 770.828 201.956ZM769.82 216.5V204.596H771.836V216.5H769.82ZM774.626 216.5V204.596H776.45L776.57 206.732C776.954 205.98 777.506 205.388 778.226 204.956C778.946 204.524 779.762 204.308 780.674 204.308C782.082 204.308 783.202 204.74 784.034 205.604C784.882 206.452 785.306 207.764 785.306 209.54V216.5H783.29V209.756C783.29 207.276 782.266 206.036 780.218 206.036C779.194 206.036 778.338 206.412 777.65 207.164C776.978 207.9 776.642 208.956 776.642 210.332V216.5H774.626ZM792.345 212.756C791.673 212.756 791.057 212.668 790.497 212.492L789.297 213.62C789.473 213.748 789.689 213.86 789.945 213.956C790.217 214.036 790.601 214.116 791.097 214.196C791.593 214.26 792.289 214.332 793.185 214.412C794.785 214.524 795.929 214.892 796.617 215.516C797.305 216.14 797.649 216.956 797.649 217.964C797.649 218.652 797.457 219.308 797.073 219.932C796.705 220.556 796.129 221.068 795.345 221.468C794.577 221.868 793.585 222.068 792.369 222.068C791.297 222.068 790.345 221.924 789.513 221.636C788.681 221.364 788.033 220.94 787.569 220.364C787.105 219.804 786.873 219.092 786.873 218.228C786.873 217.78 786.993 217.292 787.233 216.764C787.473 216.252 787.921 215.764 788.577 215.3C788.225 215.156 787.921 215.004 787.665 214.844C787.425 214.668 787.201 214.476 786.993 214.268V213.716L789.033 211.7C788.089 210.9 787.617 209.844 787.617 208.532C787.617 207.748 787.801 207.036 788.169 206.396C788.537 205.756 789.073 205.252 789.777 204.884C790.481 204.5 791.337 204.308 792.345 204.308C793.033 204.308 793.657 204.404 794.217 204.596H798.609V206.108L796.377 206.204C796.841 206.876 797.073 207.652 797.073 208.532C797.073 209.316 796.881 210.028 796.497 210.668C796.129 211.308 795.593 211.82 794.889 212.204C794.201 212.572 793.353 212.756 792.345 212.756ZM792.345 211.1C793.193 211.1 793.865 210.884 794.361 210.452C794.873 210.004 795.129 209.364 795.129 208.532C795.129 207.716 794.873 207.092 794.361 206.66C793.865 206.212 793.193 205.988 792.345 205.988C791.481 205.988 790.793 206.212 790.281 206.66C789.785 207.092 789.537 207.716 789.537 208.532C789.537 209.364 789.785 210.004 790.281 210.452C790.793 210.884 791.481 211.1 792.345 211.1ZM788.841 218.036C788.841 218.836 789.177 219.428 789.849 219.812C790.521 220.212 791.361 220.412 792.369 220.412C793.361 220.412 794.153 220.196 794.745 219.764C795.353 219.332 795.657 218.756 795.657 218.036C795.657 217.524 795.449 217.076 795.033 216.692C794.617 216.324 793.849 216.108 792.729 216.044C791.849 215.98 791.089 215.9 790.449 215.804C789.793 216.156 789.361 216.532 789.153 216.932C788.945 217.348 788.841 217.716 788.841 218.036Z" fill="#181717"/>
<rect x="770.5" y="0.5" width="199" height="199" rx="99.5" stroke="#181717"/>
<path d="M834.69 93V76.2H840.21C841.522 76.2 842.602 76.416 843.45 76.848C844.298 77.28 844.922 77.864 845.322 78.6C845.738 79.336 845.946 80.168 845.946 81.096C845.946 82.008 845.746 82.832 845.346 83.568C844.946 84.304 844.322 84.896 843.474 85.344C842.626 85.776 841.538 85.992 840.21 85.992H836.706V93H834.69ZM836.706 84.288H840.162C841.506 84.288 842.458 84.008 843.018 83.448C843.594 82.872 843.882 82.088 843.882 81.096C843.882 80.088 843.594 79.304 843.018 78.744C842.458 78.168 841.506 77.88 840.162 77.88H836.706V84.288ZM847.748 93V81.096H849.572L849.74 83.376C850.108 82.592 850.668 81.968 851.42 81.504C852.172 81.04 853.1 80.808 854.204 80.808V82.92H853.652C852.948 82.92 852.3 83.048 851.708 83.304C851.116 83.544 850.644 83.96 850.292 84.552C849.94 85.144 849.764 85.96 849.764 87V93H847.748ZM860.726 93.288C859.606 93.288 858.598 93.032 857.702 92.52C856.806 92.008 856.094 91.288 855.566 90.36C855.054 89.416 854.798 88.312 854.798 87.048C854.798 85.784 855.062 84.688 855.59 83.76C856.118 82.816 856.83 82.088 857.726 81.576C858.638 81.064 859.654 80.808 860.774 80.808C861.894 80.808 862.902 81.064 863.798 81.576C864.694 82.088 865.398 82.816 865.91 83.76C866.438 84.688 866.702 85.784 866.702 87.048C866.702 88.312 866.438 89.416 865.91 90.36C865.382 91.288 864.662 92.008 863.75 92.52C862.854 93.032 861.846 93.288 860.726 93.288ZM860.726 91.56C861.414 91.56 862.054 91.392 862.646 91.056C863.238 90.72 863.718 90.216 864.086 89.544C864.454 88.872 864.638 88.04 864.638 87.048C864.638 86.056 864.454 85.224 864.086 84.552C863.734 83.88 863.262 83.376 862.67 83.04C862.078 82.704 861.446 82.536 860.774 82.536C860.086 82.536 859.446 82.704 858.854 83.04C858.262 83.376 857.782 83.88 857.414 84.552C857.046 85.224 856.862 86.056 856.862 87.048C856.862 88.04 857.046 88.872 857.414 89.544C857.782 90.216 858.254 90.72 858.83 91.056C859.422 91.392 860.054 91.56 860.726 91.56ZM870.105 78.456C869.721 78.456 869.393 78.328 869.121 78.072C868.849 77.8 868.713 77.464 868.713 77.064C868.713 76.68 868.849 76.36 869.121 76.104C869.393 75.848 869.721 75.72 870.105 75.72C870.489 75.72 870.809 75.848 871.065 76.104C871.337 76.36 871.473 76.68 871.473 77.064C871.473 77.464 871.337 77.8 871.065 78.072C870.809 78.328 870.489 78.456 870.105 78.456ZM866.457 98.28V96.552H867.393C867.985 96.552 868.409 96.424 868.665 96.168C868.937 95.928 869.073 95.512 869.073 94.92V81.096H871.089V94.968C871.089 96.12 870.801 96.96 870.225 97.488C869.649 98.016 868.809 98.28 867.705 98.28H866.457ZM879.229 93.288C878.093 93.288 877.085 93.032 876.205 92.52C875.325 91.992 874.629 91.264 874.117 90.336C873.621 89.408 873.373 88.312 873.373 87.048C873.373 85.8 873.621 84.712 874.117 83.784C874.613 82.84 875.301 82.112 876.181 81.6C877.077 81.072 878.109 80.808 879.277 80.808C880.429 80.808 881.421 81.072 882.253 81.6C883.101 82.112 883.749 82.792 884.197 83.64C884.645 84.488 884.869 85.4 884.869 86.376C884.869 86.552 884.861 86.728 884.845 86.904C884.845 87.08 884.845 87.28 884.845 87.504H875.365C875.413 88.416 875.621 89.176 875.989 89.784C876.373 90.376 876.845 90.824 877.405 91.128C877.981 91.432 878.589 91.584 879.229 91.584C880.061 91.584 880.757 91.392 881.317 91.008C881.877 90.624 882.285 90.104 882.541 89.448H884.533C884.213 90.552 883.597 91.472 882.685 92.208C881.789 92.928 880.637 93.288 879.229 93.288ZM879.229 82.512C878.269 82.512 877.413 82.808 876.661 83.4C875.925 83.976 875.501 84.824 875.389 85.944H882.877C882.829 84.872 882.461 84.032 881.773 83.424C881.085 82.816 880.237 82.512 879.229 82.512ZM892.293 93.288C891.157 93.288 890.133 93.032 889.221 92.52C888.325 91.992 887.613 91.264 887.085 90.336C886.573 89.392 886.317 88.296 886.317 87.048C886.317 85.8 886.573 84.712 887.085 83.784C887.613 82.84 888.325 82.112 889.221 81.6C890.133 81.072 891.157 80.808 892.293 80.808C893.701 80.808 894.885 81.176 895.845 81.912C896.821 82.648 897.437 83.632 897.693 84.864H895.629C895.469 84.128 895.077 83.56 894.453 83.16C893.829 82.744 893.101 82.536 892.269 82.536C891.597 82.536 890.965 82.704 890.373 83.04C889.781 83.376 889.301 83.88 888.933 84.552C888.565 85.224 888.381 86.056 888.381 87.048C888.381 88.04 888.565 88.872 888.933 89.544C889.301 90.216 889.781 90.728 890.373 91.08C890.965 91.416 891.597 91.584 892.269 91.584C893.101 91.584 893.829 91.384 894.453 90.984C895.077 90.568 895.469 89.984 895.629 89.232H897.693C897.453 90.432 896.845 91.408 895.869 92.16C894.893 92.912 893.701 93.288 892.293 93.288ZM904.165 93C903.077 93 902.221 92.736 901.597 92.208C900.973 91.68 900.661 90.728 900.661 89.352V82.8H898.597V81.096H900.661L900.925 78.24H902.677V81.096H906.181V82.8H902.677V89.352C902.677 90.104 902.829 90.616 903.133 90.888C903.437 91.144 903.973 91.272 904.741 91.272H905.989V93H904.165ZM802.711 124V107.2H805.063L811.111 118.912L817.111 107.2H819.487V124H817.471V110.8L811.855 121.6H810.343L804.727 110.824V124H802.711ZM826.152 124.288C825.16 124.288 824.336 124.12 823.68 123.784C823.024 123.448 822.536 123 822.216 122.44C821.896 121.88 821.736 121.272 821.736 120.616C821.736 119.4 822.2 118.464 823.128 117.808C824.056 117.152 825.32 116.824 826.92 116.824H830.136V116.68C830.136 115.64 829.864 114.856 829.32 114.328C828.776 113.784 828.048 113.512 827.136 113.512C826.352 113.512 825.672 113.712 825.096 114.112C824.536 114.496 824.184 115.064 824.04 115.816H821.976C822.056 114.952 822.344 114.224 822.84 113.632C823.352 113.04 823.984 112.592 824.736 112.288C825.488 111.968 826.288 111.808 827.136 111.808C828.8 111.808 830.048 112.256 830.88 113.152C831.728 114.032 832.152 115.208 832.152 116.68V124H830.352L830.232 121.864C829.896 122.536 829.4 123.112 828.744 123.592C828.104 124.056 827.24 124.288 826.152 124.288ZM826.464 122.584C827.232 122.584 827.888 122.384 828.432 121.984C828.992 121.584 829.416 121.064 829.704 120.424C829.992 119.784 830.136 119.112 830.136 118.408V118.384H827.088C825.904 118.384 825.064 118.592 824.568 119.008C824.088 119.408 823.848 119.912 823.848 120.52C823.848 121.144 824.072 121.648 824.52 122.032C824.984 122.4 825.632 122.584 826.464 122.584ZM834.456 124V112.096H836.28L836.4 114.232C836.784 113.48 837.336 112.888 838.056 112.456C838.776 112.024 839.592 111.808 840.504 111.808C841.912 111.808 843.032 112.24 843.864 113.104C844.712 113.952 845.136 115.264 845.136 117.04V124H843.12V117.256C843.12 114.776 842.096 113.536 840.048 113.536C839.024 113.536 838.168 113.912 837.48 114.664C836.808 115.4 836.472 116.456 836.472 117.832V124H834.456ZM851.43 124.288C850.438 124.288 849.614 124.12 848.958 123.784C848.302 123.448 847.814 123 847.494 122.44C847.174 121.88 847.014 121.272 847.014 120.616C847.014 119.4 847.478 118.464 848.406 117.808C849.334 117.152 850.598 116.824 852.198 116.824H855.414V116.68C855.414 115.64 855.142 114.856 854.598 114.328C854.054 113.784 853.326 113.512 852.414 113.512C851.63 113.512 850.95 113.712 850.374 114.112C849.814 114.496 849.462 115.064 849.318 115.816H847.254C847.334 114.952 847.622 114.224 848.118 113.632C848.63 113.04 849.262 112.592 850.014 112.288C850.766 111.968 851.566 111.808 852.414 111.808C854.078 111.808 855.326 112.256 856.158 113.152C857.006 114.032 857.43 115.208 857.43 116.68V124H855.63L855.51 121.864C855.174 122.536 854.678 123.112 854.022 123.592C853.382 124.056 852.518 124.288 851.43 124.288ZM851.742 122.584C852.51 122.584 853.166 122.384 853.71 121.984C854.27 121.584 854.694 121.064 854.982 120.424C855.27 119.784 855.414 119.112 855.414 118.408V118.384H852.366C851.182 118.384 850.342 118.592 849.846 119.008C849.366 119.408 849.126 119.912 849.126 120.52C849.126 121.144 849.35 121.648 849.798 122.032C850.262 122.4 850.91 122.584 851.742 122.584ZM864.439 120.256C863.767 120.256 863.151 120.168 862.591 119.992L861.391 121.12C861.567 121.248 861.783 121.36 862.039 121.456C862.311 121.536 862.695 121.616 863.191 121.696C863.687 121.76 864.383 121.832 865.279 121.912C866.879 122.024 868.023 122.392 868.711 123.016C869.399 123.64 869.743 124.456 869.743 125.464C869.743 126.152 869.551 126.808 869.167 127.432C868.799 128.056 868.223 128.568 867.439 128.968C866.671 129.368 865.679 129.568 864.463 129.568C863.391 129.568 862.439 129.424 861.607 129.136C860.775 128.864 860.127 128.44 859.663 127.864C859.199 127.304 858.967 126.592 858.967 125.728C858.967 125.28 859.087 124.792 859.327 124.264C859.567 123.752 860.015 123.264 860.671 122.8C860.319 122.656 860.015 122.504 859.759 122.344C859.519 122.168 859.295 121.976 859.087 121.768V121.216L861.127 119.2C860.183 118.4 859.711 117.344 859.711 116.032C859.711 115.248 859.895 114.536 860.263 113.896C860.631 113.256 861.167 112.752 861.871 112.384C862.575 112 863.431 111.808 864.439 111.808C865.127 111.808 865.751 111.904 866.311 112.096H870.703V113.608L868.471 113.704C868.935 114.376 869.167 115.152 869.167 116.032C869.167 116.816 868.975 117.528 868.591 118.168C868.223 118.808 867.687 119.32 866.983 119.704C866.295 120.072 865.447 120.256 864.439 120.256ZM864.439 118.6C865.287 118.6 865.959 118.384 866.455 117.952C866.967 117.504 867.223 116.864 867.223 116.032C867.223 115.216 866.967 114.592 866.455 114.16C865.959 113.712 865.287 113.488 864.439 113.488C863.575 113.488 862.887 113.712 862.375 114.16C861.879 114.592 861.631 115.216 861.631 116.032C861.631 116.864 861.879 117.504 862.375 117.952C862.887 118.384 863.575 118.6 864.439 118.6ZM860.935 125.536C860.935 126.336 861.271 126.928 861.943 127.312C862.615 127.712 863.455 127.912 864.463 127.912C865.455 127.912 866.247 127.696 866.839 127.264C867.447 126.832 867.751 126.256 867.751 125.536C867.751 125.024 867.543 124.576 867.127 124.192C866.711 123.824 865.943 123.608 864.823 123.544C863.943 123.48 863.183 123.4 862.543 123.304C861.887 123.656 861.455 124.032 861.247 124.432C861.039 124.848 860.935 125.216 860.935 125.536ZM877.14 124.288C876.004 124.288 874.996 124.032 874.116 123.52C873.236 122.992 872.54 122.264 872.028 121.336C871.532 120.408 871.284 119.312 871.284 118.048C871.284 116.8 871.532 115.712 872.028 114.784C872.524 113.84 873.212 113.112 874.092 112.6C874.988 112.072 876.02 111.808 877.188 111.808C878.34 111.808 879.332 112.072 880.164 112.6C881.012 113.112 881.66 113.792 882.108 114.64C882.556 115.488 882.78 116.4 882.78 117.376C882.78 117.552 882.772 117.728 882.756 117.904C882.756 118.08 882.756 118.28 882.756 118.504H873.276C873.324 119.416 873.532 120.176 873.9 120.784C874.284 121.376 874.756 121.824 875.316 122.128C875.892 122.432 876.5 122.584 877.14 122.584C877.972 122.584 878.668 122.392 879.228 122.008C879.788 121.624 880.196 121.104 880.452 120.448H882.444C882.124 121.552 881.508 122.472 880.596 123.208C879.7 123.928 878.548 124.288 877.14 124.288ZM877.14 113.512C876.18 113.512 875.324 113.808 874.572 114.4C873.836 114.976 873.412 115.824 873.3 116.944H880.788C880.74 115.872 880.372 115.032 879.684 114.424C878.996 113.816 878.148 113.512 877.14 113.512ZM884.732 124V112.096H886.556L886.7 113.824C887.084 113.184 887.596 112.688 888.236 112.336C888.876 111.984 889.596 111.808 890.396 111.808C891.34 111.808 892.148 112 892.82 112.384C893.508 112.768 894.036 113.352 894.404 114.136C894.82 113.416 895.388 112.848 896.108 112.432C896.844 112.016 897.636 111.808 898.484 111.808C899.908 111.808 901.044 112.24 901.892 113.104C902.74 113.952 903.164 115.264 903.164 117.04V124H901.172V117.256C901.172 116.024 900.924 115.096 900.428 114.472C899.932 113.848 899.22 113.536 898.292 113.536C897.332 113.536 896.532 113.912 895.892 114.664C895.268 115.4 894.956 116.456 894.956 117.832V124H892.94V117.256C892.94 116.024 892.692 115.096 892.196 114.472C891.7 113.848 890.988 113.536 890.06 113.536C889.116 113.536 888.324 113.912 887.684 114.664C887.06 115.4 886.748 116.456 886.748 117.832V124H884.732ZM910.833 124.288C909.697 124.288 908.689 124.032 907.809 123.52C906.929 122.992 906.233 122.264 905.721 121.336C905.225 120.408 904.977 119.312 904.977 118.048C904.977 116.8 905.225 115.712 905.721 114.784C906.217 113.84 906.905 113.112 907.785 112.6C908.681 112.072 909.713 111.808 910.881 111.808C912.033 111.808 913.025 112.072 913.857 112.6C914.705 113.112 915.353 113.792 915.801 114.64C916.249 115.488 916.473 116.4 916.473 117.376C916.473 117.552 916.465 117.728 916.449 117.904C916.449 118.08 916.449 118.28 916.449 118.504H906.969C907.017 119.416 907.225 120.176 907.593 120.784C907.977 121.376 908.449 121.824 909.009 122.128C909.585 122.432 910.193 122.584 910.833 122.584C911.665 122.584 912.361 122.392 912.921 122.008C913.481 121.624 913.889 121.104 914.145 120.448H916.137C915.817 121.552 915.201 122.472 914.289 123.208C913.393 123.928 912.241 124.288 910.833 124.288ZM910.833 113.512C909.873 113.512 909.017 113.808 908.265 114.4C907.529 114.976 907.105 115.824 906.993 116.944H914.481C914.433 115.872 914.065 115.032 913.377 114.424C912.689 113.816 911.841 113.512 910.833 113.512ZM918.425 124V112.096H920.249L920.369 114.232C920.753 113.48 921.305 112.888 922.025 112.456C922.745 112.024 923.561 111.808 924.473 111.808C925.881 111.808 927.001 112.24 927.833 113.104C928.681 113.952 929.105 115.264 929.105 117.04V124H927.089V117.256C927.089 114.776 926.065 113.536 924.017 113.536C922.993 113.536 922.137 113.912 921.449 114.664C920.777 115.4 920.441 116.456 920.441 117.832V124H918.425ZM936.143 124C935.055 124 934.199 123.736 933.575 123.208C932.951 122.68 932.639 121.728 932.639 120.352V113.8H930.575V112.096H932.639L932.903 109.24H934.655V112.096H938.159V113.8H934.655V120.352C934.655 121.104 934.807 121.616 935.111 121.888C935.415 122.144 935.951 122.272 936.719 122.272H937.967V124H936.143Z" fill="#181717"/>
<rect x="565.5" y="288.5" width="199" height="199" rx="99.5" stroke="#181717"/>
<path d="M629.111 381V364.2H631.127V371.616H639.839V364.2H641.855V381H639.839V373.272H631.127V381H629.111ZM648.904 381.288C647.496 381.288 646.376 380.864 645.544 380.016C644.712 379.152 644.296 377.832 644.296 376.056V369.096H646.312V375.84C646.312 378.32 647.328 379.56 649.36 379.56C650.4 379.56 651.256 379.192 651.928 378.456C652.616 377.704 652.96 376.64 652.96 375.264V369.096H654.976V381H653.152L653.008 378.864C652.64 379.616 652.088 380.208 651.352 380.64C650.632 381.072 649.816 381.288 648.904 381.288ZM657.574 381V369.096H659.398L659.542 370.824C659.926 370.184 660.438 369.688 661.078 369.336C661.718 368.984 662.438 368.808 663.238 368.808C664.182 368.808 664.99 369 665.662 369.384C666.35 369.768 666.878 370.352 667.246 371.136C667.662 370.416 668.23 369.848 668.95 369.432C669.686 369.016 670.478 368.808 671.326 368.808C672.75 368.808 673.886 369.24 674.734 370.104C675.582 370.952 676.006 372.264 676.006 374.04V381H674.014V374.256C674.014 373.024 673.766 372.096 673.27 371.472C672.774 370.848 672.062 370.536 671.134 370.536C670.174 370.536 669.374 370.912 668.734 371.664C668.11 372.4 667.798 373.456 667.798 374.832V381H665.782V374.256C665.782 373.024 665.534 372.096 665.038 371.472C664.542 370.848 663.83 370.536 662.902 370.536C661.958 370.536 661.166 370.912 660.526 371.664C659.902 372.4 659.59 373.456 659.59 374.832V381H657.574ZM682.283 381.288C681.291 381.288 680.467 381.12 679.811 380.784C679.155 380.448 678.667 380 678.347 379.44C678.027 378.88 677.867 378.272 677.867 377.616C677.867 376.4 678.331 375.464 679.259 374.808C680.187 374.152 681.451 373.824 683.051 373.824H686.267V373.68C686.267 372.64 685.995 371.856 685.451 371.328C684.907 370.784 684.179 370.512 683.267 370.512C682.483 370.512 681.803 370.712 681.227 371.112C680.667 371.496 680.315 372.064 680.171 372.816H678.107C678.187 371.952 678.475 371.224 678.971 370.632C679.483 370.04 680.115 369.592 680.867 369.288C681.619 368.968 682.419 368.808 683.267 368.808C684.931 368.808 686.179 369.256 687.011 370.152C687.859 371.032 688.283 372.208 688.283 373.68V381H686.483L686.363 378.864C686.027 379.536 685.531 380.112 684.875 380.592C684.235 381.056 683.371 381.288 682.283 381.288ZM682.595 379.584C683.363 379.584 684.019 379.384 684.563 378.984C685.123 378.584 685.547 378.064 685.835 377.424C686.123 376.784 686.267 376.112 686.267 375.408V375.384H683.219C682.035 375.384 681.195 375.592 680.699 376.008C680.219 376.408 679.979 376.912 679.979 377.52C679.979 378.144 680.203 378.648 680.651 379.032C681.115 379.4 681.763 379.584 682.595 379.584ZM690.587 381V369.096H692.411L692.531 371.232C692.915 370.48 693.467 369.888 694.187 369.456C694.907 369.024 695.723 368.808 696.635 368.808C698.043 368.808 699.163 369.24 699.995 370.104C700.843 370.952 701.267 372.264 701.267 374.04V381H699.251V374.256C699.251 371.776 698.227 370.536 696.179 370.536C695.155 370.536 694.299 370.912 693.611 371.664C692.939 372.4 692.603 373.456 692.603 374.832V381H690.587ZM612.293 412V395.2H617.717C619.029 395.2 620.101 395.416 620.933 395.848C621.765 396.28 622.381 396.872 622.781 397.624C623.181 398.376 623.381 399.208 623.381 400.12C623.381 401.176 623.093 402.128 622.517 402.976C621.957 403.824 621.077 404.424 619.877 404.776L623.549 412H621.173L617.765 405.064H617.621H614.309V412H612.293ZM614.309 403.48H617.573C618.869 403.48 619.813 403.168 620.405 402.544C620.997 401.92 621.293 401.12 621.293 400.144C621.293 399.152 620.997 398.368 620.405 397.792C619.829 397.2 618.877 396.904 617.549 396.904H614.309V403.48ZM630.305 412.288C629.169 412.288 628.161 412.032 627.281 411.52C626.401 410.992 625.705 410.264 625.193 409.336C624.697 408.408 624.449 407.312 624.449 406.048C624.449 404.8 624.697 403.712 625.193 402.784C625.689 401.84 626.377 401.112 627.257 400.6C628.153 400.072 629.185 399.808 630.353 399.808C631.505 399.808 632.497 400.072 633.329 400.6C634.177 401.112 634.825 401.792 635.273 402.64C635.721 403.488 635.945 404.4 635.945 405.376C635.945 405.552 635.937 405.728 635.921 405.904C635.921 406.08 635.921 406.28 635.921 406.504H626.441C626.489 407.416 626.697 408.176 627.065 408.784C627.449 409.376 627.921 409.824 628.481 410.128C629.057 410.432 629.665 410.584 630.305 410.584C631.137 410.584 631.833 410.392 632.393 410.008C632.953 409.624 633.361 409.104 633.617 408.448H635.609C635.289 409.552 634.673 410.472 633.761 411.208C632.865 411.928 631.713 412.288 630.305 412.288ZM630.305 401.512C629.345 401.512 628.489 401.808 627.737 402.4C627.001 402.976 626.577 403.824 626.465 404.944H633.953C633.905 403.872 633.537 403.032 632.849 402.424C632.161 401.816 631.313 401.512 630.305 401.512ZM642.457 412.288C641.033 412.288 639.849 411.928 638.905 411.208C637.961 410.488 637.409 409.512 637.249 408.28H639.313C639.441 408.904 639.769 409.448 640.297 409.912C640.841 410.36 641.569 410.584 642.481 410.584C643.329 410.584 643.953 410.408 644.353 410.056C644.753 409.688 644.953 409.256 644.953 408.76C644.953 408.04 644.689 407.56 644.161 407.32C643.649 407.08 642.921 406.864 641.977 406.672C641.337 406.544 640.697 406.36 640.057 406.12C639.417 405.88 638.881 405.544 638.449 405.112C638.017 404.664 637.801 404.08 637.801 403.36C637.801 402.32 638.185 401.472 638.953 400.816C639.737 400.144 640.793 399.808 642.121 399.808C643.385 399.808 644.417 400.128 645.217 400.768C646.033 401.392 646.505 402.288 646.633 403.456H644.641C644.561 402.848 644.297 402.376 643.849 402.04C643.417 401.688 642.833 401.512 642.097 401.512C641.377 401.512 640.817 401.664 640.417 401.968C640.033 402.272 639.841 402.672 639.841 403.168C639.841 403.648 640.089 404.024 640.585 404.296C641.097 404.568 641.785 404.8 642.649 404.992C643.385 405.152 644.081 405.352 644.737 405.592C645.409 405.816 645.953 406.16 646.369 406.624C646.801 407.072 647.017 407.728 647.017 408.592C647.033 409.664 646.625 410.552 645.793 411.256C644.977 411.944 643.865 412.288 642.457 412.288ZM654.601 412.288C653.481 412.288 652.473 412.032 651.577 411.52C650.681 411.008 649.969 410.288 649.441 409.36C648.929 408.416 648.673 407.312 648.673 406.048C648.673 404.784 648.937 403.688 649.465 402.76C649.993 401.816 650.705 401.088 651.601 400.576C652.513 400.064 653.529 399.808 654.649 399.808C655.769 399.808 656.777 400.064 657.673 400.576C658.569 401.088 659.273 401.816 659.785 402.76C660.313 403.688 660.577 404.784 660.577 406.048C660.577 407.312 660.313 408.416 659.785 409.36C659.257 410.288 658.537 411.008 657.625 411.52C656.729 412.032 655.721 412.288 654.601 412.288ZM654.601 410.56C655.289 410.56 655.929 410.392 656.521 410.056C657.113 409.72 657.593 409.216 657.961 408.544C658.329 407.872 658.513 407.04 658.513 406.048C658.513 405.056 658.329 404.224 657.961 403.552C657.609 402.88 657.137 402.376 656.545 402.04C655.953 401.704 655.321 401.536 654.649 401.536C653.961 401.536 653.321 401.704 652.729 402.04C652.137 402.376 651.657 402.88 651.289 403.552C650.921 404.224 650.737 405.056 650.737 406.048C650.737 407.04 650.921 407.872 651.289 408.544C651.657 409.216 652.129 409.72 652.705 410.056C653.297 410.392 653.929 410.56 654.601 410.56ZM667.004 412.288C665.596 412.288 664.476 411.864 663.644 411.016C662.812 410.152 662.396 408.832 662.396 407.056V400.096H664.412V406.84C664.412 409.32 665.428 410.56 667.46 410.56C668.5 410.56 669.356 410.192 670.028 409.456C670.716 408.704 671.06 407.64 671.06 406.264V400.096H673.076V412H671.252L671.108 409.864C670.74 410.616 670.188 411.208 669.452 411.64C668.732 412.072 667.916 412.288 667.004 412.288ZM675.674 412V400.096H677.498L677.666 402.376C678.034 401.592 678.594 400.968 679.346 400.504C680.098 400.04 681.026 399.808 682.13 399.808V401.92H681.578C680.874 401.92 680.226 402.048 679.634 402.304C679.042 402.544 678.57 402.96 678.218 403.552C677.866 404.144 677.69 404.96 677.69 406V412H675.674ZM688.7 412.288C687.564 412.288 686.54 412.032 685.628 411.52C684.732 410.992 684.02 410.264 683.492 409.336C682.98 408.392 682.724 407.296 682.724 406.048C682.724 404.8 682.98 403.712 683.492 402.784C684.02 401.84 684.732 401.112 685.628 400.6C686.54 400.072 687.564 399.808 688.7 399.808C690.108 399.808 691.292 400.176 692.252 400.912C693.228 401.648 693.844 402.632 694.1 403.864H692.036C691.876 403.128 691.484 402.56 690.86 402.16C690.236 401.744 689.508 401.536 688.676 401.536C688.004 401.536 687.372 401.704 686.78 402.04C686.188 402.376 685.708 402.88 685.34 403.552C684.972 404.224 684.788 405.056 684.788 406.048C684.788 407.04 684.972 407.872 685.34 408.544C685.708 409.216 686.188 409.728 686.78 410.08C687.372 410.416 688.004 410.584 688.676 410.584C689.508 410.584 690.236 410.384 690.86 409.984C691.484 409.568 691.876 408.984 692.036 408.232H694.1C693.86 409.432 693.252 410.408 692.276 411.16C691.3 411.912 690.108 412.288 688.7 412.288ZM701.547 412.288C700.411 412.288 699.403 412.032 698.523 411.52C697.643 410.992 696.947 410.264 696.435 409.336C695.939 408.408 695.691 407.312 695.691 406.048C695.691 404.8 695.939 403.712 696.435 402.784C696.931 401.84 697.619 401.112 698.499 400.6C699.395 400.072 700.427 399.808 701.595 399.808C702.747 399.808 703.739 400.072 704.571 400.6C705.419 401.112 706.067 401.792 706.515 402.64C706.963 403.488 707.187 404.4 707.187 405.376C707.187 405.552 707.179 405.728 707.163 405.904C707.163 406.08 707.163 406.28 707.163 406.504H697.683C697.731 407.416 697.939 408.176 698.307 408.784C698.691 409.376 699.163 409.824 699.723 410.128C700.299 410.432 700.907 410.584 701.547 410.584C702.379 410.584 703.075 410.392 703.635 410.008C704.195 409.624 704.603 409.104 704.859 408.448H706.851C706.531 409.552 705.915 410.472 705.003 411.208C704.107 411.928 702.955 412.288 701.547 412.288ZM701.547 401.512C700.587 401.512 699.731 401.808 698.979 402.4C698.243 402.976 697.819 403.824 697.707 404.944H705.195C705.147 403.872 704.779 403.032 704.091 402.424C703.403 401.816 702.555 401.512 701.547 401.512ZM713.699 412.288C712.275 412.288 711.091 411.928 710.147 411.208C709.203 410.488 708.651 409.512 708.491 408.28H710.555C710.683 408.904 711.011 409.448 711.539 409.912C712.083 410.36 712.811 410.584 713.723 410.584C714.571 410.584 715.195 410.408 715.595 410.056C715.995 409.688 716.195 409.256 716.195 408.76C716.195 408.04 715.931 407.56 715.403 407.32C714.891 407.08 714.163 406.864 713.219 406.672C712.579 406.544 711.939 406.36 711.299 406.12C710.659 405.88 710.123 405.544 709.691 405.112C709.259 404.664 709.043 404.08 709.043 403.36C709.043 402.32 709.427 401.472 710.195 400.816C710.979 400.144 712.035 399.808 713.363 399.808C714.627 399.808 715.659 400.128 716.459 400.768C717.275 401.392 717.747 402.288 717.875 403.456H715.883C715.803 402.848 715.539 402.376 715.091 402.04C714.659 401.688 714.075 401.512 713.339 401.512C712.619 401.512 712.059 401.664 711.659 401.968C711.275 402.272 711.083 402.672 711.083 403.168C711.083 403.648 711.331 404.024 711.827 404.296C712.339 404.568 713.027 404.8 713.891 404.992C714.627 405.152 715.323 405.352 715.979 405.592C716.651 405.816 717.195 406.16 717.611 406.624C718.043 407.072 718.259 407.728 718.259 408.592C718.275 409.664 717.867 410.552 717.035 411.256C716.219 411.944 715.107 412.288 713.699 412.288Z" fill="#181717"/>
<rect x="944.5" y="576.5" width="199" height="199" rx="99.5" stroke="#181717"/>
<path d="M1014.72 669.288C1013.49 669.288 1012.42 669.064 1011.51 668.616C1010.6 668.168 1009.89 667.544 1009.4 666.744C1008.9 665.944 1008.65 665.016 1008.65 663.96H1010.76C1010.76 664.616 1010.92 665.224 1011.22 665.784C1011.52 666.328 1011.96 666.768 1012.54 667.104C1013.13 667.424 1013.86 667.584 1014.72 667.584C1015.86 667.584 1016.74 667.312 1017.36 666.768C1017.99 666.224 1018.3 665.544 1018.3 664.728C1018.3 664.056 1018.16 663.52 1017.87 663.12C1017.58 662.704 1017.19 662.368 1016.69 662.112C1016.21 661.856 1015.65 661.632 1015.01 661.44C1014.39 661.248 1013.73 661.032 1013.04 660.792C1011.75 660.344 1010.79 659.792 1010.16 659.136C1009.54 658.464 1009.23 657.592 1009.23 656.52C1009.21 655.624 1009.42 654.832 1009.85 654.144C1010.28 653.44 1010.89 652.896 1011.68 652.512C1012.48 652.112 1013.42 651.912 1014.51 651.912C1015.58 651.912 1016.51 652.112 1017.29 652.512C1018.09 652.912 1018.71 653.464 1019.14 654.168C1019.59 654.872 1019.82 655.672 1019.84 656.568H1017.72C1017.72 656.104 1017.6 655.648 1017.36 655.2C1017.12 654.736 1016.76 654.36 1016.26 654.072C1015.78 653.784 1015.17 653.64 1014.44 653.64C1013.52 653.624 1012.77 653.856 1012.18 654.336C1011.6 654.816 1011.32 655.48 1011.32 656.328C1011.32 657.048 1011.52 657.6 1011.92 657.984C1012.33 658.368 1012.91 658.688 1013.64 658.944C1014.38 659.184 1015.23 659.464 1016.19 659.784C1016.99 660.072 1017.71 660.408 1018.35 660.792C1018.99 661.176 1019.48 661.672 1019.84 662.28C1020.2 662.888 1020.39 663.664 1020.39 664.608C1020.39 665.408 1020.18 666.168 1019.76 666.888C1019.35 667.592 1018.72 668.168 1017.87 668.616C1017.04 669.064 1015.99 669.288 1014.72 669.288ZM1026.75 669.288C1025.34 669.288 1024.22 668.864 1023.39 668.016C1022.56 667.152 1022.14 665.832 1022.14 664.056V657.096H1024.16V663.84C1024.16 666.32 1025.18 667.56 1027.21 667.56C1028.25 667.56 1029.1 667.192 1029.78 666.456C1030.46 665.704 1030.81 664.64 1030.81 663.264V657.096H1032.82V669H1031L1030.86 666.864C1030.49 667.616 1029.94 668.208 1029.2 668.64C1028.48 669.072 1027.66 669.288 1026.75 669.288ZM1035.42 674.28V657.096H1037.25L1037.44 659.064C1037.82 658.488 1038.37 657.968 1039.07 657.504C1039.79 657.04 1040.7 656.808 1041.81 656.808C1042.99 656.808 1044.02 657.08 1044.9 657.624C1045.78 658.168 1046.46 658.912 1046.94 659.856C1047.44 660.8 1047.69 661.872 1047.69 663.072C1047.69 664.272 1047.44 665.344 1046.94 666.288C1046.46 667.216 1045.77 667.952 1044.88 668.496C1044 669.024 1042.97 669.288 1041.78 669.288C1040.81 669.288 1039.93 669.088 1039.17 668.688C1038.41 668.288 1037.84 667.728 1037.44 667.008V674.28H1035.42ZM1041.57 667.536C1042.37 667.536 1043.07 667.352 1043.68 666.984C1044.29 666.6 1044.77 666.072 1045.12 665.4C1045.47 664.728 1045.65 663.944 1045.65 663.048C1045.65 662.152 1045.47 661.368 1045.12 660.696C1044.77 660.024 1044.29 659.504 1043.68 659.136C1043.07 658.752 1042.37 658.56 1041.57 658.56C1040.77 658.56 1040.06 658.752 1039.45 659.136C1038.85 659.504 1038.37 660.024 1038.01 660.696C1037.66 661.368 1037.49 662.152 1037.49 663.048C1037.49 663.944 1037.66 664.728 1038.01 665.4C1038.37 666.072 1038.85 666.6 1039.45 666.984C1040.06 667.352 1040.77 667.536 1041.57 667.536ZM1049.77 674.28V657.096H1051.6L1051.79 659.064C1052.17 658.488 1052.72 657.968 1053.42 657.504C1054.14 657.04 1055.05 656.808 1056.16 656.808C1057.34 656.808 1058.37 657.08 1059.25 657.624C1060.13 658.168 1060.81 658.912 1061.29 659.856C1061.79 660.8 1062.04 661.872 1062.04 663.072C1062.04 664.272 1061.79 665.344 1061.29 666.288C1060.81 667.216 1060.12 667.952 1059.23 668.496C1058.35 669.024 1057.32 669.288 1056.13 669.288C1055.16 669.288 1054.28 669.088 1053.52 668.688C1052.76 668.288 1052.19 667.728 1051.79 667.008V674.28H1049.77ZM1055.92 667.536C1056.72 667.536 1057.42 667.352 1058.03 666.984C1058.64 666.6 1059.12 666.072 1059.47 665.4C1059.82 664.728 1060 663.944 1060 663.048C1060 662.152 1059.82 661.368 1059.47 660.696C1059.12 660.024 1058.64 659.504 1058.03 659.136C1057.42 658.752 1056.72 658.56 1055.92 658.56C1055.12 658.56 1054.41 658.752 1053.8 659.136C1053.2 659.504 1052.72 660.024 1052.36 660.696C1052.01 661.368 1051.84 662.152 1051.84 663.048C1051.84 663.944 1052.01 664.728 1052.36 665.4C1052.72 666.072 1053.2 666.6 1053.8 666.984C1054.41 667.352 1055.12 667.536 1055.92 667.536ZM1064.12 669V651.72H1066.14V669H1064.12ZM1070.02 674.28L1072.97 667.848H1072.28L1067.55 657.096H1069.73L1073.67 666.36L1077.84 657.096H1079.93L1072.13 674.28H1070.02ZM1022.85 700.288C1021.2 700.288 1019.78 699.928 1018.58 699.208C1017.39 698.472 1016.47 697.456 1015.82 696.16C1015.16 694.848 1014.83 693.328 1014.83 691.6C1014.83 689.888 1015.16 688.384 1015.82 687.088C1016.47 685.776 1017.39 684.752 1018.58 684.016C1019.78 683.28 1021.2 682.912 1022.85 682.912C1024.77 682.912 1026.33 683.376 1027.53 684.304C1028.75 685.216 1029.52 686.496 1029.86 688.144H1027.63C1027.37 687.104 1026.84 686.272 1026.04 685.648C1025.26 685.008 1024.19 684.688 1022.85 684.688C1021.65 684.688 1020.6 684.968 1019.71 685.528C1018.81 686.072 1018.11 686.864 1017.62 687.904C1017.14 688.928 1016.9 690.16 1016.9 691.6C1016.9 693.04 1017.14 694.28 1017.62 695.32C1018.11 696.344 1018.81 697.136 1019.71 697.696C1020.6 698.24 1021.65 698.512 1022.85 698.512C1024.19 698.512 1025.26 698.208 1026.04 697.6C1026.84 696.976 1027.37 696.152 1027.63 695.128H1029.86C1029.52 696.744 1028.75 698.008 1027.53 698.92C1026.33 699.832 1024.77 700.288 1022.85 700.288ZM1031.92 700V682.72H1033.93V690.136C1034.33 689.4 1034.9 688.832 1035.64 688.432C1036.37 688.016 1037.17 687.808 1038.04 687.808C1039.41 687.808 1040.52 688.24 1041.35 689.104C1042.18 689.952 1042.6 691.264 1042.6 693.04V700H1040.6V693.256C1040.6 690.776 1039.6 689.536 1037.6 689.536C1036.56 689.536 1035.69 689.912 1034.99 690.664C1034.28 691.4 1033.93 692.456 1033.93 693.832V700H1031.92ZM1048.89 700.288C1047.9 700.288 1047.07 700.12 1046.42 699.784C1045.76 699.448 1045.27 699 1044.95 698.44C1044.63 697.88 1044.47 697.272 1044.47 696.616C1044.47 695.4 1044.94 694.464 1045.87 693.808C1046.79 693.152 1048.06 692.824 1049.66 692.824H1052.87V692.68C1052.87 691.64 1052.6 690.856 1052.06 690.328C1051.51 689.784 1050.79 689.512 1049.87 689.512C1049.09 689.512 1048.41 689.712 1047.83 690.112C1047.27 690.496 1046.92 691.064 1046.78 691.816H1044.71C1044.79 690.952 1045.08 690.224 1045.58 689.632C1046.09 689.04 1046.72 688.592 1047.47 688.288C1048.23 687.968 1049.03 687.808 1049.87 687.808C1051.54 687.808 1052.79 688.256 1053.62 689.152C1054.47 690.032 1054.89 691.208 1054.89 692.68V700H1053.09L1052.97 697.864C1052.63 698.536 1052.14 699.112 1051.48 699.592C1050.84 700.056 1049.98 700.288 1048.89 700.288ZM1049.2 698.584C1049.97 698.584 1050.63 698.384 1051.17 697.984C1051.73 697.584 1052.15 697.064 1052.44 696.424C1052.73 695.784 1052.87 695.112 1052.87 694.408V694.384H1049.83C1048.64 694.384 1047.8 694.592 1047.31 695.008C1046.83 695.408 1046.59 695.912 1046.59 696.52C1046.59 697.144 1046.81 697.648 1047.26 698.032C1047.72 698.4 1048.37 698.584 1049.2 698.584ZM1058.42 685.456C1058.02 685.456 1057.68 685.328 1057.41 685.072C1057.15 684.8 1057.03 684.464 1057.03 684.064C1057.03 683.68 1057.15 683.36 1057.41 683.104C1057.68 682.848 1058.02 682.72 1058.42 682.72C1058.8 682.72 1059.13 682.848 1059.4 683.104C1059.67 683.36 1059.81 683.68 1059.81 684.064C1059.81 684.464 1059.67 684.8 1059.4 685.072C1059.13 685.328 1058.8 685.456 1058.42 685.456ZM1057.41 700V688.096H1059.43V700H1057.41ZM1062.22 700V688.096H1064.04L1064.16 690.232C1064.54 689.48 1065.1 688.888 1065.82 688.456C1066.54 688.024 1067.35 687.808 1068.26 687.808C1069.67 687.808 1070.79 688.24 1071.62 689.104C1072.47 689.952 1072.9 691.264 1072.9 693.04V700H1070.88V693.256C1070.88 690.776 1069.86 689.536 1067.81 689.536C1066.78 689.536 1065.93 689.912 1065.24 690.664C1064.57 691.4 1064.23 692.456 1064.23 693.832V700H1062.22Z" fill="#181717"/>
<rect x="1096.5" y="468.5" width="199" height="199" rx="99.5" stroke="#181717"/>
<path d="M1179.95 576.788C1178.31 576.788 1176.88 576.428 1175.68 575.708C1174.5 574.972 1173.58 573.956 1172.92 572.66C1172.27 571.348 1171.94 569.828 1171.94 568.1C1171.94 566.388 1172.27 564.884 1172.92 563.588C1173.58 562.276 1174.5 561.252 1175.68 560.516C1176.88 559.78 1178.31 559.412 1179.95 559.412C1181.87 559.412 1183.43 559.876 1184.63 560.804C1185.85 561.716 1186.63 562.996 1186.96 564.644H1184.73C1184.47 563.604 1183.95 562.772 1183.15 562.148C1182.36 561.508 1181.3 561.188 1179.95 561.188C1178.75 561.188 1177.71 561.468 1176.81 562.028C1175.91 562.572 1175.22 563.364 1174.72 564.404C1174.24 565.428 1174 566.66 1174 568.1C1174 569.54 1174.24 570.78 1174.72 571.82C1175.22 572.844 1175.91 573.636 1176.81 574.196C1177.71 574.74 1178.75 575.012 1179.95 575.012C1181.3 575.012 1182.36 574.708 1183.15 574.1C1183.95 573.476 1184.47 572.652 1184.73 571.628H1186.96C1186.63 573.244 1185.85 574.508 1184.63 575.42C1183.43 576.332 1181.87 576.788 1179.95 576.788ZM1189.14 576.5V559.7H1194.56C1195.88 559.7 1196.95 559.916 1197.78 560.348C1198.61 560.78 1199.23 561.372 1199.63 562.124C1200.03 562.876 1200.23 563.708 1200.23 564.62C1200.23 565.676 1199.94 566.628 1199.36 567.476C1198.8 568.324 1197.92 568.924 1196.72 569.276L1200.4 576.5H1198.02L1194.61 569.564H1194.47H1191.16V576.5H1189.14ZM1191.16 567.98H1194.42C1195.72 567.98 1196.66 567.668 1197.25 567.044C1197.84 566.42 1198.14 565.62 1198.14 564.644C1198.14 563.652 1197.84 562.868 1197.25 562.292C1196.68 561.7 1195.72 561.404 1194.4 561.404H1191.16V567.98ZM1202.65 576.5V559.7H1205L1211.05 571.412L1217.05 559.7H1219.42V576.5H1217.41V563.3L1211.79 574.1H1210.28L1204.66 563.324V576.5H1202.65Z" fill="#181717"/>
<rect x="1155.5" y="288.5" width="199" height="199" rx="99.5" fill="#181717"/>
<rect x="1155.5" y="288.5" width="199" height="199" rx="99.5" stroke="#181717"/>
<path d="M1196.34 381L1202.54 364.2H1204.67L1210.84 381H1208.7L1207.17 376.68H1200.02L1198.46 381H1196.34ZM1200.62 375.048H1206.57L1203.59 366.744L1200.62 375.048ZM1212.5 381V369.096H1214.32L1214.44 371.232C1214.82 370.48 1215.38 369.888 1216.1 369.456C1216.82 369.024 1217.63 368.808 1218.54 368.808C1219.95 368.808 1221.07 369.24 1221.9 370.104C1222.75 370.952 1223.18 372.264 1223.18 374.04V381H1221.16V374.256C1221.16 371.776 1220.14 370.536 1218.09 370.536C1217.06 370.536 1216.21 370.912 1215.52 371.664C1214.85 372.4 1214.51 373.456 1214.51 374.832V381H1212.5ZM1229.47 381.288C1228.48 381.288 1227.66 381.12 1227 380.784C1226.34 380.448 1225.86 380 1225.54 379.44C1225.22 378.88 1225.06 378.272 1225.06 377.616C1225.06 376.4 1225.52 375.464 1226.45 374.808C1227.38 374.152 1228.64 373.824 1230.24 373.824H1233.46V373.68C1233.46 372.64 1233.18 371.856 1232.64 371.328C1232.1 370.784 1231.37 370.512 1230.46 370.512C1229.67 370.512 1228.99 370.712 1228.42 371.112C1227.86 371.496 1227.5 372.064 1227.36 372.816H1225.3C1225.38 371.952 1225.66 371.224 1226.16 370.632C1226.67 370.04 1227.3 369.592 1228.06 369.288C1228.81 368.968 1229.61 368.808 1230.46 368.808C1232.12 368.808 1233.37 369.256 1234.2 370.152C1235.05 371.032 1235.47 372.208 1235.47 373.68V381H1233.67L1233.55 378.864C1233.22 379.536 1232.72 380.112 1232.06 380.592C1231.42 381.056 1230.56 381.288 1229.47 381.288ZM1229.78 379.584C1230.55 379.584 1231.21 379.384 1231.75 378.984C1232.31 378.584 1232.74 378.064 1233.02 377.424C1233.31 376.784 1233.46 376.112 1233.46 375.408V375.384H1230.41C1229.22 375.384 1228.38 375.592 1227.89 376.008C1227.41 376.408 1227.17 376.912 1227.17 377.52C1227.17 378.144 1227.39 378.648 1227.84 379.032C1228.3 379.4 1228.95 379.584 1229.78 379.584ZM1237.78 381V363.72H1239.79V381H1237.78ZM1243.67 386.28L1246.62 379.848H1245.93L1241.2 369.096H1243.38L1247.32 378.36L1251.5 369.096H1253.58L1245.78 386.28H1243.67ZM1259.7 381C1258.61 381 1257.75 380.736 1257.13 380.208C1256.5 379.68 1256.19 378.728 1256.19 377.352V370.8H1254.13V369.096H1256.19L1256.46 366.24H1258.21V369.096H1261.71V370.8H1258.21V377.352C1258.21 378.104 1258.36 378.616 1258.66 378.888C1258.97 379.144 1259.5 379.272 1260.27 379.272H1261.52V381H1259.7ZM1264.78 366.456C1264.38 366.456 1264.04 366.328 1263.77 366.072C1263.51 365.8 1263.39 365.464 1263.39 365.064C1263.39 364.68 1263.51 364.36 1263.77 364.104C1264.04 363.848 1264.38 363.72 1264.78 363.72C1265.16 363.72 1265.49 363.848 1265.76 364.104C1266.03 364.36 1266.17 364.68 1266.17 365.064C1266.17 365.464 1266.03 365.8 1265.76 366.072C1265.49 366.328 1265.16 366.456 1264.78 366.456ZM1263.77 381V369.096H1265.79V381H1263.77ZM1274.05 381.288C1272.91 381.288 1271.89 381.032 1270.98 380.52C1270.08 379.992 1269.37 379.264 1268.84 378.336C1268.33 377.392 1268.07 376.296 1268.07 375.048C1268.07 373.8 1268.33 372.712 1268.84 371.784C1269.37 370.84 1270.08 370.112 1270.98 369.6C1271.89 369.072 1272.91 368.808 1274.05 368.808C1275.46 368.808 1276.64 369.176 1277.6 369.912C1278.58 370.648 1279.19 371.632 1279.45 372.864H1277.38C1277.22 372.128 1276.83 371.56 1276.21 371.16C1275.58 370.744 1274.86 370.536 1274.02 370.536C1273.35 370.536 1272.72 370.704 1272.13 371.04C1271.54 371.376 1271.06 371.88 1270.69 372.552C1270.32 373.224 1270.14 374.056 1270.14 375.048C1270.14 376.04 1270.32 376.872 1270.69 377.544C1271.06 378.216 1271.54 378.728 1272.13 379.08C1272.72 379.416 1273.35 379.584 1274.02 379.584C1274.86 379.584 1275.58 379.384 1276.21 378.984C1276.83 378.568 1277.22 377.984 1277.38 377.232H1279.45C1279.21 378.432 1278.6 379.408 1277.62 380.16C1276.65 380.912 1275.46 381.288 1274.05 381.288ZM1286.1 381.288C1284.68 381.288 1283.49 380.928 1282.55 380.208C1281.61 379.488 1281.05 378.512 1280.89 377.28H1282.96C1283.09 377.904 1283.41 378.448 1283.94 378.912C1284.49 379.36 1285.21 379.584 1286.13 379.584C1286.97 379.584 1287.6 379.408 1288 379.056C1288.4 378.688 1288.6 378.256 1288.6 377.76C1288.6 377.04 1288.33 376.56 1287.81 376.32C1287.29 376.08 1286.57 375.864 1285.62 375.672C1284.98 375.544 1284.34 375.36 1283.7 375.12C1283.06 374.88 1282.53 374.544 1282.09 374.112C1281.66 373.664 1281.45 373.08 1281.45 372.36C1281.45 371.32 1281.83 370.472 1282.6 369.816C1283.38 369.144 1284.44 368.808 1285.77 368.808C1287.03 368.808 1288.06 369.128 1288.86 369.768C1289.68 370.392 1290.15 371.288 1290.28 372.456H1288.29C1288.21 371.848 1287.94 371.376 1287.49 371.04C1287.06 370.688 1286.48 370.512 1285.74 370.512C1285.02 370.512 1284.46 370.664 1284.06 370.968C1283.68 371.272 1283.49 371.672 1283.49 372.168C1283.49 372.648 1283.73 373.024 1284.23 373.296C1284.74 373.568 1285.43 373.8 1286.29 373.992C1287.03 374.152 1287.73 374.352 1288.38 374.592C1289.05 374.816 1289.6 375.16 1290.01 375.624C1290.45 376.072 1290.66 376.728 1290.66 377.592C1290.68 378.664 1290.27 379.552 1289.44 380.256C1288.62 380.944 1287.51 381.288 1286.1 381.288ZM1303.54 381.288C1302.39 381.288 1301.37 381.08 1300.49 380.664C1299.63 380.232 1298.95 379.64 1298.45 378.888C1297.97 378.12 1297.73 377.216 1297.73 376.176C1297.73 375.04 1298.06 374.032 1298.72 373.152C1299.39 372.256 1300.36 371.552 1301.62 371.04C1301.08 370.448 1300.69 369.888 1300.45 369.36C1300.21 368.816 1300.09 368.232 1300.09 367.608C1300.09 366.536 1300.46 365.656 1301.21 364.968C1301.98 364.264 1303.03 363.912 1304.36 363.912C1305.22 363.912 1305.97 364.08 1306.61 364.416C1307.25 364.736 1307.75 365.184 1308.1 365.76C1308.45 366.336 1308.61 366.992 1308.58 367.728H1306.59C1306.61 367.008 1306.38 366.464 1305.92 366.096C1305.47 365.728 1304.95 365.544 1304.36 365.544C1303.64 365.544 1303.08 365.736 1302.68 366.12C1302.28 366.504 1302.08 366.992 1302.08 367.584C1302.08 368.096 1302.21 368.592 1302.49 369.072C1302.77 369.552 1303.2 370.088 1303.76 370.68L1309.06 376.032C1309.53 375.36 1310.03 374.552 1310.57 373.608L1311.32 372.312H1313.45L1312.4 374.184C1311.69 375.448 1311.02 376.504 1310.38 377.352L1314.01 381H1311.46L1309.23 378.744C1308.38 379.656 1307.5 380.312 1306.59 380.712C1305.68 381.096 1304.66 381.288 1303.54 381.288ZM1299.75 376.104C1299.75 377.096 1300.1 377.92 1300.81 378.576C1301.51 379.232 1302.43 379.56 1303.57 379.56C1304.41 379.56 1305.18 379.4 1305.87 379.08C1306.57 378.744 1307.26 378.2 1307.93 377.448L1302.85 372.288C1301.79 372.704 1301.01 373.232 1300.49 373.872C1300 374.512 1299.75 375.256 1299.75 376.104ZM1206.08 412V395.2H1211.5C1212.81 395.2 1213.89 395.416 1214.72 395.848C1215.55 396.28 1216.17 396.872 1216.57 397.624C1216.97 398.376 1217.17 399.208 1217.17 400.12C1217.17 401.176 1216.88 402.128 1216.3 402.976C1215.74 403.824 1214.86 404.424 1213.66 404.776L1217.33 412H1214.96L1211.55 405.064H1211.41H1208.09V412H1206.08ZM1208.09 403.48H1211.36C1212.65 403.48 1213.6 403.168 1214.19 402.544C1214.78 401.92 1215.08 401.12 1215.08 400.144C1215.08 399.152 1214.78 398.368 1214.19 397.792C1213.61 397.2 1212.66 396.904 1211.33 396.904H1208.09V403.48ZM1224.09 412.288C1222.95 412.288 1221.95 412.032 1221.07 411.52C1220.19 410.992 1219.49 410.264 1218.98 409.336C1218.48 408.408 1218.23 407.312 1218.23 406.048C1218.23 404.8 1218.48 403.712 1218.98 402.784C1219.47 401.84 1220.16 401.112 1221.04 400.6C1221.94 400.072 1222.97 399.808 1224.14 399.808C1225.29 399.808 1226.28 400.072 1227.11 400.6C1227.96 401.112 1228.61 401.792 1229.06 402.64C1229.51 403.488 1229.73 404.4 1229.73 405.376C1229.73 405.552 1229.72 405.728 1229.71 405.904C1229.71 406.08 1229.71 406.28 1229.71 406.504H1220.23C1220.27 407.416 1220.48 408.176 1220.85 408.784C1221.23 409.376 1221.71 409.824 1222.27 410.128C1222.84 410.432 1223.45 410.584 1224.09 410.584C1224.92 410.584 1225.62 410.392 1226.18 410.008C1226.74 409.624 1227.15 409.104 1227.4 408.448H1229.39C1229.07 409.552 1228.46 410.472 1227.55 411.208C1226.65 411.928 1225.5 412.288 1224.09 412.288ZM1224.09 401.512C1223.13 401.512 1222.27 401.808 1221.52 402.4C1220.79 402.976 1220.36 403.824 1220.25 404.944H1227.74C1227.69 403.872 1227.32 403.032 1226.63 402.424C1225.95 401.816 1225.1 401.512 1224.09 401.512ZM1231.68 417.28V400.096H1233.51L1233.7 402.064C1234.08 401.488 1234.63 400.968 1235.33 400.504C1236.05 400.04 1236.96 399.808 1238.07 399.808C1239.25 399.808 1240.28 400.08 1241.16 400.624C1242.04 401.168 1242.72 401.912 1243.2 402.856C1243.7 403.8 1243.95 404.872 1243.95 406.072C1243.95 407.272 1243.7 408.344 1243.2 409.288C1242.72 410.216 1242.03 410.952 1241.14 411.496C1240.26 412.024 1239.23 412.288 1238.04 412.288C1237.07 412.288 1236.19 412.088 1235.43 411.688C1234.67 411.288 1234.1 410.728 1233.7 410.008V417.28H1231.68ZM1237.83 410.536C1238.63 410.536 1239.33 410.352 1239.94 409.984C1240.55 409.6 1241.03 409.072 1241.38 408.4C1241.73 407.728 1241.91 406.944 1241.91 406.048C1241.91 405.152 1241.73 404.368 1241.38 403.696C1241.03 403.024 1240.55 402.504 1239.94 402.136C1239.33 401.752 1238.63 401.56 1237.83 401.56C1237.03 401.56 1236.32 401.752 1235.71 402.136C1235.11 402.504 1234.63 403.024 1234.27 403.696C1233.92 404.368 1233.75 405.152 1233.75 406.048C1233.75 406.944 1233.92 407.728 1234.27 408.4C1234.63 409.072 1235.11 409.6 1235.71 409.984C1236.32 410.352 1237.03 410.536 1237.83 410.536ZM1251.46 412.288C1250.34 412.288 1249.33 412.032 1248.43 411.52C1247.54 411.008 1246.82 410.288 1246.3 409.36C1245.78 408.416 1245.53 407.312 1245.53 406.048C1245.53 404.784 1245.79 403.688 1246.32 402.76C1246.85 401.816 1247.56 401.088 1248.46 400.576C1249.37 400.064 1250.38 399.808 1251.5 399.808C1252.62 399.808 1253.63 400.064 1254.53 400.576C1255.42 401.088 1256.13 401.816 1256.64 402.76C1257.17 403.688 1257.43 404.784 1257.43 406.048C1257.43 407.312 1257.17 408.416 1256.64 409.36C1256.11 410.288 1255.39 411.008 1254.48 411.52C1253.58 412.032 1252.58 412.288 1251.46 412.288ZM1251.46 410.56C1252.14 410.56 1252.78 410.392 1253.38 410.056C1253.97 409.72 1254.45 409.216 1254.82 408.544C1255.18 407.872 1255.37 407.04 1255.37 406.048C1255.37 405.056 1255.18 404.224 1254.82 403.552C1254.46 402.88 1253.99 402.376 1253.4 402.04C1252.81 401.704 1252.18 401.536 1251.5 401.536C1250.82 401.536 1250.18 401.704 1249.58 402.04C1248.99 402.376 1248.51 402.88 1248.14 403.552C1247.78 404.224 1247.59 405.056 1247.59 406.048C1247.59 407.04 1247.78 407.872 1248.14 408.544C1248.51 409.216 1248.98 409.72 1249.56 410.056C1250.15 410.392 1250.78 410.56 1251.46 410.56ZM1259.52 412V400.096H1261.34L1261.51 402.376C1261.88 401.592 1262.44 400.968 1263.19 400.504C1263.94 400.04 1264.87 399.808 1265.97 399.808V401.92H1265.42C1264.72 401.92 1264.07 402.048 1263.48 402.304C1262.88 402.544 1262.41 402.96 1262.06 403.552C1261.71 404.144 1261.53 404.96 1261.53 406V412H1259.52ZM1272.22 412C1271.13 412 1270.27 411.736 1269.65 411.208C1269.03 410.68 1268.71 409.728 1268.71 408.352V401.8H1266.65V400.096H1268.71L1268.98 397.24H1270.73V400.096H1274.23V401.8H1270.73V408.352C1270.73 409.104 1270.88 409.616 1271.19 409.888C1271.49 410.144 1272.03 410.272 1272.79 410.272H1274.04V412H1272.22ZM1277.3 397.456C1276.9 397.456 1276.56 397.328 1276.29 397.072C1276.04 396.8 1275.91 396.464 1275.91 396.064C1275.91 395.68 1276.04 395.36 1276.29 395.104C1276.56 394.848 1276.9 394.72 1277.3 394.72C1277.68 394.72 1278.01 394.848 1278.28 395.104C1278.56 395.36 1278.69 395.68 1278.69 396.064C1278.69 396.464 1278.56 396.8 1278.28 397.072C1278.01 397.328 1277.68 397.456 1277.3 397.456ZM1276.29 412V400.096H1278.31V412H1276.29ZM1281.1 412V400.096H1282.92L1283.04 402.232C1283.43 401.48 1283.98 400.888 1284.7 400.456C1285.42 400.024 1286.23 399.808 1287.15 399.808C1288.55 399.808 1289.67 400.24 1290.51 401.104C1291.35 401.952 1291.78 403.264 1291.78 405.04V412H1289.76V405.256C1289.76 402.776 1288.74 401.536 1286.69 401.536C1285.67 401.536 1284.81 401.912 1284.12 402.664C1283.45 403.4 1283.11 404.456 1283.11 405.832V412H1281.1ZM1298.82 408.256C1298.14 408.256 1297.53 408.168 1296.97 407.992L1295.77 409.12C1295.94 409.248 1296.16 409.36 1296.42 409.456C1296.69 409.536 1297.07 409.616 1297.57 409.696C1298.06 409.76 1298.76 409.832 1299.66 409.912C1301.26 410.024 1302.4 410.392 1303.09 411.016C1303.78 411.64 1304.12 412.456 1304.12 413.464C1304.12 414.152 1303.93 414.808 1303.54 415.432C1303.18 416.056 1302.6 416.568 1301.82 416.968C1301.05 417.368 1300.06 417.568 1298.84 417.568C1297.77 417.568 1296.82 417.424 1295.98 417.136C1295.15 416.864 1294.5 416.44 1294.04 415.864C1293.58 415.304 1293.34 414.592 1293.34 413.728C1293.34 413.28 1293.46 412.792 1293.7 412.264C1293.94 411.752 1294.39 411.264 1295.05 410.8C1294.7 410.656 1294.39 410.504 1294.14 410.344C1293.9 410.168 1293.67 409.976 1293.46 409.768V409.216L1295.5 407.2C1294.56 406.4 1294.09 405.344 1294.09 404.032C1294.09 403.248 1294.27 402.536 1294.64 401.896C1295.01 401.256 1295.54 400.752 1296.25 400.384C1296.95 400 1297.81 399.808 1298.82 399.808C1299.5 399.808 1300.13 399.904 1300.69 400.096H1305.08V401.608L1302.85 401.704C1303.31 402.376 1303.54 403.152 1303.54 404.032C1303.54 404.816 1303.35 405.528 1302.97 406.168C1302.6 406.808 1302.06 407.32 1301.36 407.704C1300.67 408.072 1299.82 408.256 1298.82 408.256ZM1298.82 406.6C1299.66 406.6 1300.34 406.384 1300.83 405.952C1301.34 405.504 1301.6 404.864 1301.6 404.032C1301.6 403.216 1301.34 402.592 1300.83 402.16C1300.34 401.712 1299.66 401.488 1298.82 401.488C1297.95 401.488 1297.26 401.712 1296.75 402.16C1296.26 402.592 1296.01 403.216 1296.01 404.032C1296.01 404.864 1296.26 405.504 1296.75 405.952C1297.26 406.384 1297.95 406.6 1298.82 406.6ZM1295.31 413.536C1295.31 414.336 1295.65 414.928 1296.32 415.312C1296.99 415.712 1297.83 415.912 1298.84 415.912C1299.83 415.912 1300.62 415.696 1301.22 415.264C1301.82 414.832 1302.13 414.256 1302.13 413.536C1302.13 413.024 1301.92 412.576 1301.5 412.192C1301.09 411.824 1300.32 411.608 1299.2 411.544C1298.32 411.48 1297.56 411.4 1296.92 411.304C1296.26 411.656 1295.83 412.032 1295.62 412.432C1295.42 412.848 1295.31 413.216 1295.31 413.536Z" fill="white"/>
<rect x="624.5" y="468.5" width="199" height="199" rx="99.5" stroke="#181717"/>
<path d="M703.646 576.788C702.414 576.788 701.342 576.564 700.43 576.116C699.518 575.668 698.814 575.044 698.318 574.244C697.822 573.444 697.574 572.516 697.574 571.46H699.686C699.686 572.116 699.838 572.724 700.142 573.284C700.446 573.828 700.886 574.268 701.462 574.604C702.054 574.924 702.782 575.084 703.646 575.084C704.782 575.084 705.662 574.812 706.286 574.268C706.91 573.724 707.222 573.044 707.222 572.228C707.222 571.556 707.078 571.02 706.79 570.62C706.502 570.204 706.11 569.868 705.614 569.612C705.134 569.356 704.574 569.132 703.934 568.94C703.31 568.748 702.654 568.532 701.966 568.292C700.67 567.844 699.71 567.292 699.086 566.636C698.462 565.964 698.15 565.092 698.15 564.02C698.134 563.124 698.342 562.332 698.774 561.644C699.206 560.94 699.814 560.396 700.598 560.012C701.398 559.612 702.342 559.412 703.43 559.412C704.502 559.412 705.43 559.612 706.214 560.012C707.014 560.412 707.63 560.964 708.062 561.668C708.51 562.372 708.742 563.172 708.758 564.068H706.646C706.646 563.604 706.526 563.148 706.286 562.7C706.046 562.236 705.678 561.86 705.182 561.572C704.702 561.284 704.094 561.14 703.358 561.14C702.446 561.124 701.694 561.356 701.102 561.836C700.526 562.316 700.238 562.98 700.238 563.828C700.238 564.548 700.438 565.1 700.838 565.484C701.254 565.868 701.83 566.188 702.566 566.444C703.302 566.684 704.15 566.964 705.11 567.284C705.91 567.572 706.63 567.908 707.27 568.292C707.91 568.676 708.406 569.172 708.758 569.78C709.126 570.388 709.31 571.164 709.31 572.108C709.31 572.908 709.102 573.668 708.686 574.388C708.27 575.092 707.638 575.668 706.79 576.116C705.958 576.564 704.91 576.788 703.646 576.788ZM715.289 576.788C714.297 576.788 713.473 576.62 712.817 576.284C712.161 575.948 711.673 575.5 711.353 574.94C711.033 574.38 710.873 573.772 710.873 573.116C710.873 571.9 711.337 570.964 712.265 570.308C713.193 569.652 714.457 569.324 716.057 569.324H719.273V569.18C719.273 568.14 719.001 567.356 718.457 566.828C717.913 566.284 717.185 566.012 716.273 566.012C715.489 566.012 714.809 566.212 714.233 566.612C713.673 566.996 713.321 567.564 713.177 568.316H711.113C711.193 567.452 711.481 566.724 711.977 566.132C712.489 565.54 713.121 565.092 713.873 564.788C714.625 564.468 715.425 564.308 716.273 564.308C717.937 564.308 719.185 564.756 720.017 565.652C720.865 566.532 721.289 567.708 721.289 569.18V576.5H719.489L719.369 574.364C719.033 575.036 718.537 575.612 717.881 576.092C717.241 576.556 716.377 576.788 715.289 576.788ZM715.601 575.084C716.369 575.084 717.025 574.884 717.569 574.484C718.129 574.084 718.553 573.564 718.841 572.924C719.129 572.284 719.273 571.612 719.273 570.908V570.884H716.225C715.041 570.884 714.201 571.092 713.705 571.508C713.225 571.908 712.985 572.412 712.985 573.02C712.985 573.644 713.209 574.148 713.657 574.532C714.121 574.9 714.769 575.084 715.601 575.084ZM723.594 576.5V559.22H725.61V576.5H723.594ZM733.546 576.788C732.41 576.788 731.402 576.532 730.522 576.02C729.642 575.492 728.946 574.764 728.434 573.836C727.938 572.908 727.69 571.812 727.69 570.548C727.69 569.3 727.938 568.212 728.434 567.284C728.93 566.34 729.618 565.612 730.498 565.1C731.394 564.572 732.426 564.308 733.594 564.308C734.746 564.308 735.738 564.572 736.57 565.1C737.418 565.612 738.066 566.292 738.514 567.14C738.962 567.988 739.186 568.9 739.186 569.876C739.186 570.052 739.178 570.228 739.162 570.404C739.162 570.58 739.162 570.78 739.162 571.004H729.682C729.73 571.916 729.938 572.676 730.306 573.284C730.69 573.876 731.162 574.324 731.722 574.628C732.298 574.932 732.906 575.084 733.546 575.084C734.378 575.084 735.074 574.892 735.634 574.508C736.194 574.124 736.602 573.604 736.858 572.948H738.85C738.53 574.052 737.914 574.972 737.002 575.708C736.106 576.428 734.954 576.788 733.546 576.788ZM733.546 566.012C732.586 566.012 731.73 566.308 730.978 566.9C730.242 567.476 729.818 568.324 729.706 569.444H737.194C737.146 568.372 736.778 567.532 736.09 566.924C735.402 566.316 734.554 566.012 733.546 566.012ZM745.698 576.788C744.274 576.788 743.09 576.428 742.146 575.708C741.202 574.988 740.65 574.012 740.49 572.78H742.554C742.682 573.404 743.01 573.948 743.538 574.412C744.082 574.86 744.81 575.084 745.722 575.084C746.57 575.084 747.194 574.908 747.594 574.556C747.994 574.188 748.194 573.756 748.194 573.26C748.194 572.54 747.93 572.06 747.402 571.82C746.89 571.58 746.162 571.364 745.218 571.172C744.578 571.044 743.938 570.86 743.298 570.62C742.658 570.38 742.122 570.044 741.69 569.612C741.258 569.164 741.042 568.58 741.042 567.86C741.042 566.82 741.426 565.972 742.194 565.316C742.978 564.644 744.034 564.308 745.362 564.308C746.626 564.308 747.658 564.628 748.458 565.268C749.274 565.892 749.746 566.788 749.874 567.956H747.882C747.802 567.348 747.538 566.876 747.09 566.54C746.658 566.188 746.074 566.012 745.338 566.012C744.618 566.012 744.058 566.164 743.658 566.468C743.274 566.772 743.082 567.172 743.082 567.668C743.082 568.148 743.33 568.524 743.826 568.796C744.338 569.068 745.026 569.3 745.89 569.492C746.626 569.652 747.322 569.852 747.978 570.092C748.65 570.316 749.194 570.66 749.61 571.124C750.042 571.572 750.258 572.228 750.258 573.092C750.274 574.164 749.866 575.052 749.034 575.756C748.218 576.444 747.106 576.788 745.698 576.788Z" fill="#181717"/>
<rect x="770.5" y="576.5" width="199" height="199" rx="99.5" stroke="#181717"/>
<path d="M822.859 684.5V667.7H824.875V684.5H822.859ZM827.597 684.5V672.596H829.421L829.541 674.732C829.925 673.98 830.477 673.388 831.197 672.956C831.917 672.524 832.733 672.308 833.645 672.308C835.053 672.308 836.173 672.74 837.005 673.604C837.853 674.452 838.277 675.764 838.277 677.54V684.5H836.261V677.756C836.261 675.276 835.237 674.036 833.189 674.036C832.165 674.036 831.309 674.412 830.621 675.164C829.949 675.9 829.613 676.956 829.613 678.332V684.5H827.597ZM843.809 684.5L839.297 672.596H841.409L844.985 682.556L848.585 672.596H850.649L846.137 684.5H843.809ZM856.916 684.788C855.78 684.788 854.772 684.532 853.892 684.02C853.012 683.492 852.316 682.764 851.804 681.836C851.308 680.908 851.06 679.812 851.06 678.548C851.06 677.3 851.308 676.212 851.804 675.284C852.3 674.34 852.988 673.612 853.868 673.1C854.764 672.572 855.796 672.308 856.964 672.308C858.116 672.308 859.108 672.572 859.94 673.1C860.788 673.612 861.436 674.292 861.884 675.14C862.332 675.988 862.556 676.9 862.556 677.876C862.556 678.052 862.548 678.228 862.532 678.404C862.532 678.58 862.532 678.78 862.532 679.004H853.052C853.1 679.916 853.308 680.676 853.676 681.284C854.06 681.876 854.532 682.324 855.092 682.628C855.668 682.932 856.276 683.084 856.916 683.084C857.748 683.084 858.444 682.892 859.004 682.508C859.564 682.124 859.972 681.604 860.228 680.948H862.22C861.9 682.052 861.284 682.972 860.372 683.708C859.476 684.428 858.324 684.788 856.916 684.788ZM856.916 674.012C855.956 674.012 855.1 674.308 854.348 674.9C853.612 675.476 853.188 676.324 853.076 677.444H860.564C860.516 676.372 860.148 675.532 859.46 674.924C858.772 674.316 857.924 674.012 856.916 674.012ZM864.508 684.5V672.596H866.332L866.452 674.732C866.836 673.98 867.388 673.388 868.108 672.956C868.828 672.524 869.644 672.308 870.556 672.308C871.964 672.308 873.084 672.74 873.916 673.604C874.764 674.452 875.188 675.764 875.188 677.54V684.5H873.172V677.756C873.172 675.276 872.148 674.036 870.1 674.036C869.076 674.036 868.22 674.412 867.532 675.164C866.86 675.9 866.524 676.956 866.524 678.332V684.5H864.508ZM882.226 684.5C881.138 684.5 880.282 684.236 879.658 683.708C879.034 683.18 878.722 682.228 878.722 680.852V674.3H876.658V672.596H878.722L878.986 669.74H880.738V672.596H884.242V674.3H880.738V680.852C880.738 681.604 880.89 682.116 881.194 682.388C881.498 682.644 882.034 682.772 882.802 682.772H884.05V684.5H882.226ZM891.179 684.788C890.059 684.788 889.051 684.532 888.155 684.02C887.259 683.508 886.547 682.788 886.019 681.86C885.507 680.916 885.251 679.812 885.251 678.548C885.251 677.284 885.515 676.188 886.043 675.26C886.571 674.316 887.283 673.588 888.179 673.076C889.091 672.564 890.107 672.308 891.227 672.308C892.347 672.308 893.355 672.564 894.251 673.076C895.147 673.588 895.851 674.316 896.363 675.26C896.891 676.188 897.155 677.284 897.155 678.548C897.155 679.812 896.891 680.916 896.363 681.86C895.835 682.788 895.115 683.508 894.203 684.02C893.307 684.532 892.299 684.788 891.179 684.788ZM891.179 683.06C891.867 683.06 892.507 682.892 893.099 682.556C893.691 682.22 894.171 681.716 894.539 681.044C894.907 680.372 895.091 679.54 895.091 678.548C895.091 677.556 894.907 676.724 894.539 676.052C894.187 675.38 893.715 674.876 893.123 674.54C892.531 674.204 891.899 674.036 891.227 674.036C890.539 674.036 889.899 674.204 889.307 674.54C888.715 674.876 888.235 675.38 887.867 676.052C887.499 676.724 887.315 677.556 887.315 678.548C887.315 679.54 887.499 680.372 887.867 681.044C888.235 681.716 888.707 682.22 889.283 682.556C889.875 682.892 890.507 683.06 891.179 683.06ZM899.238 684.5V672.596H901.062L901.23 674.876C901.598 674.092 902.158 673.468 902.91 673.004C903.662 672.54 904.59 672.308 905.694 672.308V674.42H905.142C904.438 674.42 903.79 674.548 903.198 674.804C902.606 675.044 902.134 675.46 901.782 676.052C901.43 676.644 901.254 677.46 901.254 678.5V684.5H899.238ZM908.533 689.78L911.485 683.348H910.789L906.061 672.596H908.245L912.181 681.86L916.357 672.596H918.445L910.645 689.78H908.533Z" fill="#181717"/>
</svg>
