<svg width="1920" height="776" viewBox="0 0 1920 776" fill="none" xmlns="http://www.w3.org/2000/svg">
<rect x="770.107" y="195.725" width="384.568" height="384.568" rx="192.284" stroke="#181717"/>
<path d="M882.36 399.009V376.609H896.216V378.817H885.048V386.625H895.256V388.801H885.048V396.801H896.216V399.009H882.36ZM899.463 399.009V376.609H906.695C908.444 376.609 909.873 376.897 910.983 377.473C912.092 378.049 912.913 378.839 913.447 379.841C913.98 380.844 914.247 381.953 914.247 383.169C914.247 384.577 913.863 385.847 913.095 386.977C912.348 388.108 911.175 388.908 909.575 389.377L914.471 399.009H911.303L906.759 389.761H906.567H902.151V399.009H899.463ZM902.151 387.649H906.503C908.231 387.649 909.489 387.233 910.279 386.401C911.068 385.569 911.463 384.503 911.463 383.201C911.463 381.879 911.068 380.833 910.279 380.065C909.511 379.276 908.241 378.881 906.471 378.881H902.151V387.649ZM917.471 399.009V376.609H924.831C926.581 376.609 928.021 376.897 929.151 377.473C930.282 378.049 931.114 378.828 931.647 379.809C932.202 380.791 932.479 381.9 932.479 383.137C932.479 384.353 932.213 385.452 931.679 386.433C931.146 387.415 930.314 388.204 929.183 388.801C928.053 389.377 926.602 389.665 924.831 389.665H920.159V399.009H917.471ZM920.159 387.393H924.767C926.559 387.393 927.829 387.02 928.575 386.273C929.343 385.505 929.727 384.46 929.727 383.137C929.727 381.793 929.343 380.748 928.575 380.001C927.829 379.233 926.559 378.849 924.767 378.849H920.159V387.393ZM949.687 399.393C948.045 399.393 946.615 399.095 945.399 398.497C944.183 397.9 943.245 397.068 942.583 396.001C941.922 394.935 941.591 393.697 941.591 392.289H944.407C944.407 393.164 944.61 393.975 945.015 394.721C945.421 395.447 946.007 396.033 946.775 396.481C947.565 396.908 948.535 397.121 949.687 397.121C951.202 397.121 952.375 396.759 953.207 396.033C954.039 395.308 954.455 394.401 954.455 393.313C954.455 392.417 954.263 391.703 953.879 391.169C953.495 390.615 952.973 390.167 952.311 389.825C951.671 389.484 950.925 389.185 950.071 388.929C949.239 388.673 948.365 388.385 947.447 388.065C945.719 387.468 944.439 386.732 943.607 385.857C942.775 384.961 942.359 383.799 942.359 382.369C942.338 381.175 942.615 380.119 943.191 379.201C943.767 378.263 944.578 377.537 945.623 377.025C946.69 376.492 947.949 376.225 949.399 376.225C950.829 376.225 952.066 376.492 953.111 377.025C954.178 377.559 954.999 378.295 955.575 379.233C956.173 380.172 956.482 381.239 956.503 382.433H953.687C953.687 381.815 953.527 381.207 953.207 380.609C952.887 379.991 952.397 379.489 951.735 379.105C951.095 378.721 950.285 378.529 949.303 378.529C948.087 378.508 947.085 378.817 946.295 379.457C945.527 380.097 945.143 380.983 945.143 382.113C945.143 383.073 945.41 383.809 945.943 384.321C946.498 384.833 947.266 385.26 948.247 385.601C949.229 385.921 950.359 386.295 951.639 386.721C952.706 387.105 953.666 387.553 954.519 388.065C955.373 388.577 956.034 389.239 956.503 390.049C956.994 390.86 957.239 391.895 957.239 393.153C957.239 394.22 956.962 395.233 956.407 396.193C955.853 397.132 955.01 397.9 953.879 398.497C952.77 399.095 951.373 399.393 949.687 399.393ZM961.659 406.049L965.595 397.473H964.667L958.363 383.137H961.275L966.523 395.489L972.091 383.137H974.875L964.475 406.049H961.659ZM981.895 399.393C979.996 399.393 978.418 398.913 977.159 397.953C975.9 396.993 975.164 395.692 974.951 394.049H977.703C977.874 394.881 978.311 395.607 979.015 396.225C979.74 396.823 980.711 397.121 981.927 397.121C983.058 397.121 983.89 396.887 984.423 396.417C984.956 395.927 985.223 395.351 985.223 394.689C985.223 393.729 984.871 393.089 984.167 392.769C983.484 392.449 982.514 392.161 981.255 391.905C980.402 391.735 979.548 391.489 978.695 391.169C977.842 390.849 977.127 390.401 976.551 389.825C975.975 389.228 975.687 388.449 975.687 387.489C975.687 386.103 976.199 384.972 977.223 384.097C978.268 383.201 979.676 382.753 981.447 382.753C983.132 382.753 984.508 383.18 985.575 384.033C986.663 384.865 987.292 386.06 987.463 387.617H984.807C984.7 386.807 984.348 386.177 983.751 385.729C983.175 385.26 982.396 385.025 981.415 385.025C980.455 385.025 979.708 385.228 979.175 385.633C978.663 386.039 978.407 386.572 978.407 387.233C978.407 387.873 978.738 388.375 979.399 388.737C980.082 389.1 980.999 389.409 982.151 389.665C983.132 389.879 984.06 390.145 984.935 390.465C985.831 390.764 986.556 391.223 987.111 391.841C987.687 392.439 987.975 393.313 987.975 394.465C987.996 395.895 987.452 397.079 986.343 398.017C985.255 398.935 983.772 399.393 981.895 399.393ZM996.408 399.009C994.958 399.009 993.816 398.657 992.984 397.953C992.152 397.249 991.736 395.98 991.736 394.145V385.409H988.984V383.137H991.736L992.088 379.329H994.424V383.137H999.096V385.409H994.424V394.145C994.424 395.148 994.627 395.831 995.032 396.193C995.438 396.535 996.152 396.705 997.176 396.705H998.84V399.009H996.408ZM1008.25 399.393C1006.74 399.393 1005.39 399.052 1004.22 398.369C1003.04 397.665 1002.12 396.695 1001.43 395.457C1000.77 394.22 1000.44 392.759 1000.44 391.073C1000.44 389.409 1000.77 387.959 1001.43 386.721C1002.1 385.463 1003.01 384.492 1004.19 383.809C1005.38 383.105 1006.76 382.753 1008.31 382.753C1009.85 382.753 1011.17 383.105 1012.28 383.809C1013.41 384.492 1014.28 385.399 1014.87 386.529C1015.47 387.66 1015.77 388.876 1015.77 390.177C1015.77 390.412 1015.76 390.647 1015.74 390.881C1015.74 391.116 1015.74 391.383 1015.74 391.681H1003.1C1003.16 392.897 1003.44 393.911 1003.93 394.721C1004.44 395.511 1005.07 396.108 1005.82 396.513C1006.59 396.919 1007.4 397.121 1008.25 397.121C1009.36 397.121 1010.29 396.865 1011.03 396.353C1011.78 395.841 1012.32 395.148 1012.67 394.273H1015.32C1014.9 395.745 1014.07 396.972 1012.86 397.953C1011.66 398.913 1010.13 399.393 1008.25 399.393ZM1008.25 385.025C1006.97 385.025 1005.83 385.42 1004.83 386.209C1003.84 386.977 1003.28 388.108 1003.13 389.601H1013.11C1013.05 388.172 1012.56 387.052 1011.64 386.241C1010.72 385.431 1009.59 385.025 1008.25 385.025ZM1018.37 399.009V383.137H1020.8L1021 385.441C1021.51 384.588 1022.19 383.927 1023.04 383.457C1023.9 382.988 1024.86 382.753 1025.92 382.753C1027.18 382.753 1028.26 383.009 1029.16 383.521C1030.07 384.033 1030.78 384.812 1031.27 385.857C1031.82 384.897 1032.58 384.14 1033.54 383.585C1034.52 383.031 1035.58 382.753 1036.71 382.753C1038.61 382.753 1040.12 383.329 1041.25 384.481C1042.38 385.612 1042.95 387.361 1042.95 389.729V399.009H1040.29V390.017C1040.29 388.375 1039.96 387.137 1039.3 386.305C1038.64 385.473 1037.69 385.057 1036.45 385.057C1035.17 385.057 1034.11 385.559 1033.25 386.561C1032.42 387.543 1032 388.951 1032 390.785V399.009H1029.32V390.017C1029.32 388.375 1028.99 387.137 1028.32 386.305C1027.66 385.473 1026.71 385.057 1025.48 385.057C1024.22 385.057 1023.16 385.559 1022.31 386.561C1021.48 387.543 1021.06 388.951 1021.06 390.785V399.009H1018.37Z" fill="#181717"/>
<rect x="1083.82" y="145.755" width="174.259" height="174.259" rx="87.1293" fill="#181717"/>
<rect x="1083.82" y="145.755" width="174.259" height="174.259" rx="87.1293" stroke="#181717"/>
<path d="M1128.87 226.885V212.885H1137.39V214.265H1130.55V219.185H1136.37V220.545H1130.55V226.885H1128.87ZM1139.88 214.765C1139.54 214.765 1139.26 214.658 1139.04 214.445C1138.82 214.218 1138.72 213.938 1138.72 213.605C1138.72 213.285 1138.82 213.018 1139.04 212.805C1139.26 212.591 1139.54 212.485 1139.88 212.485C1140.2 212.485 1140.47 212.591 1140.7 212.805C1140.92 213.018 1141.04 213.285 1141.04 213.605C1141.04 213.938 1140.92 214.218 1140.7 214.445C1140.47 214.658 1140.2 214.765 1139.88 214.765ZM1139.04 226.885V216.965H1140.72V226.885H1139.04ZM1143.04 226.885V216.965H1144.56L1144.66 218.745C1144.98 218.118 1145.44 217.625 1146.04 217.265C1146.64 216.905 1147.32 216.725 1148.08 216.725C1149.26 216.725 1150.19 217.085 1150.88 217.805C1151.59 218.511 1151.94 219.605 1151.94 221.085V226.885H1150.26V221.265C1150.26 219.198 1149.41 218.165 1147.7 218.165C1146.85 218.165 1146.14 218.478 1145.56 219.105C1145 219.718 1144.72 220.598 1144.72 221.745V226.885H1143.04ZM1157.19 227.125C1156.36 227.125 1155.67 226.985 1155.13 226.705C1154.58 226.425 1154.17 226.051 1153.91 225.585C1153.64 225.118 1153.51 224.611 1153.51 224.065C1153.51 223.051 1153.89 222.271 1154.67 221.725C1155.44 221.178 1156.49 220.905 1157.83 220.905H1160.51V220.785C1160.51 219.918 1160.28 219.265 1159.83 218.825C1159.37 218.371 1158.77 218.145 1158.01 218.145C1157.35 218.145 1156.79 218.311 1156.31 218.645C1155.84 218.965 1155.55 219.438 1155.43 220.065H1153.71C1153.77 219.345 1154.01 218.738 1154.43 218.245C1154.85 217.751 1155.38 217.378 1156.01 217.125C1156.63 216.858 1157.3 216.725 1158.01 216.725C1159.39 216.725 1160.43 217.098 1161.13 217.845C1161.83 218.578 1162.19 219.558 1162.19 220.785V226.885H1160.69L1160.59 225.105C1160.31 225.665 1159.89 226.145 1159.35 226.545C1158.81 226.931 1158.09 227.125 1157.19 227.125ZM1157.45 225.705C1158.09 225.705 1158.63 225.538 1159.09 225.205C1159.55 224.871 1159.91 224.438 1160.15 223.905C1160.39 223.371 1160.51 222.811 1160.51 222.225V222.205H1157.97C1156.98 222.205 1156.28 222.378 1155.87 222.725C1155.47 223.058 1155.27 223.478 1155.27 223.985C1155.27 224.505 1155.45 224.925 1155.83 225.245C1156.21 225.551 1156.75 225.705 1157.45 225.705ZM1164.11 226.885V216.965H1165.63L1165.73 218.745C1166.05 218.118 1166.51 217.625 1167.11 217.265C1167.71 216.905 1168.39 216.725 1169.15 216.725C1170.32 216.725 1171.25 217.085 1171.95 217.805C1172.65 218.511 1173.01 219.605 1173.01 221.085V226.885H1171.33V221.265C1171.33 219.198 1170.47 218.165 1168.77 218.165C1167.91 218.165 1167.2 218.478 1166.63 219.105C1166.07 219.718 1165.79 220.598 1165.79 221.745V226.885H1164.11ZM1179.51 227.125C1178.57 227.125 1177.71 226.911 1176.95 226.485C1176.21 226.045 1175.61 225.438 1175.17 224.665C1174.75 223.878 1174.53 222.965 1174.53 221.925C1174.53 220.885 1174.75 219.978 1175.17 219.205C1175.61 218.418 1176.21 217.811 1176.95 217.385C1177.71 216.945 1178.57 216.725 1179.51 216.725C1180.69 216.725 1181.67 217.031 1182.47 217.645C1183.29 218.258 1183.8 219.078 1184.01 220.105H1182.29C1182.16 219.491 1181.83 219.018 1181.31 218.685C1180.79 218.338 1180.19 218.165 1179.49 218.165C1178.93 218.165 1178.41 218.305 1177.91 218.585C1177.42 218.865 1177.02 219.285 1176.71 219.845C1176.41 220.405 1176.25 221.098 1176.25 221.925C1176.25 222.751 1176.41 223.445 1176.71 224.005C1177.02 224.565 1177.42 224.991 1177.91 225.285C1178.41 225.565 1178.93 225.705 1179.49 225.705C1180.19 225.705 1180.79 225.538 1181.31 225.205C1181.83 224.858 1182.16 224.371 1182.29 223.745H1184.01C1183.81 224.745 1183.31 225.558 1182.49 226.185C1181.68 226.811 1180.69 227.125 1179.51 227.125ZM1190.22 227.125C1189.27 227.125 1188.43 226.911 1187.7 226.485C1186.97 226.045 1186.39 225.438 1185.96 224.665C1185.55 223.891 1185.34 222.978 1185.34 221.925C1185.34 220.885 1185.55 219.978 1185.96 219.205C1186.37 218.418 1186.95 217.811 1187.68 217.385C1188.43 216.945 1189.29 216.725 1190.26 216.725C1191.22 216.725 1192.05 216.945 1192.74 217.385C1193.45 217.811 1193.99 218.378 1194.36 219.085C1194.73 219.791 1194.92 220.551 1194.92 221.365C1194.92 221.511 1194.91 221.658 1194.9 221.805C1194.9 221.951 1194.9 222.118 1194.9 222.305H1187C1187.04 223.065 1187.21 223.698 1187.52 224.205C1187.84 224.698 1188.23 225.071 1188.7 225.325C1189.18 225.578 1189.69 225.705 1190.22 225.705C1190.91 225.705 1191.49 225.545 1191.96 225.225C1192.43 224.905 1192.77 224.471 1192.98 223.925H1194.64C1194.37 224.845 1193.86 225.611 1193.1 226.225C1192.35 226.825 1191.39 227.125 1190.22 227.125ZM1190.22 218.145C1189.42 218.145 1188.71 218.391 1188.08 218.885C1187.47 219.365 1187.11 220.071 1187.02 221.005H1193.26C1193.22 220.111 1192.91 219.411 1192.34 218.905C1191.77 218.398 1191.06 218.145 1190.22 218.145ZM1205.48 227.125C1204.52 227.125 1203.67 226.951 1202.94 226.605C1202.22 226.245 1201.65 225.751 1201.24 225.125C1200.84 224.485 1200.64 223.731 1200.64 222.865C1200.64 221.918 1200.91 221.078 1201.46 220.345C1202.02 219.598 1202.83 219.011 1203.88 218.585C1203.43 218.091 1203.1 217.625 1202.9 217.185C1202.7 216.731 1202.6 216.245 1202.6 215.725C1202.6 214.831 1202.91 214.098 1203.54 213.525C1204.18 212.938 1205.05 212.645 1206.16 212.645C1206.88 212.645 1207.51 212.785 1208.04 213.065C1208.57 213.331 1208.99 213.705 1209.28 214.185C1209.57 214.665 1209.71 215.211 1209.68 215.825H1208.02C1208.03 215.225 1207.85 214.771 1207.46 214.465C1207.09 214.158 1206.65 214.005 1206.16 214.005C1205.56 214.005 1205.09 214.165 1204.76 214.485C1204.43 214.805 1204.26 215.211 1204.26 215.705C1204.26 216.131 1204.37 216.545 1204.6 216.945C1204.84 217.345 1205.19 217.791 1205.66 218.285L1210.08 222.745C1210.47 222.185 1210.89 221.511 1211.34 220.725L1211.96 219.645H1213.74L1212.86 221.205C1212.27 222.258 1211.71 223.138 1211.18 223.845L1214.2 226.885H1212.08L1210.22 225.005C1209.51 225.765 1208.78 226.311 1208.02 226.645C1207.26 226.965 1206.41 227.125 1205.48 227.125ZM1202.32 222.805C1202.32 223.631 1202.61 224.318 1203.2 224.865C1203.79 225.411 1204.55 225.685 1205.5 225.685C1206.21 225.685 1206.85 225.551 1207.42 225.285C1208.01 225.005 1208.58 224.551 1209.14 223.925L1204.9 219.625C1204.02 219.971 1203.37 220.411 1202.94 220.945C1202.53 221.478 1202.32 222.098 1202.32 222.805ZM1121.61 252.885L1126.77 238.885H1128.55L1133.69 252.885H1131.91L1130.63 249.285H1124.67L1123.37 252.885H1121.61ZM1125.17 247.925H1130.13L1127.65 241.005L1125.17 247.925ZM1139.09 253.125C1138.14 253.125 1137.29 252.911 1136.53 252.485C1135.78 252.045 1135.19 251.438 1134.75 250.665C1134.32 249.878 1134.11 248.965 1134.11 247.925C1134.11 246.885 1134.32 245.978 1134.75 245.205C1135.19 244.418 1135.78 243.811 1136.53 243.385C1137.29 242.945 1138.14 242.725 1139.09 242.725C1140.26 242.725 1141.25 243.031 1142.05 243.645C1142.86 244.258 1143.37 245.078 1143.59 246.105H1141.87C1141.73 245.491 1141.41 245.018 1140.89 244.685C1140.37 244.338 1139.76 244.165 1139.07 244.165C1138.51 244.165 1137.98 244.305 1137.49 244.585C1136.99 244.865 1136.59 245.285 1136.29 245.845C1135.98 246.405 1135.83 247.098 1135.83 247.925C1135.83 248.751 1135.98 249.445 1136.29 250.005C1136.59 250.565 1136.99 250.991 1137.49 251.285C1137.98 251.565 1138.51 251.705 1139.07 251.705C1139.76 251.705 1140.37 251.538 1140.89 251.205C1141.41 250.858 1141.73 250.371 1141.87 249.745H1143.59C1143.39 250.745 1142.88 251.558 1142.07 252.185C1141.25 252.811 1140.26 253.125 1139.09 253.125ZM1149.89 253.125C1148.95 253.125 1148.09 252.911 1147.33 252.485C1146.59 252.045 1145.99 251.438 1145.55 250.665C1145.13 249.878 1144.91 248.965 1144.91 247.925C1144.91 246.885 1145.13 245.978 1145.55 245.205C1145.99 244.418 1146.59 243.811 1147.33 243.385C1148.09 242.945 1148.95 242.725 1149.89 242.725C1151.07 242.725 1152.05 243.031 1152.85 243.645C1153.67 244.258 1154.18 245.078 1154.39 246.105H1152.67C1152.54 245.491 1152.21 245.018 1151.69 244.685C1151.17 244.338 1150.57 244.165 1149.87 244.165C1149.31 244.165 1148.79 244.305 1148.29 244.585C1147.8 244.865 1147.4 245.285 1147.09 245.845C1146.79 246.405 1146.63 247.098 1146.63 247.925C1146.63 248.751 1146.79 249.445 1147.09 250.005C1147.4 250.565 1147.8 250.991 1148.29 251.285C1148.79 251.565 1149.31 251.705 1149.87 251.705C1150.57 251.705 1151.17 251.538 1151.69 251.205C1152.21 250.858 1152.54 250.371 1152.67 249.745H1154.39C1154.19 250.745 1153.69 251.558 1152.87 252.185C1152.06 252.811 1151.07 253.125 1149.89 253.125ZM1160.66 253.125C1159.73 253.125 1158.89 252.911 1158.14 252.485C1157.39 252.058 1156.8 251.458 1156.36 250.685C1155.93 249.898 1155.72 248.978 1155.72 247.925C1155.72 246.871 1155.94 245.958 1156.38 245.185C1156.82 244.398 1157.41 243.791 1158.16 243.365C1158.92 242.938 1159.77 242.725 1160.7 242.725C1161.63 242.725 1162.47 242.938 1163.22 243.365C1163.97 243.791 1164.55 244.398 1164.98 245.185C1165.42 245.958 1165.64 246.871 1165.64 247.925C1165.64 248.978 1165.42 249.898 1164.98 250.685C1164.54 251.458 1163.94 252.058 1163.18 252.485C1162.43 252.911 1161.59 253.125 1160.66 253.125ZM1160.66 251.685C1161.23 251.685 1161.77 251.545 1162.26 251.265C1162.75 250.985 1163.15 250.565 1163.46 250.005C1163.77 249.445 1163.92 248.751 1163.92 247.925C1163.92 247.098 1163.77 246.405 1163.46 245.845C1163.17 245.285 1162.77 244.865 1162.28 244.585C1161.79 244.305 1161.26 244.165 1160.7 244.165C1160.13 244.165 1159.59 244.305 1159.1 244.585C1158.61 244.865 1158.21 245.285 1157.9 245.845C1157.59 246.405 1157.44 247.098 1157.44 247.925C1157.44 248.751 1157.59 249.445 1157.9 250.005C1158.21 250.565 1158.6 250.985 1159.08 251.265C1159.57 251.545 1160.1 251.685 1160.66 251.685ZM1171 253.125C1169.82 253.125 1168.89 252.771 1168.2 252.065C1167.5 251.345 1167.16 250.245 1167.16 248.765V242.965H1168.84V248.585C1168.84 250.651 1169.68 251.685 1171.38 251.685C1172.24 251.685 1172.96 251.378 1173.52 250.765C1174.09 250.138 1174.38 249.251 1174.38 248.105V242.965H1176.06V252.885H1174.54L1174.42 251.105C1174.11 251.731 1173.65 252.225 1173.04 252.585C1172.44 252.945 1171.76 253.125 1171 253.125ZM1178.22 252.885V242.965H1179.74L1179.84 244.745C1180.16 244.118 1180.62 243.625 1181.22 243.265C1181.82 242.905 1182.5 242.725 1183.26 242.725C1184.44 242.725 1185.37 243.085 1186.06 243.805C1186.77 244.511 1187.12 245.605 1187.12 247.085V252.885H1185.44V247.265C1185.44 245.198 1184.59 244.165 1182.88 244.165C1182.03 244.165 1181.32 244.478 1180.74 245.105C1180.18 245.718 1179.9 246.598 1179.9 247.745V252.885H1178.22ZM1192.99 252.885C1192.08 252.885 1191.37 252.665 1190.85 252.225C1190.33 251.785 1190.07 250.991 1190.07 249.845V244.385H1188.35V242.965H1190.07L1190.29 240.585H1191.75V242.965H1194.67V244.385H1191.75V249.845C1191.75 250.471 1191.87 250.898 1192.13 251.125C1192.38 251.338 1192.83 251.445 1193.47 251.445H1194.51V252.885H1192.99ZM1197.22 240.765C1196.89 240.765 1196.61 240.658 1196.38 240.445C1196.17 240.218 1196.06 239.938 1196.06 239.605C1196.06 239.285 1196.17 239.018 1196.38 238.805C1196.61 238.591 1196.89 238.485 1197.22 238.485C1197.54 238.485 1197.81 238.591 1198.04 238.805C1198.27 239.018 1198.38 239.285 1198.38 239.605C1198.38 239.938 1198.27 240.218 1198.04 240.445C1197.81 240.658 1197.54 240.765 1197.22 240.765ZM1196.38 252.885V242.965H1198.06V252.885H1196.38ZM1200.39 252.885V242.965H1201.91L1202.01 244.745C1202.33 244.118 1202.79 243.625 1203.39 243.265C1203.99 242.905 1204.67 242.725 1205.43 242.725C1206.6 242.725 1207.53 243.085 1208.23 243.805C1208.93 244.511 1209.29 245.605 1209.29 247.085V252.885H1207.61V247.265C1207.61 245.198 1206.75 244.165 1205.05 244.165C1204.19 244.165 1203.48 244.478 1202.91 245.105C1202.35 245.718 1202.07 246.598 1202.07 247.745V252.885H1200.39ZM1215.15 249.765C1214.59 249.765 1214.08 249.691 1213.61 249.545L1212.61 250.485C1212.76 250.591 1212.94 250.685 1213.15 250.765C1213.38 250.831 1213.7 250.898 1214.11 250.965C1214.53 251.018 1215.11 251.078 1215.85 251.145C1217.19 251.238 1218.14 251.545 1218.71 252.065C1219.29 252.585 1219.57 253.265 1219.57 254.105C1219.57 254.678 1219.41 255.225 1219.09 255.745C1218.79 256.265 1218.31 256.691 1217.65 257.025C1217.01 257.358 1216.19 257.525 1215.17 257.525C1214.28 257.525 1213.49 257.405 1212.79 257.165C1212.1 256.938 1211.56 256.585 1211.17 256.105C1210.79 255.638 1210.59 255.045 1210.59 254.325C1210.59 253.951 1210.69 253.545 1210.89 253.105C1211.09 252.678 1211.47 252.271 1212.01 251.885C1211.72 251.765 1211.47 251.638 1211.25 251.505C1211.05 251.358 1210.87 251.198 1210.69 251.025V250.565L1212.39 248.885C1211.61 248.218 1211.21 247.338 1211.21 246.245C1211.21 245.591 1211.37 244.998 1211.67 244.465C1211.98 243.931 1212.43 243.511 1213.01 243.205C1213.6 242.885 1214.31 242.725 1215.15 242.725C1215.73 242.725 1216.25 242.805 1216.71 242.965H1220.37V244.225L1218.51 244.305C1218.9 244.865 1219.09 245.511 1219.09 246.245C1219.09 246.898 1218.93 247.491 1218.61 248.025C1218.31 248.558 1217.86 248.985 1217.27 249.305C1216.7 249.611 1215.99 249.765 1215.15 249.765ZM1215.15 248.385C1215.86 248.385 1216.42 248.205 1216.83 247.845C1217.26 247.471 1217.47 246.938 1217.47 246.245C1217.47 245.565 1217.26 245.045 1216.83 244.685C1216.42 244.311 1215.86 244.125 1215.15 244.125C1214.43 244.125 1213.86 244.311 1213.43 244.685C1213.02 245.045 1212.81 245.565 1212.81 246.245C1212.81 246.938 1213.02 247.471 1213.43 247.845C1213.86 248.205 1214.43 248.385 1215.15 248.385ZM1212.23 254.165C1212.23 254.831 1212.51 255.325 1213.07 255.645C1213.63 255.978 1214.33 256.145 1215.17 256.145C1216 256.145 1216.66 255.965 1217.15 255.605C1217.66 255.245 1217.91 254.765 1217.91 254.165C1217.91 253.738 1217.74 253.365 1217.39 253.045C1217.05 252.738 1216.41 252.558 1215.47 252.505C1214.74 252.451 1214.11 252.385 1213.57 252.305C1213.03 252.598 1212.67 252.911 1212.49 253.245C1212.32 253.591 1212.23 253.898 1212.23 254.165Z" fill="white"/>
<rect x="953.251" y="48.5" width="174.259" height="174.259" rx="87.1293" fill="#181717"/>
<rect x="953.251" y="48.5" width="174.259" height="174.259" rx="87.1293" stroke="#181717"/>
<path d="M994.13 142.629V128.629H998.73C999.824 128.629 1000.72 128.809 1001.43 129.169C1002.14 129.529 1002.66 130.016 1002.99 130.629C1003.34 131.243 1003.51 131.936 1003.51 132.709C1003.51 133.469 1003.34 134.156 1003.01 134.769C1002.68 135.383 1002.16 135.876 1001.45 136.249C1000.74 136.609 999.837 136.789 998.73 136.789H995.81V142.629H994.13ZM995.81 135.369H998.69C999.81 135.369 1000.6 135.136 1001.07 134.669C1001.55 134.189 1001.79 133.536 1001.79 132.709C1001.79 131.869 1001.55 131.216 1001.07 130.749C1000.6 130.269 999.81 130.029 998.69 130.029H995.81V135.369ZM1008.63 142.869C1007.46 142.869 1006.53 142.516 1005.83 141.809C1005.14 141.089 1004.79 139.989 1004.79 138.509V132.709H1006.47V138.329C1006.47 140.396 1007.32 141.429 1009.01 141.429C1009.88 141.429 1010.59 141.123 1011.15 140.509C1011.73 139.883 1012.01 138.996 1012.01 137.849V132.709H1013.69V142.629H1012.17L1012.05 140.849C1011.75 141.476 1011.29 141.969 1010.67 142.329C1010.07 142.689 1009.39 142.869 1008.63 142.869ZM1015.86 142.629V132.709H1017.38L1017.52 134.609C1017.82 133.956 1018.29 133.436 1018.92 133.049C1019.54 132.663 1020.32 132.469 1021.24 132.469V134.229H1020.78C1020.19 134.229 1019.65 134.336 1019.16 134.549C1018.66 134.749 1018.27 135.096 1017.98 135.589C1017.68 136.083 1017.54 136.763 1017.54 137.629V142.629H1015.86ZM1026.71 142.869C1025.77 142.869 1024.91 142.656 1024.15 142.229C1023.41 141.789 1022.81 141.183 1022.37 140.409C1021.95 139.623 1021.73 138.709 1021.73 137.669C1021.73 136.629 1021.95 135.723 1022.37 134.949C1022.81 134.163 1023.41 133.556 1024.15 133.129C1024.91 132.689 1025.77 132.469 1026.71 132.469C1027.89 132.469 1028.87 132.776 1029.67 133.389C1030.49 134.003 1031 134.823 1031.21 135.849H1029.49C1029.36 135.236 1029.03 134.763 1028.51 134.429C1027.99 134.083 1027.39 133.909 1026.69 133.909C1026.13 133.909 1025.61 134.049 1025.11 134.329C1024.62 134.609 1024.22 135.029 1023.91 135.589C1023.61 136.149 1023.45 136.843 1023.45 137.669C1023.45 138.496 1023.61 139.189 1023.91 139.749C1024.22 140.309 1024.62 140.736 1025.11 141.029C1025.61 141.309 1026.13 141.449 1026.69 141.449C1027.39 141.449 1027.99 141.283 1028.51 140.949C1029.03 140.603 1029.36 140.116 1029.49 139.489H1031.21C1031.01 140.489 1030.51 141.303 1029.69 141.929C1028.88 142.556 1027.89 142.869 1026.71 142.869ZM1032.96 142.629V128.229H1034.64V134.409C1034.97 133.796 1035.44 133.323 1036.06 132.989C1036.67 132.643 1037.34 132.469 1038.06 132.469C1039.2 132.469 1040.12 132.829 1040.82 133.549C1041.51 134.256 1041.86 135.349 1041.86 136.829V142.629H1040.2V137.009C1040.2 134.943 1039.36 133.909 1037.7 133.909C1036.83 133.909 1036.1 134.223 1035.52 134.849C1034.93 135.463 1034.64 136.343 1034.64 137.489V142.629H1032.96ZM1047.1 142.869C1046.28 142.869 1045.59 142.729 1045.04 142.449C1044.5 142.169 1044.09 141.796 1043.82 141.329C1043.56 140.863 1043.42 140.356 1043.42 139.809C1043.42 138.796 1043.81 138.016 1044.58 137.469C1045.36 136.923 1046.41 136.649 1047.74 136.649H1050.42V136.529C1050.42 135.663 1050.2 135.009 1049.74 134.569C1049.29 134.116 1048.68 133.889 1047.92 133.889C1047.27 133.889 1046.7 134.056 1046.22 134.389C1045.76 134.709 1045.46 135.183 1045.34 135.809H1043.62C1043.69 135.089 1043.93 134.483 1044.34 133.989C1044.77 133.496 1045.3 133.123 1045.92 132.869C1046.55 132.603 1047.22 132.469 1047.92 132.469C1049.31 132.469 1050.35 132.843 1051.04 133.589C1051.75 134.323 1052.1 135.303 1052.1 136.529V142.629H1050.6L1050.5 140.849C1050.22 141.409 1049.81 141.889 1049.26 142.289C1048.73 142.676 1048.01 142.869 1047.1 142.869ZM1047.36 141.449C1048 141.449 1048.55 141.283 1049 140.949C1049.47 140.616 1049.82 140.183 1050.06 139.649C1050.3 139.116 1050.42 138.556 1050.42 137.969V137.949H1047.88C1046.9 137.949 1046.2 138.123 1045.78 138.469C1045.38 138.803 1045.18 139.223 1045.18 139.729C1045.18 140.249 1045.37 140.669 1045.74 140.989C1046.13 141.296 1046.67 141.449 1047.36 141.449ZM1057.82 142.869C1056.64 142.869 1055.65 142.569 1054.86 141.969C1054.08 141.369 1053.62 140.556 1053.48 139.529H1055.2C1055.31 140.049 1055.58 140.503 1056.02 140.889C1056.48 141.263 1057.08 141.449 1057.84 141.449C1058.55 141.449 1059.07 141.303 1059.4 141.009C1059.74 140.703 1059.9 140.343 1059.9 139.929C1059.9 139.329 1059.68 138.929 1059.24 138.729C1058.82 138.529 1058.21 138.349 1057.42 138.189C1056.89 138.083 1056.36 137.929 1055.82 137.729C1055.29 137.529 1054.84 137.249 1054.48 136.889C1054.12 136.516 1053.94 136.029 1053.94 135.429C1053.94 134.563 1054.26 133.856 1054.9 133.309C1055.56 132.749 1056.44 132.469 1057.54 132.469C1058.6 132.469 1059.46 132.736 1060.12 133.269C1060.8 133.789 1061.2 134.536 1061.3 135.509H1059.64C1059.58 135.003 1059.36 134.609 1058.98 134.329C1058.62 134.036 1058.14 133.889 1057.52 133.889C1056.92 133.889 1056.46 134.016 1056.12 134.269C1055.8 134.523 1055.64 134.856 1055.64 135.269C1055.64 135.669 1055.85 135.983 1056.26 136.209C1056.69 136.436 1057.26 136.629 1057.98 136.789C1058.6 136.923 1059.18 137.089 1059.72 137.289C1060.28 137.476 1060.74 137.763 1061.08 138.149C1061.44 138.523 1061.62 139.069 1061.62 139.789C1061.64 140.683 1061.3 141.423 1060.6 142.009C1059.92 142.583 1059 142.869 1057.82 142.869ZM1064.44 130.509C1064.11 130.509 1063.83 130.403 1063.6 130.189C1063.39 129.963 1063.28 129.683 1063.28 129.349C1063.28 129.029 1063.39 128.763 1063.6 128.549C1063.83 128.336 1064.11 128.229 1064.44 128.229C1064.76 128.229 1065.04 128.336 1065.26 128.549C1065.49 128.763 1065.6 129.029 1065.6 129.349C1065.6 129.683 1065.49 129.963 1065.26 130.189C1065.04 130.403 1064.76 130.509 1064.44 130.509ZM1063.6 142.629V132.709H1065.28V142.629H1063.6ZM1067.61 142.629V132.709H1069.13L1069.23 134.489C1069.55 133.863 1070.01 133.369 1070.61 133.009C1071.21 132.649 1071.89 132.469 1072.65 132.469C1073.82 132.469 1074.76 132.829 1075.45 133.549C1076.16 134.256 1076.51 135.349 1076.51 136.829V142.629H1074.83V137.009C1074.83 134.943 1073.98 133.909 1072.27 133.909C1071.42 133.909 1070.7 134.223 1070.13 134.849C1069.57 135.463 1069.29 136.343 1069.29 137.489V142.629H1067.61ZM1082.37 139.509C1081.81 139.509 1081.3 139.436 1080.83 139.289L1079.83 140.229C1079.98 140.336 1080.16 140.429 1080.37 140.509C1080.6 140.576 1080.92 140.643 1081.33 140.709C1081.75 140.763 1082.33 140.823 1083.07 140.889C1084.41 140.983 1085.36 141.289 1085.93 141.809C1086.51 142.329 1086.79 143.009 1086.79 143.849C1086.79 144.423 1086.63 144.969 1086.31 145.489C1086.01 146.009 1085.53 146.436 1084.87 146.769C1084.23 147.103 1083.41 147.269 1082.39 147.269C1081.5 147.269 1080.71 147.149 1080.01 146.909C1079.32 146.683 1078.78 146.329 1078.39 145.849C1078.01 145.383 1077.81 144.789 1077.81 144.069C1077.81 143.696 1077.91 143.289 1078.11 142.849C1078.31 142.423 1078.69 142.016 1079.23 141.629C1078.94 141.509 1078.69 141.383 1078.47 141.249C1078.27 141.103 1078.09 140.943 1077.91 140.769V140.309L1079.61 138.629C1078.83 137.963 1078.43 137.083 1078.43 135.989C1078.43 135.336 1078.59 134.743 1078.89 134.209C1079.2 133.676 1079.65 133.256 1080.23 132.949C1080.82 132.629 1081.53 132.469 1082.37 132.469C1082.95 132.469 1083.47 132.549 1083.93 132.709H1087.59V133.969L1085.73 134.049C1086.12 134.609 1086.31 135.256 1086.31 135.989C1086.31 136.643 1086.15 137.236 1085.83 137.769C1085.53 138.303 1085.08 138.729 1084.49 139.049C1083.92 139.356 1083.21 139.509 1082.37 139.509ZM1082.37 138.129C1083.08 138.129 1083.64 137.949 1084.05 137.589C1084.48 137.216 1084.69 136.683 1084.69 135.989C1084.69 135.309 1084.48 134.789 1084.05 134.429C1083.64 134.056 1083.08 133.869 1082.37 133.869C1081.65 133.869 1081.08 134.056 1080.65 134.429C1080.24 134.789 1080.03 135.309 1080.03 135.989C1080.03 136.683 1080.24 137.216 1080.65 137.589C1081.08 137.949 1081.65 138.129 1082.37 138.129ZM1079.45 143.909C1079.45 144.576 1079.73 145.069 1080.29 145.389C1080.85 145.723 1081.55 145.889 1082.39 145.889C1083.22 145.889 1083.88 145.709 1084.37 145.349C1084.88 144.989 1085.13 144.509 1085.13 143.909C1085.13 143.483 1084.96 143.109 1084.61 142.789C1084.27 142.483 1083.63 142.303 1082.69 142.249C1081.96 142.196 1081.33 142.129 1080.79 142.049C1080.25 142.343 1079.89 142.656 1079.71 142.989C1079.54 143.336 1079.45 143.643 1079.45 143.909Z" fill="white"/>
<rect x="661.449" y="145.755" width="174.259" height="174.259" rx="87.1293" stroke="#181717"/>
<path d="M687.37 239.885V225.885H689.33L694.37 235.645L699.37 225.885H701.35V239.885H699.67V228.885L694.99 237.885H693.73L689.05 228.905V239.885H687.37ZM706.903 240.125C706.077 240.125 705.39 239.985 704.843 239.705C704.297 239.425 703.89 239.051 703.623 238.585C703.357 238.118 703.223 237.611 703.223 237.065C703.223 236.051 703.61 235.271 704.383 234.725C705.157 234.178 706.21 233.905 707.543 233.905H710.223V233.785C710.223 232.918 709.997 232.265 709.543 231.825C709.09 231.371 708.483 231.145 707.723 231.145C707.07 231.145 706.503 231.311 706.023 231.645C705.557 231.965 705.263 232.438 705.143 233.065H703.423C703.49 232.345 703.73 231.738 704.143 231.245C704.57 230.751 705.097 230.378 705.723 230.125C706.35 229.858 707.017 229.725 707.723 229.725C709.11 229.725 710.15 230.098 710.843 230.845C711.55 231.578 711.903 232.558 711.903 233.785V239.885H710.403L710.303 238.105C710.023 238.665 709.61 239.145 709.063 239.545C708.53 239.931 707.81 240.125 706.903 240.125ZM707.163 238.705C707.803 238.705 708.35 238.538 708.803 238.205C709.27 237.871 709.623 237.438 709.863 236.905C710.103 236.371 710.223 235.811 710.223 235.225V235.205H707.683C706.697 235.205 705.997 235.378 705.583 235.725C705.183 236.058 704.983 236.478 704.983 236.985C704.983 237.505 705.17 237.925 705.543 238.245C705.93 238.551 706.47 238.705 707.163 238.705ZM713.824 239.885V229.965H715.344L715.444 231.745C715.764 231.118 716.224 230.625 716.824 230.265C717.424 229.905 718.104 229.725 718.864 229.725C720.037 229.725 720.97 230.085 721.664 230.805C722.37 231.511 722.724 232.605 722.724 234.085V239.885H721.044V234.265C721.044 232.198 720.19 231.165 718.484 231.165C717.63 231.165 716.917 231.478 716.344 232.105C715.784 232.718 715.504 233.598 715.504 234.745V239.885H713.824ZM728.289 240.125C727.116 240.125 726.182 239.771 725.489 239.065C724.796 238.345 724.449 237.245 724.449 235.765V229.965H726.129V235.585C726.129 237.651 726.976 238.685 728.669 238.685C729.536 238.685 730.249 238.378 730.809 237.765C731.382 237.138 731.669 236.251 731.669 235.105V229.965H733.349V239.885H731.829L731.709 238.105C731.402 238.731 730.942 239.225 730.329 239.585C729.729 239.945 729.049 240.125 728.289 240.125ZM736.054 239.885V231.385H734.554V229.965H736.054V228.245C736.054 227.285 736.294 226.585 736.774 226.145C737.254 225.705 737.954 225.485 738.874 225.485H739.874V226.925H739.134C738.628 226.925 738.268 227.031 738.054 227.245C737.841 227.445 737.734 227.791 737.734 228.285V229.965H740.174V231.385H737.734V239.885H736.054ZM744.484 240.125C743.657 240.125 742.97 239.985 742.424 239.705C741.877 239.425 741.47 239.051 741.204 238.585C740.937 238.118 740.804 237.611 740.804 237.065C740.804 236.051 741.19 235.271 741.964 234.725C742.737 234.178 743.79 233.905 745.124 233.905H747.804V233.785C747.804 232.918 747.577 232.265 747.124 231.825C746.67 231.371 746.064 231.145 745.304 231.145C744.65 231.145 744.084 231.311 743.604 231.645C743.137 231.965 742.844 232.438 742.724 233.065H741.004C741.07 232.345 741.31 231.738 741.724 231.245C742.15 230.751 742.677 230.378 743.304 230.125C743.93 229.858 744.597 229.725 745.304 229.725C746.69 229.725 747.73 230.098 748.424 230.845C749.13 231.578 749.484 232.558 749.484 233.785V239.885H747.984L747.884 238.105C747.604 238.665 747.19 239.145 746.644 239.545C746.11 239.931 745.39 240.125 744.484 240.125ZM744.744 238.705C745.384 238.705 745.93 238.538 746.384 238.205C746.85 237.871 747.204 237.438 747.444 236.905C747.684 236.371 747.804 235.811 747.804 235.225V235.205H745.264C744.277 235.205 743.577 235.378 743.164 235.725C742.764 236.058 742.564 236.478 742.564 236.985C742.564 237.505 742.75 237.925 743.124 238.245C743.51 238.551 744.05 238.705 744.744 238.705ZM755.964 240.125C755.017 240.125 754.164 239.911 753.404 239.485C752.657 239.045 752.064 238.438 751.624 237.665C751.197 236.878 750.984 235.965 750.984 234.925C750.984 233.885 751.197 232.978 751.624 232.205C752.064 231.418 752.657 230.811 753.404 230.385C754.164 229.945 755.017 229.725 755.964 229.725C757.137 229.725 758.124 230.031 758.924 230.645C759.737 231.258 760.251 232.078 760.464 233.105H758.744C758.611 232.491 758.284 232.018 757.764 231.685C757.244 231.338 756.637 231.165 755.944 231.165C755.384 231.165 754.857 231.305 754.364 231.585C753.871 231.865 753.471 232.285 753.164 232.845C752.857 233.405 752.704 234.098 752.704 234.925C752.704 235.751 752.857 236.445 753.164 237.005C753.471 237.565 753.871 237.991 754.364 238.285C754.857 238.565 755.384 238.705 755.944 238.705C756.637 238.705 757.244 238.538 757.764 238.205C758.284 237.858 758.611 237.371 758.744 236.745H760.464C760.264 237.745 759.757 238.558 758.944 239.185C758.131 239.811 757.137 240.125 755.964 240.125ZM765.857 239.885C764.95 239.885 764.237 239.665 763.717 239.225C763.197 238.785 762.937 237.991 762.937 236.845V231.385H761.217V229.965H762.937L763.157 227.585H764.617V229.965H767.537V231.385H764.617V236.845C764.617 237.471 764.744 237.898 764.997 238.125C765.25 238.338 765.697 238.445 766.337 238.445H767.377V239.885H765.857ZM772.691 240.125C771.518 240.125 770.585 239.771 769.891 239.065C769.198 238.345 768.851 237.245 768.851 235.765V229.965H770.531V235.585C770.531 237.651 771.378 238.685 773.071 238.685C773.938 238.685 774.651 238.378 775.211 237.765C775.785 237.138 776.071 236.251 776.071 235.105V229.965H777.751V239.885H776.231L776.111 238.105C775.805 238.731 775.345 239.225 774.731 239.585C774.131 239.945 773.451 240.125 772.691 240.125ZM779.917 239.885V229.965H781.437L781.577 231.865C781.883 231.211 782.35 230.691 782.977 230.305C783.603 229.918 784.377 229.725 785.297 229.725V231.485H784.837C784.25 231.485 783.71 231.591 783.217 231.805C782.723 232.005 782.33 232.351 782.037 232.845C781.743 233.338 781.597 234.018 781.597 234.885V239.885H779.917ZM787.602 227.765C787.269 227.765 786.989 227.658 786.762 227.445C786.549 227.218 786.442 226.938 786.442 226.605C786.442 226.285 786.549 226.018 786.762 225.805C786.989 225.591 787.269 225.485 787.602 225.485C787.922 225.485 788.196 225.591 788.422 225.805C788.649 226.018 788.762 226.285 788.762 226.605C788.762 226.938 788.649 227.218 788.422 227.445C788.196 227.658 787.922 227.765 787.602 227.765ZM786.762 239.885V229.965H788.442V239.885H786.762ZM790.767 239.885V229.965H792.287L792.387 231.745C792.707 231.118 793.167 230.625 793.767 230.265C794.367 229.905 795.047 229.725 795.807 229.725C796.981 229.725 797.914 230.085 798.607 230.805C799.314 231.511 799.667 232.605 799.667 234.085V239.885H797.987V234.265C797.987 232.198 797.134 231.165 795.427 231.165C794.574 231.165 793.861 231.478 793.287 232.105C792.727 232.718 792.447 233.598 792.447 234.745V239.885H790.767ZM805.533 236.765C804.973 236.765 804.459 236.691 803.993 236.545L802.993 237.485C803.139 237.591 803.319 237.685 803.533 237.765C803.759 237.831 804.079 237.898 804.493 237.965C804.906 238.018 805.486 238.078 806.233 238.145C807.566 238.238 808.519 238.545 809.093 239.065C809.666 239.585 809.953 240.265 809.953 241.105C809.953 241.678 809.793 242.225 809.473 242.745C809.166 243.265 808.686 243.691 808.033 244.025C807.393 244.358 806.566 244.525 805.553 244.525C804.659 244.525 803.866 244.405 803.173 244.165C802.479 243.938 801.939 243.585 801.553 243.105C801.166 242.638 800.973 242.045 800.973 241.325C800.973 240.951 801.073 240.545 801.273 240.105C801.473 239.678 801.846 239.271 802.393 238.885C802.099 238.765 801.846 238.638 801.633 238.505C801.433 238.358 801.246 238.198 801.073 238.025V237.565L802.773 235.885C801.986 235.218 801.593 234.338 801.593 233.245C801.593 232.591 801.746 231.998 802.053 231.465C802.359 230.931 802.806 230.511 803.393 230.205C803.979 229.885 804.693 229.725 805.533 229.725C806.106 229.725 806.626 229.805 807.093 229.965H810.753V231.225L808.893 231.305C809.279 231.865 809.473 232.511 809.473 233.245C809.473 233.898 809.313 234.491 808.993 235.025C808.686 235.558 808.239 235.985 807.653 236.305C807.079 236.611 806.373 236.765 805.533 236.765ZM805.533 235.385C806.239 235.385 806.799 235.205 807.213 234.845C807.639 234.471 807.853 233.938 807.853 233.245C807.853 232.565 807.639 232.045 807.213 231.685C806.799 231.311 806.239 231.125 805.533 231.125C804.813 231.125 804.239 231.311 803.813 231.685C803.399 232.045 803.193 232.565 803.193 233.245C803.193 233.938 803.399 234.471 803.813 234.845C804.239 235.205 804.813 235.385 805.533 235.385ZM802.613 241.165C802.613 241.831 802.893 242.325 803.453 242.645C804.013 242.978 804.713 243.145 805.553 243.145C806.379 243.145 807.039 242.965 807.533 242.605C808.039 242.245 808.293 241.765 808.293 241.165C808.293 240.738 808.119 240.365 807.773 240.045C807.426 239.738 806.786 239.558 805.853 239.505C805.119 239.451 804.486 239.385 803.953 239.305C803.406 239.598 803.046 239.911 802.873 240.245C802.699 240.591 802.613 240.898 802.613 241.165Z" fill="#181717"/>
<rect x="792.016" y="48.5" width="174.259" height="174.259" rx="87.1293" stroke="#181717"/>
<path d="M849.72 129.629V115.629H854.32C855.414 115.629 856.314 115.809 857.02 116.169C857.727 116.529 858.247 117.016 858.58 117.629C858.927 118.243 859.1 118.936 859.1 119.709C859.1 120.469 858.934 121.156 858.6 121.769C858.267 122.383 857.747 122.876 857.04 123.249C856.334 123.609 855.427 123.789 854.32 123.789H851.4V129.629H849.72ZM851.4 122.369H854.28C855.4 122.369 856.194 122.136 856.66 121.669C857.14 121.189 857.38 120.536 857.38 119.709C857.38 118.869 857.14 118.216 856.66 117.749C856.194 117.269 855.4 117.029 854.28 117.029H851.4V122.369ZM860.602 129.629V119.709H862.122L862.262 121.609C862.569 120.956 863.036 120.436 863.662 120.049C864.289 119.663 865.062 119.469 865.982 119.469V121.229H865.522C864.936 121.229 864.396 121.336 863.902 121.549C863.409 121.749 863.016 122.096 862.722 122.589C862.429 123.083 862.282 123.763 862.282 124.629V129.629H860.602ZM871.417 129.869C870.484 129.869 869.644 129.656 868.897 129.229C868.15 128.803 867.557 128.203 867.117 127.429C866.69 126.643 866.477 125.723 866.477 124.669C866.477 123.616 866.697 122.703 867.137 121.929C867.577 121.143 868.17 120.536 868.917 120.109C869.677 119.683 870.524 119.469 871.457 119.469C872.39 119.469 873.23 119.683 873.977 120.109C874.724 120.536 875.31 121.143 875.737 121.929C876.177 122.703 876.397 123.616 876.397 124.669C876.397 125.723 876.177 126.643 875.737 127.429C875.297 128.203 874.697 128.803 873.937 129.229C873.19 129.656 872.35 129.869 871.417 129.869ZM871.417 128.429C871.99 128.429 872.524 128.289 873.017 128.009C873.51 127.729 873.91 127.309 874.217 126.749C874.524 126.189 874.677 125.496 874.677 124.669C874.677 123.843 874.524 123.149 874.217 122.589C873.924 122.029 873.53 121.609 873.037 121.329C872.544 121.049 872.017 120.909 871.457 120.909C870.884 120.909 870.35 121.049 869.857 121.329C869.364 121.609 868.964 122.029 868.657 122.589C868.35 123.149 868.197 123.843 868.197 124.669C868.197 125.496 868.35 126.189 868.657 126.749C868.964 127.309 869.357 127.729 869.837 128.009C870.33 128.289 870.857 128.429 871.417 128.429ZM879.233 117.509C878.913 117.509 878.64 117.403 878.413 117.189C878.186 116.963 878.073 116.683 878.073 116.349C878.073 116.029 878.186 115.763 878.413 115.549C878.64 115.336 878.913 115.229 879.233 115.229C879.553 115.229 879.82 115.336 880.033 115.549C880.26 115.763 880.373 116.029 880.373 116.349C880.373 116.683 880.26 116.963 880.033 117.189C879.82 117.403 879.553 117.509 879.233 117.509ZM876.193 134.029V132.589H876.973C877.466 132.589 877.82 132.483 878.033 132.269C878.26 132.069 878.373 131.723 878.373 131.229V119.709H880.053V131.269C880.053 132.229 879.813 132.929 879.333 133.369C878.853 133.809 878.153 134.029 877.233 134.029H876.193ZM886.837 129.869C885.89 129.869 885.05 129.656 884.317 129.229C883.583 128.789 883.003 128.183 882.577 127.409C882.163 126.636 881.957 125.723 881.957 124.669C881.957 123.629 882.163 122.723 882.577 121.949C882.99 121.163 883.563 120.556 884.297 120.129C885.043 119.689 885.903 119.469 886.877 119.469C887.837 119.469 888.663 119.689 889.357 120.129C890.063 120.556 890.603 121.123 890.977 121.829C891.35 122.536 891.537 123.296 891.537 124.109C891.537 124.256 891.53 124.403 891.517 124.549C891.517 124.696 891.517 124.863 891.517 125.049H883.617C883.657 125.809 883.83 126.443 884.137 126.949C884.457 127.443 884.85 127.816 885.317 128.069C885.797 128.323 886.303 128.449 886.837 128.449C887.53 128.449 888.11 128.289 888.577 127.969C889.043 127.649 889.383 127.216 889.597 126.669H891.257C890.99 127.589 890.477 128.356 889.717 128.969C888.97 129.569 888.01 129.869 886.837 129.869ZM886.837 120.889C886.037 120.889 885.323 121.136 884.697 121.629C884.083 122.109 883.73 122.816 883.637 123.749H889.877C889.837 122.856 889.53 122.156 888.957 121.649C888.383 121.143 887.677 120.889 886.837 120.889ZM897.723 129.869C896.777 129.869 895.923 129.656 895.163 129.229C894.417 128.789 893.823 128.183 893.383 127.409C892.957 126.623 892.743 125.709 892.743 124.669C892.743 123.629 892.957 122.723 893.383 121.949C893.823 121.163 894.417 120.556 895.163 120.129C895.923 119.689 896.777 119.469 897.723 119.469C898.897 119.469 899.883 119.776 900.683 120.389C901.497 121.003 902.01 121.823 902.223 122.849H900.503C900.37 122.236 900.043 121.763 899.523 121.429C899.003 121.083 898.397 120.909 897.703 120.909C897.143 120.909 896.617 121.049 896.123 121.329C895.63 121.609 895.23 122.029 894.923 122.589C894.617 123.149 894.463 123.843 894.463 124.669C894.463 125.496 894.617 126.189 894.923 126.749C895.23 127.309 895.63 127.736 896.123 128.029C896.617 128.309 897.143 128.449 897.703 128.449C898.397 128.449 899.003 128.283 899.523 127.949C900.043 127.603 900.37 127.116 900.503 126.489H902.223C902.023 127.489 901.517 128.303 900.703 128.929C899.89 129.556 898.897 129.869 897.723 129.869ZM907.616 129.629C906.71 129.629 905.996 129.409 905.476 128.969C904.956 128.529 904.696 127.736 904.696 126.589V121.129H902.976V119.709H904.696L904.916 117.329H906.376V119.709H909.296V121.129H906.376V126.589C906.376 127.216 906.503 127.643 906.756 127.869C907.01 128.083 907.456 128.189 908.096 128.189H909.136V129.629H907.616ZM823.072 155.629V141.629H825.032L830.072 151.389L835.072 141.629H837.052V155.629H835.372V144.629L830.692 153.629H829.432L824.752 144.649V155.629H823.072ZM842.605 155.869C841.779 155.869 841.092 155.729 840.545 155.449C839.999 155.169 839.592 154.796 839.325 154.329C839.059 153.863 838.925 153.356 838.925 152.809C838.925 151.796 839.312 151.016 840.085 150.469C840.859 149.923 841.912 149.649 843.245 149.649H845.925V149.529C845.925 148.663 845.699 148.009 845.245 147.569C844.792 147.116 844.185 146.889 843.425 146.889C842.772 146.889 842.205 147.056 841.725 147.389C841.259 147.709 840.965 148.183 840.845 148.809H839.125C839.192 148.089 839.432 147.483 839.845 146.989C840.272 146.496 840.799 146.123 841.425 145.869C842.052 145.603 842.719 145.469 843.425 145.469C844.812 145.469 845.852 145.843 846.545 146.589C847.252 147.323 847.605 148.303 847.605 149.529V155.629H846.105L846.005 153.849C845.725 154.409 845.312 154.889 844.765 155.289C844.232 155.676 843.512 155.869 842.605 155.869ZM842.865 154.449C843.505 154.449 844.052 154.283 844.505 153.949C844.972 153.616 845.325 153.183 845.565 152.649C845.805 152.116 845.925 151.556 845.925 150.969V150.949H843.385C842.399 150.949 841.699 151.123 841.285 151.469C840.885 151.803 840.685 152.223 840.685 152.729C840.685 153.249 840.872 153.669 841.245 153.989C841.632 154.296 842.172 154.449 842.865 154.449ZM849.526 155.629V145.709H851.046L851.146 147.489C851.466 146.863 851.926 146.369 852.526 146.009C853.126 145.649 853.806 145.469 854.566 145.469C855.739 145.469 856.672 145.829 857.366 146.549C858.072 147.256 858.426 148.349 858.426 149.829V155.629H856.746V150.009C856.746 147.943 855.892 146.909 854.186 146.909C853.332 146.909 852.619 147.223 852.046 147.849C851.486 148.463 851.206 149.343 851.206 150.489V155.629H849.526ZM863.671 155.869C862.844 155.869 862.157 155.729 861.611 155.449C861.064 155.169 860.657 154.796 860.391 154.329C860.124 153.863 859.991 153.356 859.991 152.809C859.991 151.796 860.377 151.016 861.151 150.469C861.924 149.923 862.977 149.649 864.311 149.649H866.991V149.529C866.991 148.663 866.764 148.009 866.311 147.569C865.857 147.116 865.251 146.889 864.491 146.889C863.837 146.889 863.271 147.056 862.791 147.389C862.324 147.709 862.031 148.183 861.911 148.809H860.191C860.257 148.089 860.497 147.483 860.911 146.989C861.337 146.496 861.864 146.123 862.491 145.869C863.117 145.603 863.784 145.469 864.491 145.469C865.877 145.469 866.917 145.843 867.611 146.589C868.317 147.323 868.671 148.303 868.671 149.529V155.629H867.171L867.071 153.849C866.791 154.409 866.377 154.889 865.831 155.289C865.297 155.676 864.577 155.869 863.671 155.869ZM863.931 154.449C864.571 154.449 865.117 154.283 865.571 153.949C866.037 153.616 866.391 153.183 866.631 152.649C866.871 152.116 866.991 151.556 866.991 150.969V150.949H864.451C863.464 150.949 862.764 151.123 862.351 151.469C861.951 151.803 861.751 152.223 861.751 152.729C861.751 153.249 861.937 153.669 862.311 153.989C862.697 154.296 863.237 154.449 863.931 154.449ZM874.511 152.509C873.951 152.509 873.438 152.436 872.971 152.289L871.971 153.229C872.118 153.336 872.298 153.429 872.511 153.509C872.738 153.576 873.058 153.643 873.471 153.709C873.884 153.763 874.464 153.823 875.211 153.889C876.544 153.983 877.498 154.289 878.071 154.809C878.644 155.329 878.931 156.009 878.931 156.849C878.931 157.423 878.771 157.969 878.451 158.489C878.144 159.009 877.664 159.436 877.011 159.769C876.371 160.103 875.544 160.269 874.531 160.269C873.638 160.269 872.844 160.149 872.151 159.909C871.458 159.683 870.918 159.329 870.531 158.849C870.144 158.383 869.951 157.789 869.951 157.069C869.951 156.696 870.051 156.289 870.251 155.849C870.451 155.423 870.824 155.016 871.371 154.629C871.078 154.509 870.824 154.383 870.611 154.249C870.411 154.103 870.224 153.943 870.051 153.769V153.309L871.751 151.629C870.964 150.963 870.571 150.083 870.571 148.989C870.571 148.336 870.724 147.743 871.031 147.209C871.338 146.676 871.784 146.256 872.371 145.949C872.958 145.629 873.671 145.469 874.511 145.469C875.084 145.469 875.604 145.549 876.071 145.709H879.731V146.969L877.871 147.049C878.258 147.609 878.451 148.256 878.451 148.989C878.451 149.643 878.291 150.236 877.971 150.769C877.664 151.303 877.218 151.729 876.631 152.049C876.058 152.356 875.351 152.509 874.511 152.509ZM874.511 151.129C875.218 151.129 875.778 150.949 876.191 150.589C876.618 150.216 876.831 149.683 876.831 148.989C876.831 148.309 876.618 147.789 876.191 147.429C875.778 147.056 875.218 146.869 874.511 146.869C873.791 146.869 873.218 147.056 872.791 147.429C872.378 147.789 872.171 148.309 872.171 148.989C872.171 149.683 872.378 150.216 872.791 150.589C873.218 150.949 873.791 151.129 874.511 151.129ZM871.591 156.909C871.591 157.576 871.871 158.069 872.431 158.389C872.991 158.723 873.691 158.889 874.531 158.889C875.358 158.889 876.018 158.709 876.511 158.349C877.018 157.989 877.271 157.509 877.271 156.909C877.271 156.483 877.098 156.109 876.751 155.789C876.404 155.483 875.764 155.303 874.831 155.249C874.098 155.196 873.464 155.129 872.931 155.049C872.384 155.343 872.024 155.656 871.851 155.989C871.678 156.336 871.591 156.643 871.591 156.909ZM885.096 155.869C884.149 155.869 883.309 155.656 882.576 155.229C881.842 154.789 881.262 154.183 880.836 153.409C880.422 152.636 880.216 151.723 880.216 150.669C880.216 149.629 880.422 148.723 880.836 147.949C881.249 147.163 881.822 146.556 882.556 146.129C883.302 145.689 884.162 145.469 885.136 145.469C886.096 145.469 886.922 145.689 887.616 146.129C888.322 146.556 888.862 147.123 889.236 147.829C889.609 148.536 889.796 149.296 889.796 150.109C889.796 150.256 889.789 150.403 889.776 150.549C889.776 150.696 889.776 150.863 889.776 151.049H881.876C881.916 151.809 882.089 152.443 882.396 152.949C882.716 153.443 883.109 153.816 883.576 154.069C884.056 154.323 884.562 154.449 885.096 154.449C885.789 154.449 886.369 154.289 886.836 153.969C887.302 153.649 887.642 153.216 887.856 152.669H889.516C889.249 153.589 888.736 154.356 887.976 154.969C887.229 155.569 886.269 155.869 885.096 155.869ZM885.096 146.889C884.296 146.889 883.582 147.136 882.956 147.629C882.342 148.109 881.989 148.816 881.896 149.749H888.136C888.096 148.856 887.789 148.156 887.216 147.649C886.642 147.143 885.936 146.889 885.096 146.889ZM891.422 155.629V145.709H892.942L893.062 147.149C893.382 146.616 893.809 146.203 894.342 145.909C894.876 145.616 895.476 145.469 896.142 145.469C896.929 145.469 897.602 145.629 898.162 145.949C898.736 146.269 899.176 146.756 899.482 147.409C899.829 146.809 900.302 146.336 900.902 145.989C901.516 145.643 902.176 145.469 902.882 145.469C904.069 145.469 905.016 145.829 905.722 146.549C906.429 147.256 906.782 148.349 906.782 149.829V155.629H905.122V150.009C905.122 148.983 904.916 148.209 904.502 147.689C904.089 147.169 903.496 146.909 902.722 146.909C901.922 146.909 901.256 147.223 900.722 147.849C900.202 148.463 899.942 149.343 899.942 150.489V155.629H898.262V150.009C898.262 148.983 898.056 148.209 897.642 147.689C897.229 147.169 896.636 146.909 895.862 146.909C895.076 146.909 894.416 147.223 893.882 147.849C893.362 148.463 893.102 149.343 893.102 150.489V155.629H891.422ZM913.173 155.869C912.226 155.869 911.386 155.656 910.653 155.229C909.92 154.789 909.34 154.183 908.913 153.409C908.5 152.636 908.293 151.723 908.293 150.669C908.293 149.629 908.5 148.723 908.913 147.949C909.326 147.163 909.9 146.556 910.633 146.129C911.38 145.689 912.24 145.469 913.213 145.469C914.173 145.469 915 145.689 915.693 146.129C916.4 146.556 916.94 147.123 917.313 147.829C917.686 148.536 917.873 149.296 917.873 150.109C917.873 150.256 917.866 150.403 917.853 150.549C917.853 150.696 917.853 150.863 917.853 151.049H909.953C909.993 151.809 910.166 152.443 910.473 152.949C910.793 153.443 911.186 153.816 911.653 154.069C912.133 154.323 912.64 154.449 913.173 154.449C913.866 154.449 914.446 154.289 914.913 153.969C915.38 153.649 915.72 153.216 915.933 152.669H917.593C917.326 153.589 916.813 154.356 916.053 154.969C915.306 155.569 914.346 155.869 913.173 155.869ZM913.173 146.889C912.373 146.889 911.66 147.136 911.033 147.629C910.42 148.109 910.066 148.816 909.973 149.749H916.213C916.173 148.856 915.866 148.156 915.293 147.649C914.72 147.143 914.013 146.889 913.173 146.889ZM919.5 155.629V145.709H921.02L921.12 147.489C921.44 146.863 921.9 146.369 922.5 146.009C923.1 145.649 923.78 145.469 924.54 145.469C925.713 145.469 926.646 145.829 927.34 146.549C928.046 147.256 928.4 148.349 928.4 149.829V155.629H926.72V150.009C926.72 147.943 925.866 146.909 924.16 146.909C923.306 146.909 922.593 147.223 922.02 147.849C921.46 148.463 921.18 149.343 921.18 150.489V155.629H919.5ZM934.265 155.629C933.358 155.629 932.645 155.409 932.125 154.969C931.605 154.529 931.345 153.736 931.345 152.589V147.129H929.625V145.709H931.345L931.565 143.329H933.025V145.709H935.945V147.129H933.025V152.589C933.025 153.216 933.152 153.643 933.405 153.869C933.658 154.083 934.105 154.189 934.745 154.189H935.785V155.629H934.265Z" fill="#181717"/>
<rect x="611.5" y="300.871" width="174.259" height="174.259" rx="87.1293" stroke="#181717"/>
<path d="M668.721 382V368H670.401V374.18H677.661V368H679.341V382H677.661V375.56H670.401V382H668.721ZM685.216 382.24C684.042 382.24 683.109 381.887 682.416 381.18C681.722 380.46 681.376 379.36 681.376 377.88V372.08H683.056V377.7C683.056 379.767 683.902 380.8 685.596 380.8C686.462 380.8 687.176 380.493 687.736 379.88C688.309 379.253 688.596 378.367 688.596 377.22V372.08H690.276V382H688.756L688.636 380.22C688.329 380.847 687.869 381.34 687.256 381.7C686.656 382.06 685.976 382.24 685.216 382.24ZM692.441 382V372.08H693.961L694.081 373.52C694.401 372.987 694.828 372.573 695.361 372.28C695.894 371.987 696.494 371.84 697.161 371.84C697.948 371.84 698.621 372 699.181 372.32C699.754 372.64 700.194 373.127 700.501 373.78C700.848 373.18 701.321 372.707 701.921 372.36C702.534 372.013 703.194 371.84 703.901 371.84C705.088 371.84 706.034 372.2 706.741 372.92C707.448 373.627 707.801 374.72 707.801 376.2V382H706.141V376.38C706.141 375.353 705.934 374.58 705.521 374.06C705.108 373.54 704.514 373.28 703.741 373.28C702.941 373.28 702.274 373.593 701.741 374.22C701.221 374.833 700.961 375.713 700.961 376.86V382H699.281V376.38C699.281 375.353 699.074 374.58 698.661 374.06C698.248 373.54 697.654 373.28 696.881 373.28C696.094 373.28 695.434 373.593 694.901 374.22C694.381 374.833 694.121 375.713 694.121 376.86V382H692.441ZM713.032 382.24C712.205 382.24 711.518 382.1 710.972 381.82C710.425 381.54 710.018 381.167 709.752 380.7C709.485 380.233 709.352 379.727 709.352 379.18C709.352 378.167 709.738 377.387 710.512 376.84C711.285 376.293 712.338 376.02 713.672 376.02H716.352V375.9C716.352 375.033 716.125 374.38 715.672 373.94C715.218 373.487 714.612 373.26 713.852 373.26C713.198 373.26 712.632 373.427 712.152 373.76C711.685 374.08 711.392 374.553 711.272 375.18H709.552C709.618 374.46 709.858 373.853 710.272 373.36C710.698 372.867 711.225 372.493 711.852 372.24C712.478 371.973 713.145 371.84 713.852 371.84C715.238 371.84 716.278 372.213 716.972 372.96C717.678 373.693 718.032 374.673 718.032 375.9V382H716.532L716.432 380.22C716.152 380.78 715.738 381.26 715.192 381.66C714.658 382.047 713.938 382.24 713.032 382.24ZM713.292 380.82C713.932 380.82 714.478 380.653 714.932 380.32C715.398 379.987 715.752 379.553 715.992 379.02C716.232 378.487 716.352 377.927 716.352 377.34V377.32H713.812C712.825 377.32 712.125 377.493 711.712 377.84C711.312 378.173 711.112 378.593 711.112 379.1C711.112 379.62 711.298 380.04 711.672 380.36C712.058 380.667 712.598 380.82 713.292 380.82ZM719.952 382V372.08H721.472L721.572 373.86C721.892 373.233 722.352 372.74 722.952 372.38C723.552 372.02 724.232 371.84 724.992 371.84C726.165 371.84 727.099 372.2 727.792 372.92C728.499 373.627 728.852 374.72 728.852 376.2V382H727.172V376.38C727.172 374.313 726.319 373.28 724.612 373.28C723.759 373.28 723.045 373.593 722.472 374.22C721.912 374.833 721.632 375.713 721.632 376.86V382H719.952ZM654.707 408V394H659.227C660.32 394 661.213 394.18 661.907 394.54C662.6 394.9 663.113 395.393 663.447 396.02C663.78 396.647 663.947 397.34 663.947 398.1C663.947 398.98 663.707 399.773 663.227 400.48C662.76 401.187 662.027 401.687 661.027 401.98L664.087 408H662.107L659.267 402.22H659.147H656.387V408H654.707ZM656.387 400.9H659.107C660.187 400.9 660.973 400.64 661.467 400.12C661.96 399.6 662.207 398.933 662.207 398.12C662.207 397.293 661.96 396.64 661.467 396.16C660.987 395.667 660.193 395.42 659.087 395.42H656.387V400.9ZM669.717 408.24C668.77 408.24 667.93 408.027 667.197 407.6C666.463 407.16 665.883 406.553 665.457 405.78C665.043 405.007 664.837 404.093 664.837 403.04C664.837 402 665.043 401.093 665.457 400.32C665.87 399.533 666.443 398.927 667.177 398.5C667.923 398.06 668.783 397.84 669.757 397.84C670.717 397.84 671.543 398.06 672.237 398.5C672.943 398.927 673.483 399.493 673.857 400.2C674.23 400.907 674.417 401.667 674.417 402.48C674.417 402.627 674.41 402.773 674.397 402.92C674.397 403.067 674.397 403.233 674.397 403.42H666.497C666.537 404.18 666.71 404.813 667.017 405.32C667.337 405.813 667.73 406.187 668.197 406.44C668.677 406.693 669.183 406.82 669.717 406.82C670.41 406.82 670.99 406.66 671.457 406.34C671.923 406.02 672.263 405.587 672.477 405.04H674.137C673.87 405.96 673.357 406.727 672.597 407.34C671.85 407.94 670.89 408.24 669.717 408.24ZM669.717 399.26C668.917 399.26 668.203 399.507 667.577 400C666.963 400.48 666.61 401.187 666.517 402.12H672.757C672.717 401.227 672.41 400.527 671.837 400.02C671.263 399.513 670.557 399.26 669.717 399.26ZM679.843 408.24C678.657 408.24 677.67 407.94 676.883 407.34C676.097 406.74 675.637 405.927 675.503 404.9H677.223C677.33 405.42 677.603 405.873 678.043 406.26C678.497 406.633 679.103 406.82 679.863 406.82C680.57 406.82 681.09 406.673 681.423 406.38C681.757 406.073 681.923 405.713 681.923 405.3C681.923 404.7 681.703 404.3 681.263 404.1C680.837 403.9 680.23 403.72 679.443 403.56C678.91 403.453 678.377 403.3 677.843 403.1C677.31 402.9 676.863 402.62 676.503 402.26C676.143 401.887 675.963 401.4 675.963 400.8C675.963 399.933 676.283 399.227 676.923 398.68C677.577 398.12 678.457 397.84 679.563 397.84C680.617 397.84 681.477 398.107 682.143 398.64C682.823 399.16 683.217 399.907 683.323 400.88H681.663C681.597 400.373 681.377 399.98 681.003 399.7C680.643 399.407 680.157 399.26 679.543 399.26C678.943 399.26 678.477 399.387 678.143 399.64C677.823 399.893 677.663 400.227 677.663 400.64C677.663 401.04 677.87 401.353 678.283 401.58C678.71 401.807 679.283 402 680.003 402.16C680.617 402.293 681.197 402.46 681.743 402.66C682.303 402.847 682.757 403.133 683.103 403.52C683.463 403.893 683.643 404.44 683.643 405.16C683.657 406.053 683.317 406.793 682.623 407.38C681.943 407.953 681.017 408.24 679.843 408.24ZM689.963 408.24C689.03 408.24 688.19 408.027 687.443 407.6C686.697 407.173 686.103 406.573 685.663 405.8C685.237 405.013 685.023 404.093 685.023 403.04C685.023 401.987 685.243 401.073 685.683 400.3C686.123 399.513 686.717 398.907 687.463 398.48C688.223 398.053 689.07 397.84 690.003 397.84C690.937 397.84 691.777 398.053 692.523 398.48C693.27 398.907 693.857 399.513 694.283 400.3C694.723 401.073 694.943 401.987 694.943 403.04C694.943 404.093 694.723 405.013 694.283 405.8C693.843 406.573 693.243 407.173 692.483 407.6C691.737 408.027 690.897 408.24 689.963 408.24ZM689.963 406.8C690.537 406.8 691.07 406.66 691.563 406.38C692.057 406.1 692.457 405.68 692.763 405.12C693.07 404.56 693.223 403.867 693.223 403.04C693.223 402.213 693.07 401.52 692.763 400.96C692.47 400.4 692.077 399.98 691.583 399.7C691.09 399.42 690.563 399.28 690.003 399.28C689.43 399.28 688.897 399.42 688.403 399.7C687.91 399.98 687.51 400.4 687.203 400.96C686.897 401.52 686.743 402.213 686.743 403.04C686.743 403.867 686.897 404.56 687.203 405.12C687.51 405.68 687.903 406.1 688.383 406.38C688.877 406.66 689.403 406.8 689.963 406.8ZM700.299 408.24C699.126 408.24 698.193 407.887 697.499 407.18C696.806 406.46 696.459 405.36 696.459 403.88V398.08H698.139V403.7C698.139 405.767 698.986 406.8 700.679 406.8C701.546 406.8 702.259 406.493 702.819 405.88C703.393 405.253 703.679 404.367 703.679 403.22V398.08H705.359V408H703.839L703.719 406.22C703.413 406.847 702.953 407.34 702.339 407.7C701.739 408.06 701.059 408.24 700.299 408.24ZM707.525 408V398.08H709.045L709.185 399.98C709.491 399.327 709.958 398.807 710.585 398.42C711.211 398.033 711.985 397.84 712.905 397.84V399.6H712.445C711.858 399.6 711.318 399.707 710.825 399.92C710.331 400.12 709.938 400.467 709.645 400.96C709.351 401.453 709.205 402.133 709.205 403V408H707.525ZM718.379 408.24C717.432 408.24 716.579 408.027 715.819 407.6C715.072 407.16 714.479 406.553 714.039 405.78C713.612 404.993 713.399 404.08 713.399 403.04C713.399 402 713.612 401.093 714.039 400.32C714.479 399.533 715.072 398.927 715.819 398.5C716.579 398.06 717.432 397.84 718.379 397.84C719.552 397.84 720.539 398.147 721.339 398.76C722.152 399.373 722.666 400.193 722.879 401.22H721.159C721.026 400.607 720.699 400.133 720.179 399.8C719.659 399.453 719.052 399.28 718.359 399.28C717.799 399.28 717.272 399.42 716.779 399.7C716.286 399.98 715.886 400.4 715.579 400.96C715.272 401.52 715.119 402.213 715.119 403.04C715.119 403.867 715.272 404.56 715.579 405.12C715.886 405.68 716.286 406.107 716.779 406.4C717.272 406.68 717.799 406.82 718.359 406.82C719.052 406.82 719.659 406.653 720.179 406.32C720.699 405.973 721.026 405.487 721.159 404.86H722.879C722.679 405.86 722.172 406.673 721.359 407.3C720.546 407.927 719.552 408.24 718.379 408.24ZM729.085 408.24C728.139 408.24 727.299 408.027 726.565 407.6C725.832 407.16 725.252 406.553 724.825 405.78C724.412 405.007 724.205 404.093 724.205 403.04C724.205 402 724.412 401.093 724.825 400.32C725.239 399.533 725.812 398.927 726.545 398.5C727.292 398.06 728.152 397.84 729.125 397.84C730.085 397.84 730.912 398.06 731.605 398.5C732.312 398.927 732.852 399.493 733.225 400.2C733.599 400.907 733.785 401.667 733.785 402.48C733.785 402.627 733.779 402.773 733.765 402.92C733.765 403.067 733.765 403.233 733.765 403.42H725.865C725.905 404.18 726.079 404.813 726.385 405.32C726.705 405.813 727.099 406.187 727.565 406.44C728.045 406.693 728.552 406.82 729.085 406.82C729.779 406.82 730.359 406.66 730.825 406.34C731.292 406.02 731.632 405.587 731.845 405.04H733.505C733.239 405.96 732.725 406.727 731.965 407.34C731.219 407.94 730.259 408.24 729.085 408.24ZM729.085 399.26C728.285 399.26 727.572 399.507 726.945 400C726.332 400.48 725.979 401.187 725.885 402.12H732.125C732.085 401.227 731.779 400.527 731.205 400.02C730.632 399.513 729.925 399.26 729.085 399.26ZM739.212 408.24C738.025 408.24 737.039 407.94 736.252 407.34C735.465 406.74 735.005 405.927 734.872 404.9H736.592C736.699 405.42 736.972 405.873 737.412 406.26C737.865 406.633 738.472 406.82 739.232 406.82C739.939 406.82 740.459 406.673 740.792 406.38C741.125 406.073 741.292 405.713 741.292 405.3C741.292 404.7 741.072 404.3 740.632 404.1C740.205 403.9 739.599 403.72 738.812 403.56C738.279 403.453 737.745 403.3 737.212 403.1C736.679 402.9 736.232 402.62 735.872 402.26C735.512 401.887 735.332 401.4 735.332 400.8C735.332 399.933 735.652 399.227 736.292 398.68C736.945 398.12 737.825 397.84 738.932 397.84C739.985 397.84 740.845 398.107 741.512 398.64C742.192 399.16 742.585 399.907 742.692 400.88H741.032C740.965 400.373 740.745 399.98 740.372 399.7C740.012 399.407 739.525 399.26 738.912 399.26C738.312 399.26 737.845 399.387 737.512 399.64C737.192 399.893 737.032 400.227 737.032 400.64C737.032 401.04 737.239 401.353 737.652 401.58C738.079 401.807 738.652 402 739.372 402.16C739.985 402.293 740.565 402.46 741.112 402.66C741.672 402.847 742.125 403.133 742.472 403.52C742.832 403.893 743.012 404.44 743.012 405.16C743.025 406.053 742.685 406.793 741.992 407.38C741.312 407.953 740.385 408.24 739.212 408.24Z" fill="#181717"/>
<rect x="953.251" y="553.242" width="174.259" height="174.259" rx="87.1293" stroke="#181717"/>
<path d="M1015.98 634.611C1014.96 634.611 1014.06 634.424 1013.3 634.051C1012.54 633.678 1011.96 633.158 1011.54 632.491C1011.13 631.824 1010.92 631.051 1010.92 630.171H1012.68C1012.68 630.718 1012.81 631.224 1013.06 631.691C1013.32 632.144 1013.68 632.511 1014.16 632.791C1014.66 633.058 1015.26 633.191 1015.98 633.191C1016.93 633.191 1017.66 632.964 1018.18 632.511C1018.7 632.058 1018.96 631.491 1018.96 630.811C1018.96 630.251 1018.84 629.804 1018.6 629.471C1018.36 629.124 1018.04 628.844 1017.62 628.631C1017.22 628.418 1016.76 628.231 1016.22 628.071C1015.7 627.911 1015.16 627.731 1014.58 627.531C1013.5 627.158 1012.7 626.698 1012.18 626.151C1011.66 625.591 1011.4 624.864 1011.4 623.971C1011.39 623.224 1011.56 622.564 1011.92 621.991C1012.28 621.404 1012.79 620.951 1013.44 620.631C1014.11 620.298 1014.9 620.131 1015.8 620.131C1016.7 620.131 1017.47 620.298 1018.12 620.631C1018.79 620.964 1019.3 621.424 1019.66 622.011C1020.04 622.598 1020.23 623.264 1020.24 624.011H1018.48C1018.48 623.624 1018.38 623.244 1018.18 622.871C1017.98 622.484 1017.68 622.171 1017.26 621.931C1016.86 621.691 1016.36 621.571 1015.74 621.571C1014.98 621.558 1014.36 621.751 1013.86 622.151C1013.38 622.551 1013.14 623.104 1013.14 623.811C1013.14 624.411 1013.31 624.871 1013.64 625.191C1013.99 625.511 1014.47 625.778 1015.08 625.991C1015.7 626.191 1016.4 626.424 1017.2 626.691C1017.87 626.931 1018.47 627.211 1019 627.531C1019.54 627.851 1019.95 628.264 1020.24 628.771C1020.55 629.278 1020.7 629.924 1020.7 630.711C1020.7 631.378 1020.53 632.011 1020.18 632.611C1019.84 633.198 1019.31 633.678 1018.6 634.051C1017.91 634.424 1017.04 634.611 1015.98 634.611ZM1026.01 634.611C1024.83 634.611 1023.9 634.258 1023.21 633.551C1022.51 632.831 1022.17 631.731 1022.17 630.251V624.451H1023.85V630.071C1023.85 632.138 1024.69 633.171 1026.39 633.171C1027.25 633.171 1027.97 632.864 1028.53 632.251C1029.1 631.624 1029.39 630.738 1029.39 629.591V624.451H1031.07V634.371H1029.55L1029.43 632.591C1029.12 633.218 1028.66 633.711 1028.05 634.071C1027.45 634.431 1026.77 634.611 1026.01 634.611ZM1033.23 638.771V624.451H1034.75L1034.91 626.091C1035.23 625.611 1035.69 625.178 1036.27 624.791C1036.87 624.404 1037.63 624.211 1038.55 624.211C1039.54 624.211 1040.4 624.438 1041.13 624.891C1041.87 625.344 1042.43 625.964 1042.83 626.751C1043.25 627.538 1043.45 628.431 1043.45 629.431C1043.45 630.431 1043.25 631.324 1042.83 632.111C1042.43 632.884 1041.86 633.498 1041.11 633.951C1040.38 634.391 1039.52 634.611 1038.53 634.611C1037.72 634.611 1036.99 634.444 1036.35 634.111C1035.73 633.778 1035.25 633.311 1034.91 632.711V638.771H1033.23ZM1038.35 633.151C1039.02 633.151 1039.61 632.998 1040.11 632.691C1040.62 632.371 1041.02 631.931 1041.31 631.371C1041.61 630.811 1041.75 630.158 1041.75 629.411C1041.75 628.664 1041.61 628.011 1041.31 627.451C1041.02 626.891 1040.62 626.458 1040.11 626.151C1039.61 625.831 1039.02 625.671 1038.35 625.671C1037.69 625.671 1037.1 625.831 1036.59 626.151C1036.09 626.458 1035.69 626.891 1035.39 627.451C1035.1 628.011 1034.95 628.664 1034.95 629.411C1034.95 630.158 1035.1 630.811 1035.39 631.371C1035.69 631.931 1036.09 632.371 1036.59 632.691C1037.1 632.998 1037.69 633.151 1038.35 633.151ZM1045.19 638.771V624.451H1046.71L1046.87 626.091C1047.19 625.611 1047.64 625.178 1048.23 624.791C1048.83 624.404 1049.59 624.211 1050.51 624.211C1051.5 624.211 1052.36 624.438 1053.09 624.891C1053.82 625.344 1054.39 625.964 1054.79 626.751C1055.2 627.538 1055.41 628.431 1055.41 629.431C1055.41 630.431 1055.2 631.324 1054.79 632.111C1054.39 632.884 1053.82 633.498 1053.07 633.951C1052.34 634.391 1051.48 634.611 1050.49 634.611C1049.68 634.611 1048.95 634.444 1048.31 634.111C1047.68 633.778 1047.2 633.311 1046.87 632.711V638.771H1045.19ZM1050.31 633.151C1050.98 633.151 1051.56 632.998 1052.07 632.691C1052.58 632.371 1052.98 631.931 1053.27 631.371C1053.56 630.811 1053.71 630.158 1053.71 629.411C1053.71 628.664 1053.56 628.011 1053.27 627.451C1052.98 626.891 1052.58 626.458 1052.07 626.151C1051.56 625.831 1050.98 625.671 1050.31 625.671C1049.64 625.671 1049.06 625.831 1048.55 626.151C1048.04 626.458 1047.64 626.891 1047.35 627.451C1047.06 628.011 1046.91 628.664 1046.91 629.411C1046.91 630.158 1047.06 630.811 1047.35 631.371C1047.64 631.931 1048.04 632.371 1048.55 632.691C1049.06 632.998 1049.64 633.151 1050.31 633.151ZM1057.15 634.371V619.971H1058.83V634.371H1057.15ZM1062.06 638.771L1064.52 633.411H1063.94L1060 624.451H1061.82L1065.1 632.171L1068.58 624.451H1070.32L1063.82 638.771H1062.06ZM1022.75 660.611C1021.38 660.611 1020.19 660.311 1019.19 659.711C1018.21 659.098 1017.44 658.251 1016.89 657.171C1016.35 656.078 1016.07 654.811 1016.07 653.371C1016.07 651.944 1016.35 650.691 1016.89 649.611C1017.44 648.518 1018.21 647.664 1019.19 647.051C1020.19 646.438 1021.38 646.131 1022.75 646.131C1024.35 646.131 1025.65 646.518 1026.65 647.291C1027.67 648.051 1028.31 649.118 1028.59 650.491H1026.73C1026.52 649.624 1026.08 648.931 1025.41 648.411C1024.76 647.878 1023.87 647.611 1022.75 647.611C1021.75 647.611 1020.88 647.844 1020.13 648.311C1019.39 648.764 1018.81 649.424 1018.39 650.291C1017.99 651.144 1017.79 652.171 1017.79 653.371C1017.79 654.571 1017.99 655.604 1018.39 656.471C1018.81 657.324 1019.39 657.984 1020.13 658.451C1020.88 658.904 1021.75 659.131 1022.75 659.131C1023.87 659.131 1024.76 658.878 1025.41 658.371C1026.08 657.851 1026.52 657.164 1026.73 656.311H1028.59C1028.31 657.658 1027.67 658.711 1026.65 659.471C1025.65 660.231 1024.35 660.611 1022.75 660.611ZM1030.31 660.371V645.971H1031.99V652.151C1032.32 651.538 1032.8 651.064 1033.41 650.731C1034.02 650.384 1034.69 650.211 1035.41 650.211C1036.56 650.211 1037.48 650.571 1038.17 651.291C1038.86 651.998 1039.21 653.091 1039.21 654.571V660.371H1037.55V654.751C1037.55 652.684 1036.72 651.651 1035.05 651.651C1034.18 651.651 1033.46 651.964 1032.87 652.591C1032.28 653.204 1031.99 654.084 1031.99 655.231V660.371H1030.31ZM1044.45 660.611C1043.63 660.611 1042.94 660.471 1042.39 660.191C1041.85 659.911 1041.44 659.538 1041.17 659.071C1040.91 658.604 1040.77 658.098 1040.77 657.551C1040.77 656.538 1041.16 655.758 1041.93 655.211C1042.71 654.664 1043.76 654.391 1045.09 654.391H1047.77V654.271C1047.77 653.404 1047.55 652.751 1047.09 652.311C1046.64 651.858 1046.03 651.631 1045.27 651.631C1044.62 651.631 1044.05 651.798 1043.57 652.131C1043.11 652.451 1042.81 652.924 1042.69 653.551H1040.97C1041.04 652.831 1041.28 652.224 1041.69 651.731C1042.12 651.238 1042.65 650.864 1043.27 650.611C1043.9 650.344 1044.57 650.211 1045.27 650.211C1046.66 650.211 1047.7 650.584 1048.39 651.331C1049.1 652.064 1049.45 653.044 1049.45 654.271V660.371H1047.95L1047.85 658.591C1047.57 659.151 1047.16 659.631 1046.61 660.031C1046.08 660.418 1045.36 660.611 1044.45 660.611ZM1044.71 659.191C1045.35 659.191 1045.9 659.024 1046.35 658.691C1046.82 658.358 1047.17 657.924 1047.41 657.391C1047.65 656.858 1047.77 656.298 1047.77 655.711V655.691H1045.23C1044.25 655.691 1043.55 655.864 1043.13 656.211C1042.73 656.544 1042.53 656.964 1042.53 657.471C1042.53 657.991 1042.72 658.411 1043.09 658.731C1043.48 659.038 1044.02 659.191 1044.71 659.191ZM1052.39 648.251C1052.06 648.251 1051.78 648.144 1051.55 647.931C1051.34 647.704 1051.23 647.424 1051.23 647.091C1051.23 646.771 1051.34 646.504 1051.55 646.291C1051.78 646.078 1052.06 645.971 1052.39 645.971C1052.71 645.971 1052.99 646.078 1053.21 646.291C1053.44 646.504 1053.55 646.771 1053.55 647.091C1053.55 647.424 1053.44 647.704 1053.21 647.931C1052.99 648.144 1052.71 648.251 1052.39 648.251ZM1051.55 660.371V650.451H1053.23V660.371H1051.55ZM1055.56 660.371V650.451H1057.08L1057.18 652.231C1057.5 651.604 1057.96 651.111 1058.56 650.751C1059.16 650.391 1059.84 650.211 1060.6 650.211C1061.77 650.211 1062.71 650.571 1063.4 651.291C1064.11 651.998 1064.46 653.091 1064.46 654.571V660.371H1062.78V654.751C1062.78 652.684 1061.93 651.651 1060.22 651.651C1059.37 651.651 1058.65 651.964 1058.08 652.591C1057.52 653.204 1057.24 654.084 1057.24 655.231V660.371H1055.56Z" fill="#181717"/>
<rect x="1083.82" y="455.988" width="174.259" height="174.259" rx="87.1293" stroke="#181717"/>
<path d="M1156.91 550.87C1155.47 550.87 1154.22 550.555 1153.17 549.925C1152.14 549.281 1151.33 548.392 1150.76 547.258C1150.18 546.11 1149.9 544.78 1149.9 543.268C1149.9 541.77 1150.18 540.454 1150.76 539.32C1151.33 538.172 1152.14 537.276 1153.17 536.632C1154.22 535.988 1155.47 535.666 1156.91 535.666C1158.59 535.666 1159.96 536.072 1161.01 536.884C1162.07 537.682 1162.75 538.802 1163.04 540.244H1161.09C1160.87 539.334 1160.4 538.606 1159.7 538.06C1159.02 537.5 1158.09 537.22 1156.91 537.22C1155.86 537.22 1154.94 537.465 1154.16 537.955C1153.38 538.431 1152.77 539.124 1152.33 540.034C1151.91 540.93 1151.7 542.008 1151.7 543.268C1151.7 544.528 1151.91 545.613 1152.33 546.523C1152.77 547.419 1153.38 548.112 1154.16 548.602C1154.94 549.078 1155.86 549.316 1156.91 549.316C1158.09 549.316 1159.02 549.05 1159.7 548.518C1160.4 547.972 1160.87 547.251 1161.09 546.355H1163.04C1162.75 547.769 1162.07 548.875 1161.01 549.673C1159.96 550.471 1158.59 550.87 1156.91 550.87ZM1164.95 550.618V535.918H1169.69C1170.84 535.918 1171.78 536.107 1172.51 536.485C1173.24 536.863 1173.77 537.381 1174.12 538.039C1174.47 538.697 1174.65 539.425 1174.65 540.223C1174.65 541.147 1174.4 541.98 1173.89 542.722C1173.4 543.464 1172.63 543.989 1171.58 544.297L1174.8 550.618H1172.72L1169.74 544.549H1169.61H1166.71V550.618H1164.95ZM1166.71 543.163H1169.57C1170.7 543.163 1171.53 542.89 1172.05 542.344C1172.56 541.798 1172.82 541.098 1172.82 540.244C1172.82 539.376 1172.56 538.69 1172.05 538.186C1171.54 537.668 1170.71 537.409 1169.55 537.409H1166.71V543.163ZM1176.77 550.618V535.918H1178.82L1184.12 546.166L1189.37 535.918H1191.44V550.618H1189.68V539.068L1184.77 548.518H1183.44L1178.53 539.089V550.618H1176.77Z" fill="#181717"/>
<rect x="1133.77" y="300.871" width="174.259" height="174.259" rx="87.1293" fill="#181717"/>
<rect x="1133.77" y="300.871" width="174.259" height="174.259" rx="87.1293" stroke="#181717"/>
<path d="M1172.02 382L1177.18 368H1178.96L1184.1 382H1182.32L1181.04 378.4H1175.08L1173.78 382H1172.02ZM1175.58 377.04H1180.54L1178.06 370.12L1175.58 377.04ZM1185.48 382V372.08H1187L1187.1 373.86C1187.42 373.233 1187.88 372.74 1188.48 372.38C1189.08 372.02 1189.76 371.84 1190.52 371.84C1191.69 371.84 1192.62 372.2 1193.32 372.92C1194.02 373.627 1194.38 374.72 1194.38 376.2V382H1192.7V376.38C1192.7 374.313 1191.84 373.28 1190.14 373.28C1189.28 373.28 1188.57 373.593 1188 374.22C1187.44 374.833 1187.16 375.713 1187.16 376.86V382H1185.48ZM1199.62 382.24C1198.8 382.24 1198.11 382.1 1197.56 381.82C1197.02 381.54 1196.61 381.167 1196.34 380.7C1196.08 380.233 1195.94 379.727 1195.94 379.18C1195.94 378.167 1196.33 377.387 1197.1 376.84C1197.88 376.293 1198.93 376.02 1200.26 376.02H1202.94V375.9C1202.94 375.033 1202.72 374.38 1202.26 373.94C1201.81 373.487 1201.2 373.26 1200.44 373.26C1199.79 373.26 1199.22 373.427 1198.74 373.76C1198.28 374.08 1197.98 374.553 1197.86 375.18H1196.14C1196.21 374.46 1196.45 373.853 1196.86 373.36C1197.29 372.867 1197.82 372.493 1198.44 372.24C1199.07 371.973 1199.74 371.84 1200.44 371.84C1201.83 371.84 1202.87 372.213 1203.56 372.96C1204.27 373.693 1204.62 374.673 1204.62 375.9V382H1203.12L1203.02 380.22C1202.74 380.78 1202.33 381.26 1201.78 381.66C1201.25 382.047 1200.53 382.24 1199.62 382.24ZM1199.88 380.82C1200.52 380.82 1201.07 380.653 1201.52 380.32C1201.99 379.987 1202.34 379.553 1202.58 379.02C1202.82 378.487 1202.94 377.927 1202.94 377.34V377.32H1200.4C1199.42 377.32 1198.72 377.493 1198.3 377.84C1197.9 378.173 1197.7 378.593 1197.7 379.1C1197.7 379.62 1197.89 380.04 1198.26 380.36C1198.65 380.667 1199.19 380.82 1199.88 380.82ZM1206.54 382V367.6H1208.22V382H1206.54ZM1211.46 386.4L1213.92 381.04H1213.34L1209.4 372.08H1211.22L1214.5 379.8L1217.98 372.08H1219.72L1213.22 386.4H1211.46ZM1224.81 382C1223.9 382 1223.19 381.78 1222.67 381.34C1222.15 380.9 1221.89 380.107 1221.89 378.96V373.5H1220.17V372.08H1221.89L1222.11 369.7H1223.57V372.08H1226.49V373.5H1223.57V378.96C1223.57 379.587 1223.7 380.013 1223.95 380.24C1224.2 380.453 1224.65 380.56 1225.29 380.56H1226.33V382H1224.81ZM1229.04 369.88C1228.71 369.88 1228.43 369.773 1228.2 369.56C1227.99 369.333 1227.88 369.053 1227.88 368.72C1227.88 368.4 1227.99 368.133 1228.2 367.92C1228.43 367.707 1228.71 367.6 1229.04 367.6C1229.36 367.6 1229.64 367.707 1229.86 367.92C1230.09 368.133 1230.2 368.4 1230.2 368.72C1230.2 369.053 1230.09 369.333 1229.86 369.56C1229.64 369.773 1229.36 369.88 1229.04 369.88ZM1228.2 382V372.08H1229.88V382H1228.2ZM1236.77 382.24C1235.82 382.24 1234.97 382.027 1234.21 381.6C1233.46 381.16 1232.87 380.553 1232.43 379.78C1232 378.993 1231.79 378.08 1231.79 377.04C1231.79 376 1232 375.093 1232.43 374.32C1232.87 373.533 1233.46 372.927 1234.21 372.5C1234.97 372.06 1235.82 371.84 1236.77 371.84C1237.94 371.84 1238.93 372.147 1239.73 372.76C1240.54 373.373 1241.06 374.193 1241.27 375.22H1239.55C1239.42 374.607 1239.09 374.133 1238.57 373.8C1238.05 373.453 1237.44 373.28 1236.75 373.28C1236.19 373.28 1235.66 373.42 1235.17 373.7C1234.68 373.98 1234.28 374.4 1233.97 374.96C1233.66 375.52 1233.51 376.213 1233.51 377.04C1233.51 377.867 1233.66 378.56 1233.97 379.12C1234.28 379.68 1234.68 380.107 1235.17 380.4C1235.66 380.68 1236.19 380.82 1236.75 380.82C1237.44 380.82 1238.05 380.653 1238.57 380.32C1239.09 379.973 1239.42 379.487 1239.55 378.86H1241.27C1241.07 379.86 1240.56 380.673 1239.75 381.3C1238.94 381.927 1237.94 382.24 1236.77 382.24ZM1246.82 382.24C1245.63 382.24 1244.64 381.94 1243.86 381.34C1243.07 380.74 1242.61 379.927 1242.48 378.9H1244.2C1244.3 379.42 1244.58 379.873 1245.02 380.26C1245.47 380.633 1246.08 380.82 1246.84 380.82C1247.54 380.82 1248.06 380.673 1248.4 380.38C1248.73 380.073 1248.9 379.713 1248.9 379.3C1248.9 378.7 1248.68 378.3 1248.24 378.1C1247.81 377.9 1247.2 377.72 1246.42 377.56C1245.88 377.453 1245.35 377.3 1244.82 377.1C1244.28 376.9 1243.84 376.62 1243.48 376.26C1243.12 375.887 1242.94 375.4 1242.94 374.8C1242.94 373.933 1243.26 373.227 1243.9 372.68C1244.55 372.12 1245.43 371.84 1246.54 371.84C1247.59 371.84 1248.45 372.107 1249.12 372.64C1249.8 373.16 1250.19 373.907 1250.3 374.88H1248.64C1248.57 374.373 1248.35 373.98 1247.98 373.7C1247.62 373.407 1247.13 373.26 1246.52 373.26C1245.92 373.26 1245.45 373.387 1245.12 373.64C1244.8 373.893 1244.64 374.227 1244.64 374.64C1244.64 375.04 1244.84 375.353 1245.26 375.58C1245.68 375.807 1246.26 376 1246.98 376.16C1247.59 376.293 1248.17 376.46 1248.72 376.66C1249.28 376.847 1249.73 377.133 1250.08 377.52C1250.44 377.893 1250.62 378.44 1250.62 379.16C1250.63 380.053 1250.29 380.793 1249.6 381.38C1248.92 381.953 1247.99 382.24 1246.82 382.24ZM1261.35 382.24C1260.39 382.24 1259.54 382.067 1258.81 381.72C1258.09 381.36 1257.52 380.867 1257.11 380.24C1256.71 379.6 1256.51 378.847 1256.51 377.98C1256.51 377.033 1256.78 376.193 1257.33 375.46C1257.89 374.713 1258.7 374.127 1259.75 373.7C1259.3 373.207 1258.97 372.74 1258.77 372.3C1258.57 371.847 1258.47 371.36 1258.47 370.84C1258.47 369.947 1258.78 369.213 1259.41 368.64C1260.05 368.053 1260.92 367.76 1262.03 367.76C1262.75 367.76 1263.38 367.9 1263.91 368.18C1264.44 368.447 1264.86 368.82 1265.15 369.3C1265.44 369.78 1265.58 370.327 1265.55 370.94H1263.89C1263.9 370.34 1263.72 369.887 1263.33 369.58C1262.96 369.273 1262.52 369.12 1262.03 369.12C1261.43 369.12 1260.96 369.28 1260.63 369.6C1260.3 369.92 1260.13 370.327 1260.13 370.82C1260.13 371.247 1260.24 371.66 1260.47 372.06C1260.71 372.46 1261.06 372.907 1261.53 373.4L1265.95 377.86C1266.34 377.3 1266.76 376.627 1267.21 375.84L1267.83 374.76H1269.61L1268.73 376.32C1268.14 377.373 1267.58 378.253 1267.05 378.96L1270.07 382H1267.95L1266.09 380.12C1265.38 380.88 1264.65 381.427 1263.89 381.76C1263.13 382.08 1262.28 382.24 1261.35 382.24ZM1258.19 377.92C1258.19 378.747 1258.48 379.433 1259.07 379.98C1259.66 380.527 1260.42 380.8 1261.37 380.8C1262.08 380.8 1262.72 380.667 1263.29 380.4C1263.88 380.12 1264.45 379.667 1265.01 379.04L1260.77 374.74C1259.89 375.087 1259.24 375.527 1258.81 376.06C1258.4 376.593 1258.19 377.213 1258.19 377.92ZM1180.13 408V394H1184.65C1185.74 394 1186.63 394.18 1187.33 394.54C1188.02 394.9 1188.53 395.393 1188.87 396.02C1189.2 396.647 1189.37 397.34 1189.37 398.1C1189.37 398.98 1189.13 399.773 1188.65 400.48C1188.18 401.187 1187.45 401.687 1186.45 401.98L1189.51 408H1187.53L1184.69 402.22H1184.57H1181.81V408H1180.13ZM1181.81 400.9H1184.53C1185.61 400.9 1186.39 400.64 1186.89 400.12C1187.38 399.6 1187.63 398.933 1187.63 398.12C1187.63 397.293 1187.38 396.64 1186.89 396.16C1186.41 395.667 1185.61 395.42 1184.51 395.42H1181.81V400.9ZM1195.14 408.24C1194.19 408.24 1193.35 408.027 1192.62 407.6C1191.88 407.16 1191.3 406.553 1190.88 405.78C1190.46 405.007 1190.26 404.093 1190.26 403.04C1190.26 402 1190.46 401.093 1190.88 400.32C1191.29 399.533 1191.86 398.927 1192.6 398.5C1193.34 398.06 1194.2 397.84 1195.18 397.84C1196.14 397.84 1196.96 398.06 1197.66 398.5C1198.36 398.927 1198.9 399.493 1199.28 400.2C1199.65 400.907 1199.84 401.667 1199.84 402.48C1199.84 402.627 1199.83 402.773 1199.82 402.92C1199.82 403.067 1199.82 403.233 1199.82 403.42H1191.92C1191.96 404.18 1192.13 404.813 1192.44 405.32C1192.76 405.813 1193.15 406.187 1193.62 406.44C1194.1 406.693 1194.6 406.82 1195.14 406.82C1195.83 406.82 1196.41 406.66 1196.88 406.34C1197.34 406.02 1197.68 405.587 1197.9 405.04H1199.56C1199.29 405.96 1198.78 406.727 1198.02 407.34C1197.27 407.94 1196.31 408.24 1195.14 408.24ZM1195.14 399.26C1194.34 399.26 1193.62 399.507 1193 400C1192.38 400.48 1192.03 401.187 1191.94 402.12H1198.18C1198.14 401.227 1197.83 400.527 1197.26 400.02C1196.68 399.513 1195.98 399.26 1195.14 399.26ZM1201.46 412.4V398.08H1202.98L1203.14 399.72C1203.46 399.24 1203.92 398.807 1204.5 398.42C1205.1 398.033 1205.86 397.84 1206.78 397.84C1207.77 397.84 1208.63 398.067 1209.36 398.52C1210.1 398.973 1210.66 399.593 1211.06 400.38C1211.48 401.167 1211.68 402.06 1211.68 403.06C1211.68 404.06 1211.48 404.953 1211.06 405.74C1210.66 406.513 1210.09 407.127 1209.34 407.58C1208.61 408.02 1207.75 408.24 1206.76 408.24C1205.95 408.24 1205.22 408.073 1204.58 407.74C1203.96 407.407 1203.48 406.94 1203.14 406.34V412.4H1201.46ZM1206.58 406.78C1207.25 406.78 1207.84 406.627 1208.34 406.32C1208.85 406 1209.25 405.56 1209.54 405C1209.84 404.44 1209.98 403.787 1209.98 403.04C1209.98 402.293 1209.84 401.64 1209.54 401.08C1209.25 400.52 1208.85 400.087 1208.34 399.78C1207.84 399.46 1207.25 399.3 1206.58 399.3C1205.92 399.3 1205.33 399.46 1204.82 399.78C1204.32 400.087 1203.92 400.52 1203.62 401.08C1203.33 401.64 1203.18 402.293 1203.18 403.04C1203.18 403.787 1203.33 404.44 1203.62 405C1203.92 405.56 1204.32 406 1204.82 406.32C1205.33 406.627 1205.92 406.78 1206.58 406.78ZM1217.94 408.24C1217.01 408.24 1216.17 408.027 1215.42 407.6C1214.68 407.173 1214.08 406.573 1213.64 405.8C1213.22 405.013 1213 404.093 1213 403.04C1213 401.987 1213.22 401.073 1213.66 400.3C1214.1 399.513 1214.7 398.907 1215.44 398.48C1216.2 398.053 1217.05 397.84 1217.98 397.84C1218.92 397.84 1219.76 398.053 1220.5 398.48C1221.25 398.907 1221.84 399.513 1222.26 400.3C1222.7 401.073 1222.92 401.987 1222.92 403.04C1222.92 404.093 1222.7 405.013 1222.26 405.8C1221.82 406.573 1221.22 407.173 1220.46 407.6C1219.72 408.027 1218.88 408.24 1217.94 408.24ZM1217.94 406.8C1218.52 406.8 1219.05 406.66 1219.54 406.38C1220.04 406.1 1220.44 405.68 1220.74 405.12C1221.05 404.56 1221.2 403.867 1221.2 403.04C1221.2 402.213 1221.05 401.52 1220.74 400.96C1220.45 400.4 1220.06 399.98 1219.56 399.7C1219.07 399.42 1218.54 399.28 1217.98 399.28C1217.41 399.28 1216.88 399.42 1216.38 399.7C1215.89 399.98 1215.49 400.4 1215.18 400.96C1214.88 401.52 1214.72 402.213 1214.72 403.04C1214.72 403.867 1214.88 404.56 1215.18 405.12C1215.49 405.68 1215.88 406.1 1216.36 406.38C1216.86 406.66 1217.38 406.8 1217.94 406.8ZM1224.66 408V398.08H1226.18L1226.32 399.98C1226.63 399.327 1227.09 398.807 1227.72 398.42C1228.35 398.033 1229.12 397.84 1230.04 397.84V399.6H1229.58C1228.99 399.6 1228.45 399.707 1227.96 399.92C1227.47 400.12 1227.07 400.467 1226.78 400.96C1226.49 401.453 1226.34 402.133 1226.34 403V408H1224.66ZM1235.25 408C1234.34 408 1233.63 407.78 1233.11 407.34C1232.59 406.9 1232.33 406.107 1232.33 404.96V399.5H1230.61V398.08H1232.33L1232.55 395.7H1234.01V398.08H1236.93V399.5H1234.01V404.96C1234.01 405.587 1234.13 406.013 1234.39 406.24C1234.64 406.453 1235.09 406.56 1235.73 406.56H1236.77V408H1235.25ZM1239.48 395.88C1239.15 395.88 1238.87 395.773 1238.64 395.56C1238.43 395.333 1238.32 395.053 1238.32 394.72C1238.32 394.4 1238.43 394.133 1238.64 393.92C1238.87 393.707 1239.15 393.6 1239.48 393.6C1239.8 393.6 1240.07 393.707 1240.3 393.92C1240.53 394.133 1240.64 394.4 1240.64 394.72C1240.64 395.053 1240.53 395.333 1240.3 395.56C1240.07 395.773 1239.8 395.88 1239.48 395.88ZM1238.64 408V398.08H1240.32V408H1238.64ZM1242.64 408V398.08H1244.16L1244.26 399.86C1244.58 399.233 1245.04 398.74 1245.64 398.38C1246.24 398.02 1246.92 397.84 1247.68 397.84C1248.86 397.84 1249.79 398.2 1250.48 398.92C1251.19 399.627 1251.54 400.72 1251.54 402.2V408H1249.86V402.38C1249.86 400.313 1249.01 399.28 1247.3 399.28C1246.45 399.28 1245.74 399.593 1245.16 400.22C1244.6 400.833 1244.32 401.713 1244.32 402.86V408H1242.64ZM1257.41 404.88C1256.85 404.88 1256.34 404.807 1255.87 404.66L1254.87 405.6C1255.02 405.707 1255.2 405.8 1255.41 405.88C1255.64 405.947 1255.96 406.013 1256.37 406.08C1256.78 406.133 1257.36 406.193 1258.11 406.26C1259.44 406.353 1260.4 406.66 1260.97 407.18C1261.54 407.7 1261.83 408.38 1261.83 409.22C1261.83 409.793 1261.67 410.34 1261.35 410.86C1261.04 411.38 1260.56 411.807 1259.91 412.14C1259.27 412.473 1258.44 412.64 1257.43 412.64C1256.54 412.64 1255.74 412.52 1255.05 412.28C1254.36 412.053 1253.82 411.7 1253.43 411.22C1253.04 410.753 1252.85 410.16 1252.85 409.44C1252.85 409.067 1252.95 408.66 1253.15 408.22C1253.35 407.793 1253.72 407.387 1254.27 407C1253.98 406.88 1253.72 406.753 1253.51 406.62C1253.31 406.473 1253.12 406.313 1252.95 406.14V405.68L1254.65 404C1253.86 403.333 1253.47 402.453 1253.47 401.36C1253.47 400.707 1253.62 400.113 1253.93 399.58C1254.24 399.047 1254.68 398.627 1255.27 398.32C1255.86 398 1256.57 397.84 1257.41 397.84C1257.98 397.84 1258.5 397.92 1258.97 398.08H1262.63V399.34L1260.77 399.42C1261.16 399.98 1261.35 400.627 1261.35 401.36C1261.35 402.013 1261.19 402.607 1260.87 403.14C1260.56 403.673 1260.12 404.1 1259.53 404.42C1258.96 404.727 1258.25 404.88 1257.41 404.88ZM1257.41 403.5C1258.12 403.5 1258.68 403.32 1259.09 402.96C1259.52 402.587 1259.73 402.053 1259.73 401.36C1259.73 400.68 1259.52 400.16 1259.09 399.8C1258.68 399.427 1258.12 399.24 1257.41 399.24C1256.69 399.24 1256.12 399.427 1255.69 399.8C1255.28 400.16 1255.07 400.68 1255.07 401.36C1255.07 402.053 1255.28 402.587 1255.69 402.96C1256.12 403.32 1256.69 403.5 1257.41 403.5ZM1254.49 409.28C1254.49 409.947 1254.77 410.44 1255.33 410.76C1255.89 411.093 1256.59 411.26 1257.43 411.26C1258.26 411.26 1258.92 411.08 1259.41 410.72C1259.92 410.36 1260.17 409.88 1260.17 409.28C1260.17 408.853 1260 408.48 1259.65 408.16C1259.3 407.853 1258.66 407.673 1257.73 407.62C1257 407.567 1256.36 407.5 1255.83 407.42C1255.28 407.713 1254.92 408.027 1254.75 408.36C1254.58 408.707 1254.49 409.013 1254.49 409.28Z" fill="white"/>
<rect x="661.449" y="455.988" width="174.259" height="174.259" rx="87.1293" stroke="#181717"/>
<path d="M731.617 550.358C730.591 550.358 729.697 550.171 728.937 549.798C728.177 549.424 727.591 548.904 727.177 548.238C726.764 547.571 726.557 546.798 726.557 545.918H728.317C728.317 546.464 728.444 546.971 728.697 547.438C728.951 547.891 729.317 548.258 729.797 548.538C730.291 548.804 730.897 548.938 731.617 548.938C732.564 548.938 733.297 548.711 733.817 548.258C734.337 547.804 734.597 547.238 734.597 546.558C734.597 545.998 734.477 545.551 734.237 545.218C733.997 544.871 733.671 544.591 733.257 544.378C732.857 544.164 732.391 543.978 731.857 543.818C731.337 543.658 730.791 543.478 730.217 543.278C729.137 542.904 728.337 542.444 727.817 541.898C727.297 541.338 727.037 540.611 727.037 539.718C727.024 538.971 727.197 538.311 727.557 537.738C727.917 537.151 728.424 536.698 729.077 536.378C729.744 536.044 730.531 535.878 731.437 535.878C732.331 535.878 733.104 536.044 733.757 536.378C734.424 536.711 734.937 537.171 735.297 537.758C735.671 538.344 735.864 539.011 735.877 539.758H734.117C734.117 539.371 734.017 538.991 733.817 538.618C733.617 538.231 733.311 537.918 732.897 537.678C732.497 537.438 731.991 537.318 731.377 537.318C730.617 537.304 729.991 537.498 729.497 537.898C729.017 538.298 728.777 538.851 728.777 539.558C728.777 540.158 728.944 540.618 729.277 540.938C729.624 541.258 730.104 541.524 730.717 541.738C731.331 541.938 732.037 542.171 732.837 542.438C733.504 542.678 734.104 542.958 734.637 543.278C735.171 543.598 735.584 544.011 735.877 544.518C736.184 545.024 736.337 545.671 736.337 546.458C736.337 547.124 736.164 547.758 735.817 548.358C735.471 548.944 734.944 549.424 734.237 549.798C733.544 550.171 732.671 550.358 731.617 550.358ZM741.32 550.358C740.493 550.358 739.806 550.218 739.26 549.938C738.713 549.658 738.306 549.284 738.04 548.818C737.773 548.351 737.64 547.844 737.64 547.298C737.64 546.284 738.026 545.504 738.8 544.958C739.573 544.411 740.626 544.138 741.96 544.138H744.64V544.018C744.64 543.151 744.413 542.498 743.96 542.058C743.506 541.604 742.9 541.378 742.14 541.378C741.486 541.378 740.92 541.544 740.44 541.878C739.973 542.198 739.68 542.671 739.56 543.298H737.84C737.906 542.578 738.146 541.971 738.56 541.478C738.986 540.984 739.513 540.611 740.14 540.358C740.766 540.091 741.433 539.958 742.14 539.958C743.526 539.958 744.566 540.331 745.26 541.078C745.966 541.811 746.32 542.791 746.32 544.018V550.118H744.82L744.72 548.338C744.44 548.898 744.026 549.378 743.48 549.778C742.946 550.164 742.226 550.358 741.32 550.358ZM741.58 548.938C742.22 548.938 742.766 548.771 743.22 548.438C743.686 548.104 744.04 547.671 744.28 547.138C744.52 546.604 744.64 546.044 744.64 545.458V545.438H742.1C741.113 545.438 740.413 545.611 740 545.958C739.6 546.291 739.4 546.711 739.4 547.218C739.4 547.738 739.586 548.158 739.96 548.478C740.346 548.784 740.886 548.938 741.58 548.938ZM748.24 550.118V535.718H749.92V550.118H748.24ZM756.534 550.358C755.587 550.358 754.747 550.144 754.014 549.718C753.28 549.278 752.7 548.671 752.274 547.898C751.86 547.124 751.654 546.211 751.654 545.158C751.654 544.118 751.86 543.211 752.274 542.438C752.687 541.651 753.26 541.044 753.994 540.618C754.74 540.178 755.6 539.958 756.574 539.958C757.534 539.958 758.36 540.178 759.054 540.618C759.76 541.044 760.3 541.611 760.674 542.318C761.047 543.024 761.234 543.784 761.234 544.598C761.234 544.744 761.227 544.891 761.214 545.038C761.214 545.184 761.214 545.351 761.214 545.538H753.314C753.354 546.298 753.527 546.931 753.834 547.438C754.154 547.931 754.547 548.304 755.014 548.558C755.494 548.811 756 548.938 756.534 548.938C757.227 548.938 757.807 548.778 758.274 548.458C758.74 548.138 759.08 547.704 759.294 547.158H760.954C760.687 548.078 760.174 548.844 759.414 549.458C758.667 550.058 757.707 550.358 756.534 550.358ZM756.534 541.378C755.734 541.378 755.02 541.624 754.394 542.118C753.78 542.598 753.427 543.304 753.334 544.238H759.574C759.534 543.344 759.227 542.644 758.654 542.138C758.08 541.631 757.374 541.378 756.534 541.378ZM766.66 550.358C765.474 550.358 764.487 550.058 763.7 549.458C762.914 548.858 762.454 548.044 762.32 547.018H764.04C764.147 547.538 764.42 547.991 764.86 548.378C765.314 548.751 765.92 548.938 766.68 548.938C767.387 548.938 767.907 548.791 768.24 548.498C768.574 548.191 768.74 547.831 768.74 547.418C768.74 546.818 768.52 546.418 768.08 546.218C767.654 546.018 767.047 545.838 766.26 545.678C765.727 545.571 765.194 545.418 764.66 545.218C764.127 545.018 763.68 544.738 763.32 544.378C762.96 544.004 762.78 543.518 762.78 542.918C762.78 542.051 763.1 541.344 763.74 540.798C764.394 540.238 765.274 539.958 766.38 539.958C767.434 539.958 768.294 540.224 768.96 540.758C769.64 541.278 770.034 542.024 770.14 542.998H768.48C768.414 542.491 768.194 542.098 767.82 541.818C767.46 541.524 766.974 541.378 766.36 541.378C765.76 541.378 765.294 541.504 764.96 541.758C764.64 542.011 764.48 542.344 764.48 542.758C764.48 543.158 764.687 543.471 765.1 543.698C765.527 543.924 766.1 544.118 766.82 544.278C767.434 544.411 768.014 544.578 768.56 544.778C769.12 544.964 769.574 545.251 769.92 545.638C770.28 546.011 770.46 546.558 770.46 547.278C770.474 548.171 770.134 548.911 769.44 549.498C768.76 550.071 767.834 550.358 766.66 550.358Z" fill="#181717"/>
<rect x="792.016" y="553.242" width="174.259" height="174.259" rx="87.1293" stroke="#181717"/>
<path d="M839.861 647.371V633.371H841.541V647.371H839.861ZM843.81 647.371V637.451H845.33L845.43 639.231C845.75 638.604 846.21 638.111 846.81 637.751C847.41 637.391 848.09 637.211 848.85 637.211C850.023 637.211 850.957 637.571 851.65 638.291C852.357 638.998 852.71 640.091 852.71 641.571V647.371H851.03V641.751C851.03 639.684 850.177 638.651 848.47 638.651C847.617 638.651 846.903 638.964 846.33 639.591C845.77 640.204 845.49 641.084 845.49 642.231V647.371H843.81ZM857.32 647.371L853.56 637.451H855.32L858.3 645.751L861.3 637.451H863.02L859.26 647.371H857.32ZM868.242 647.611C867.295 647.611 866.455 647.398 865.722 646.971C864.988 646.531 864.408 645.924 863.982 645.151C863.568 644.378 863.362 643.464 863.362 642.411C863.362 641.371 863.568 640.464 863.982 639.691C864.395 638.904 864.968 638.298 865.702 637.871C866.448 637.431 867.308 637.211 868.282 637.211C869.242 637.211 870.068 637.431 870.762 637.871C871.468 638.298 872.008 638.864 872.382 639.571C872.755 640.278 872.942 641.038 872.942 641.851C872.942 641.998 872.935 642.144 872.922 642.291C872.922 642.438 872.922 642.604 872.922 642.791H865.022C865.062 643.551 865.235 644.184 865.542 644.691C865.862 645.184 866.255 645.558 866.722 645.811C867.202 646.064 867.708 646.191 868.242 646.191C868.935 646.191 869.515 646.031 869.982 645.711C870.448 645.391 870.788 644.958 871.002 644.411H872.662C872.395 645.331 871.882 646.098 871.122 646.711C870.375 647.311 869.415 647.611 868.242 647.611ZM868.242 638.631C867.442 638.631 866.728 638.878 866.102 639.371C865.488 639.851 865.135 640.558 865.042 641.491H871.282C871.242 640.598 870.935 639.898 870.362 639.391C869.788 638.884 869.082 638.631 868.242 638.631ZM874.568 647.371V637.451H876.088L876.188 639.231C876.508 638.604 876.968 638.111 877.568 637.751C878.168 637.391 878.848 637.211 879.608 637.211C880.782 637.211 881.715 637.571 882.408 638.291C883.115 638.998 883.468 640.091 883.468 641.571V647.371H881.788V641.751C881.788 639.684 880.935 638.651 879.228 638.651C878.375 638.651 877.662 638.964 877.088 639.591C876.528 640.204 876.248 641.084 876.248 642.231V647.371H874.568ZM889.334 647.371C888.427 647.371 887.714 647.151 887.194 646.711C886.674 646.271 886.414 645.478 886.414 644.331V638.871H884.694V637.451H886.414L886.634 635.071H888.094V637.451H891.014V638.871H888.094V644.331C888.094 644.958 888.22 645.384 888.474 645.611C888.727 645.824 889.174 645.931 889.814 645.931H890.854V647.371H889.334ZM896.795 647.611C895.861 647.611 895.021 647.398 894.275 646.971C893.528 646.544 892.935 645.944 892.495 645.171C892.068 644.384 891.855 643.464 891.855 642.411C891.855 641.358 892.075 640.444 892.515 639.671C892.955 638.884 893.548 638.278 894.295 637.851C895.055 637.424 895.901 637.211 896.835 637.211C897.768 637.211 898.608 637.424 899.355 637.851C900.101 638.278 900.688 638.884 901.115 639.671C901.555 640.444 901.775 641.358 901.775 642.411C901.775 643.464 901.555 644.384 901.115 645.171C900.675 645.944 900.075 646.544 899.315 646.971C898.568 647.398 897.728 647.611 896.795 647.611ZM896.795 646.171C897.368 646.171 897.901 646.031 898.395 645.751C898.888 645.471 899.288 645.051 899.595 644.491C899.901 643.931 900.055 643.238 900.055 642.411C900.055 641.584 899.901 640.891 899.595 640.331C899.301 639.771 898.908 639.351 898.415 639.071C897.921 638.791 897.395 638.651 896.835 638.651C896.261 638.651 895.728 638.791 895.235 639.071C894.741 639.351 894.341 639.771 894.035 640.331C893.728 640.891 893.575 641.584 893.575 642.411C893.575 643.238 893.728 643.931 894.035 644.491C894.341 645.051 894.735 645.471 895.215 645.751C895.708 646.031 896.235 646.171 896.795 646.171ZM903.511 647.371V637.451H905.031L905.171 639.351C905.477 638.698 905.944 638.178 906.571 637.791C907.197 637.404 907.971 637.211 908.891 637.211V638.971H908.431C907.844 638.971 907.304 639.078 906.811 639.291C906.317 639.491 905.924 639.838 905.631 640.331C905.337 640.824 905.191 641.504 905.191 642.371V647.371H903.511ZM911.256 651.771L913.716 646.411H913.136L909.196 637.451H911.016L914.296 645.171L917.776 637.451H919.516L913.016 651.771H911.256Z" fill="#181717"/>
</svg>
